<svg width="24" height="24" viewBox="0 0 24 24" fill="none" xmlns="http://www.w3.org/2000/svg">
<g clip-path="url(#clip0_2064_927)">
<path d="M8.625 14.25C9.24632 14.25 9.75 13.7463 9.75 13.125C9.75 12.5037 9.24632 12 8.625 12C8.00368 12 7.5 12.5037 7.5 13.125C7.5 13.7463 8.00368 14.25 8.625 14.25Z" fill="#212121"/>
<path d="M15.375 14.25C15.9963 14.25 16.5 13.7463 16.5 13.125C16.5 12.5037 15.9963 12 15.375 12C14.7537 12 14.25 12.5037 14.25 13.125C14.25 13.7463 14.7537 14.25 15.375 14.25Z" fill="#212121"/>
<path d="M14.385 6.90842L14.8538 5.06811C14.9006 4.88295 15.0154 4.72223 15.1755 4.61798C15.3355 4.51373 15.5289 4.47361 15.7172 4.50561L19.0959 5.06248C19.2419 5.08618 19.3777 5.15206 19.4866 5.25201C19.5956 5.35197 19.6729 5.48162 19.7091 5.62498L22.4775 16.5347C22.5198 16.7062 22.5002 16.8871 22.4222 17.0456C22.3441 17.204 22.2127 17.3299 22.0509 17.4009L15.7697 20.1853C15.6744 20.2286 15.5712 20.2518 15.4665 20.2535C15.3619 20.2553 15.258 20.2355 15.1613 20.1954C15.0646 20.1553 14.9772 20.0958 14.9044 20.0205C14.8317 19.9452 14.7752 19.8558 14.7384 19.7578L13.7812 17.1619" stroke="#212121" stroke-linecap="round" stroke-linejoin="round"/>
<path d="M9.61432 6.90842L9.14557 5.06811C9.09875 4.88295 8.98389 4.72223 8.82386 4.61798C8.66384 4.51373 8.47041 4.47361 8.28213 4.50561L4.90338 5.06248C4.75744 5.08618 4.62162 5.15206 4.51267 5.25201C4.40372 5.35197 4.3264 5.48162 4.29025 5.62498L1.52182 16.5328C1.47952 16.7043 1.49912 16.8852 1.57715 17.0437C1.65519 17.2022 1.78665 17.328 1.94838 17.399L8.22963 20.1834C8.32494 20.2267 8.42813 20.2499 8.53279 20.2516C8.63745 20.2534 8.74135 20.2336 8.83804 20.1935C8.93474 20.1534 9.02216 20.0939 9.0949 20.0186C9.16764 19.9433 9.22413 19.8539 9.26088 19.7559L10.2181 17.1619" stroke="#212121" stroke-linecap="round" stroke-linejoin="round"/>
<path d="M7.5 7.34153C8.96628 6.9414 10.4801 6.74239 12 6.74996C13.5199 6.74239 15.0337 6.9414 16.5 7.34153" stroke="#212121" stroke-linecap="round" stroke-linejoin="round"/>
<path d="M16.5 16.6584C15.0337 17.0586 13.5199 17.2576 12 17.25C10.4801 17.2576 8.96628 17.0586 7.5 16.6584" stroke="#212121" stroke-linecap="round" stroke-linejoin="round"/>
</g>
<defs>
<clipPath id="clip0_2064_927">
<rect width="24" height="24" fill="white"/>
</clipPath>
</defs>
</svg>
