<svg width="24" height="24" viewBox="0 0 24 24" fill="none" xmlns="http://www.w3.org/2000/svg">
<g clip-path="url(#clip0_2064_922)">
<path d="M11.2341 5.25C10.7932 4.56008 10.1857 3.9923 9.46752 3.59907C8.74937 3.20583 7.94376 2.99981 7.125 3C6.7608 3.62967 6.54236 4.33297 6.48574 5.05817C6.42912 5.78338 6.53575 6.51206 6.79781 7.19062C6.28476 7.94614 6.00713 8.83677 6 9.75V10.5C6 11.6935 6.47411 12.8381 7.31802 13.682C8.16193 14.5259 9.30653 15 10.5 15H15C16.1935 15 17.3381 14.5259 18.182 13.682C19.0259 12.8381 19.5 11.6935 19.5 10.5V9.75C19.4929 8.83677 19.2152 7.94614 18.7022 7.19062C18.9642 6.51206 19.0709 5.78338 19.0143 5.05817C18.9576 4.33297 18.7392 3.62967 18.375 3C17.5562 2.99981 16.7506 3.20583 16.0325 3.59907C15.3143 3.9923 14.7068 4.56008 14.2659 5.25H11.2341Z" stroke="#212121" stroke-linecap="round" stroke-linejoin="round"/>
<path d="M9.75 21.75V18C9.75 17.2044 10.0661 16.4413 10.6287 15.8787C11.1913 15.3161 11.9544 15 12.75 15C13.5456 15 14.3087 15.3161 14.8713 15.8787C15.4339 16.4413 15.75 17.2044 15.75 18V21.75" stroke="#212121" stroke-linecap="round" stroke-linejoin="round"/>
<path d="M9.75 19.5H6.75C5.95435 19.5 5.19129 19.1839 4.62868 18.6213C4.06607 18.0587 3.75 17.2956 3.75 16.5C3.75 15.7044 3.43393 14.9413 2.87132 14.3787C2.30871 13.8161 1.54565 13.5 0.75 13.5" stroke="#212121" stroke-linecap="round" stroke-linejoin="round"/>
</g>
<defs>
<clipPath id="clip0_2064_922">
<rect width="24" height="24" fill="white"/>
</clipPath>
</defs>
</svg>
