<svg width="26" height="26" viewBox="0 0 26 26" fill="none" xmlns="http://www.w3.org/2000/svg">
<g clip-path="url(#clip0_3010_1325)">
<path d="M13.7577 -0.8125H12.0244V0.920833H13.7577V-0.8125Z" fill="#212121"/>
<path d="M10.291 4.38747V2.65413H12.0243V0.920801H10.291V-1.6792H8.55762V2.65413V4.38747V6.1208H10.291H12.0243V4.38747H10.291Z" fill="#212121"/>
<path d="M15.4911 2.65413V4.38747H13.7578V6.1208H15.4911H17.2245V4.38747V2.65413V-1.6792H15.4911V0.920801H13.7578V2.65413H15.4911Z" fill="#212121"/>
<path d="M19.8246 10.4542H18.0913V12.1875H16.3579V13.9208H15.4913H13.7579V7.85418V6.12085H12.0246V7.85418V13.9208H11.1579H9.42461V12.1875H7.69128V10.4542H5.95794H4.22461V13.9208H5.95794V15.6542H7.69128V17.3875H9.42461V19.1208H12.0246V27.7875H13.7579V19.1208H16.3579V17.3875H18.0913V15.6542H19.8246V13.9208H21.5579V10.4542H19.8246Z" fill="#212121"/>
</g>
<defs>
<clipPath id="clip0_3010_1325">
<rect width="26" height="26" fill="white"/>
</clipPath>
</defs>
</svg>
