<svg width="30" height="24" viewBox="0 0 30 24" fill="none" xmlns="http://www.w3.org/2000/svg">
<path d="M22.3327 1H7.66602V2.83333H22.3327V1Z" fill="#212121" stroke="#212121" stroke-width="0.3"/>
<path d="M22.3327 21.1667H7.66602V23H22.3327V21.1667Z" fill="#212121" stroke="#212121" stroke-width="0.3"/>
<path d="M7.66634 2.83331H5.83301V8.33331H7.66634V2.83331Z" fill="#212121" stroke="#212121" stroke-width="0.3"/>
<path d="M24.1663 15.6667H22.333V21.1667H24.1663V15.6667Z" fill="#212121" stroke="#212121" stroke-width="0.3"/>
<path d="M18.6663 6.5H16.833V8.33333H18.6663V6.5Z" fill="#212121" stroke="#212121" stroke-width="0.3"/>
<path d="M20.4993 8.33331H18.666V10.1666H20.4993V8.33331Z" fill="#212121" stroke="#212121" stroke-width="0.3"/>
<path d="M24.166 4.66665V2.83331H22.3327V4.66665H18.666V6.49998H27.8327V4.66665H24.166Z" fill="#212121" stroke="#212121" stroke-width="0.3"/>
<path d="M29.6663 6.5H27.833V8.33333H29.6663V6.5Z" fill="#212121" stroke="#212121" stroke-width="0.3"/>
<path d="M22.3333 10.1667H20.5V12H22.3333V10.1667Z" fill="#212121" stroke="#212121" stroke-width="0.3"/>
<path d="M27.8333 8.33331H26V10.1666H27.8333V8.33331Z" fill="#212121" stroke="#212121" stroke-width="0.3"/>
<path d="M25.9993 10.1667H24.166V12H25.9993V10.1667Z" fill="#212121" stroke="#212121" stroke-width="0.3"/>
<path d="M24.1663 12H22.333V13.8333H24.1663V12Z" fill="#212121" stroke="#212121" stroke-width="0.3"/>
<path d="M13.1663 15.6667H11.333V17.5H13.1663V15.6667Z" fill="#212121" stroke="#212121" stroke-width="0.3"/>
<path d="M11.3333 13.8333H9.5V15.6666H11.3333V13.8333Z" fill="#212121" stroke="#212121" stroke-width="0.3"/>
<path d="M11.3327 17.5H2.16602V19.3333H5.83268V21.1667H7.66602V19.3333H11.3327V17.5Z" fill="#212121" stroke="#212121" stroke-width="0.3"/>
<path d="M2.16634 15.6667H0.333008V17.5H2.16634V15.6667Z" fill="#212121" stroke="#212121" stroke-width="0.3"/>
<path d="M9.49935 12H7.66602V13.8333H9.49935V12Z" fill="#212121" stroke="#212121" stroke-width="0.3"/>
<path d="M3.99935 13.8333H2.16602V15.6666H3.99935V13.8333Z" fill="#212121" stroke="#212121" stroke-width="0.3"/>
<path d="M5.83333 12H4V13.8333H5.83333V12Z" fill="#212121" stroke="#212121" stroke-width="0.3"/>
<path d="M7.66634 10.1667H5.83301V12H7.66634V10.1667Z" fill="#212121" stroke="#212121" stroke-width="0.3"/>
</svg>
