<svg width="25" height="30" viewBox="0 0 25 30" fill="none" xmlns="http://www.w3.org/2000/svg">
<path d="M11.1036 24.6239L12.2451 25.283L12.9023 24.1446L11.7609 23.4856L11.1036 24.6239Z" fill="#212121" stroke="#212121" stroke-width="0.5"/>
<path d="M4.56664 25.4028L6.84961 26.7208L7.50684 25.5825L5.22387 24.2644L4.56664 25.4028Z" fill="#212121" stroke="#212121" stroke-width="0.5"/>
<path d="M3.11242 20.0106L4.25391 20.6697L4.91114 19.5313L3.76965 18.8723L3.11242 20.0106Z" fill="#212121" stroke="#212121" stroke-width="0.5"/>
<path d="M4.25461 20.6696L3.59738 21.8079L4.73886 22.467L4.08163 23.6053L5.22312 24.2644L5.88035 23.126L8.16332 24.4441L7.50609 25.5824L8.64758 26.2415L9.30481 25.1031L10.4463 25.7622L11.1035 24.6238L4.25461 20.6696Z" fill="#212121" stroke="#212121" stroke-width="0.5"/>
<path d="M20.9611 7.5486L22.1025 8.20764L22.7598 7.06928L21.6183 6.41025L20.9611 7.5486Z" fill="#212121" stroke="#212121" stroke-width="0.5"/>
<path d="M14.7692 2.45593L21.6182 6.41016L22.2754 5.2718L15.4265 1.31757L14.7692 2.45593Z" fill="#212121" stroke="#212121" stroke-width="0.5"/>
<path d="M12.9718 2.9352L14.1133 3.59424L14.7705 2.45588L13.629 1.79684L12.9718 2.9352Z" fill="#212121" stroke="#212121" stroke-width="0.5"/>
<path d="M3.77057 18.8724L4.4278 17.734L13.5597 23.0063L12.9025 24.1447L14.0439 24.8037L23.2452 8.86669L22.1037 8.20765L21.4465 9.34601L12.3146 4.07371L12.9718 2.93535L11.8303 2.27631L2.62908 18.2133L3.77057 18.8724ZM20.7892 10.4844L14.2169 21.868L11.934 20.5499L18.5063 9.16629L20.7892 10.4844ZM17.3648 8.50725L10.7925 19.8908L8.50949 18.5728L15.0818 7.18918L17.3648 8.50725ZM11.6574 5.21207L13.9403 6.53014L7.36801 17.9137L5.08503 16.5957L11.6574 5.21207Z" fill="#212121" stroke="#212121" stroke-width="0.5"/>
</svg>
