<svg width="21" height="27" viewBox="0 0 21 27" fill="none" xmlns="http://www.w3.org/2000/svg">
<path d="M21 3.78V13.2319H19.0892V3.78H21ZM17.1815 18.9H19.0895L19.0892 13.2319L17.1815 13.2316V18.9ZM19.0892 3.78V1.88845H17.1812V3.78H19.0892ZM13.3627 18.9V13.2316H11.4519V18.9H9.5439V13.2316H7.63658V18.9H3.81498V20.7916H17.1815V18.9H13.3627ZM13.3627 13.2316H15.2739V5.67155H13.3627V7.56H11.4519V9.44845H13.3627V13.2316ZM5.72578 23.22V25.1116H7.63693V27H13.3627V25.1116H15.2739V23.22H5.72578ZM11.4523 11.34L11.4519 9.44845H9.54425V11.34H11.4523ZM7.63693 9.44845H9.54425V7.56H7.63693V5.67155H5.72578V13.2316H7.63658L7.63693 9.44845ZM17.1812 1.88845L17.1815 0H3.81498V1.88845H17.1812ZM3.81498 13.2316H1.90732V18.9H3.81498V13.2316ZM3.81498 1.88845H1.90732V3.78H3.81498V1.88845ZM1.90732 3.78H0V13.2319L1.90732 13.2316V3.78Z" fill="#212121"/>
</svg>
