<svg width="27" height="29" viewBox="0 0 27 29" fill="none" xmlns="http://www.w3.org/2000/svg">
<path d="M15.9734 11.6851L15.7724 12.2866H11L11.1973 11.6851H15.9734ZM14.0425 17L11.0607 13.8452L11.0531 13.4043H12.3581C12.7527 13.4043 13.089 13.353 13.3672 13.2505C13.6454 13.1457 13.8579 12.9907 14.0046 12.7856C14.1538 12.5806 14.2284 12.3265 14.2284 12.0234C14.2284 11.5768 14.0728 11.2259 13.7618 10.9707C13.4532 10.7132 13.0106 10.5845 12.434 10.5845H11L11.1973 10H12.434C12.9904 10 13.4557 10.0866 13.83 10.2598C14.2069 10.4329 14.4901 10.6722 14.6798 10.9775C14.872 11.2806 14.9681 11.6292 14.9681 12.0234C14.9681 12.3926 14.8758 12.7253 14.6912 13.0215C14.5091 13.3154 14.2271 13.549 13.8452 13.7222C13.4659 13.8931 12.9815 13.9785 12.3923 13.9785H12.1191L14.9264 16.9487V17H14.0425ZM16 10L15.8027 10.6016L11.7815 10.5845L11.9636 10H16Z" fill="#212121" stroke="#212121" stroke-width="0.25"/>
<path d="M20.2136 2.54749L20.2136 1.27639L17.6025 1.27639L17.6025 4.95262e-06L8.72796 5.34053e-06L8.72796 1.18095L6.28479 1.18095L6.28479 2.45204L5.01369 2.45204L5.01369 3.64181L3.7426 3.64181L3.7426 4.91291L2.48032 4.91291L2.48032 6.18401L1.20923 6.18401L1.20923 8.79513L-8.83186e-07 8.79513L-3.84447e-07 20.2049L1.11374 20.2049L1.11374 22.6481L2.38483 22.6481L2.38483 23.9192L3.6471 23.9192L3.6471 25.1903L4.9182 25.1903L4.9182 26.4526L6.1893 26.4526L6.1893 27.7237L8.73325 27.7237L8.73325 29.0001L17.6078 29.0001L17.6078 27.8191L20.1234 27.8191L20.1234 26.548L21.3945 26.548L21.3945 25.2857L22.6656 25.2857L22.6656 24.0147L23.9279 24.0147L23.9279 22.7436L25.199 22.7436L25.199 20.1996L26.4082 20.1996L26.4082 8.78978L25.2945 8.78978L25.2945 6.27411L24.0234 6.27411L24.0234 5.00302L22.7611 5.00302L22.7611 3.73192L21.49 3.73192L21.49 2.54215L20.2189 2.54215L20.2136 2.54749ZM19.982 2.59169L19.982 3.79562L21.2531 3.79562L21.2531 5.05789L22.5154 5.05789L22.5154 6.32016L23.7864 6.32016L23.7864 8.86412L25.0363 8.86412L25.0363 17.53L23.8784 17.53L23.8784 20.0739L22.6073 20.0739L22.6073 21.2637L21.345 21.2637L21.345 22.526L20.0827 22.526L20.0827 23.7971L17.6113 23.7971L17.6113 25.047L8.87255 25.047L8.87255 23.889L6.41521 23.889L6.41521 22.6179L5.14411 22.6179L5.14411 21.3556L3.88184 21.3556L3.88184 20.1659L2.61075 20.1659L2.61075 17.6219L1.36088 17.6219L1.36088 8.95604L2.51883 8.95604L2.51883 6.42625L3.78993 6.42625L3.78993 5.15515L5.0522 5.15515L5.0522 3.89288L6.31447 3.89288L6.31447 2.68895L8.85842 2.68895L8.85842 1.43908L17.5243 1.43907L17.5243 2.59703L19.9816 2.59703L19.982 2.59169Z" fill="#212121"/>
<path d="M7.51577 5.01705L7.51577 6.27932L6.2535 6.27932L6.2535 7.54159L4.98241 7.54159L4.98241 10.0803L3.75195 10.0803L3.75195 16.4253L5.01065 16.4253L5.01065 18.9551L6.28174 18.9551L6.28174 20.2262L7.54401 20.2262L7.54401 21.416L10.0014 21.416L10.0014 22.6517L16.4152 22.6517L16.4152 21.4019L18.8867 21.4019L18.8867 20.1979L20.1489 20.1979L20.1489 18.9268L21.42 18.9268L21.42 16.397L22.6469 16.397L22.6469 10.052L21.397 10.052L21.397 7.52218L20.1348 7.52218L20.1348 6.25108L18.8637 6.25108L18.8637 4.98881L16.3922 4.98881L16.3922 3.74953L9.98922 3.74953L9.98922 5.0171L7.51577 5.01705ZM16.3129 5.08954L16.3129 6.32529L18.7843 6.32529L18.7843 7.58756L20.0554 7.58756L20.0554 10.1262L21.3053 10.1262L21.3053 16.3314L20.0749 16.3314L20.0749 18.8612L18.8038 18.8612L18.8038 20.1323L16.3464 20.1323L16.3464 21.3186L10.0882 21.3186L10.0882 20.1518L7.61679 20.1518L7.61679 18.8895L6.34569 18.8895L6.34569 16.3509L5.09582 16.3509L5.09582 10.1456L6.32628 10.1456L6.32628 7.61584L7.59737 7.61584L7.59737 6.34475L10.0547 6.34475L10.0547 5.09135L16.3129 5.09135L16.3129 5.08954Z" fill="#212121"/>
</svg>
