<svg width="24" height="24" viewBox="0 0 24 24" fill="none" xmlns="http://www.w3.org/2000/svg">
<path d="M18 0H6V2H18V0Z" fill="#212121"/>
<path d="M18 22H6V24H18V22Z" fill="#212121"/>
<path d="M6 3H3V6H6V3Z" fill="#212121"/>
<path d="M6 18H3V21H6V18Z" fill="#212121"/>
<path d="M21 3H18V6H21V3Z" fill="#212121"/>
<path d="M21 18H18V21H21V18Z" fill="#212121"/>
<path d="M1.99945 6H0.00054833C0.00244751 10.0023 -0.00135094 13.9977 0.000548235 18H1.99945C1.99755 13.9977 2.00135 10.0023 1.99945 6Z" fill="#212121"/>
<path d="M23.9995 6H22.0005C22.0024 10.0023 21.9986 13.9977 22.0005 18H23.9995C23.9976 13.9977 24.0014 10.0023 23.9995 6Z" fill="#212121"/>
<path d="M17 10.3452H13.6635V7H10.3318V10.3452H7V13.6726H10.3318V17H13.6635V13.6726H17V10.3452Z" fill="#212121"/>
</svg>
