<svg width="25" height="28" viewBox="0 0 25 28" fill="none" xmlns="http://www.w3.org/2000/svg">
<path d="M23.5297 5.89194H22.057V4.41895H20.5874V2.94597H19.1177H17.6478V1.47298H16.1781H14.7085V0H13.2388H11.7599H10.2903V1.47298H8.82095H7.35131V2.94597H5.88166H4.41202V4.41895H2.94238V5.89194H1.46964H0V7.36492V8.8379V10.3109V11.7839V13.2599V14.7391V16.2124V17.6854V19.1584V20.6314V22.1044H1.46964H2.94238V23.5773H4.41202V25.0537H5.88166H7.35131V26.527H8.82095H10.2906V28H11.7602H13.2391H14.7088V26.527H16.1784H17.6481V25.0531H19.118H20.5877V23.5767H22.0576V22.1037H23.5304H25V20.6307V19.1578V17.6848V16.2118V14.7391V13.2599V11.7839V10.3109V8.8379V7.36492V5.89194H23.5297ZM5.88166 5.89194V4.41895H7.35131H8.82095V2.94597H10.2906H11.7602V1.47298H13.2391V2.94597H14.7088H16.1784V4.41895H17.6481H19.118V5.89194H20.5877V7.36492V8.8379H19.118H17.6481V10.3109H16.1784V11.7839H14.7088H13.2391V13.2599H11.7602V11.7839H10.2906H8.82095V10.3109H7.35131V8.8379H5.88166H4.41202V7.36492V5.89194H5.88166ZM8.82095 25.0531V23.5767H7.35131H5.88166V22.1037H4.41202V20.6307H2.94238H1.46964V19.1578V17.6848V16.2118V14.7391V13.2599V11.7839V10.3109V8.8379H2.94238V10.3109H4.41202H5.88166V11.7839H7.35131V13.2599H8.82095H10.2906V14.7391H11.7602V16.2124V17.6854V19.1584V20.6314V22.1044V23.5773V25.0537H10.2906H8.82095V25.0531ZM23.5297 10.3109V11.7839V13.2599V14.7391V16.2124V17.6854V19.1584V20.6314H22.057H20.5874V22.1044H19.1177V23.5773H17.6478H16.1781V25.0537H14.7085H13.2388V23.5773V22.1044V20.6314V19.1584V17.6854V16.2124V14.7391H14.7085V13.2599H16.1781H17.6478V11.7839H19.1177V10.3109H20.5874H22.0573V8.8379H23.53L23.5297 10.3109Z" fill="#212121"/>
</svg>
