<svg width="32" height="20" viewBox="0 0 32 20" fill="none" xmlns="http://www.w3.org/2000/svg">
<path d="M4 0H22V2H16V6H24V4H26V6H30V8H16V10H14V8H10V6H14V2H10V6H8V2H4V0Z" fill="#212121"/>
<path d="M2 6V2H4V6H2Z" fill="#212121"/>
<path d="M6 16V14H8V16H6Z" fill="#212121"/>
<path fill-rule="evenodd" clip-rule="evenodd" d="M30 14H28V12H26V10H20V12H18V14H12V12H10V10H4V12H2V6H0V14H2V18H4V20H10V18H12V16H18V18H20V20H26V18H28V16H30V14ZM24 18H22V16H24V18ZM24 14H26V16H24V14ZM24 14V12H22V14H20V16H22V14H24ZM6 18H8V16H10V14H8V12H6V14H4V16H6V18Z" fill="#212121"/>
<path d="M30 14H32V8H30V14Z" fill="#212121"/>
<path d="M24 4H22V2H24V4Z" fill="#212121"/>
</svg>
