<svg width="27" height="23" viewBox="0 0 27 23" fill="none" xmlns="http://www.w3.org/2000/svg">
<path d="M24.4984 2.55322H22.998V4.05361H24.4984V2.55322Z" fill="#212121" stroke="#212121" stroke-width="0.2"/>
<path d="M26.0004 4.05359H24.5V5.55397H26.0004V4.05359Z" fill="#212121" stroke="#212121" stroke-width="0.2"/>
<path d="M22.9994 1.05286H21.499V2.55324H22.9994V1.05286Z" fill="#212121" stroke="#212121" stroke-width="0.2"/>
<path d="M6.49453 17.5571H4.99414V19.0575H6.49453V17.5571Z" fill="#212121" stroke="#212121" stroke-width="0.2"/>
<path d="M7.99453 19.0575H6.49414V20.5579H7.99453V19.0575Z" fill="#212121" stroke="#212121" stroke-width="0.2"/>
<path d="M4.99453 16.0566H3.49414V17.557H4.99453V16.0566Z" fill="#212121" stroke="#212121" stroke-width="0.2"/>
<path d="M3.49355 14.5564H1.99316V16.0568H3.49355V14.5564Z" fill="#212121" stroke="#212121" stroke-width="0.2"/>
<path d="M1.99355 13.0559H0.493164V14.5563H1.99355V13.0559Z" fill="#212121" stroke="#212121" stroke-width="0.2"/>
<path d="M9.4955 14.5564H7.99512V16.0568H9.4955V14.5564Z" fill="#212121" stroke="#212121" stroke-width="0.2"/>
<path d="M7.99453 13.0559H6.49414V14.5563H7.99453V13.0559Z" fill="#212121" stroke="#212121" stroke-width="0.2"/>
<path d="M6.49453 11.5555H4.99414V13.0559H6.49453V11.5555Z" fill="#212121" stroke="#212121" stroke-width="0.2"/>
<path d="M4.99453 10.0552H3.49414V11.5556H4.99453V10.0552Z" fill="#212121" stroke="#212121" stroke-width="0.2"/>
<path d="M3.49355 11.5555H1.99316V13.0559H3.49355V11.5555Z" fill="#212121" stroke="#212121" stroke-width="0.2"/>
<path d="M24.4984 5.55408H22.998V7.05446H24.4984V5.55408Z" fill="#212121" stroke="#212121" stroke-width="0.2"/>
<path d="M22.9994 7.05444H21.499V8.55483H22.9994V7.05444Z" fill="#212121" stroke="#212121" stroke-width="0.2"/>
<path d="M21.5219 8.57715H20.0215V10.0775H21.5219V8.57715Z" fill="#212121" stroke="#212121" stroke-width="0.2"/>
<path d="M20.0219 10.0775H18.5215V11.5779H20.0219V10.0775Z" fill="#212121" stroke="#212121" stroke-width="0.2"/>
<path d="M18.4867 11.5435H16.9863V13.0438H18.4867V11.5435Z" fill="#212121" stroke="#212121" stroke-width="0.2"/>
<path d="M16.9848 13.0438H15.4844V14.5442H16.9848V13.0438Z" fill="#212121" stroke="#212121" stroke-width="0.2"/>
<path d="M15.5209 14.5787H14.0205V16.0791H15.5209V14.5787Z" fill="#212121" stroke="#212121" stroke-width="0.2"/>
<path d="M14.0199 16.079H12.5195V17.5794H14.0199V16.079Z" fill="#212121" stroke="#212121" stroke-width="0.2"/>
<path d="M12.4838 17.545H10.9834V19.0454H12.4838V17.545Z" fill="#212121" stroke="#212121" stroke-width="0.2"/>
<path d="M21.4994 2.55322H19.999V4.05361H21.4994V2.55322Z" fill="#212121" stroke="#212121" stroke-width="0.2"/>
<path d="M19.9975 4.05359H18.4971V5.55397H19.9975V4.05359Z" fill="#212121" stroke="#212121" stroke-width="0.2"/>
<path d="M18.4984 5.55408H16.998V7.05446H18.4984V5.55408Z" fill="#212121" stroke="#212121" stroke-width="0.2"/>
<path d="M16.9984 7.05444H15.498V8.55483H16.9984V7.05444Z" fill="#212121" stroke="#212121" stroke-width="0.2"/>
<path d="M15.4965 8.55481H13.9961V10.0552H15.4965V8.55481Z" fill="#212121" stroke="#212121" stroke-width="0.2"/>
<path d="M13.9965 10.0552H12.4961V11.5556H13.9965V10.0552Z" fill="#212121" stroke="#212121" stroke-width="0.2"/>
<path d="M12.4955 11.5555H10.9951V13.0559H12.4955V11.5555Z" fill="#212121" stroke="#212121" stroke-width="0.2"/>
<path d="M10.9955 13.0559H9.49512V14.5563H10.9955V13.0559Z" fill="#212121" stroke="#212121" stroke-width="0.2"/>
<path d="M10.9955 19.0575H9.49512V20.5579H10.9955V19.0575Z" fill="#212121" stroke="#212121" stroke-width="0.2"/>
<path d="M9.4955 20.5579H7.99512V22.0582H9.4955V20.5579Z" fill="#212121" stroke="#212121" stroke-width="0.2"/>
</svg>
