<svg width="30" height="25" viewBox="0 0 30 25" fill="none" xmlns="http://www.w3.org/2000/svg">
<path fill-rule="evenodd" clip-rule="evenodd" d="M27.5844 14.027H29.068V22.5757H27.5844V14.027ZM2.08221 15.7368V23.021H0.598633V15.7368H2.08221ZM15.7168 9.57631H17.2004V11.0599H15.7168V9.57631ZM21.6498 9.57631V8.09273H23.1334V9.57631H21.6498ZM24.617 11.0599H26.1006V12.5435H24.617V11.0599ZM17.2004 11.0599H18.6837V12.5435H17.2002L17.2004 11.0599ZM9.30303 4.47644V2.99286H10.7866V4.47644H9.30303ZM14.2332 9.5764V8.09282H15.7168L15.7168 9.57631L14.2332 9.5764ZM26.1006 12.5435L27.5844 12.5436L27.5844 14.027L26.1008 14.0271L26.1006 12.5435ZM2.08239 15.737V11.298H3.56597V14.2534H10.9744V11.298H12.458V14.2534H12.7509V9.57646H14.2345V22.9263H12.7509V15.7369L2.08239 15.737ZM10.9744 11.298H9.49104V8.34251H10.9746L10.9744 11.298ZM8.01214 6.8589H9.49104V8.34251L5.04838 8.34248V6.8589H6.52727V5.95891H5.23587V4.47533H6.52727V2.96716H5.78547V0H8.75263V2.96716H8.01082V4.47533H9.30222V5.95891H8.01082V6.8589H8.01214ZM3.56597 11.298L3.56618 8.34251H5.04976V11.298H3.56597ZM18.6846 12.5425H20.1681V9.57532H21.6517V22.9252H20.1681V14.0249H18.6846V12.5413V12.5425ZM23.1341 9.57532H24.6177V11.0589H23.1341V9.57532ZM5.23626 4.47536H3.75269V2.99179H5.23626V4.47536Z" fill="#212121"/>
<path fill-rule="evenodd" clip-rule="evenodd" d="M29.6671 22.5757H0V24.0593H29.6671V22.5757Z" fill="#212121"/>
</svg>
