<svg width="23" height="23" viewBox="0 0 23 23" fill="none" xmlns="http://www.w3.org/2000/svg">
<path d="M10.2287 20.4458H0.0117188V22.9928H10.2287V20.4458Z" fill="#212121"/>
<path d="M22.9992 20.4531H12.7822V23.0001H22.9992V20.4531Z" fill="#212121"/>
<path d="M12.791 2.56611V5.12036H15.338V2.56611H12.791Z" fill="#212121"/>
<path d="M15.3438 5.12031V7.67456H17.8907V5.12031H15.3438Z" fill="#212121"/>
<path d="M17.8984 7.67451V10.2288H20.4454V7.67451H17.8984Z" fill="#212121"/>
<path d="M5.12793 5.12031V7.67456H7.6749V5.12031H5.12793Z" fill="#212121"/>
<path d="M2.56641 7.67451V10.2288H5.11338V7.67451H2.56641Z" fill="#212121"/>
<path d="M10.2363 0.0116696V2.56592H12.7833V0.0116696H10.2363Z" fill="#212121"/>
<path d="M7.6748 15.3372V17.8915H10.2218V15.3372H7.6748Z" fill="#212121"/>
<path d="M10.2363 12.783V15.3373H12.7833V12.783H10.2363Z" fill="#212121"/>
<path d="M12.791 15.3372V17.8915H15.338V15.3372H12.791Z" fill="#212121"/>
<path d="M7.68066 2.56611V5.12036H10.2276V2.56611H7.68066Z" fill="#212121"/>
<path d="M2.56758 10.2288H0.0117188V20.4458H2.56758V10.2288Z" fill="#212121"/>
<path d="M10.2307 17.8915H7.6748V20.4457H10.2307V17.8915Z" fill="#212121"/>
<path d="M15.3381 17.8915H12.7822V20.4457H15.3381V17.8915Z" fill="#212121"/>
<path d="M22.9992 10.2288H20.4434V20.4458H22.9992V10.2288Z" fill="#212121"/>
</svg>
