<svg width="32" height="25" viewBox="0 0 32 25" fill="none" xmlns="http://www.w3.org/2000/svg">
<path d="M25.0896 0.5H7.10742V1.942H25.0896V0.5Z" fill="#212121"/>
<path d="M21.2558 21.6696H10.9395V23.1116H21.2558V21.6696Z" fill="#212121"/>
<path d="M7.10873 1.9397H5.68262V3.39288H7.10873V1.9397Z" fill="#212121"/>
<path d="M16.8363 1.8324H15.4102V22.4408H16.8363V1.8324Z" fill="#212121"/>
<path d="M12.5893 10.4465H0V11.8997H12.5893V10.4465Z" fill="#212121"/>
<path d="M9.95894 13.3036H2.82617V14.7568H9.95894V13.3036Z" fill="#212121"/>
<path d="M5.67807 3.39526H4.25195V4.84845H5.67807V3.39526Z" fill="#212121"/>
<path d="M4.25424 4.84839H2.82812V7.75475H4.25424V4.84839Z" fill="#212121"/>
<path d="M2.82553 7.75696H1.39941V13.3059H2.82553V7.75696Z" fill="#212121"/>
<path d="M11.388 7.74805H9.96191V13.3037H11.388V7.74805Z" fill="#212121"/>
<path d="M9.9642 4.84839H8.53809V7.75475H9.9642V4.84839Z" fill="#212121"/>
<path d="M8.53549 3.39294H7.10938V4.84613H8.53549V3.39294Z" fill="#212121"/>
<path d="M26.5179 1.9397H25.0918V3.39288H26.5179V1.9397Z" fill="#212121"/>
<path d="M31.9995 10.4465H19.4102V11.8997H31.9995V10.4465Z" fill="#212121"/>
<path d="M29.3671 13.3036H22.2344V14.7568H29.3671V13.3036Z" fill="#212121"/>
<path d="M25.0892 3.39526H23.6631V4.84845H25.0892V3.39526Z" fill="#212121"/>
<path d="M23.6624 4.84839H22.2363V7.75475H23.6624V4.84839Z" fill="#212121"/>
<path d="M22.2337 7.75696H20.8076V13.3059H22.2337V7.75696Z" fill="#212121"/>
<path d="M30.7962 7.74805H29.3701V13.3037H30.7962V7.74805Z" fill="#212121"/>
<path d="M29.3744 4.84839H27.9482V7.75475H29.3744V4.84839Z" fill="#212121"/>
<path d="M27.9456 3.39294H26.5195V4.84613H27.9456V3.39294Z" fill="#212121"/>
<path d="M10.9154 23.0468H9.48926V24.4999H10.9154V23.0468Z" fill="#212121"/>
<path d="M22.808 23.0468H21.3818V24.4999H22.808V23.0468Z" fill="#212121"/>
</svg>
