<svg width="26" height="22" viewBox="0 0 26 22" fill="none" xmlns="http://www.w3.org/2000/svg">
<path d="M4.576 18.8954V20.4477H3.068V18.8954H4.576ZM0 0V17.2895H1.508V1.55231H3.016V0H0ZM3.016 18.8418V17.2895H1.508V18.8418H3.016ZM6.136 10.9732H7.644V9.42093H6.136V10.9732ZM7.644 18.8954H6.136V20.4477H4.576V22H9.152V20.4477H7.644V18.8954ZM9.152 20.4477H10.66V18.8954H9.152V20.4477ZM4.576 4.71046H9.152V3.15815H4.576V4.71046ZM18.356 17.2895H19.916V15.7372H18.356V17.2895ZM18.356 14.1849H19.916V12.5791H18.356V14.1849ZM18.356 10.9732H19.916V9.42093H18.356V10.9732ZM19.916 6.26277H18.356V7.81509H19.916V6.26277ZM15.288 0H10.712V1.55231H15.288V0ZM6.136 7.81509H7.644V6.26277H6.136V7.81509ZM6.136 17.2895H7.644V15.7372H6.136V17.2895ZM16.796 3.10462V1.55231H15.288V3.10462H16.796ZM7.644 12.5791H6.136V14.1849H7.644V12.5791ZM4.576 1.55231H3.068V3.10462H4.576V1.55231ZM10.66 1.55231H9.152V3.10462H10.66V1.55231ZM21.424 20.4477H22.932V18.8954H21.424V20.4477ZM10.712 18.8418H12.22V17.2895H10.712V18.8418ZM16.796 3.15815V4.71046H21.372V3.15815H16.796ZM21.424 3.10462H22.932V1.55231H21.424V3.10462ZM19.916 18.8954H18.356V20.4477H16.796V22H21.372V20.4477H19.916V18.8954ZM22.932 0V1.55231H24.492V17.2895H22.932V18.8418H26V0H22.932ZM12.22 10.9732H13.728V9.42093H12.22V10.9732ZM10.66 7.86861V6.26277H9.152V7.86861H7.644V9.42093H9.152V10.9732H10.66V9.42093H12.22V7.86861H10.66ZM12.22 17.2895H13.728V15.7372H12.22V17.2895ZM12.22 7.81509H13.728V6.26277H12.22V7.81509ZM16.796 15.7372H18.304V14.1849H16.796V12.5791H15.288V14.1849H13.78V15.7372H15.288V17.2895H16.796V15.7372ZM12.22 14.1849H13.728V12.5791H12.22V14.1849ZM15.288 18.8954V20.4477H16.796V18.8954H15.288ZM12.22 4.71046H13.728V3.15815H12.22V4.71046ZM15.288 17.2895H13.78V18.8418H15.288V17.2895Z" fill="#212121"/>
</svg>
