<svg width="26" height="19" viewBox="0 0 26 19" fill="none" xmlns="http://www.w3.org/2000/svg">
<path d="M0 10.2144C0 7.672 2.06186 5.61572 4.60986 5.61572C7.15785 5.61572 9.21972 7.66641 9.21972 10.2144C9.21972 12.7624 7.15785 14.8243 4.60986 14.8243C2.06186 14.8243 0 12.7568 0 10.2144Z" fill="#212121"/>
<path d="M25.9202 0.815805L14.7336 17.1543C14.2419 17.8583 13.4484 18.2774 12.5935 18.2774H6.20117C7.87748 16.6625 9.80524 14.8242 11.7609 12.93C18.0806 6.87847 24.8306 0.430253 25.0876 0.173219C25.205 0.0558771 25.3335 0 25.462 0C25.8252 0 26.1549 0.419078 25.9202 0.815805Z" fill="#212121"/>
</svg>
