<svg width="134" height="40" viewBox="0 0 134 40" fill="none" xmlns="http://www.w3.org/2000/svg">
<g clip-path="url(#clip0_2064_1071)">
<path d="M55.0401 25.4424L54.9563 27.2695H34.4839C34.6439 29.4424 35.3753 31.1041 36.6858 32.2544C37.9963 33.4048 39.6115 33.9762 41.5468 33.9762C42.941 33.9762 44.1601 33.6604 45.1887 33.0364C46.2172 32.4123 46.9944 31.495 47.5125 30.292L54.6058 31.3296C53.6915 34.0665 52.0763 36.2018 49.7677 37.7206C47.4591 39.2394 44.7315 39.9988 41.6001 39.9988C37.082 39.9988 33.501 38.7507 30.842 36.2469C28.1829 33.7432 26.8496 30.277 26.8496 25.8409C26.8496 21.4048 28.1829 17.9687 30.8496 15.4349C33.5163 12.901 37.021 11.6304 41.3563 11.6304C45.6915 11.6304 48.7772 12.7883 51.2687 15.1041C53.7601 17.4198 55.0096 20.8635 55.0325 25.4424H55.0401ZM41.4172 17.0364C37.6534 17.0364 35.4134 18.7883 34.6972 22.2845H47.3753C47.1772 20.5853 46.5448 19.2845 45.4706 18.3898C44.3963 17.4875 43.0401 17.0364 41.4096 17.0364H41.4172Z" fill="#212121"/>
<path d="M68.411 39.9988C64.0453 39.9988 60.4796 38.6905 57.7139 36.0665C54.9482 33.4424 53.5615 30.0213 53.5615 25.8033C53.5615 21.5853 54.9406 18.1492 57.6987 15.5401C60.4568 12.9386 64.0301 11.6304 68.411 11.6304C71.9691 11.6304 74.9558 12.5101 77.3863 14.2619C79.8091 16.0138 81.3558 18.4875 82.0187 21.683L74.8491 22.4574C74.4377 20.8635 73.6606 19.668 72.5329 18.871C71.3977 18.074 70.0034 17.6755 68.3272 17.6755C66.2396 17.6755 64.5558 18.4198 63.2606 19.9086C61.9653 21.3973 61.3177 23.3672 61.3177 25.8108C61.3177 28.2544 61.9653 30.2018 63.2606 31.698C64.5482 33.1943 66.2396 33.9462 68.3272 33.9462C69.9958 33.9462 71.3977 33.5477 72.5177 32.7507C73.6377 31.9537 74.4149 30.7582 74.8491 29.1642L82.0187 29.9386C81.3558 33.1116 79.7939 35.5853 77.3406 37.3597C74.8872 39.1341 71.9158 40.0213 68.411 40.0213V39.9988Z" fill="#212121"/>
<path d="M101.828 39.345C101.112 39.345 100.442 38.9991 100.038 38.4202C98.2247 35.8412 93.2037 28.7961 92.9447 28.4277C92.8533 28.2999 92.6628 28.2848 92.5561 28.3976L89.0742 32.0217V23.9014C89.3942 23.5029 108.465 5.52543 108.861 5.13445C109.219 4.77355 109.798 5.22468 109.539 5.65325L98.0723 22.1645C97.1199 23.5405 97.1275 25.3525 98.1028 26.7209C100.373 29.9014 104.366 35.4427 106.225 38.0292C106.621 38.5856 106.225 39.345 105.531 39.345H101.836H101.828Z" fill="#212121"/>
<path d="M95.8328 11.9013C97.5159 11.9013 98.8804 10.5548 98.8804 8.89375C98.8804 7.23274 97.5159 5.88623 95.8328 5.88623C94.1496 5.88623 92.7852 7.23274 92.7852 8.89375C92.7852 10.5548 94.1496 11.9013 95.8328 11.9013Z" fill="#212121"/>
<path d="M89.6304 39.3449H82.0723V-0.000976562H89.6304V39.3449Z" fill="#212121"/>
<path d="M123.169 11.9014C126.438 11.9014 128.952 12.7059 130.705 14.3224C132.457 15.939 133.333 18.2397 133.333 21.2247V39.345H125.661V22.8487C125.661 21.157 125.204 19.9164 124.297 19.1269C123.383 18.3375 122.217 17.9465 120.785 17.9465C119.954 17.9465 119.192 18.0593 118.506 18.2848C117.813 18.5104 117.181 18.8638 116.594 19.345C116.015 19.8262 115.558 20.5029 115.23 21.3751C114.903 22.2472 114.727 23.2848 114.712 24.4954V39.345H107.07V12.4277H114.712V15.4126C116.731 13.0743 119.55 11.9014 123.177 11.9014H123.169Z" fill="#212121"/>
<path d="M15.6952 12.5103C17.4476 12.5103 19.101 12.8261 20.6552 13.4577C22.2171 14.0892 23.5809 14.984 24.7467 16.1344C25.92 17.2847 26.8419 18.7359 27.5124 20.4802C28.1905 22.2246 28.5257 24.1494 28.5257 26.2471C28.5257 28.3449 28.1905 30.2697 27.5124 32.0141C26.8343 33.7584 25.9124 35.2095 24.7467 36.3599C23.5809 37.5103 22.2171 38.405 20.6552 39.0366C19.0933 39.6682 17.44 39.984 15.6952 39.984C13.821 39.984 12.1371 39.6306 10.6438 38.9163C9.14286 38.2095 8.02286 37.2095 7.27619 35.9314L7.09333 39.3674H0V-0.000976562H7.4819V16.2321C8.24381 15.0517 9.35619 14.1344 10.819 13.4877C12.2819 12.8411 13.9048 12.5103 15.6952 12.5103ZM13.9505 33.8712C15.9924 33.8712 17.6914 33.1795 19.0324 31.796C20.3733 30.4126 21.0438 28.5629 21.0438 26.2547C21.0438 23.9464 20.3733 22.0742 19.0324 20.6908C17.6914 19.3073 16 18.6156 13.9505 18.6156C11.901 18.6156 10.2629 19.3223 8.90667 20.7283C7.55809 22.1419 6.88 23.984 6.88 26.2547C6.88 28.5253 7.55048 30.3674 8.89143 31.7659C10.2324 33.1644 11.9162 33.8712 13.9429 33.8712H13.9505Z" fill="#212121"/>
</g>
<defs>
<clipPath id="clip0_2064_1071">
<rect width="133.333" height="40" fill="white" transform="translate(0 -0.000976562)"/>
</clipPath>
</defs>
</svg>
