<svg width="1440" height="2820" viewBox="0 0 1440 2820" fill="none" xmlns="http://www.w3.org/2000/svg">
<g clip-path="url(#clip0_2578_1241)">

<g opacity="0.5">
<path d="M804 1016L548.5 1011.5L370.959 848.034" stroke="#EBEBED" stroke-width="2" stroke-miterlimit="10"/>
<path d="M256.513 470.295L370.958 848.035L197 1014.5M256.513 470.295L425.792 -364.549M256.513 470.295L-79.2583 539.039L-195.526 441.484" stroke="#EBEBED" stroke-width="2" stroke-miterlimit="10"/>
<path d="M966.6 889.492L1132 568.5L612.079 234.294" stroke="#EBEBED" stroke-width="2" stroke-miterlimit="10"/>
<path d="M968.029 890.46L1255.01 959.497" stroke="#EBEBED" stroke-width="2" stroke-miterlimit="10"/>
<path d="M370.957 848.035L-79.5234 538.571" stroke="#EBEBED" stroke-width="2" stroke-miterlimit="10"/>
<path d="M1368 1400L1253 957L1048 1099" stroke="#EBEBED" stroke-width="2" stroke-miterlimit="10"/>
<path d="M693.201 802.621L1131.5 567.5" stroke="#EBEBED" stroke-width="2" stroke-miterlimit="10"/>
<path d="M1044.5 1105L693.201 802.62" stroke="#EBEBED" stroke-width="2" stroke-miterlimit="10"/>
<path d="M1048 1102.5L966 890L693.202 802.62L547.499 1012" stroke="#EBEBED" stroke-width="2" stroke-miterlimit="10"/>
<circle cx="548" cy="1012" r="6" fill="white" stroke="#EBEBED" stroke-width="2" stroke-miterlimit="10"/>
<path d="M693.201 802.621L530.256 653.171L256.512 470.295" stroke="#EBEBED" stroke-width="2" stroke-miterlimit="10"/>
<path d="M426.432 -367.588L530.257 653.17L370.957 848.035" stroke="#EBEBED" stroke-width="2" stroke-miterlimit="10"/>
<path d="M806 1016L693.202 802.621" stroke="#EBEBED" stroke-width="2" stroke-miterlimit="10"/>
<path d="M805.5 1016.5L1043.5 1105" stroke="#EBEBED" stroke-width="2" stroke-miterlimit="10"/>
<path d="M530.258 653.171L615.5 234.5L509 -332L731.992 -344.766L-80.0499 537.634M-80.0499 537.634L195 1013L-293.49 871.303L-80.0499 537.634Z" stroke="#EBEBED" stroke-width="2" stroke-miterlimit="10"/>
<path d="M615.999 230.5L1298.63 -24.266M615.999 230.5L1235.65 293.303M615.999 230.5L732.953 -305.386L1047.1 -207.012L1298.63 -24.266M1548.8 657.419L1131.5 567.5L1235.65 293.303M1548.8 657.419L1255 958L1603.5 893.5M1548.8 657.419L1603.5 893.5M1548.8 657.419L1235.65 293.303M1548.8 657.419L1620.76 287.567M1898.73 429.064L1700.7 877.375L1603.5 893.5M1898.73 429.064L1603.5 893.5M1898.73 429.064L1620.76 287.567M1603.5 893.5L1620.76 287.567M1235.65 293.303L1298.63 -24.266M1235.65 293.303L1620.76 287.567M1298.63 -24.266L1737.4 -182.527L1620.76 287.567" stroke="#EBEBED" stroke-width="2" stroke-miterlimit="10"/>
<path d="M370.958 848.036L693.203 802.621L617 237" stroke="#EBEBED" stroke-width="2" stroke-miterlimit="10"/>
<circle cx="616" cy="232" r="15" fill="white" stroke="#EBEBED" stroke-width="2" stroke-miterlimit="10"/>
<circle cx="1047" cy="1102" r="15" fill="white" stroke="#EBEBED" stroke-width="2" stroke-miterlimit="10"/>
<circle cx="1237" cy="294" r="6" fill="white" stroke="#EBEBED" stroke-width="2" stroke-miterlimit="10"/>
<circle cx="1255" cy="958" r="9" fill="white" stroke="#EBEBED" stroke-width="2" stroke-miterlimit="10"/>
<circle cx="1132" cy="567" r="8" fill="white" stroke="#EBEBED" stroke-width="2" stroke-miterlimit="10"/>
<circle cx="693" cy="803" r="8" fill="white" stroke="#EBEBED" stroke-width="2" stroke-miterlimit="10"/>
<circle cx="967" cy="887" r="12" fill="white" stroke="#EBEBED" stroke-width="2" stroke-miterlimit="10"/>
<circle cx="372" cy="849" r="8" fill="white" stroke="#EBEBED" stroke-width="2" stroke-miterlimit="10"/>
<circle cx="1044" cy="1291" r="12" fill="white" stroke="#EBEBED" stroke-width="2" stroke-miterlimit="10"/>
<circle cx="403" cy="1188" r="8" fill="white" stroke="#EBEBED" stroke-width="2" stroke-miterlimit="10"/>
<circle cx="1372" cy="1408" r="8" fill="white" stroke="#EBEBED" stroke-width="2" stroke-miterlimit="10"/>
<circle cx="558" cy="1593" r="6" fill="white" stroke="#EBEBED" stroke-width="2" stroke-miterlimit="10"/>
<circle cx="530" cy="653" r="8" fill="white" stroke="#EBEBED" stroke-width="2" stroke-miterlimit="10"/>
<circle cx="256" cy="470" r="6" fill="white" stroke="#EBEBED" stroke-width="2" stroke-miterlimit="10"/>
<circle cx="804" cy="1018" r="6" fill="white" stroke="#EBEBED" stroke-width="2" stroke-miterlimit="10"/>
<circle cx="336" cy="86.9999" r="6" fill="white" stroke="#EBEBED" stroke-width="2" stroke-miterlimit="10"/>
<circle cx="195" cy="1013" r="14" fill="white" stroke="#EBEBED" stroke-width="2" stroke-miterlimit="10"/>
</g>
</g>
<defs>

</defs>
</svg>
