<svg width="1440" height="2612" viewBox="0 0 1440 2612" fill="none" xmlns="http://www.w3.org/2000/svg">
<g clip-path="url(#clip0_2095_836)">
<path opacity="0.5" d="M861.627 985.117L645.075 804.277L515.047 719.24" stroke="#EBEBED" stroke-width="2" stroke-miterlimit="10"/>
<path opacity="0.5" d="M400.603 346.111L515.048 719.24L382.456 913.461M400.603 346.111L569.882 -478.543M400.603 346.111L64.8316 414.016L-51.4363 317.652" stroke="#EBEBED" stroke-width="2" stroke-miterlimit="10"/>
<path opacity="0.3" d="M1396.55 831.069L1367.5 1477.11L1110.69 760.191L1105.65 465.161L756.167 112.991" stroke="#EBEBED" stroke-width="2" stroke-miterlimit="10"/>
<path opacity="0.5" d="M1112.12 761.147L1399.1 829.341" stroke="#EBEBED" stroke-width="2" stroke-miterlimit="10"/>
<path opacity="0.3" d="M764 1292.47L299 1540.4L1133.5 1365.18" stroke="#EBEBED" stroke-width="2" stroke-miterlimit="10"/>
<path opacity="0.5" d="M382.456 913.461L188.502 1058.14L547.002 1058.14" stroke="#EBEBED" stroke-width="2" stroke-miterlimit="10"/>
<path opacity="0.5" d="M846.5 1793.56L617.998 1688.43M846.5 1793.56L745.498 2115.5M846.5 1793.56L-55 2434.83M846.5 1793.56L221.001 1983.95M617.998 1688.43L221.001 1983.95M617.998 1688.43L745.498 2115.5M221.001 1983.95L745.498 2115.5M221.001 1983.95L-109.001 1901.31L300.499 1539.35L-55 2434.83M745.498 2115.5L-55 2434.83M745.498 2115.5L1071.5 2610.94L1333.5 2263.89M1333.5 2263.89L1562 2006.16L1024 1888.04M1333.5 2263.89L1562 2451.81" stroke="#EBEBED" stroke-width="2" stroke-miterlimit="10"/>
<path opacity="0.3" d="M617.003 1688.43L764.002 1292.47" stroke="#EBEBED" stroke-width="2" stroke-miterlimit="10"/>
<path opacity="0.5" d="M547.5 1057.62L382.454 913.461L-331.881 1021.88" stroke="#EBEBED" stroke-width="2" stroke-miterlimit="10"/>
<path opacity="0.5" d="M515.047 719.24L64.5664 413.553" stroke="#EBEBED" stroke-width="2" stroke-miterlimit="10"/>
<path opacity="0.5" d="M764.002 1292.47L1030.36 1067.54" stroke="#EBEBED" stroke-width="2" stroke-miterlimit="10"/>
<path opacity="0.3" d="M616.001 1689.99L1134.5 1365.18L1398.5 1479.2L1030.36 1067.54" stroke="#EBEBED" stroke-width="2" stroke-miterlimit="10"/>
<path opacity="0.3" d="M299.5 1541.45L618.5 1690.52M299.5 1541.45L546.5 1058.67L645.075 804.277M299.5 1541.45L199.735 1863.21M299.5 1541.45L-116.467 1526.01" stroke="#EBEBED" stroke-width="2" stroke-miterlimit="10"/>
<path opacity="0.5" d="M837.291 674.38L1106.05 465.855" stroke="#EBEBED" stroke-width="2" stroke-miterlimit="10"/>
<path opacity="0.5" d="M1030.36 1067.54L837.291 674.38" stroke="#EBEBED" stroke-width="2" stroke-miterlimit="10"/>
<path opacity="0.5" d="M1030.36 1067.54L1112.12 761.147L837.292 674.38L645.076 804.277" stroke="#EBEBED" stroke-width="2" stroke-miterlimit="10"/>
<path opacity="0.5" d="M764 1292.47L861.626 985.118" stroke="#EBEBED" stroke-width="2" stroke-miterlimit="10"/>
<path opacity="0.5" d="M837.291 674.38L674.346 526.755L400.602 346.111" stroke="#EBEBED" stroke-width="2" stroke-miterlimit="10"/>
<path opacity="0.5" d="M570.522 -481.545L674.347 526.754L515.047 719.24" stroke="#EBEBED" stroke-width="2" stroke-miterlimit="10"/>
<path opacity="0.5" d="M861.627 985.118L837.291 674.38" stroke="#EBEBED" stroke-width="2" stroke-miterlimit="10"/>
<path opacity="0.5" d="M861.627 985.118L1030.36 1067.54" stroke="#EBEBED" stroke-width="2" stroke-miterlimit="10"/>
<path opacity="0.5" d="M674.345 526.754L755.752 111.026L720.919 -442.986L876.079 -459.002L64.0375 412.627M64.0375 412.627L379.661 909.707L-149.403 742.224L64.0375 412.627Z" stroke="#EBEBED" stroke-width="2" stroke-miterlimit="10"/>
<path opacity="0.3" d="M760.385 101.935L1442.72 -144.173M760.385 101.935L1379.74 173.396M760.385 101.935L877.042 -425.293L1191.19 -326.919L1442.72 -144.173M1881.49 -302.434L1379.74 173.396M1881.49 -302.434L1442.72 -144.173M1881.49 -302.434L1764.85 167.66M1692.89 537.512L1112.09 427.221L1379.74 173.396M1692.89 537.512L1400 790.999M1692.89 537.512L1349.09 1032.36M1692.89 537.512L1761.76 637.232M1692.89 537.512L1379.74 173.396M1692.89 537.512L1764.85 167.66M1349.09 1032.36L847.501 1715M1349.09 1032.36L1642.8 1112.83M1349.09 1032.36L1761.76 637.232M847.501 1715L1369.5 1414L1467 1558.5L748.5 2164.5L1333.5 2319.5L847.501 1715ZM1844.79 757.468L2042.82 309.157M1844.79 757.468L1761.76 637.232M1844.79 757.468L2124.83 812.871L1642.8 1112.83M1844.79 757.468L1642.8 1112.83M2042.82 309.157L1761.76 637.232M2042.82 309.157L1764.85 167.66M1642.8 1112.83L1761.76 637.232M1761.76 637.232L1764.85 167.66M1379.74 173.396L1442.72 -144.173M1379.74 173.396L1764.85 167.66" stroke="#EBEBED" stroke-width="2" stroke-miterlimit="10"/>
<path opacity="0.5" d="M548.002 1057.62L515.047 719.24L837.292 674.38L756.805 112.559" stroke="#EBEBED" stroke-width="2" stroke-miterlimit="10"/>
<path opacity="0.5" d="M650.137 808.727C652.951 806.819 653.812 802.786 652.062 799.72C650.311 796.654 646.611 795.715 643.797 797.623C640.984 799.531 640.122 803.563 641.873 806.63C643.624 809.696 647.324 810.635 650.137 808.727Z" fill="white" stroke="#EBEBED" stroke-width="2" stroke-miterlimit="10"/>
<path d="M840.454 679.354C843.267 677.446 844.129 673.414 842.378 670.347C840.627 667.281 836.927 666.342 834.114 668.25C831.3 670.158 830.439 674.191 832.19 677.257C833.94 680.323 837.64 681.262 840.454 679.354Z" fill="white" stroke="#EBEBED" stroke-width="2" stroke-miterlimit="10"/>
<path d="M1110.33 471.294C1113.15 469.386 1114.01 465.353 1112.26 462.287C1110.51 459.221 1106.81 458.282 1103.99 460.19C1101.18 462.098 1100.32 466.13 1102.07 469.197C1103.82 472.263 1107.52 473.202 1110.33 471.294Z" fill="white" stroke="#EBEBED" stroke-width="2" stroke-miterlimit="10"/>
<path d="M384.153 917.573C386.966 915.665 387.828 911.633 386.077 908.566C384.326 905.5 380.626 904.561 377.813 906.469C375 908.377 374.138 912.41 375.889 915.476C377.64 918.542 381.34 919.481 384.153 917.573Z" fill="white" stroke="#EBEBED" stroke-width="2" stroke-miterlimit="10"/>
<path d="M1116.4 766.586C1119.21 764.678 1120.08 760.645 1118.33 757.579C1116.57 754.513 1112.87 753.574 1110.06 755.482C1107.25 757.39 1106.39 761.423 1108.14 764.489C1109.89 767.555 1113.59 768.494 1116.4 766.586Z" fill="white" stroke="#EBEBED" stroke-width="2" stroke-miterlimit="10"/>
<path d="M864.382 990.454C867.195 988.546 868.056 984.513 866.306 981.447C864.555 978.381 860.855 977.442 858.041 979.35C855.228 981.258 854.367 985.29 856.117 988.357C857.868 991.423 861.568 992.362 864.382 990.454Z" fill="white" stroke="#EBEBED" stroke-width="2" stroke-miterlimit="10"/>
<path d="M1403.86 837.669C1408.08 834.807 1409.37 828.759 1406.74 824.159C1404.12 819.56 1398.57 818.151 1394.35 821.014C1390.13 823.876 1388.83 829.924 1391.46 834.524C1394.09 839.123 1399.64 840.531 1403.86 837.669Z" fill="white" stroke="#EBEBED" stroke-width="2" stroke-miterlimit="10"/>
<path d="M1384.15 190.263C1388.37 187.4 1389.66 181.352 1387.04 176.752C1384.41 172.153 1378.86 170.745 1374.64 173.607C1370.42 176.469 1369.13 182.518 1371.76 187.117C1374.38 191.716 1379.93 193.125 1384.15 190.263Z" fill="white" stroke="#EBEBED" stroke-width="2" stroke-miterlimit="10"/>
<path d="M677.194 531.424C680.007 529.516 680.869 525.483 679.118 522.417C677.367 519.351 673.667 518.412 670.854 520.32C668.041 522.228 667.179 526.261 668.93 529.327C670.681 532.393 674.381 533.332 677.194 531.424Z" fill="white" stroke="#EBEBED" stroke-width="2" stroke-miterlimit="10"/>
<path d="M403.186 352.701C406 350.793 406.861 346.761 405.11 343.695C403.36 340.628 399.66 339.689 396.846 341.598C394.033 343.506 393.171 347.538 394.922 350.604C396.673 353.671 400.373 354.609 403.186 352.701Z" fill="white" stroke="#EBEBED" stroke-width="2" stroke-miterlimit="10"/>
<path d="M518.163 725.28C520.976 723.372 521.838 719.34 520.087 716.274C518.336 713.207 514.636 712.268 511.823 714.176C509.009 716.085 508.148 720.117 509.899 723.183C511.649 726.25 515.349 727.188 518.163 725.28Z" fill="white" stroke="#EBEBED" stroke-width="2" stroke-miterlimit="10"/>
<path d="M761.989 120.917C766.209 118.055 767.502 112.006 764.876 107.407C762.249 102.808 756.699 101.399 752.479 104.261C748.259 107.123 746.967 113.172 749.593 117.771C752.219 122.371 757.769 123.779 761.989 120.917Z" fill="white" stroke="#EBEBED" stroke-width="2" stroke-miterlimit="10"/>
</g>
<defs>
<clipPath id="clip0_2095_836">
<rect width="1440" height="2612" fill="white"/>
</clipPath>
</defs>
</svg>
