<svg width="185" height="26" viewBox="0 0 185 26" fill="none" xmlns="http://www.w3.org/2000/svg">
<path d="M10.8297 14.8539V7.85598H11.8592V14.8539H10.8297ZM15.215 6.54401H7.25369C7.34159 6.23457 7.4653 5.82821 7.56286 5.51236H14.9057C15.0408 5.95093 15.144 6.29609 15.215 6.54401ZM7.38716 16.1694H15.0816C14.9809 16.4889 14.8452 16.8917 14.7397 17.2H7.72847C7.63044 16.911 7.48806 16.4909 7.38716 16.1694ZM22.6308 10.729L22.6145 10.4509C22.5372 9.14474 22.2377 7.88367 21.7246 6.70287L21.6555 6.54401H19.0518C18.9686 6.09377 18.8837 5.75844 18.8078 5.51236H21.1266L20.867 5.10852C19.5688 3.08914 17.7133 1.56114 15.5012 0.689566L14.5427 0.311729L15.1983 1.1004C16.1076 2.19398 16.8291 3.60079 17.3422 5.27968C17.4634 5.6852 17.5763 6.11652 17.6787 6.56434L17.7398 6.85964C17.9114 7.68771 18.0314 8.54573 18.0969 9.41462H17.0498C16.9857 8.65815 16.8791 7.9153 16.7317 7.19866L16.6669 6.88386C16.6596 6.84814 16.4828 5.99527 16.1104 4.96037L16.0456 4.78589H16.0441C15.1264 2.33641 13.7345 0.650742 12.2081 0.148605L11.8592 0.0338669V4.19839H10.8297V3.24249e-05L10.5002 0.0814648C8.83373 0.493767 7.32435 2.272 6.36248 4.95112L6.15958 5.51236H6.17183C5.92521 6.28521 5.80691 6.85654 5.80108 6.88386L5.77874 6.99818C5.60756 7.78291 5.48677 8.59396 5.4186 9.41462H4.36963C4.43884 8.53076 4.55882 7.67232 4.7275 6.85964L4.7619 6.69011C4.82634 6.39318 4.95813 5.82968 5.15188 5.19489C5.64856 3.60347 6.33326 2.25866 7.18659 1.19769L7.84327 0.381706L6.87472 0.792589C4.77412 1.68402 3.00716 3.17661 1.76488 5.10852L1.50545 5.51236H3.66156C3.58614 5.7566 3.50138 6.0913 3.41808 6.54401H0.976207L0.907414 6.70345C0.395996 7.88493 0.096564 9.14579 0.016992 10.4506L0 10.729H9.50617V11.7607H0.0136765L0.0370922 12.0447C0.15127 13.4336 0.521364 14.7716 1.13701 16.0218L1.20954 16.1694H3.52397C3.60955 16.6194 3.70093 16.9541 3.78424 17.2H1.79991L2.09934 17.6153C3.31779 19.3055 4.96539 20.6261 6.86416 21.434L7.82873 21.8445L7.17683 21.0295C6.39044 20.047 5.7466 18.821 5.26565 17.3937C5.01387 16.5661 4.84458 15.8772 4.8137 15.7499C4.61663 14.8987 4.4749 13.9984 4.39139 13.0706H5.443C5.54188 14.0852 5.71387 15.0608 5.95529 15.9734L5.97704 16.0532C6.04022 16.2964 6.18589 16.8076 6.47023 17.5763L6.60613 17.9264H6.61218C7.57989 20.2386 8.99043 21.7741 10.4998 22.1507L10.8297 22.2332V18.5105H11.8592V22.2007L12.2088 22.0846C13.67 21.5984 15.0325 20.002 15.9467 17.705L15.9464 17.7046L16.1428 17.2H16.132C16.4509 16.2989 16.5599 15.7963 16.5651 15.7727L16.6095 15.5656C16.8001 14.7673 16.9385 13.9311 17.0229 13.0736H18.0759C17.9908 14.0148 17.8457 14.9296 17.6449 15.793C17.5026 16.3557 17.3519 16.8969 17.2004 17.3949C16.6996 18.8803 16.0286 20.1381 15.2061 21.1328L14.5528 21.9233L15.5102 21.543C17.5196 20.7453 19.2569 19.387 20.5342 17.6153L20.8336 17.2H18.6781C18.7626 16.9628 18.8592 16.6282 18.9494 16.1694L21.476 16.1679V16.1546L21.4963 16.163C22.1308 14.669 22.4903 13.322 22.5954 12.0447L22.6188 11.7607H13.1808V10.729H22.6308Z" fill="#B9B9BA"/>
<path d="M30.4652 19.9536L32.3273 15.4522L34.19 19.9536H30.4652ZM30.946 11.7831L24.9385 25.7644H28.0822L29.3636 22.6504H35.2916L36.573 25.7644H39.7971L33.7897 11.7831H30.946Z" fill="#B9B9BA"/>
<path d="M44.581 12.4177H41.5376V15.1346H40.2559V17.7128H41.5376V22.7496C41.5376 25.2092 42.7989 25.9426 44.6611 25.9426C45.6825 25.9426 46.4236 25.7048 47.0645 25.3282V22.9089C46.6235 23.1465 46.1229 23.2853 45.5624 23.2853C44.8817 23.2853 44.581 22.9485 44.581 22.254V17.7128H47.1043V15.1346H44.581V12.4177Z" fill="#B9B9BA"/>
<path d="M49.4863 25.7644H52.53V11.2873H49.4863V25.7644Z" fill="#B9B9BA"/>
<path d="M61.741 22.0161C61.741 23.1069 60.7798 23.8803 59.3581 23.8803C58.3767 23.8803 57.6961 23.4044 57.6961 22.5916V22.5518C57.6961 21.5995 58.4966 21.0842 59.7984 21.0842C60.5395 21.0842 61.2201 21.2427 61.741 21.4807V22.0161ZM59.8382 15.0153C58.016 15.0153 56.8548 15.3529 55.6734 15.8686L56.4341 18.1689C57.415 17.8118 58.2367 17.5939 59.3979 17.5939C60.9199 17.5939 61.7013 18.2877 61.7013 19.5373V19.7156C60.9395 19.4579 60.1591 19.2795 59.0775 19.2795C56.5344 19.2795 54.752 20.3502 54.752 22.671V22.7104C54.752 24.8122 56.4145 25.9629 58.4367 25.9629C59.9188 25.9629 60.9395 25.4275 61.6806 24.6142V25.7644H64.6247V19.5966C64.6247 16.7213 63.1622 15.0153 59.8382 15.0153Z" fill="#B9B9BA"/>
<path d="M73.4336 14.9362C71.8915 14.9362 70.9908 15.7493 70.2895 16.6418V15.1347H67.2461V25.7644H70.2895V19.8346C70.2895 18.4069 71.0305 17.6728 72.1923 17.6728C73.3535 17.6728 74.0347 18.4069 74.0347 19.8346V25.7644H77.078V18.8828C77.078 16.4436 75.7364 14.9362 73.4336 14.9362Z" fill="#B9B9BA"/>
<path d="M83.2654 12.4177H80.2221V15.1346H78.9404V17.7128H80.2221V22.7496C80.2221 25.2092 81.4836 25.9426 83.3455 25.9426C84.3667 25.9426 85.1078 25.7048 85.7486 25.3282V22.9089C85.3078 23.1465 84.807 23.2853 84.2468 23.2853C83.5657 23.2853 83.2654 22.9485 83.2654 22.254V17.7128H85.7884V15.1346H83.2654V12.4177Z" fill="#B9B9BA"/>
<path d="M88.1699 25.7644H91.2138V15.1347H88.1699V25.7644Z" fill="#B9B9BA"/>
<path d="M88.0908 13.9644H91.2944V11.2873H88.0908V13.9644Z" fill="#B9B9BA"/>
<path d="M99.2837 23.4044C97.6212 23.4044 96.5602 22.0957 96.5602 20.4694V20.4298C96.5602 18.8631 97.6419 17.5341 99.1638 17.5341C100.245 17.5341 100.926 17.9905 101.607 18.7045L103.469 16.7212C102.468 15.6104 101.206 14.9362 99.1835 14.9362C95.8998 14.9362 93.5566 17.4352 93.5566 20.4694V20.5091C93.5566 23.5431 95.9194 26.0024 99.1437 26.0024C101.286 26.0024 102.488 25.1894 103.529 24.059L101.747 22.2738C101.006 22.9681 100.305 23.4044 99.2837 23.4044Z" fill="#B9B9BA"/>
<path d="M118.506 23.1866C116.103 23.1866 114.441 21.2032 114.441 18.8231V18.7837C114.441 16.404 116.143 14.4606 118.506 14.4606C119.908 14.4606 121.009 15.0557 122.091 16.0268L124.053 13.786C122.751 12.5171 121.17 11.6443 118.526 11.6443C114.221 11.6443 111.217 14.8766 111.217 18.8231V18.8631C111.217 22.8491 114.281 26.0024 118.406 26.0024C121.109 26.0024 122.711 25.0504 124.153 23.5232L122.191 21.5603C121.09 22.5517 120.108 23.1866 118.506 23.1866Z" fill="#B9B9BA"/>
<path d="M134.183 20.5091C134.183 22.0758 133.143 23.4044 131.4 23.4044C129.718 23.4044 128.577 22.0364 128.577 20.4694V20.4298C128.577 18.8631 129.618 17.5341 131.36 17.5341C133.042 17.5341 134.183 18.9027 134.183 20.4694V20.5091ZM131.4 14.9362C128.056 14.9362 125.573 17.4151 125.573 20.4694V20.5091C125.573 23.5632 128.036 26.0024 131.36 26.0024C134.704 26.0024 137.187 23.5232 137.187 20.4694V20.4298C137.187 17.3759 134.724 14.9362 131.4 14.9362Z" fill="#B9B9BA"/>
<path d="M146.097 21.0645C146.097 22.4922 145.356 23.2261 144.195 23.2261C143.033 23.2261 142.353 22.4922 142.353 21.0645V15.1348H139.309V22.0161C139.309 24.4558 140.65 25.9629 142.953 25.9629C144.495 25.9629 145.396 25.1498 146.097 24.2571V25.7644H149.141V15.1348H146.097V21.0645Z" fill="#B9B9BA"/>
<path d="M158.051 14.9362C156.509 14.9362 155.608 15.7493 154.907 16.6418V15.1347H151.863V25.7644H154.907V19.8346C154.907 18.4069 155.648 17.6728 156.809 17.6728C157.971 17.6728 158.652 18.4069 158.652 19.8346V25.7644H161.696V18.8828C161.696 16.4436 160.354 14.9362 158.051 14.9362Z" fill="#B9B9BA"/>
<path d="M169.543 23.4044C167.881 23.4044 166.82 22.0957 166.82 20.4694V20.4298C166.82 18.8631 167.901 17.5341 169.423 17.5341C170.505 17.5341 171.185 17.9905 171.866 18.7045L173.728 16.7212C172.727 15.6104 171.466 14.9362 169.443 14.9362C166.16 14.9362 163.816 17.4352 163.816 20.4694V20.5091C163.816 23.5431 166.179 26.0024 169.403 26.0024C171.546 26.0024 172.748 25.1894 173.788 24.059L172.006 22.2738C171.266 22.9681 170.565 23.4044 169.543 23.4044Z" fill="#B9B9BA"/>
<path d="M175.831 13.9644H179.035V11.2873H175.831V13.9644Z" fill="#B9B9BA"/>
<path d="M175.911 25.7644H178.955V15.1347H175.911V25.7644Z" fill="#B9B9BA"/>
<path d="M181.958 11.2873V25.7644H185.001V11.2873H181.958Z" fill="#B9B9BA"/>
</svg>
