<svg width="234" height="18" viewBox="0 0 234 18" fill="none" xmlns="http://www.w3.org/2000/svg">
<path fill-rule="evenodd" clip-rule="evenodd" d="M135.039 1.74458V16.2583C135.039 16.2583 135.426 17.2259 137.555 17.3227V18H128.266V17.3227C128.266 17.3227 130.202 17.3227 130.782 16.2583V9.19498H123.428V16.3551C123.428 16.3551 123.815 17.3227 125.944 17.4194V18H116.559V17.3227C116.559 17.3227 118.397 17.3227 119.074 16.2583V1.74458C118.397 0.68024 116.559 0.68024 116.559 0.68024V0.00292969H125.944V0.68024C123.719 0.776998 123.428 1.74458 123.428 1.74458V8.03387H130.782V1.74458C130.105 0.68024 128.266 0.68024 128.266 0.68024V0.00292969H137.652V0.68024C135.426 0.873756 135.039 1.74458 135.039 1.74458ZM119.848 1.84134H120.526V16.2583H119.848V1.84134ZM131.459 1.84134H132.137V16.2583H131.459V1.84134Z" fill="#B9B9BA"/>
<path fill-rule="evenodd" clip-rule="evenodd" d="M162.807 16.2578C162.807 16.2578 163.388 17.2254 165.42 17.3221V17.9994H155.938V17.3221C155.938 17.3221 157.679 17.3221 158.26 16.2578V1.74404C157.679 0.6797 155.938 0.679699 155.938 0.679699V0.00238909H164.549H167.645C167.645 0.00238909 171.516 -0.191127 172.773 2.90514C172.773 2.90514 173.354 4.55003 172.87 5.80789C172.096 8.42037 168.71 9.29119 168.71 9.29119C168.71 9.29119 170.161 10.0653 172.773 14.1291C172.773 14.1291 174.805 16.9351 176.257 17.3221L176.837 17.9027H170.548C169.967 17.7092 167.161 13.5486 167.161 13.5486C164.839 9.77499 163.001 10.0653 162.807 10.162V16.2578ZM162.904 1.45376C162.807 1.64728 162.904 1.74404 162.904 1.74404V8.90416C163.098 8.90416 167.355 9.19444 168.613 6.00141C168.903 5.13058 168.806 4.25976 168.806 4.25976C168.323 0.292667 162.904 1.45376 162.904 1.45376ZM169.967 16.161H170.645C170.064 15.5805 168.129 12.6777 168.129 12.6777C167.452 11.4199 165.807 10.162 165.807 10.162H165.13C165.13 10.162 166.871 11.5166 167.549 12.8713C167.645 12.8713 169.097 15.1935 169.967 16.161ZM168.129 1.55053C171.516 4.74355 168.129 7.93658 168.129 7.93658C168.129 7.93658 170.258 6.87223 170.258 4.74355C170.258 2.42135 168.129 1.55053 168.129 1.55053ZM159.324 1.8408H159.905V16.2578H159.324V1.8408Z" fill="#B9B9BA"/>
<path fill-rule="evenodd" clip-rule="evenodd" d="M145.487 1.64782V8.03387H149.357C149.938 7.84036 150.422 5.32464 150.518 4.93761H151.293V12.1945H150.518C150.422 11.8075 149.938 9.29174 149.357 9.19498H145.487V15.2908C145.487 15.581 145.681 16.6454 146.745 16.6454C146.745 16.6454 150.228 17.2259 153.131 16.0648C153.131 16.0648 153.711 15.4843 154.389 12.775H155.163L154.969 18H146.068H144.81H138.617V17.3227C138.617 17.3227 140.069 17.3227 140.649 16.2583V1.74458C140.165 0.68024 138.617 0.68024 138.617 0.68024V0.00292969H154.389V4.84085H153.711C153.034 2.13162 152.357 1.64782 152.357 1.64782C149.744 0.776997 146.068 1.45431 145.487 1.64782ZM141.907 1.74458H142.488V16.1616H141.907V1.74458Z" fill="#B9B9BA"/>
<path fill-rule="evenodd" clip-rule="evenodd" d="M183.802 3.48623L180.9 11.2269H187.092L183.802 3.48623ZM184.093 1.84134H184.673L190.672 16.1616H189.898L184.093 1.84134ZM180.416 12.388L178.964 16.0648C178.964 16.0648 179.351 17.1292 181.48 17.1292V18H174.707V17.2259C174.707 17.2259 176.836 17.2259 177.416 15.8713L182.835 1.84134C182.351 0.873755 180.319 0.777 180.319 0.777V0.00292969H186.802L193.672 15.7745C193.672 15.7745 194.252 17.2259 196.381 17.1292V18H186.705V17.2259C186.705 17.2259 188.834 17.1292 189.221 16.1616L187.673 12.388H180.416Z" fill="#B9B9BA"/>
<path fill-rule="evenodd" clip-rule="evenodd" d="M206.252 0.0996901V0.777C204.123 0.970517 204.026 1.55106 203.736 1.84134V15.194C203.736 15.4843 203.93 16.5486 204.8 16.5486C204.8 16.5486 208.284 17.0324 211.09 15.9681C211.09 15.9681 211.864 14.807 212.348 12.0977H213.025L212.928 17.9032H196.866V17.1292C196.866 17.1292 198.898 17.0324 199.285 16.0648V1.84134C198.898 0.776996 196.77 0.680239 196.77 0.680239V0.00292969H206.252V0.0996901ZM200.253 1.9381H200.833V16.2583H200.253V1.9381Z" fill="#B9B9BA"/>
<path fill-rule="evenodd" clip-rule="evenodd" d="M233.055 5.13001C230.733 -0.0949422 224.637 0.0985767 224.637 0.0985767H213.703V0.775886C213.703 0.775886 215.929 0.872643 216.219 1.93699V16.1605C215.929 17.2248 213.703 17.3216 213.703 17.3216V17.9989H223.476C227.927 17.9021 231.603 15.8702 233.055 12.5804C234.7 8.80683 233.055 5.13001 233.055 5.13001ZM229.378 5.6138C228.701 2.32402 226.766 1.54995 226.766 1.54995C229.088 2.1305 230.249 5.03325 230.346 8.12952C230.442 11.6128 229.281 15.1929 226.862 15.9669C226.862 15.9669 229.572 14.5156 229.668 8.90359C229.668 8.80683 229.765 8.03276 229.668 7.35545C229.572 6.48463 229.378 5.6138 229.378 5.6138ZM228.797 8.80683C228.797 8.80683 228.894 12.0966 227.83 13.8383C226.282 17.128 222.315 16.8378 222.315 16.8378C220.476 16.741 220.476 15.5799 220.476 15.5799V1.54995C220.476 1.54995 221.541 1.25968 223.863 1.25968C223.863 1.25968 225.991 1.16292 227.346 2.90457C227.346 2.90457 228.701 4.54946 228.701 7.25869L228.797 8.80683ZM216.896 1.84022H217.573V16.2572H216.896V1.84022Z" fill="#B9B9BA"/>
<path fill-rule="evenodd" clip-rule="evenodd" d="M18.9283 5.13123C16.7028 0.0997945 10.8006 0.196421 10.8006 0.196421H0.253906V0.873862C0.253906 0.873862 2.38259 0.970624 2.67287 2.03497V15.8714C2.38259 16.9358 0.253906 17.0325 0.253906 17.0325V17.7098H9.73623C13.9936 17.6131 17.5737 15.6779 19.025 12.4849C20.5732 8.71129 18.9283 5.13123 18.9283 5.13123ZM15.445 5.61502C14.7677 2.422 12.9293 1.64793 12.9293 1.64793C15.1547 2.22848 16.3158 5.03447 16.4126 8.03398C16.5093 11.3238 15.445 14.9038 13.026 15.5811C13.026 15.5811 15.6385 14.1298 15.7352 8.71129C15.7352 8.71129 15.7352 7.84047 15.7352 7.16316C15.6385 6.48585 15.445 5.61502 15.445 5.61502ZM14.9612 8.71129C14.9612 8.71129 15.0579 11.8076 13.9936 13.5492C12.5422 16.7422 8.67188 16.452 8.67188 16.452C6.93023 16.3552 6.93023 15.1941 6.93023 15.1941V1.55117C6.93023 1.55117 7.99457 1.2609 10.22 1.35766C10.22 1.35766 12.2519 1.2609 13.5098 2.90579C13.5098 2.90579 14.7677 4.45392 14.8644 7.0664L14.9612 8.71129ZM3.35017 1.93821H4.02748V15.8714H3.35017V1.93821Z" fill="#B9B9BA"/>
<path fill-rule="evenodd" clip-rule="evenodd" d="M26.862 1.74434V7.93688H30.6356C31.1194 7.74336 31.7 5.3244 31.7967 4.93737H32.474V12.0007H31.7C31.6032 11.6137 31.1194 9.19474 30.5388 9.09798H26.862V15.0002C26.862 15.2905 27.0555 16.2581 28.0231 16.3549C28.0231 16.3549 31.3129 16.9354 34.2157 15.8711C34.2157 15.8711 34.7962 15.2905 35.3768 12.678H36.0541L35.8606 17.7095H27.2491H25.9912H19.9922V17.0322C19.9922 17.0322 21.4436 17.0322 21.9274 15.9678V1.93786C21.4436 0.970277 19.9922 0.873518 19.9922 0.873518V0.292969H35.28V5.03413H34.6027C34.0222 2.42165 33.3448 1.93786 33.3448 1.93786C31.1194 0.873519 27.4426 1.64759 26.862 1.74434ZM23.4755 1.93786H23.9593V15.8711H23.4755V1.93786Z" fill="#B9B9BA"/>
<path fill-rule="evenodd" clip-rule="evenodd" d="M78.8206 3.67846L75.9179 11.2256H81.9169L78.8206 3.67846ZM79.0142 2.03356H79.5947L85.4002 15.87H84.7229L79.0142 2.03356ZM75.5309 12.2899L74.1762 15.87C74.1762 15.87 74.5633 16.9343 76.5952 16.9343V17.6117H70.0156V16.9343C70.0156 16.9343 72.0476 16.9343 72.6281 15.6765L77.8531 2.03356C77.3693 1.06598 75.3373 1.06598 75.3373 1.06598V0.388672H81.7234L88.3997 15.6765C88.3997 15.6765 88.9803 17.0311 91.0122 17.0311V17.7084H81.5299V17.0311C81.5299 17.0311 83.6586 16.9343 83.9488 16.0635L82.4007 12.3867H75.5309V12.2899Z" fill="#B9B9BA"/>
<path fill-rule="evenodd" clip-rule="evenodd" d="M41.9551 17.0316C41.9551 17.0316 44.9546 18.5797 49.599 17.7089C49.599 17.7089 51.9212 17.3219 53.9531 14.9997L53.3726 14.2256C49.0185 17.9024 44.7611 15.4835 44.7611 15.4835C38.9556 12.1937 40.794 0.00213599 48.8249 1.35675C48.8249 1.35675 51.0504 1.55027 51.3407 2.71137L52.1147 5.13033H52.792V1.06648C52.792 1.06648 49.5023 -0.578415 44.1805 0.29241C39.9232 1.06648 38.0848 5.13033 38.0848 5.13033C38.0848 5.13033 37.3107 6.38819 37.1172 8.71039C37.2139 8.80715 36.6334 14.5159 41.9551 17.0316ZM38.4718 9.77473C38.4718 9.77473 38.375 14.2256 42.4389 16.4511C39.4394 15.29 38.2783 12.2905 38.2783 12.2905C37.4075 9.48446 37.988 7.0655 37.988 7.0655C39.0524 2.80813 42.2454 1.64703 42.2454 1.64703C38.9556 3.87247 38.4718 7.16226 38.4718 7.16226C38.4718 7.16226 38.4718 7.93632 38.4718 9.77473Z" fill="#B9B9BA"/>
<path fill-rule="evenodd" clip-rule="evenodd" d="M58.5996 17.0316C58.5996 17.0316 61.5991 18.5797 66.2435 17.7089C66.2435 17.7089 68.5657 17.3219 70.5977 14.9997L70.0171 14.2256C65.663 17.9024 61.4056 15.4835 61.4056 15.4835C55.6001 12.1937 57.4385 0.00213599 65.4695 1.35675C65.4695 1.35675 67.6949 1.55027 67.9852 2.71137L68.7593 5.13033H69.4366V1.06648C69.4366 1.06648 66.1468 -0.578415 60.8251 0.29241C56.5677 1.06648 54.7293 5.13033 54.7293 5.13033C54.7293 5.13033 53.9552 6.38819 53.7617 8.71039C53.8585 8.80715 53.2779 14.5159 58.5996 17.0316ZM55.1163 9.77473C55.1163 9.77473 55.0196 14.2256 59.0834 16.4511C56.0839 15.29 54.9228 12.2905 54.9228 12.2905C54.052 9.48446 54.6325 7.0655 54.6325 7.0655C55.6969 2.80813 58.8899 1.64703 58.8899 1.64703C55.6001 3.87247 55.1163 7.16226 55.1163 7.16226C55.1163 7.16226 55.1163 7.93632 55.1163 9.77473Z" fill="#B9B9BA"/>
<path fill-rule="evenodd" clip-rule="evenodd" d="M95.3694 3.77521L106.11 17.7084H108.819V2.13032C109.399 1.16274 111.335 1.06598 111.335 1.06598V0.388672H104.852V1.16274C106.69 1.16274 107.367 2.22708 107.367 2.22708V12.2899L98.1754 0.485428H91.4991V1.16274C91.4991 1.16274 93.144 1.16274 93.9181 2.22708V16.0635C93.3375 17.0311 91.4023 17.1279 91.4023 17.1279V17.8052H97.8851V17.0311C96.0467 17.0311 95.3694 15.9668 95.3694 15.9668V3.77521ZM106.497 15.9668L95.8532 2.13032H95.1759L105.819 15.9668H106.497Z" fill="#B9B9BA"/>
</svg>
