<svg width="240" height="20" viewBox="0 0 240 20" fill="none" xmlns="http://www.w3.org/2000/svg">
<path d="M30.6833 1.46757H20.457V16.7477H23.6377V10.9366H29.4113V8.11227H23.6377V4.29194H30.6833V1.46757ZM36.2439 1.46757H33.0632V16.7477H36.2439V1.46757ZM49.8638 1.46757V10.589L40.8385 1.18971H39.8016V16.7477H42.9823V7.57941L51.983 17.0256H53.0433V1.46757H49.8626H49.8638ZM66.641 16.7477H70.0579L63.1299 1.18971H62.0696L55.1183 16.7477H58.5352L59.4069 14.757H65.7693L66.641 16.7477ZM64.6614 12.1864H60.5136L62.5875 7.02369L64.6614 12.1864ZM82.2405 1.46643V10.5879L73.2153 1.18857H72.1783V16.7466H75.359V7.57827L84.3609 17.0245H85.4212V1.46643H82.2405ZM96.3783 1.18857C91.7359 1.18857 88.0839 4.61554 88.0839 9.10709C88.0839 13.5986 91.7359 17.0245 96.355 17.0245C99.3716 17.0245 101.892 15.5654 103.235 13.2281L100.832 11.561C99.7952 13.1813 98.3346 14.1303 96.3783 14.1303C93.4804 14.1303 91.3588 12.0698 91.3588 9.12995C91.3588 6.16608 93.4793 4.08269 96.3783 4.08269C98.3346 4.08269 99.7952 5.03176 100.832 6.65206L103.235 4.98488C101.869 2.64649 99.3704 1.18742 96.3783 1.18742V1.18857ZM109.126 1.46643H105.946V16.7466H109.126V1.46643ZM122.723 16.7466H126.14L119.212 1.18857H118.152L111.2 16.7466H114.617L115.489 14.7558H121.851L122.723 16.7466ZM120.743 12.1853H116.596L118.67 7.02254L120.743 12.1853ZM131.441 1.46529H128.26V16.7455H138.252V13.9211H131.441V1.46529ZM156.489 1.46529H146.027V16.7455H156.772V13.9211H149.209V10.055H154.557V7.39303H149.209V4.2908H156.489V1.46643V1.46529ZM171.877 16.7455L166.763 8.96644L171.547 1.46529H167.941L164.972 6.28043L161.98 1.46529H158.351L163.206 8.96644L158.045 16.7455H161.674L164.972 11.6753L168.272 16.7455H171.877ZM179.842 1.46529H173.999V16.7455H177.179V11.3517H179.842C183.117 11.3517 185.45 9.33807 185.45 6.39707C185.45 3.41033 183.117 1.46529 179.842 1.46529ZM179.842 4.2199C181.327 4.2199 182.199 5.12324 182.199 6.39592C182.199 7.71548 181.327 8.61882 179.842 8.61882H177.179V4.2199H179.842ZM201.12 16.7455L196.714 10.7491C198.387 9.93839 199.447 8.36383 199.447 6.39592C199.447 3.40918 197.115 1.46414 193.839 1.46414H187.996V16.7443H191.176V11.3506H193.51L197.539 16.7443H201.121L201.12 16.7455ZM191.175 4.2199H193.838C195.323 4.2199 196.195 5.12324 196.195 6.39592C196.195 7.71548 195.323 8.59595 193.838 8.59595H191.175V4.2199ZM213.537 1.46529H203.075V16.7455H213.82V13.9211H206.257V10.055H211.605V7.39303H206.257V4.2908H213.537V1.46643V1.46529ZM221.455 1.18742C218.532 1.18742 216.294 2.87747 216.294 5.51659C216.294 7.66975 217.849 8.91956 220.064 9.91552L221.737 10.6565C222.963 11.2122 223.717 11.5598 223.717 12.5546C223.717 13.6192 222.869 14.2447 221.502 14.2447C219.641 14.2447 218.534 13.1801 217.685 12.0218L215.494 13.6421C216.648 15.6797 218.816 17.0222 221.502 17.0222C224.589 17.0222 226.945 15.2864 226.945 12.438C226.945 10.262 225.555 9.03505 223.105 7.96933L221.338 7.2055C220.207 6.69665 219.524 6.32617 219.524 5.4457C219.524 4.42687 220.419 3.96376 221.456 3.96376C222.728 3.96376 223.671 4.61211 224.425 5.72356L226.593 4.0804C225.673 2.41322 223.93 1.18628 221.456 1.18628L221.455 1.18742ZM234.509 1.18742C231.587 1.18742 229.349 2.87747 229.349 5.51659C229.349 7.66975 230.903 8.91956 233.118 9.91552L234.792 10.6565C236.017 11.2122 236.771 11.5598 236.771 12.5546C236.771 13.6192 235.923 14.2447 234.557 14.2447C232.695 14.2447 231.588 13.1801 230.739 12.0218L228.548 13.6421C229.702 15.6797 231.871 17.0222 234.557 17.0222C237.643 17.0222 240 15.2864 240 12.438C240 10.262 238.609 9.03505 236.159 7.96933L234.391 7.2055C233.26 6.69665 232.577 6.32617 232.577 5.4457C232.577 4.42687 233.472 3.96376 234.509 3.96376C235.781 3.96376 236.724 4.61211 237.478 5.72356L239.646 4.0804C238.727 2.41322 236.983 1.18628 234.509 1.18628V1.18742Z" fill="#B9B9BA"/>
<path d="M6.27199 2.00762C5.53298 2.89381 5.66216 4.22938 6.54548 4.98635L12.8265 10.5219C13.6493 11.2263 13.1081 12.3937 13.1081 12.3937L13.2373 12.5047L14.5512 10.9004C14.8724 10.5127 15.0295 10.0416 15.0319 9.57281V9.54879C15.0295 8.9439 14.7712 8.34129 14.2801 7.92049L7.99673 2.38611C7.17393 1.6783 7.71625 0.511962 7.71625 0.511962L7.58707 0.399902L6.27315 2.00648L6.27199 2.00762Z" fill="#B9B9BA"/>
<path d="M3.3756 5.55236C2.63659 6.44084 2.76577 7.77641 3.64793 8.53224L9.93008 14.0666C10.7529 14.7733 10.2106 15.9396 10.2106 15.9396L10.3397 16.0528L11.6537 14.4463C12.3915 13.5601 12.2635 12.2234 11.3813 11.4675L5.09918 5.93199C4.27521 5.22533 4.81754 4.06014 4.81754 4.06014L4.68836 3.94922L3.37444 5.5535L3.3756 5.55236Z" fill="#B9B9BA"/>
<path d="M0.479483 9.09933C0.160603 9.48239 0.00349138 9.95235 0 10.4212V10.4555C0.00349138 11.0581 0.261854 11.6584 0.752974 12.0781L7.03513 17.6136C7.8591 18.3214 7.31677 19.4877 7.31677 19.4877L7.44595 19.5998L8.75987 17.9932C9.49772 17.1036 9.36854 15.7692 8.48755 15.0156L2.20539 9.47896C1.38142 8.77229 1.92375 7.6071 1.92375 7.6071L1.79457 7.4939L0.480647 9.10047L0.479483 9.09933Z" fill="#B9B9BA"/>
</svg>
