<svg width="240" height="20" viewBox="0 0 240 20" fill="none" xmlns="http://www.w3.org/2000/svg">
<path d="M30.6833 1.15312H20.457V16.4333H23.6377V10.6222H29.4113V7.79782H23.6377V3.97749H30.6833V1.15312ZM36.2439 1.15312H33.0632V16.4333H36.2439V1.15312ZM49.8638 1.15312V10.2746L40.8385 0.875257H39.8016V16.4333H42.9823V7.26496L51.983 16.7112H53.0433V1.15312H49.8626H49.8638ZM66.641 16.4333H70.0579L63.1299 0.875257H62.0696L55.1183 16.4333H58.5352L59.4069 14.4425H65.7693L66.641 16.4333ZM64.6614 11.872H60.5136L62.5875 6.70923L64.6614 11.872ZM82.2405 1.15198V10.2734L73.2153 0.874113H72.1783V16.4321H75.359V7.26381L84.3609 16.71H85.4212V1.15198H82.2405ZM96.3783 0.874113C91.7359 0.874113 88.0839 4.30109 88.0839 8.79263C88.0839 13.2842 91.7359 16.71 96.355 16.71C99.3716 16.71 101.892 15.2509 103.235 12.9137L100.832 11.2465C99.7952 12.8668 98.3346 13.8159 96.3783 13.8159C93.4804 13.8159 91.3588 11.7554 91.3588 8.8155C91.3588 5.85163 93.4793 3.76823 96.3783 3.76823C98.3346 3.76823 99.7952 4.71731 100.832 6.33761L103.235 4.67043C101.869 2.33204 99.3704 0.87297 96.3783 0.87297V0.874113ZM109.126 1.15198H105.946V16.4321H109.126V1.15198ZM122.723 16.4321H126.14L119.212 0.874113H118.152L111.2 16.4321H114.617L115.489 14.4414H121.851L122.723 16.4321ZM120.743 11.8708H116.596L118.67 6.70809L120.743 11.8708ZM131.441 1.15083H128.26V16.431H138.252V13.6066H131.441V1.15083ZM156.489 1.15083H146.027V16.431H156.772V13.6066H149.209V9.74057H154.557V7.07857H149.209V3.97634H156.489V1.15198V1.15083ZM171.877 16.431L166.763 8.65199L171.547 1.15083H167.941L164.972 5.96598L161.98 1.15083H158.351L163.206 8.65199L158.045 16.431H161.674L164.972 11.3609L168.272 16.431H171.877ZM179.842 1.15083H173.999V16.431H177.179V11.0373H179.842C183.117 11.0373 185.45 9.02361 185.45 6.08261C185.45 3.09587 183.117 1.15083 179.842 1.15083ZM179.842 3.90545C181.327 3.90545 182.199 4.80879 182.199 6.08147C182.199 7.40103 181.327 8.30437 179.842 8.30437H177.179V3.90545H179.842ZM201.12 16.431L196.714 10.4347C198.387 9.62393 199.447 8.04938 199.447 6.08147C199.447 3.09473 197.115 1.14969 193.839 1.14969H187.996V16.4299H191.176V11.0361H193.51L197.539 16.4299H201.121L201.12 16.431ZM191.175 3.90545H193.838C195.323 3.90545 196.195 4.80879 196.195 6.08147C196.195 7.40103 195.323 8.2815 193.838 8.2815H191.175V3.90545ZM213.537 1.15083H203.075V16.431H213.82V13.6066H206.257V9.74057H211.605V7.07857H206.257V3.97634H213.537V1.15198V1.15083ZM221.455 0.87297C218.532 0.87297 216.294 2.56302 216.294 5.20214C216.294 7.35529 217.849 8.6051 220.064 9.60106L221.737 10.342C222.963 10.8978 223.717 11.2454 223.717 12.2402C223.717 13.3048 222.869 13.9302 221.502 13.9302C219.641 13.9302 218.534 12.8657 217.685 11.7073L215.494 13.3276C216.648 15.3653 218.816 16.7077 221.502 16.7077C224.589 16.7077 226.945 14.9719 226.945 12.1236C226.945 9.94753 225.555 8.72059 223.105 7.65488L221.338 6.89104C220.207 6.3822 219.524 6.01172 219.524 5.13125C219.524 4.11242 220.419 3.64931 221.456 3.64931C222.728 3.64931 223.671 4.29766 224.425 5.40911L226.593 3.76594C225.673 2.09877 223.93 0.871826 221.456 0.871826L221.455 0.87297ZM234.509 0.87297C231.587 0.87297 229.349 2.56302 229.349 5.20214C229.349 7.35529 230.903 8.6051 233.118 9.60106L234.792 10.342C236.017 10.8978 236.771 11.2454 236.771 12.2402C236.771 13.3048 235.923 13.9302 234.557 13.9302C232.695 13.9302 231.588 12.8657 230.739 11.7073L228.548 13.3276C229.702 15.3653 231.871 16.7077 234.557 16.7077C237.643 16.7077 240 14.9719 240 12.1236C240 9.94753 238.609 8.72059 236.159 7.65488L234.391 6.89104C233.26 6.3822 232.577 6.01172 232.577 5.13125C232.577 4.11242 233.472 3.64931 234.509 3.64931C235.781 3.64931 236.724 4.29766 237.478 5.40911L239.646 3.76594C238.727 2.09877 236.983 0.871826 234.509 0.871826V0.87297Z" fill="#035D8E"/>
<path d="M6.27199 1.69317C5.53298 2.57935 5.66216 3.91492 6.54548 4.6719L12.8265 10.2074C13.6493 10.9118 13.1081 12.0793 13.1081 12.0793L13.2373 12.1902L14.5512 10.5859C14.8724 10.1983 15.0295 9.72717 15.0319 9.25835V9.23434C15.0295 8.62945 14.7712 8.02684 14.2801 7.60604L7.99673 2.07165C7.17393 1.36385 7.71625 0.197509 7.71625 0.197509L7.58707 0.0854492L6.27315 1.69202L6.27199 1.69317Z" fill="#FF1303"/>
<path d="M3.3756 5.23791C2.63659 6.12638 2.76577 7.46195 3.64793 8.21779L9.93008 13.7522C10.7529 14.4588 10.2106 15.6252 10.2106 15.6252L10.3397 15.7384L11.6537 14.1318C12.3915 13.2456 12.2635 11.9089 11.3813 11.1531L5.09918 5.61754C4.27521 4.91088 4.81754 3.74568 4.81754 3.74568L4.68836 3.63477L3.37444 5.23905L3.3756 5.23791Z" fill="#FF1303"/>
<path d="M0.479483 8.78487C0.160603 9.16793 0.00349138 9.6379 0 10.1067V10.141C0.00349138 10.7436 0.261854 11.344 0.752974 11.7636L7.03513 17.2991C7.8591 18.0069 7.31677 19.1733 7.31677 19.1733L7.44595 19.2853L8.75987 17.6788C9.49772 16.7892 9.36854 15.4547 8.48755 14.7012L2.20539 9.1645C1.38142 8.45784 1.92375 7.29265 1.92375 7.29265L1.79457 7.17944L0.480647 8.78602L0.479483 8.78487Z" fill="#FF1303"/>
</svg>
