<svg width="87" height="20" viewBox="0 0 87 20" fill="none" xmlns="http://www.w3.org/2000/svg">
<path d="M11.2367 4.57831V15.3735C11.2367 16.5877 11.719 17.7522 12.5776 18.6108C13.4362 19.4694 14.6007 19.9518 15.815 19.9518C17.0292 19.9518 18.1937 19.4694 19.0523 18.6108C19.9109 17.7522 20.3933 16.5877 20.3933 15.3735V4.57831C20.3933 3.36407 19.9109 2.19956 19.0523 1.34096C18.1937 0.482357 17.0292 0 15.815 0C14.6007 0 13.4362 0.482357 12.5776 1.34096C11.719 2.19956 11.2367 3.36407 11.2367 4.57831ZM14.5138 15.3735V4.57831C14.5118 4.4049 14.5461 4.233 14.6145 4.07364C14.683 3.91429 14.7839 3.77101 14.911 3.653C15.0381 3.535 15.1885 3.44488 15.3524 3.38845C15.5164 3.33201 15.6904 3.3105 15.8632 3.3253C16.0292 3.31994 16.1945 3.34869 16.349 3.40976C16.5034 3.47083 16.6437 3.56294 16.7611 3.68038C16.8786 3.79781 16.9707 3.93809 17.0317 4.09254C17.0928 4.24698 17.1216 4.41232 17.1162 4.57831V15.3735C17.1112 15.7043 16.9776 16.0201 16.7437 16.254C16.5098 16.4879 16.194 16.6215 15.8632 16.6265C15.6923 16.633 15.5218 16.6056 15.3614 16.5461C15.2011 16.4866 15.0541 16.3961 14.9287 16.2797C14.8034 16.1634 14.7022 16.0234 14.631 15.8679C14.5598 15.7124 14.52 15.5444 14.5138 15.3735ZM46.8029 0.240964H37.5499V3.51807H40.5379V19.6145H43.815V3.51807H46.8029V0.240964ZM56.4415 0.240964V15.3735C56.4415 15.7058 56.3095 16.0245 56.0745 16.2595C55.8395 16.4945 55.5208 16.6265 55.1885 16.6265C54.8562 16.6265 54.5375 16.4945 54.3025 16.2595C54.0675 16.0245 53.9355 15.7058 53.9355 15.3735V0.240964H50.562V15.3735C50.562 16.6005 51.0494 17.7773 51.917 18.6449C52.7847 19.5126 53.9615 20 55.1885 20C56.4155 20 57.5923 19.5126 58.4599 18.6449C59.3276 17.7773 59.815 16.6005 59.815 15.3735V0.240964H56.4415ZM86.4174 3.51807V0.240964H78.321V19.6145H86.4174V16.3373H81.5981V11.3253H84.6824V8.04819H81.5981V3.51807H86.4174ZM34.4656 19.6145H30.9957L28.5861 10.4578C29.1873 10.3389 29.7281 10.0138 30.1152 9.53869C30.5023 9.06359 30.7115 8.46826 30.7066 7.85542V4.86747C30.7105 4.68918 30.6783 4.51194 30.6119 4.34644C30.5455 4.18094 30.4462 4.03061 30.3201 3.90451C30.194 3.77841 30.0437 3.67916 29.8782 3.61274C29.7127 3.54633 29.5354 3.51412 29.3572 3.51807H28.1041V19.6145H24.827V0.240964H29.3572C30.5544 0.230228 31.7083 0.687902 32.5727 1.51628C33.4371 2.34467 33.9435 3.47813 33.9837 4.6747V7.75904C34.0277 8.55947 33.8852 9.35919 33.5674 10.0952C33.2496 10.8311 32.7652 11.4832 32.1523 12L34.4656 19.6145ZM70.9957 0.240964V10.8434L67.6222 0.240964H64.2487V19.6145H67.6222V10.1687L70.7066 19.6145H74.3692V0.240964H70.9957ZM0.152344 0.53012V19.9036H3.62222V11.6145H6.80295V8.33735H3.62222V3.80723H8.63427V0.53012H0.152344Z" fill="#B9B9BA"/>
</svg>
