<svg width="188" height="24" viewBox="0 0 188 24" fill="none" xmlns="http://www.w3.org/2000/svg">
<path d="M12.2044 23.3175C18.2705 23.3175 23.1881 18.2959 23.1881 12.1015C23.1881 5.90707 18.2705 0.885498 12.2044 0.885498C6.13827 0.885498 1.2207 5.90707 1.2207 12.1015C1.2207 18.2959 6.13827 23.3175 12.2044 23.3175Z" fill="white"/>
<path d="M18.0432 14.4997L16.239 15.4862V15.5187C16.753 15.7537 17.3144 15.8662 17.8792 15.8474C18.3007 15.8603 18.7216 15.8054 19.1257 15.6847V8.2874L18.6334 8.25485L18.0118 8.84757V14.5021L18.0432 14.4997ZM4.00438 10.8173V10.6546C4.00438 9.30604 4.03692 9.17505 5.48026 7.2354L5.44772 7.20286L4.26799 7.86025H3.384C2.92513 7.86025 2.76281 7.8928 2.59684 8.09051C2.54171 8.15903 2.50154 8.23834 2.47891 8.32332C2.45628 8.40831 2.4517 8.49709 2.46544 8.58396H2.30271C2.15384 8.35992 2.07406 8.0971 2.07327 7.82811C2.06348 7.63531 2.09333 7.44255 2.161 7.26175C2.22866 7.08094 2.33269 6.91594 2.46666 6.77693C2.63959 6.62398 2.84317 6.50969 3.0638 6.44172C3.28443 6.37374 3.51703 6.35363 3.74605 6.38274L5.02546 6.48119L5.91107 6.38274L6.04247 6.44864V13.6161C6.04247 14.4724 6.00951 14.7336 4.17117 16.5093L4.20411 16.5752L5.84435 16.0818H6.86136V6.31399H7.35359V10.8181H9.19071V7.56369L11.5209 6.28145L11.6523 6.34735L11.3903 8.2874V15.4549L12.5054 16.2766V16.408L10.7996 17.5255H10.667L9.22366 16.1448V12.2322H7.3845V16.6379L6.00707 17.5585H2.79332L2.72782 17.4271C3.97387 15.8812 4.07313 15.4219 4.07313 14.5339V12.2655H2.00616L1.9732 12.1337L2.89176 10.8515H4.00641L4.00438 10.8173ZM14.4999 12.3632C14.4822 12.8448 14.5601 13.3252 14.729 13.7766C14.8979 14.228 15.1545 14.6414 15.484 14.9932C15.5872 15.1108 15.7091 15.2107 15.8448 15.2889H15.8778L16.2711 14.7954V9.14087L17.9769 8.22028V8.18773C17.3476 8.0798 16.7119 8.01389 16.0738 7.99043C14.8278 7.99043 14.3356 8.22068 13.9747 8.58314C13.7479 8.82662 13.6094 9.1392 13.5813 9.47079H13.319C13.1969 9.15579 13.1303 8.82203 13.1221 8.48429C13.1141 8.21036 13.1625 7.93771 13.2642 7.68322C13.3658 7.42873 13.5187 7.19781 13.7132 7.00475C14.205 6.5117 14.9925 6.21555 16.2374 6.21555C17.1559 6.21555 18.6644 6.51129 19.9434 6.51129C20.829 6.51129 21.0914 6.37989 21.4847 5.81973L21.6475 5.85227C21.3521 7.75977 20.6304 8.28496 19.6472 8.28496H19.5488V15.4854C20.3252 15.2014 20.9683 14.6388 21.3529 13.907L21.5156 13.9395C21.4876 14.8195 21.1236 15.6553 20.4986 16.2754C20.0562 16.6919 19.5358 17.0168 18.9672 17.2312C18.3987 17.4456 17.7933 17.5453 17.186 17.5247C16.6017 17.5586 16.0166 17.4705 15.4681 17.266C14.9196 17.0616 14.4197 16.7452 14.0002 16.337C13.5806 15.9288 13.2506 15.4377 13.0311 14.8951C12.8117 14.3524 12.7076 13.77 12.7254 13.1849C12.7202 12.6738 12.8161 12.1667 13.0074 11.6928C13.1988 11.2188 13.4819 10.7873 13.8405 10.4231C14.3118 9.94328 14.8829 9.5729 15.5133 9.33817L15.6113 9.46957C14.9042 10.2688 14.5082 11.2957 14.4958 12.3628M24.2697 12.0011C24.29 10.4319 23.999 8.87426 23.4135 7.41824C22.828 5.96222 21.9597 4.63673 20.8587 3.51844C18.5153 1.26114 15.3883 0 12.1346 0C8.88084 0 5.75379 1.26114 3.41045 3.51844C1.22196 5.79987 0 8.83891 0 12.0003C0 15.1617 1.22196 18.2007 3.41045 20.4822C5.75405 22.7391 8.8811 24 12.1348 24C15.3884 24 18.5155 22.7391 20.8591 20.4822C23.0701 18.215 24.296 15.1662 24.2701 11.9995" fill="#00B1CD"/>
<path d="M33.2337 20.9046L32.8757 21.1772C32.3261 20.8002 31.6704 20.6091 31.0044 20.6317C30.2529 20.6324 29.5116 20.8056 28.8377 21.1381V21.1178C29.5944 20.6251 30.4807 20.3689 31.3835 20.3819C32.0423 20.3455 32.6942 20.5308 33.2353 20.9083M178.339 20.5926C178.36 20.4535 178.418 20.3226 178.508 20.2139C178.745 20.1371 178.994 20.1015 179.243 20.1085C180.292 20.0598 181.319 20.4224 182.105 21.119L181.768 21.3293C181.053 20.6345 179.897 20.4454 179.117 20.4454C178.85 20.4433 178.585 20.4933 178.338 20.5926M86.9533 20.5926C86.9743 20.4535 87.0324 20.3226 87.1217 20.2139C87.3593 20.1372 87.6082 20.1017 87.8576 20.1089C88.8527 20.0829 89.8188 20.4453 90.5511 21.1194L90.2147 21.3298C89.5181 20.7509 88.6388 20.4377 87.7332 20.4458C87.4666 20.4458 87.2024 20.4958 86.9541 20.593M51.814 19.2042C52.4226 19.8736 53.1158 20.4608 53.8761 20.951L53.4551 21.2236C52.7083 20.732 52.0291 20.1448 51.4349 19.4768L51.814 19.2042ZM152.14 19.2042C152.748 19.8735 153.441 20.4608 154.202 20.951L153.781 21.2236C153.034 20.732 152.355 20.1448 151.76 19.4768L152.14 19.2042ZM115.632 19.2042C116.24 19.8736 116.934 20.4608 117.694 20.951L117.273 21.2236C116.526 20.7321 115.847 20.1448 115.253 19.4768L115.632 19.2042ZM145.869 19.0781C146.509 19.8238 147.271 20.457 148.12 20.9514L147.701 21.224C146.874 20.715 146.129 20.0841 145.491 19.3527L145.869 19.0781ZM45.5203 19.0781C46.1659 19.8189 46.9261 20.4514 47.772 20.9514L47.351 21.224C46.5245 20.715 45.7796 20.0842 45.1416 19.3527L45.5203 19.0781ZM97.5359 18.8055C98.4215 19.6686 99.4111 20.418 100.482 21.0364L100.061 21.331C99.0012 20.7068 98.0254 19.95 97.1572 19.0789L97.5359 18.8055ZM106.119 21.2256C105.352 20.7696 104.681 20.1694 104.142 19.458V17.3935C104.15 16.7751 104.122 16.1568 104.057 15.5417L104.5 15.3733C104.52 15.8798 104.563 16.5307 104.563 17.1836V19.3071C105.106 19.9754 105.779 20.5267 106.541 20.9278L106.119 21.2256ZM184.015 19.5219V15.881L182.774 15.3355L183.026 15.0629L184.437 15.6731V19.8535L184.373 19.8738L184.015 19.5219ZM92.4627 19.5219V15.881L91.2211 15.3355L91.4733 15.0629L92.8837 15.6731V19.8535L92.8206 19.8738L92.4627 19.5219ZM107.213 16.0702C107.185 15.4629 107.234 14.8546 107.36 14.2599C107.973 14.4282 108.599 14.5408 109.232 14.5963V19.0114C108.895 19.1586 108.537 19.2839 108.243 19.4324C107.872 19.2192 107.533 18.9572 107.232 18.6534V16.0653L107.213 16.0702ZM35.6094 12.1746H38.6393V12.5322H35.6094V12.1746ZM27.5714 12.638L27.9501 12.1746H30.2843V12.5322H29.2742C28.7042 12.5188 28.1341 12.5541 27.5701 12.6376M66.3711 20.951L65.95 21.2236C65.1146 20.7165 64.3858 20.0518 63.8041 19.2664V13.2457C63.8041 11.8146 63.7838 11.204 63.7411 10.6992L64.204 10.51V19.1188C64.7914 19.8727 65.5292 20.4962 66.3707 20.9494M104.372 12.0888C105.108 11.5823 105.803 11.0372 106.498 10.4685C107.323 11.034 108.253 11.4276 109.233 11.6259V14.1301C107.067 13.941 105.509 13.2462 104.373 12.0884M172.402 10.4657L172.466 10.4453C173.036 11.6442 173.72 12.786 174.507 13.8551L172.404 14.9913L172.402 10.4657ZM181.808 16.0429L181.535 16.3375L178.758 15.0324V11.8968C178.757 11.4118 178.729 10.9272 178.674 10.4453L179.18 10.298V14.8229L181.808 16.0429ZM90.2549 16.0429L89.9824 16.3375L87.2051 15.0324V11.8968C87.2039 11.4118 87.1758 10.9272 87.1209 10.4453L87.6274 10.298V14.8229L90.2549 16.0429ZM142.796 19.1595C142.095 19.8976 141.249 20.4825 140.311 20.8773C139.373 21.2721 138.363 21.4683 137.345 21.4534C134.945 21.4534 133.053 20.6744 131.642 19.3071C131.002 18.6677 130.497 17.906 130.157 17.0674C129.817 16.2287 129.65 15.3302 129.664 14.4255C129.668 13.6371 129.834 12.8579 130.152 12.1368C130.471 11.4158 130.935 10.7684 131.516 10.2354L131.537 10.2557C130.573 11.354 130.056 12.7729 130.086 14.2335C130.079 15.1249 130.251 16.0086 130.591 16.8325C130.931 17.6564 131.433 18.4039 132.067 19.0309C133.371 20.3359 135.182 21.0515 137.495 21.0515C139.439 21.1169 141.335 20.4396 142.798 19.1574L142.796 19.1595ZM97.4948 10.3823H96.7589L96.9696 10.0035H97.4956L97.4948 10.3823ZM103.282 10.0247L102.945 10.4669C102.29 10.3831 101.628 10.3549 100.968 10.3827V10.0039H103.24L103.282 10.0247ZM172.677 21.285C171.444 20.2259 170.31 19.0565 169.289 17.7914V12.4663C169.289 11.4143 169.226 10.488 169.184 10.1288L169.626 10.0239C169.695 10.7091 169.723 11.3978 169.71 12.0864V17.6213C170.729 18.8552 171.856 19.9963 173.077 21.0312L172.677 21.285ZM111.593 20.9486L111.172 21.2211C110.518 20.6788 109.95 20.0401 109.489 19.3271V11.4351C108.479 11.2343 107.52 10.8331 106.668 10.2553L106.963 9.96081C107.85 10.5521 108.843 10.9665 109.888 11.1812V19.1578C110.382 19.8205 110.954 20.4215 111.592 20.9478M59.8923 20.9478L59.4713 21.2203C58.8197 20.7604 58.2262 20.2234 57.7037 19.6208V10.9713C57.4336 10.5799 57.0906 10.2442 56.6936 9.98236L57.0724 9.81395C57.484 10.0977 57.8403 10.4542 58.1239 10.8659V19.4747C58.651 20.0359 59.2446 20.5307 59.8915 20.9482M123.69 20.9482L123.269 21.2207C122.618 20.7609 122.024 20.2238 121.502 19.6212V10.9713C121.231 10.58 120.889 10.2443 120.492 9.98236L120.871 9.81395C121.282 10.0977 121.639 10.4542 121.922 10.8659V19.4747C122.454 20.0309 123.047 20.5252 123.69 20.9482M160.219 20.9482L159.798 21.2207C159.146 20.7609 158.553 20.2238 158.03 19.6212V10.9713C157.76 10.5799 157.417 10.2442 157.02 9.98236L157.399 9.81395C157.81 10.0977 158.167 10.4542 158.45 10.8659V19.4747C158.982 20.031 159.575 20.5253 160.218 20.9482M165.9 20.9482L165.479 21.2207C164.827 20.7609 164.234 20.2238 163.711 19.6212V10.9713C163.432 10.5662 163.074 10.2219 162.658 9.95919L163.037 9.79077C163.451 10.0876 163.813 10.4501 164.11 10.8639V19.4727C164.655 20.0238 165.255 20.5175 165.9 20.9461M115.845 18.7994V10.9074C115.601 10.5417 115.303 10.2152 114.961 9.93925L115.319 9.75008C115.676 10.0374 115.994 10.3698 116.266 10.739V18.4858L115.887 18.7803H115.847L115.845 18.7994ZM146.082 18.6522V10.9091C145.832 10.5487 145.534 10.2232 145.198 9.94128L145.556 9.75212C145.913 10.0396 146.231 10.372 146.502 10.7411V18.3597L146.124 18.6542L146.082 18.6522ZM76.1807 19.1151C76.7452 19.8775 77.48 20.4974 78.3266 20.9254L77.9056 21.1979C77.0529 20.7143 76.3196 20.0455 75.7597 19.2408V10.593C75.4774 10.3312 75.1585 10.1119 74.8131 9.94209L75.1706 9.75293C75.5275 9.95847 75.859 10.2052 76.1584 10.488V19.1167L76.1807 19.1151ZM152.375 18.7994V10.9074C152.131 10.5418 151.833 10.2155 151.492 9.93966L151.849 9.75049C152.206 10.0377 152.524 10.3699 152.796 10.739V18.4838L152.417 18.7783H152.376L152.375 18.7994ZM45.7563 18.6522V10.9091C45.5061 10.5487 45.2089 10.2232 44.8727 9.94128L45.2303 9.75212C45.5871 10.0398 45.9053 10.3723 46.1769 10.7415V18.3597L45.7982 18.6542H45.7575L45.7563 18.6522ZM52.0268 18.7994V10.9074C51.7831 10.5418 51.4852 10.2155 51.1432 9.93966L51.5008 9.75049C51.8578 10.0378 52.176 10.3702 52.4474 10.7394V18.4858L52.0687 18.7803H52.028L52.0268 18.7994ZM81.4436 10.2757C81.2559 10.1138 81.0513 9.97268 80.8334 9.85463L81.1909 9.66506C81.4291 9.80479 81.6479 9.97505 81.8418 10.1715V19.1582C82.2944 19.8484 82.8641 20.4541 83.5252 20.9482L83.1041 21.2207C82.414 20.6914 81.8409 20.0251 81.4208 19.2636V10.2781L81.4436 10.2757ZM67.0089 12.4427C67.0089 10.6528 67.072 9.96122 67.2815 9.3262C67.8075 9.62072 68.4177 9.97709 69.1528 10.4205V18.9443C68.7745 19.0915 68.3738 19.2388 68.0166 19.4076C67.6434 19.1824 67.3035 18.9061 67.0069 18.5867L67.0089 12.4427ZM185.939 10.8432L185.644 11.2219C185.469 11.2819 185.284 11.3104 185.099 11.3061C184.449 11.3052 183.806 11.1615 183.217 10.8851C182.628 10.6087 182.107 10.2064 181.69 9.70656V9.28552H181.753C182.175 9.7995 182.705 10.2147 183.305 10.502C183.905 10.7892 184.56 10.9415 185.225 10.9481C185.47 10.9398 185.712 10.89 185.941 10.8009L185.939 10.8432ZM94.408 10.8432L94.1135 11.2219C93.9382 11.2819 93.7536 11.3104 93.5684 11.3061C92.9177 11.3052 92.2752 11.1615 91.6861 10.8851C91.0971 10.6088 90.5759 10.2064 90.1593 9.70656V9.28552H90.2224C90.6445 9.7995 91.1741 10.2147 91.774 10.502C92.3739 10.7892 93.0294 10.9415 93.6945 10.9481C93.9396 10.9398 94.1815 10.89 94.41 10.8009L94.408 10.8432ZM174.723 13.7477C173.836 12.5078 173.062 11.1912 172.409 9.81355V9.16266L172.472 9.14231C173.181 10.7112 174.056 12.1998 175.081 13.583L174.723 13.7477ZM156.897 19.6004L156.728 19.3279C156.518 19.4121 156.307 19.4963 156.118 19.5805C155.921 19.4783 155.738 19.351 155.573 19.2018V10.6552C155.931 10.4661 156.352 10.2765 156.753 10.1097C157.149 10.3644 157.492 10.6932 157.763 11.0779V19.7924C158.345 20.4906 159.025 21.1004 159.783 21.6027H159.846C160.808 20.8689 161.813 20.1941 162.856 19.5821L162.688 19.3096L162.099 19.5622C161.775 19.3785 161.484 19.1442 161.234 18.8682V10.6589C161.592 10.4697 162.013 10.2802 162.414 10.1134C162.81 10.3682 163.153 10.6969 163.424 11.0816V19.7949C164.006 20.4929 164.687 21.1025 165.444 21.6047H165.508C166.601 20.7838 167.464 20.1736 168.727 19.395L168.559 19.1224C168.291 19.2554 168.017 19.3747 167.738 19.48C167.425 19.3362 167.145 19.1284 166.918 18.8698V10.2354C166.423 9.30584 165.671 8.53862 164.751 8.02564H164.688C163.419 8.54826 162.239 9.26614 161.192 10.1532C160.71 9.24955 159.97 8.50955 159.066 8.02726H159.003C157.747 8.53796 156.581 9.24907 155.552 10.1329C155.041 9.31909 154.385 8.60551 153.617 8.02726H153.554C152.308 8.6818 151.143 9.47923 150.082 10.4034L150.292 10.656C150.565 10.4669 150.902 10.2773 151.197 10.1105C151.511 10.3859 151.8 10.6887 152.06 11.0152V18.9479C151.808 19.1371 151.597 19.3055 151.365 19.4743V19.5374C152.063 20.3265 152.862 21.0201 153.741 21.6003H153.804C154.789 20.866 155.822 20.1981 156.896 19.6008M50.7604 19.369L50.592 19.0964C50.2344 19.2437 49.9411 19.369 49.6453 19.5174C49.3877 19.3774 49.1475 19.2074 48.9298 19.011V10.1313C48.4301 9.30264 47.7724 8.58031 46.9942 8.0053H46.9311C45.6854 8.65979 44.5202 9.45721 43.4591 10.3814L43.6694 10.6341C43.9615 10.437 44.2635 10.2549 44.5741 10.0885C44.888 10.3641 45.1767 10.667 45.437 10.9937V18.7596C45.2157 18.9542 44.9837 19.1364 44.7421 19.3051V19.3681C45.4722 20.2392 46.3391 20.9855 47.3091 21.5779H47.3721C48.5291 20.757 49.4135 20.1675 50.7604 19.3681M120.641 19.4524L120.473 19.1798C120.136 19.3271 119.863 19.4324 119.568 19.5581C119.378 19.453 119.202 19.3258 119.042 19.179V10.6361C119.4 10.4465 119.821 10.2574 120.222 10.091C120.618 10.3457 120.961 10.6744 121.232 11.0592V19.7725C121.814 20.4705 122.494 21.0801 123.252 21.5824H123.315C124.342 20.7804 125.417 20.0424 126.535 19.3726L126.366 19.1001C126.099 19.233 125.825 19.3524 125.546 19.4576C125.232 19.3138 124.953 19.1059 124.725 18.8474V10.2134C124.23 9.28388 123.478 8.51666 122.558 8.00368H122.495C121.238 8.51437 120.073 9.22547 119.044 10.1093C118.532 9.2955 117.876 8.58193 117.108 8.00368H117.044C115.798 8.65884 114.633 9.45695 113.572 10.3819L113.782 10.6345C114.075 10.4375 114.377 10.2556 114.687 10.0894C115.001 10.3648 115.29 10.6675 115.55 10.9941V18.9268C115.329 19.1157 115.097 19.2915 114.855 19.4532V19.5162C115.554 20.3053 116.353 20.9988 117.233 21.5787H117.296C118.364 20.798 119.481 20.0878 120.642 19.4528M78.9576 9.83714C78.3857 9.12921 77.7036 8.51797 76.9374 8.02687H76.8743C75.6539 8.76277 74.8965 9.35141 73.6549 10.2366L73.8233 10.5092C74.0755 10.3619 74.3298 10.2366 74.5588 10.0881C74.8871 10.2653 75.1912 10.4841 75.4635 10.739V19.3889C76.095 20.2785 76.9144 21.0183 77.8637 21.5559H77.9267C78.9368 20.82 80.0523 20.0617 81.125 19.4096C81.6557 20.2271 82.3167 20.9521 83.0818 21.5559H83.1448C84.2387 20.7562 85.4595 19.8722 86.4904 19.2188L86.322 18.9463C85.9855 19.0935 85.6906 19.2408 85.3753 19.3885C85.1067 19.1996 84.86 18.9813 84.6398 18.7376V10.656C84.892 10.4665 85.082 10.2984 85.3346 10.1296V10.0666C84.6044 9.3111 83.8095 8.62098 82.9589 8.00409H82.8959C81.6348 8.73999 80.7703 9.30911 79.5503 10.1504L79.7187 10.4229L80.5392 9.98074C80.7568 10.0993 80.9614 10.2404 81.1494 10.4018V18.9255C80.7284 19.094 80.3501 19.262 79.9697 19.432C79.5963 19.2069 79.2563 18.9305 78.9596 18.6111L78.9576 9.83714ZM151.11 19.371L150.942 19.0984C150.584 19.2457 150.291 19.371 149.995 19.5195C149.737 19.3794 149.497 19.2094 149.279 19.013V10.1296C148.78 9.30099 148.122 8.57865 147.344 8.00368H147.281C146.035 8.65817 144.87 9.4556 143.809 10.3798L144.019 10.6324C144.311 10.4353 144.613 10.2532 144.924 10.0869C145.238 10.3625 145.527 10.6654 145.787 10.9921V18.7579C145.566 18.9526 145.334 19.1347 145.092 19.3035V19.3665C145.822 20.2376 146.689 20.9839 147.659 21.5763H147.722C148.811 20.7798 149.942 20.0422 151.11 19.3665M56.8218 19.4507L56.6533 19.1782C56.3169 19.3254 56.0431 19.4312 55.7486 19.5569C55.5589 19.4519 55.3823 19.3248 55.2226 19.1782V10.6353C55.5802 10.4457 56.0016 10.2566 56.4023 10.0902C56.7982 10.3449 57.1412 10.6737 57.4124 11.0584V19.7717C57.9946 20.4697 58.6751 21.0793 59.4326 21.5816H59.4957C60.5224 20.7795 61.5976 20.0416 62.7151 19.3718L62.5467 19.0992C62.2794 19.2322 62.0056 19.3516 61.7262 19.4568C61.413 19.313 61.1335 19.1051 60.9057 18.8466V10.2134C60.4109 9.28392 59.6586 8.51671 58.739 8.00368H58.676C57.4194 8.51439 56.254 9.22549 55.2251 10.1093C54.7133 9.29552 54.0574 8.58196 53.2895 8.00368H53.2264C51.9806 8.65885 50.8154 9.45696 49.7544 10.3819L49.9651 10.6345C50.2572 10.4375 50.5592 10.2555 50.8698 10.0894C51.1837 10.3648 51.4724 10.6675 51.7327 10.9941V18.9268C51.5116 19.1157 51.2796 19.2915 51.0378 19.4532V19.5162C51.7363 20.3053 52.5357 20.9988 53.4156 21.5787H53.4786C54.5495 20.8026 55.6668 20.0926 56.8242 19.4528M172.407 16.3362V15.6854L177.667 12.8642V12.78C176.553 11.2438 175.534 9.64072 174.616 7.97968H174.553C172.704 8.76984 170.798 9.41705 168.85 9.91565C168.977 10.8361 169.033 11.7648 169.019 12.6937V17.9138C170.078 19.2505 171.27 20.477 172.575 21.5751H172.68C174.285 20.5104 175.943 19.527 177.647 18.6286L177.395 18.2498C176.595 18.6286 175.944 18.9654 175.29 19.2599C174.236 18.3811 173.27 17.4014 172.407 16.3346M111.152 21.5791H111.215C112.309 20.7794 113.529 19.8954 114.56 19.242L114.392 18.9695C114.055 19.1167 113.76 19.264 113.445 19.4117C113.177 19.2228 112.93 19.0045 112.71 18.7608V12.195C112.663 11.4118 112.72 10.6259 112.878 9.85748C111.468 9.52106 109.238 8.63707 108.333 7.98618H108.269C106.941 9.54286 105.388 10.8918 103.66 11.9879V12.0721C104.512 13.0753 105.65 13.7948 106.922 14.1346C105.884 14.6361 104.816 15.0719 103.723 15.4396C103.824 16.1362 103.873 16.8394 103.871 17.5432V19.6411C104.459 20.4573 105.221 21.1329 106.101 21.6194H106.164C107.153 20.9038 108.226 20.1883 109.28 19.5138C109.789 20.2973 110.421 20.9937 111.151 21.5763M181.788 21.6393C183.406 20.5283 185.198 19.696 187.09 19.177C186.981 18.6796 186.931 18.1708 186.943 17.6616V14.255L183.682 12.8239H183.596L182.649 13.8759L181.66 13.4337V10.1292C182.09 10.5839 182.609 10.9456 183.184 11.1917C183.76 11.4379 184.38 11.5633 185.006 11.5604C185.246 11.5545 185.486 11.5263 185.721 11.4761C186.613 10.5372 187.149 9.31636 187.236 8.02442C187.097 8.0033 186.955 8.0033 186.815 8.02442C186.816 8.26546 186.788 8.50572 186.731 8.73999C186.478 8.84809 186.206 8.90532 185.932 8.90841C185.084 8.88933 184.277 8.54225 183.68 7.94021H183.617C181.995 9.00937 180.201 9.79243 178.315 10.2553C178.425 10.8663 178.475 11.4867 178.462 12.1075V15.224L181.513 16.6133H181.597L182.565 15.5401L183.722 16.0466V19.3295C182.669 18.4623 181.34 17.9996 179.976 18.0245C179.736 18.0303 179.496 18.0585 179.261 18.1087C178.368 19.0556 177.833 20.2833 177.746 21.5816C177.885 21.6026 178.027 21.6026 178.167 21.5816C178.166 21.3405 178.194 21.1003 178.251 20.866C178.504 20.7578 178.776 20.7006 179.051 20.6976C180.033 20.6621 180.992 21.0092 181.724 21.6658H181.787L181.788 21.6393ZM90.235 21.6393C91.8528 20.5284 93.6451 19.6961 95.5377 19.177C95.428 18.6796 95.3786 18.1708 95.3904 17.6616V14.255L92.1291 12.8239H92.0449L91.0982 13.8759L90.1093 13.4337V10.1292C90.5394 10.5839 91.0582 10.9456 91.6337 11.1917C92.2091 11.4379 92.829 11.5633 93.4549 11.5604C93.6955 11.5545 93.935 11.5263 94.1704 11.4761C95.0621 10.5372 95.598 9.31636 95.6854 8.02442C95.5458 8.00329 95.4039 8.00329 95.2643 8.02442C95.2651 8.26546 95.2368 8.50571 95.1801 8.73999C94.9273 8.84808 94.6557 8.90531 94.3807 8.90841C93.5331 8.88943 92.7259 8.54235 92.1291 7.94021H92.0864C90.4641 9.00937 88.6706 9.79243 86.7837 10.2553C86.8945 10.8663 86.9439 11.4867 86.9309 12.1075V15.224L89.982 16.6133H90.0662L91.034 15.5401L92.1909 16.0466V19.3295C91.1929 18.481 89.9239 18.018 88.6139 18.0245C88.3733 18.0303 88.1337 18.0585 87.8983 18.1087C87.0057 19.0554 86.4698 20.2829 86.3826 21.5812C86.5221 21.6022 86.6641 21.6022 86.8036 21.5812C86.8028 21.3401 86.8311 21.0999 86.8878 20.8656C87.1408 20.7575 87.4125 20.7002 87.6876 20.6972C88.6145 20.6922 89.509 21.0381 90.1915 21.6654H90.2322L90.235 21.6393ZM135.727 18.1026L135.707 18.0822C135.876 17.64 135.896 17.3463 135.896 16.2305V10.1284C135.898 9.43652 135.834 8.74603 135.707 8.06591L136.149 7.87675C136.263 8.55835 136.319 9.24826 136.318 9.93925V15.9168C136.297 17.348 136.192 17.6425 135.728 18.1058M71.5342 20.949L71.1132 21.2215C70.4509 20.6635 69.8825 20.0027 69.4298 19.2644V10.2777C65.0949 7.81532 64.6108 7.54195 64.1902 7.35197L64.0852 6.74176H64.1056L69.8285 10.1093V19.074C70.2992 19.7799 70.8737 20.4108 71.5326 20.9453M138.929 8.33928C138.929 7.35034 138.95 7.01474 139.372 6.59248C139.561 6.61282 139.961 6.67668 140.192 6.69743V18.5887C139.59 18.758 138.967 18.843 138.341 18.8413C137.452 18.8494 136.568 18.6997 135.732 18.3991C136.911 17.9362 138.132 17.4098 139.077 16.9477C138.981 16.2643 138.932 15.5752 138.93 14.8852L138.929 8.33928ZM97.7719 9.45474C97.7719 8.29738 97.7088 7.35116 97.6669 6.84469L98.1734 6.48711H98.1937V18.1278L97.8154 18.4223H97.7731L97.7719 9.45474ZM32.2459 6.00505C31.1097 7.6046 30.9218 7.96218 30.9218 9.91972V15.2232C30.9218 17.6433 30.8164 18.6123 29.1542 20.5479L29.1339 20.5275C30.4808 18.76 30.5227 17.7914 30.5227 15.3501V10.0247C30.5227 8.06754 30.7334 7.70956 32.2268 6.00505H32.2459ZM41.2518 20.9482L40.8307 21.2207C40.0997 20.7412 39.4469 20.152 38.8951 19.4739V8.25507C38.9156 7.45063 38.8522 6.64624 38.706 5.85493L39.2124 5.49735C39.3014 6.35007 39.3365 7.20756 39.3174 8.06469V19.3075C39.8707 19.9546 40.5242 20.5088 41.253 20.949M32.4339 4.95265L32.4542 4.97298C32.0061 5.33837 31.4536 5.55204 30.8762 5.58319C30.266 5.58319 29.74 5.28866 29.1929 5.28866C28.9497 5.28155 28.7074 5.32265 28.4802 5.40957C28.2529 5.49649 28.0451 5.62753 27.8687 5.79513C27.7307 5.92093 27.6167 6.07077 27.5323 6.23733H27.512C27.5753 5.94288 27.7214 5.67263 27.933 5.4583C28.3112 5.11369 28.8098 4.93176 29.321 4.95183C29.9105 4.95183 30.5007 5.24635 31.1309 5.24635C31.5821 5.2452 32.0275 5.14465 32.4355 4.95183M45.2689 4.69961C45.781 5.35329 46.3364 5.97193 46.9311 6.55138L46.5947 6.7617C46.0026 6.19194 45.4605 5.57241 44.9744 4.90993L45.2689 4.69961ZM145.912 4.67928C146.437 5.3345 146.999 5.95928 147.596 6.55058L147.259 6.76089C146.659 6.17982 146.103 5.55428 145.597 4.88959L145.912 4.67928ZM130.277 8.17331C130.387 7.58153 130.664 7.03372 131.076 6.59491C131.855 5.81588 133.012 5.43755 134.548 5.43755C136.948 5.43755 139.809 6.17347 141.681 6.17347C142.649 6.17347 143.448 5.75243 144.101 4.59507L144.164 4.6154C143.469 6.02579 142.649 6.50948 141.575 6.50948C139.704 6.50948 136.883 5.77358 134.442 5.77358C132.927 5.77358 131.854 6.15231 131.097 6.90978C130.74 7.25819 130.467 7.68276 130.297 8.15175H130.277V8.17331ZM101.198 4.30013L101.093 4.23708C99.5146 5.22643 98.2722 6.08926 97.3683 6.78367C97.4382 7.32108 97.4732 7.86244 97.4733 8.40437C97.1466 9.1462 96.7669 9.86349 96.3371 10.5507L96.4001 10.6349H97.4737V18.548C97.2215 18.7372 97.0315 18.8845 96.7788 19.0545V19.1176C97.7266 20.1197 98.8104 20.9839 99.9983 21.6849H100.061C101.124 20.8864 102.25 20.1757 103.428 19.5597L103.259 19.2872C103.008 19.3866 102.763 19.4989 102.523 19.6236C101.973 19.334 101.446 19.0033 100.945 18.6343V10.656H101.093C101.746 10.6486 102.399 10.6767 103.049 10.7402C104.059 9.41569 104.5 8.67774 104.67 8.19365L104.607 8.13059C103.784 8.23775 102.955 8.28696 102.125 8.27785H100.945C100.948 6.94789 101.032 5.61934 101.198 4.29972M71.0867 21.5791H71.1498C72.2437 20.7794 73.4645 19.9588 74.4954 19.2852L74.3269 19.0126C73.9905 19.1599 73.6956 19.3075 73.3803 19.4548C73.1101 19.2511 72.8633 19.0181 72.6444 18.76V11.9814C72.6444 10.5299 72.7075 9.81436 72.7498 9.24565C66.3739 5.31105 64.5856 4.089 63.6178 2.9951L63.5125 3.01545C63.4982 4.53626 63.6535 6.05391 63.9754 7.54032C64.9339 7.97501 65.8618 8.47422 66.7527 9.03452C65.7011 9.56092 64.5222 10.0861 63.4071 10.5499C63.4973 11.473 63.5324 12.4006 63.5121 13.3279V19.3893C64.1436 20.2789 64.963 21.0187 65.9122 21.5563H65.9753C66.9642 20.8408 68.0805 20.1049 69.1524 19.43C69.6684 20.2521 70.3233 20.9784 71.088 21.5763M46.552 7.1205H46.6151C47.6252 6.42568 48.2984 5.94078 49.182 5.22643V5.16337C48.5776 4.39204 47.9314 3.65435 47.2464 2.95361H47.1834C46.3628 3.54307 45.5 4.13335 44.5949 4.89V4.95306C45.1764 5.73627 45.8316 6.46193 46.5516 7.1201M147.152 7.1201H147.215C148.225 6.42528 148.899 5.94037 149.782 5.22602V5.16296C149.178 4.39162 148.532 3.65393 147.847 2.9532H147.784C146.963 3.54266 146.1 4.13294 145.195 4.88959V4.95265C145.783 5.73089 146.437 6.45602 147.152 7.11969M35.5695 19.812L35.5899 19.7489V12.782H38.6409V19.622C39.2671 20.3734 39.9965 21.0323 40.8075 21.5791H40.8706C42.0367 20.7095 43.2523 19.9081 44.5111 19.179L44.3427 18.8845C43.9851 19.0317 43.6918 19.179 43.3749 19.3266C42.9596 19.1286 42.5987 18.8324 42.3233 18.4638V6.97284C42.2863 5.63287 42.4351 4.29423 42.7655 2.9951L42.6605 2.93205C41.1525 3.77015 39.7229 4.74227 38.3891 5.83663C38.5867 6.6418 38.6716 7.4705 38.6413 8.29901V10.4258H35.6135V6.78611C35.6135 4.68253 35.7607 4.11301 36.1199 3.0187L36.0357 2.99836C35.2998 4.00886 35.0468 4.86966 35.0468 6.99724V19.3515C34.534 19.0858 33.9618 18.9554 33.3846 18.9727C32.5993 18.9769 31.8216 19.1268 31.091 19.4149L31.0707 19.3946C33.7637 16.9944 33.8479 16.5734 33.8479 14.8274V7.37312C33.8479 5.16336 34.1205 4.19518 34.7108 3.12081L34.6266 3.03661C34.114 3.35462 33.5255 3.52951 32.9225 3.54307C32.1019 3.54307 30.9869 3.12203 29.9975 3.12203C29.2806 3.10257 28.5849 3.36706 28.062 3.85794C27.5914 4.33495 27.3272 4.97783 27.3265 5.64787C27.3277 6.01206 27.3845 6.37394 27.4949 6.72102H27.5579C27.6338 6.45601 27.7792 6.21613 27.979 6.02621C28.1317 5.87785 28.3131 5.76214 28.512 5.68612C28.7109 5.6101 28.9232 5.57535 29.1359 5.58401C29.7868 5.58401 30.2298 5.85656 30.84 5.85656C31.4502 5.85656 31.9339 5.64624 32.8814 4.99373L32.9017 5.01408C30.4202 7.60297 30.3348 8.0651 30.3348 10.0654V10.4229C29.9544 10.4083 29.5751 10.3731 29.1986 10.3176C28.4637 11.1286 27.7818 11.9861 27.1572 12.8849L27.2203 12.948C27.8885 12.8432 28.5642 12.7939 29.2405 12.8007H30.3344V16.2105C30.3344 18.3141 30.0398 19.1782 28.2723 21.451L28.3565 21.5563C29.2233 21.1651 30.1616 20.9574 31.1126 20.9461C31.431 20.9304 31.7494 20.978 32.0492 21.0864C32.349 21.1948 32.6243 21.3617 32.859 21.5775H32.922C33.7261 20.8766 34.6173 20.2825 35.5736 19.8099M132.385 13.0757C132.389 12.1947 132.569 11.3234 132.916 10.5136C133.263 9.70385 133.77 8.97215 134.405 8.36206L134.321 8.25671C133.113 8.65146 132.016 9.32963 131.123 10.2346C130 11.3724 129.373 12.9076 129.376 14.506C129.357 15.4216 129.527 16.3313 129.874 17.1785C130.222 18.0258 130.74 18.7924 131.397 19.4308C132.827 20.8619 134.806 21.6829 137.267 21.6829C138.264 21.7173 139.258 21.5484 140.188 21.1864C141.117 20.8244 141.964 20.2769 142.675 19.5772C143.796 18.4258 144.436 16.8908 144.465 15.2842L144.318 15.2639C143.551 16.7013 142.286 17.8095 140.761 18.3804V6.74543C141.182 6.76577 141.412 6.76577 141.54 6.76577C143.139 6.76577 144.36 5.75567 144.991 2.66193L144.844 2.59888C144.233 3.41981 143.433 3.69318 142.298 3.69318C140.446 3.69318 137.416 2.95728 135.165 2.95728C133.397 2.95728 131.904 3.5028 130.913 4.49378C130.563 4.83018 130.286 5.23608 130.101 5.68551C129.916 6.13495 129.827 6.61802 129.84 7.10382C129.845 7.69001 129.967 8.2693 130.197 8.80833H130.282C130.42 8.17347 130.733 7.5901 131.186 7.12457C131.902 6.409 132.933 5.98837 134.385 5.98837C135.902 6.03429 137.414 6.189 138.909 6.45131C137.772 6.87235 136.32 7.46181 135.373 7.90278C135.524 8.67244 135.594 9.45567 135.583 10.2399V16.6169C135.583 17.4798 135.563 17.8373 135.31 18.1534C134.862 17.9471 134.45 17.6699 134.09 17.3325C133.53 16.7771 133.089 16.1127 132.795 15.3805C132.501 14.6483 132.361 13.8636 132.382 13.0749" fill="#333333"/>
</svg>
