<svg width="188" height="24" viewBox="0 0 188 24" fill="none" xmlns="http://www.w3.org/2000/svg">
<path d="M12.2249 23.3177C18.291 23.3177 23.2086 18.2961 23.2086 12.1017C23.2086 5.90731 18.291 0.885742 12.2249 0.885742C6.15878 0.885742 1.24121 5.90731 1.24121 12.1017C1.24121 18.2961 6.15878 23.3177 12.2249 23.3177Z" fill="white"/>
<path d="M18.0627 14.4997L16.2585 15.4862V15.5187C16.7725 15.7537 17.334 15.8662 17.8988 15.8474C18.3203 15.8603 18.7411 15.8054 19.1452 15.6847V8.2874L18.653 8.25485L18.0314 8.84757V14.5021L18.0627 14.4997ZM4.02391 10.8173V10.6546C4.02391 9.30604 4.05645 9.17505 5.49979 7.2354L5.46725 7.20286L4.28752 7.86025H3.40353C2.94466 7.86025 2.78234 7.8928 2.61637 8.09051C2.56124 8.15903 2.52107 8.23834 2.49844 8.32332C2.47581 8.40831 2.47123 8.49709 2.48497 8.58396H2.32224C2.17337 8.35992 2.09359 8.0971 2.09281 7.82811C2.08301 7.63531 2.11287 7.44255 2.18053 7.26175C2.24819 7.08094 2.35222 6.91594 2.48619 6.77693C2.65912 6.62398 2.8627 6.50969 3.08333 6.44172C3.30397 6.37374 3.53656 6.35363 3.76558 6.38274L5.04499 6.48119L5.9306 6.38274L6.062 6.44864V13.6161C6.062 14.4724 6.02904 14.7336 4.1907 16.5093L4.22365 16.5752L5.86388 16.0818H6.88089V6.31399H7.37312V10.8181H9.21024V7.56369L11.5404 6.28145L11.6718 6.34735L11.4098 8.2874V15.4549L12.5249 16.2766V16.408L10.8192 17.5255H10.6865L9.24319 16.1448V12.2322H7.40404V16.6379L6.0266 17.5585H2.81286L2.74736 17.4271C3.9934 15.8812 4.09266 15.4219 4.09266 14.5339V12.2655H2.02569L1.99273 12.1337L2.91129 10.8515H4.02594L4.02391 10.8173ZM14.5194 12.3632C14.5017 12.8448 14.5796 13.3252 14.7485 13.7766C14.9174 14.228 15.174 14.6414 15.5035 14.9932C15.6068 15.1108 15.7287 15.2107 15.8643 15.2889H15.8973L16.2907 14.7954V9.14087L17.9964 8.22028V8.18773C17.3671 8.0798 16.7314 8.01389 16.0934 7.99043C14.8473 7.99043 14.3551 8.22068 13.9943 8.58314C13.7674 8.82662 13.6289 9.1392 13.6009 9.47079H13.3385C13.2164 9.15579 13.1498 8.82203 13.1416 8.48429C13.1337 8.21036 13.182 7.93771 13.2837 7.68322C13.3854 7.42873 13.5382 7.19781 13.7327 7.00475C14.2245 6.5117 15.0121 6.21555 16.2569 6.21555C17.1755 6.21555 18.6839 6.51129 19.9629 6.51129C20.8485 6.51129 21.1109 6.37989 21.5043 5.81973L21.667 5.85227C21.3716 7.75977 20.65 8.28496 19.6667 8.28496H19.5683V15.4854C20.3447 15.2014 20.9878 14.6388 21.3725 13.907L21.5352 13.9395C21.5071 14.8195 21.1432 15.6553 20.5182 16.2754C20.0758 16.6919 19.5553 17.0168 18.9867 17.2312C18.4182 17.4456 17.8128 17.5453 17.2056 17.5247C16.6212 17.5586 16.0361 17.4705 15.4877 17.266C14.9392 17.0616 14.4393 16.7452 14.0197 16.337C13.6001 15.9288 13.2701 15.4377 13.0507 14.8951C12.8312 14.3524 12.7271 13.77 12.745 13.1849C12.7398 12.6738 12.8356 12.1667 13.027 11.6928C13.2183 11.2188 13.5014 10.7873 13.86 10.4231C14.3314 9.94328 14.9024 9.5729 15.5328 9.33817L15.6308 9.46957C14.9237 10.2688 14.5278 11.2957 14.5154 12.3628M24.2892 12.0011C24.3096 10.4319 24.0186 8.87426 23.4331 7.41824C22.8476 5.96222 21.9792 4.63673 20.8782 3.51844C18.5348 1.26114 15.4078 0 12.1541 0C8.90038 0 5.77332 1.26114 3.42998 3.51844C1.24149 5.79987 0.0195312 8.83891 0.0195312 12.0003C0.0195312 15.1617 1.24149 18.2007 3.42998 20.4822C5.77358 22.7391 8.90063 24 12.1543 24C15.4079 24 18.535 22.7391 20.8786 20.4822C23.0896 18.215 24.3156 15.1662 24.2896 11.9995" fill="#B9B9BA"/>
<path d="M33.2532 20.9049L32.8952 21.1774C32.3457 20.8005 31.6899 20.6093 31.0239 20.6319C30.2724 20.6326 29.5312 20.8059 28.8573 21.1384V21.1181C29.6139 20.6253 30.5002 20.3691 31.403 20.3822C32.0618 20.3457 32.7137 20.531 33.2548 20.9085M178.359 20.5929C178.38 20.4537 178.438 20.3228 178.527 20.2141C178.765 20.1373 179.013 20.1017 179.263 20.1088C180.312 20.06 181.338 20.4226 182.124 21.1193L181.788 21.3296C181.072 20.6348 179.917 20.4456 179.136 20.4456C178.87 20.4436 178.605 20.4936 178.357 20.5929M86.9729 20.5929C86.9938 20.4537 87.052 20.3229 87.1413 20.2141C87.3788 20.1374 87.6277 20.1019 87.8772 20.1092C88.8722 20.0831 89.8383 20.4455 90.5706 21.1197L90.2342 21.33C89.5376 20.7512 88.6584 20.438 87.7527 20.446C87.4861 20.4461 87.2219 20.496 86.9737 20.5933M51.8335 19.2044C52.4421 19.8738 53.1353 20.461 53.8956 20.9513L53.4746 21.2238C52.7278 20.7323 52.0486 20.145 51.4544 19.477L51.8335 19.2044ZM152.159 19.2044C152.768 19.8738 153.461 20.461 154.221 20.9513L153.8 21.2238C153.053 20.7323 152.374 20.145 151.78 19.477L152.159 19.2044ZM115.651 19.2044C116.26 19.8738 116.953 20.461 117.713 20.9513L117.292 21.2238C116.546 20.7323 115.866 20.1451 115.272 19.477L115.651 19.2044ZM145.888 19.0783C146.529 19.824 147.29 20.4572 148.14 20.9517L147.72 21.2242C146.894 20.7153 146.149 20.0844 145.511 19.3529L145.888 19.0783ZM45.5399 19.0783C46.1855 19.8191 46.9457 20.4516 47.7915 20.9517L47.3705 21.2242C46.544 20.7153 45.7992 20.0844 45.1611 19.3529L45.5399 19.0783ZM97.5554 18.8058C98.441 19.6689 99.4307 20.4183 100.502 21.0367L100.08 21.3312C99.0208 20.707 98.045 19.9502 97.1767 19.0792L97.5554 18.8058ZM106.139 21.2259C105.372 20.7699 104.7 20.1697 104.161 19.4583V17.3938C104.17 16.7754 104.141 16.1571 104.077 15.542L104.519 15.3736C104.539 15.88 104.582 16.5309 104.582 17.1839V19.3074C105.125 19.9756 105.798 20.527 106.56 20.9281L106.139 21.2259ZM184.035 19.5222V15.8813L182.793 15.3357L183.046 15.0632L184.456 15.6734V19.8537L184.393 19.874L184.035 19.5222ZM92.4822 19.5222V15.8813L91.2406 15.3357L91.4929 15.0632L92.9032 15.6734V19.8537L92.8402 19.874L92.4822 19.5222ZM107.232 16.0704C107.204 15.4632 107.254 14.8549 107.38 14.2602C107.992 14.4284 108.618 14.541 109.251 14.5966V19.0116C108.915 19.1589 108.556 19.2842 108.262 19.4327C107.892 19.2195 107.552 18.9574 107.252 18.6536V16.0655L107.232 16.0704ZM35.6289 12.1749H38.6588V12.5325H35.6289V12.1749ZM27.5909 12.6382L27.9696 12.1749H30.3039V12.5325H29.2938C28.7238 12.5191 28.1537 12.5543 27.5897 12.6378M66.3906 20.9513L65.9696 21.2238C65.1341 20.7168 64.4053 20.052 63.8237 19.2667V13.246C63.8237 11.8149 63.8033 11.2042 63.7606 10.6994L64.2236 10.5102V19.119C64.8109 19.873 65.5488 20.4964 66.3902 20.9496M104.392 12.089C105.128 11.5826 105.823 11.0375 106.517 10.4687C107.342 11.0342 108.272 11.4278 109.253 11.6261V14.1304C107.086 13.9412 105.528 13.2464 104.392 12.0886M172.422 10.4659L172.485 10.4456C173.056 11.6445 173.739 12.7862 174.526 13.8554L172.423 14.9916L172.422 10.4659ZM181.827 16.0432L181.555 16.3377L178.777 15.0327V11.897C178.776 11.412 178.748 10.9274 178.693 10.4456L179.2 10.2983V14.8232L181.827 16.0432ZM90.2745 16.0432L90.0019 16.3377L87.2247 15.0327V11.897C87.2235 11.412 87.1954 10.9274 87.1405 10.4456L87.6469 10.2983V14.8232L90.2745 16.0432ZM142.816 19.1597C142.115 19.8978 141.268 20.4827 140.33 20.8776C139.392 21.2724 138.382 21.4685 137.364 21.4537C134.964 21.4537 133.072 20.6746 131.662 19.3074C131.022 18.668 130.516 17.9063 130.177 17.0676C129.837 16.229 129.669 15.3305 129.684 14.4257C129.687 13.6374 129.853 12.8582 130.172 12.1371C130.491 11.416 130.955 10.7686 131.536 10.2356L131.556 10.256C130.593 11.3542 130.075 12.7731 130.105 14.2337C130.098 15.1251 130.27 16.0088 130.611 16.8327C130.951 17.6567 131.453 18.4042 132.086 19.0311C133.391 20.3362 135.202 21.0517 137.515 21.0517C139.459 21.1171 141.355 20.4399 142.817 19.1577L142.816 19.1597ZM97.5144 10.3825H96.7785L96.9892 10.0038H97.5152L97.5144 10.3825ZM103.301 10.0249L102.965 10.4671C102.309 10.3833 101.648 10.3551 100.987 10.3829V10.0042H103.26L103.301 10.0249ZM172.697 21.2852C171.464 20.2261 170.33 19.0567 169.309 17.7916V12.4666C169.309 11.4146 169.246 10.4883 169.203 10.1291L169.646 10.0241C169.715 10.7093 169.743 11.398 169.73 12.0866V17.6216C170.749 18.8555 171.876 19.9965 173.096 21.0314L172.697 21.2852ZM111.613 20.9488L111.192 21.2214C110.538 20.679 109.97 20.0403 109.508 19.3273V11.4353C108.499 11.2345 107.54 10.8334 106.688 10.2556L106.982 9.96106C107.87 10.5524 108.863 10.9668 109.907 11.1815V19.1581C110.402 19.8208 110.974 20.4217 111.611 20.948M59.9119 20.948L59.4908 21.2206C58.8392 20.7607 58.2457 20.2236 57.7232 19.621V10.9715C57.4531 10.5802 57.1102 10.2444 56.7132 9.98261L57.0919 9.81419C57.5035 10.098 57.8599 10.4545 58.1435 10.8662V19.475C58.6706 20.0362 59.2641 20.531 59.911 20.9484M123.71 20.9484L123.289 21.221C122.637 20.7611 122.044 20.224 121.521 19.6214V10.9715C121.251 10.5802 120.908 10.2445 120.511 9.98261L120.89 9.81419C121.302 10.098 121.658 10.4545 121.942 10.8662V19.475C122.473 20.0312 123.066 20.5255 123.709 20.9484M160.238 20.9484L159.817 21.221C159.166 20.7611 158.572 20.224 158.05 19.6214V10.9715C157.779 10.5802 157.437 10.2444 157.04 9.98261L157.418 9.81419C157.83 10.098 158.186 10.4545 158.47 10.8662V19.475C159.002 20.0312 159.595 20.5255 160.237 20.9484M165.919 20.9484L165.498 21.221C164.847 20.7611 164.253 20.224 163.731 19.6214V10.9715C163.452 10.5665 163.094 10.2221 162.678 9.95943L163.057 9.79101C163.47 10.0878 163.833 10.4503 164.13 10.8642V19.4729C164.674 20.024 165.274 20.5178 165.92 20.9464M115.864 18.7997V10.9077C115.621 10.5419 115.323 10.2155 114.981 9.93949L115.338 9.75033C115.695 10.0376 116.014 10.3701 116.285 10.7393V18.486L115.907 18.7806H115.866L115.864 18.7997ZM146.101 18.6524V10.9093C145.851 10.5489 145.554 10.2235 145.218 9.94153L145.575 9.75237C145.932 10.0399 146.25 10.3723 146.522 10.7413V18.3599L146.143 18.6544L146.101 18.6524ZM76.2003 19.1154C76.7647 19.8778 77.4996 20.4977 78.3462 20.9256L77.9251 21.1982C77.0724 20.7146 76.3391 20.0457 75.7792 19.2411V10.5932C75.497 10.3314 75.1781 10.1122 74.8326 9.94233L75.1902 9.75317C75.5471 9.95871 75.8786 10.2054 76.1779 10.4883V19.117L76.2003 19.1154ZM152.395 18.7997V10.9077C152.151 10.5421 151.853 10.2158 151.511 9.9399L151.869 9.75074C152.226 10.0379 152.544 10.3702 152.815 10.7393V18.484L152.437 18.7785H152.396L152.395 18.7997ZM45.7758 18.6524V10.9093C45.5256 10.5489 45.2284 10.2235 44.8922 9.94153L45.2498 9.75237C45.6067 10.04 45.9248 10.3725 46.1965 10.7417V18.3599L45.8177 18.6544H45.777L45.7758 18.6524ZM52.0463 18.7997V10.9077C51.8026 10.5421 51.5047 10.2158 51.1627 9.9399L51.5203 9.75074C51.8773 10.038 52.1955 10.3705 52.4669 10.7397V18.486L52.0882 18.7806H52.0475L52.0463 18.7997ZM81.4631 10.2759C81.2754 10.1141 81.0708 9.97292 80.8529 9.85487L81.2105 9.6653C81.4486 9.80503 81.6674 9.9753 81.8614 10.1718V19.1585C82.3139 19.8486 82.8836 20.4544 83.5447 20.9484L83.1237 21.221C82.4336 20.6917 81.8605 20.0253 81.4403 19.2638V10.2784L81.4631 10.2759ZM67.0285 12.443C67.0285 10.653 67.0915 9.96146 67.301 9.32644C67.827 9.62097 68.4372 9.97733 69.1723 10.4207V18.9445C68.794 19.0918 68.3933 19.239 68.0361 19.4078C67.6629 19.1827 67.323 18.9063 67.0264 18.5869L67.0285 12.443ZM185.958 10.8434L185.664 11.2221C185.489 11.2822 185.304 11.3107 185.119 11.3063C184.468 11.3054 183.826 11.1617 183.237 10.8854C182.647 10.609 182.126 10.2067 181.71 9.7068V9.28576H181.773C182.195 9.79975 182.725 10.215 183.324 10.5022C183.924 10.7895 184.58 10.9418 185.245 10.9484C185.49 10.94 185.732 10.8902 185.96 10.8011L185.958 10.8434ZM94.4275 10.8434L94.133 11.2221C93.9577 11.2822 93.7731 11.3107 93.5879 11.3063C92.9372 11.3055 92.2947 11.1618 91.7056 10.8854C91.1166 10.609 90.5954 10.2067 90.1789 9.7068V9.28576H90.2419C90.664 9.79975 91.1937 10.215 91.7935 10.5022C92.3934 10.7895 93.0489 10.9418 93.714 10.9484C93.9591 10.94 94.2011 10.8902 94.4296 10.8011L94.4275 10.8434ZM174.743 13.748C173.856 12.508 173.081 11.1914 172.428 9.81379V9.1629L172.491 9.14256C173.2 10.7114 174.075 12.2001 175.1 13.5832L174.743 13.748ZM156.916 19.6007L156.748 19.3281C156.537 19.4123 156.327 19.4965 156.138 19.5807C155.94 19.4785 155.757 19.3512 155.593 19.202V10.6555C155.95 10.4663 156.372 10.2767 156.772 10.1099C157.168 10.3647 157.511 10.6934 157.782 11.0781V19.7927C158.364 20.4908 159.045 21.1006 159.803 21.603H159.866C160.827 20.8691 161.833 20.1944 162.876 19.5824L162.708 19.3098L162.118 19.5624C161.795 19.3788 161.503 19.1445 161.254 18.8684V10.6591C161.612 10.47 162.033 10.2804 162.434 10.1136C162.83 10.3684 163.173 10.6971 163.444 11.0818V19.7951C164.026 20.4931 164.706 21.1028 165.464 21.605H165.527C166.621 20.7841 167.484 20.1739 168.747 19.3952L168.578 19.1227C168.311 19.2556 168.037 19.375 167.758 19.4803C167.444 19.3365 167.165 19.1286 166.937 18.8701V10.2356C166.442 9.30608 165.69 8.53886 164.77 8.02588H164.707C163.438 8.54851 162.259 9.26638 161.211 10.1535C160.729 9.24979 159.989 8.5098 159.086 8.02751H159.023C157.766 8.53821 156.601 9.24932 155.572 10.1331C155.06 9.31933 154.404 8.60575 153.636 8.02751H153.573C152.327 8.68205 151.162 9.47947 150.101 10.4037L150.312 10.6563C150.584 10.4671 150.922 10.2775 151.217 10.1108C151.53 10.3862 151.819 10.6889 152.079 11.0155V18.9482C151.827 19.1373 151.616 19.3057 151.385 19.4746V19.5376C152.082 20.3267 152.881 21.0203 153.76 21.6005H153.823C154.808 20.8663 155.841 20.1983 156.915 19.6011M50.7799 19.3692L50.6115 19.0966C50.2539 19.2439 49.9606 19.3692 49.6649 19.5177C49.4072 19.3777 49.167 19.2076 48.9493 19.0112V10.1315C48.4496 9.30289 47.792 8.58055 47.0137 8.00555H46.9507C45.7049 8.66003 44.5397 9.45746 43.4786 10.3817L43.6889 10.6343C43.981 10.4372 44.283 10.2551 44.5937 10.0888C44.9075 10.3643 45.1963 10.6672 45.4565 10.9939V18.7598C45.2352 18.9545 45.0033 19.1366 44.7617 19.3053V19.3684C45.4917 20.2394 46.3587 20.9858 47.3286 21.5781H47.3917C48.5486 20.7572 49.433 20.1678 50.7799 19.3684M120.661 19.4526L120.492 19.18C120.156 19.3273 119.882 19.4327 119.588 19.5584C119.398 19.4533 119.221 19.326 119.062 19.1792V10.6364C119.419 10.4468 119.841 10.2576 120.241 10.0912C120.637 10.3459 120.98 10.6747 121.251 11.0594V19.7728C121.834 20.4707 122.514 21.0804 123.272 21.5826H123.335C124.361 20.7806 125.437 20.0426 126.554 19.3729L126.386 19.1003C126.118 19.2333 125.844 19.3526 125.565 19.4579C125.252 19.3141 124.972 19.1062 124.745 18.8477V10.2137C124.25 9.28412 123.498 8.5169 122.578 8.00392H122.514C121.258 8.51462 120.092 9.22572 119.063 10.1095C118.551 9.29574 117.896 8.58218 117.128 8.00392H117.063C115.818 8.65908 114.653 9.45719 113.592 10.3821L113.802 10.6347C114.094 10.4377 114.396 10.2558 114.707 10.0896C115.021 10.365 115.309 10.6678 115.57 10.9943V18.927C115.348 19.116 115.116 19.2917 114.875 19.4534V19.5165C115.573 20.3056 116.373 20.999 117.252 21.579H117.316C118.383 20.7982 119.501 20.0881 120.661 19.453M78.9771 9.83738C78.4052 9.12946 77.7231 8.51822 76.9569 8.02711H76.8939C75.6735 8.76302 74.916 9.35165 73.6744 10.2369L73.8428 10.5094C74.0951 10.3622 74.3493 10.2369 74.5784 10.0884C74.9066 10.2656 75.2107 10.4843 75.4831 10.7393V19.3891C76.1145 20.2787 76.934 21.0186 77.8832 21.5562H77.9463C78.9564 20.8203 80.0718 20.062 81.1446 19.4099C81.6753 20.2273 82.3363 20.9524 83.1013 21.5562H83.1643C84.2582 20.7564 85.4791 19.8724 86.5099 19.2191L86.3415 18.9465C86.0051 19.0938 85.7101 19.2411 85.3949 19.3887C85.1262 19.1999 84.8795 18.9815 84.6594 18.7378V10.6563C84.9116 10.4667 85.1016 10.2987 85.3542 10.1299V10.0668C84.6239 9.31135 83.829 8.62123 82.9784 8.00433H82.9154C81.6543 8.74024 80.7898 9.30936 79.5698 10.1506L79.7383 10.4232L80.5588 9.98098C80.7764 10.0995 80.9809 10.2407 81.169 10.402V18.9258C80.7479 19.0942 80.3696 19.2622 79.9893 19.4323C79.6159 19.2071 79.2759 18.9308 78.9792 18.6113L78.9771 9.83738ZM151.129 19.3712L150.961 19.0987C150.603 19.2459 150.31 19.3712 150.014 19.5197C149.757 19.3796 149.517 19.2096 149.299 19.0132V10.1299C148.799 9.30123 148.142 8.5789 147.363 8.00392H147.301C146.055 8.65842 144.89 9.45584 143.829 10.3801L144.039 10.6327C144.331 10.4356 144.633 10.2535 144.944 10.0872C145.257 10.3627 145.546 10.6656 145.806 10.9923V18.7582C145.585 18.9528 145.353 19.135 145.112 19.3037V19.3668C145.842 20.2378 146.709 20.9842 147.679 21.5765H147.742C148.831 20.7801 149.962 20.0424 151.13 19.3668M56.8413 19.451L56.6729 19.1784C56.3365 19.3257 56.0627 19.4314 55.7681 19.5571C55.5784 19.4522 55.4019 19.325 55.2422 19.1784V10.6355C55.5997 10.446 56.0212 10.2568 56.4219 10.0904C56.8177 10.3452 57.1607 10.6739 57.432 11.0586V19.7719C58.0142 20.4699 58.6947 21.0795 59.4522 21.5818H59.5152C60.542 20.7798 61.6171 20.0418 62.7347 19.3721L62.5662 19.0995C62.299 19.2325 62.0251 19.3518 61.7457 19.4571C61.4326 19.3133 61.1531 19.1054 60.9252 18.8469V10.2137C60.4304 9.28416 59.6782 8.51695 58.7586 8.00392H58.6955C57.4389 8.51464 56.2735 9.22574 55.2446 10.1095C54.7329 9.29576 54.0769 8.58221 53.309 8.00392H53.246C52.0002 8.6591 50.835 9.45721 49.7739 10.3821L49.9846 10.6347C50.2767 10.4377 50.5787 10.2558 50.8894 10.0896C51.2032 10.365 51.492 10.6678 51.7522 10.9943V18.927C51.5311 19.116 51.2991 19.2917 51.0574 19.4534V19.5165C51.7558 20.3055 52.5553 20.999 53.4351 21.579H53.4982C54.5691 20.8029 55.6863 20.0929 56.8437 19.453M172.426 16.3365V15.6856L177.686 12.8644V12.7802C176.572 11.2441 175.553 9.64096 174.635 7.97992H174.572C172.724 8.77008 170.817 9.4173 168.87 9.91589C168.996 10.8363 169.053 11.765 169.038 12.694V17.9141C170.098 19.2507 171.29 20.4773 172.595 21.5753H172.7C174.305 20.5106 175.963 19.5272 177.667 18.6288L177.414 18.2501C176.615 18.6288 175.963 18.9656 175.309 19.2602C174.255 18.3814 173.29 17.4016 172.427 16.3349M111.171 21.5794H111.234C112.328 20.7796 113.549 19.8956 114.58 19.2423L114.411 18.9697C114.075 19.117 113.78 19.2642 113.465 19.4119C113.196 19.2231 112.949 19.0047 112.729 18.761V12.1952C112.683 11.412 112.739 10.6261 112.898 9.85773C111.487 9.5213 109.257 8.63731 108.352 7.98643H108.288C106.961 9.5431 105.407 10.892 103.68 11.9882V12.0724C104.532 13.0755 105.67 13.795 106.941 14.1349C105.903 14.6363 104.835 15.0722 103.743 15.4399C103.844 16.1365 103.893 16.8396 103.89 17.5435V19.6414C104.478 20.4575 105.24 21.1331 106.121 21.6196H106.184C107.173 20.9041 108.246 20.1885 109.299 19.514C109.808 20.2975 110.44 20.994 111.171 21.5765M181.807 21.6396C183.425 20.5286 185.217 19.6963 187.11 19.1772C187 18.6798 186.951 18.171 186.963 17.6618V14.2553L183.701 12.8241H183.616L182.669 13.8761L181.68 13.4339V10.1295C182.11 10.5842 182.629 10.9458 183.204 11.192C183.779 11.4381 184.399 11.5636 185.025 11.5606C185.266 11.5548 185.505 11.5266 185.741 11.4764C186.632 10.5375 187.168 9.31661 187.256 8.02467C187.116 8.00354 186.974 8.00354 186.835 8.02467C186.835 8.26571 186.807 8.50596 186.75 8.74023C186.498 8.84833 186.226 8.90556 185.951 8.90865C185.104 8.88957 184.297 8.5425 183.7 7.94046H183.637C182.015 9.00962 180.221 9.79268 178.334 10.2556C178.445 10.8665 178.494 11.487 178.481 12.1077V15.2243L181.532 16.6135H181.617L182.584 15.5404L183.741 16.0468V19.3297C182.688 18.4626 181.36 17.9998 179.996 18.0247C179.755 18.0306 179.516 18.0588 179.28 18.1089C178.388 19.0558 177.852 20.2835 177.765 21.5818C177.905 21.6029 178.047 21.6029 178.186 21.5818C178.186 21.3408 178.214 21.1005 178.271 20.8662C178.524 20.7581 178.795 20.7008 179.07 20.6978C180.053 20.6623 181.011 21.0094 181.743 21.666H181.806L181.807 21.6396ZM90.2545 21.6396C91.8723 20.5286 93.6646 19.6963 95.5572 19.1772C95.4476 18.6798 95.3981 18.171 95.41 17.6618V14.2553L92.1486 12.8241H92.0644L91.1178 13.8761L90.1288 13.4339V10.1295C90.5589 10.5842 91.0777 10.9458 91.6532 11.192C92.2287 11.4381 92.8485 11.5636 93.4744 11.5606C93.715 11.5548 93.9546 11.5266 94.19 11.4764C95.0817 10.5375 95.6175 9.31661 95.7049 8.02467C95.5653 8.00354 95.4234 8.00354 95.2839 8.02467C95.2846 8.2657 95.2563 8.50596 95.1996 8.74023C94.9468 8.84832 94.6752 8.90555 94.4003 8.90865C93.5527 8.88968 92.7455 8.54259 92.1486 7.94046H92.1059C90.4837 9.00962 88.6901 9.79268 86.8032 10.2556C86.9141 10.8665 86.9634 11.487 86.9505 12.1077V15.2243L90.0015 16.6135H90.0857L91.0535 15.5404L92.2105 16.0468V19.3297C91.2124 18.4812 89.9434 18.0183 88.6334 18.0247C88.3928 18.0306 88.1533 18.0588 87.9179 18.1089C87.0252 19.0556 86.4894 20.2832 86.4021 21.5814C86.5417 21.6025 86.6836 21.6025 86.8232 21.5814C86.8223 21.3404 86.8506 21.1001 86.9074 20.8658C87.1603 20.7577 87.4321 20.7005 87.7071 20.6974C88.6341 20.6925 89.5286 21.0383 90.211 21.6656H90.2517L90.2545 21.6396ZM135.747 18.1028L135.727 18.0825C135.895 17.6403 135.916 17.3466 135.916 16.2307V10.1287C135.917 9.43677 135.854 8.74627 135.727 8.06616L136.169 7.87699C136.282 8.5586 136.339 9.2485 136.337 9.93949V15.9171C136.317 17.3482 136.211 17.6427 135.748 18.1061M71.5538 20.9492L71.1327 21.2218C70.4704 20.6638 69.902 20.003 69.4494 19.2647V10.278C65.1145 7.81557 64.6304 7.54219 64.2097 7.35221L64.1048 6.74201H64.1251L69.848 10.1095V19.0743C70.3188 19.7802 70.8932 20.411 71.5521 20.9456M138.949 8.33953C138.949 7.35059 138.969 7.01498 139.391 6.59272C139.581 6.61306 139.98 6.67693 140.212 6.69767V18.589C139.609 18.7582 138.986 18.8432 138.36 18.8416C137.471 18.8496 136.588 18.6999 135.751 18.3994C136.931 17.9364 138.151 17.41 139.097 16.9479C139 16.2646 138.951 15.5755 138.949 14.8854L138.949 8.33953ZM97.7914 9.45498C97.7914 8.29763 97.7283 7.35141 97.6864 6.84494L98.1929 6.48736H98.2132V18.128L97.8349 18.4226H97.7926L97.7914 9.45498ZM32.2655 6.0053C31.1293 7.60485 30.9413 7.96242 30.9413 9.91996V15.2235C30.9413 17.6435 30.836 18.6125 29.1738 20.5481L29.1534 20.5278C30.5003 18.7602 30.5422 17.7916 30.5422 15.3504V10.0249C30.5422 8.06778 30.753 7.7098 32.2463 6.0053H32.2655ZM41.2713 20.9484L40.8502 21.221C40.1193 20.7414 39.4664 20.1523 38.9147 19.4742V8.25532C38.9351 7.45087 38.8717 6.64649 38.7255 5.85518L39.232 5.4976C39.321 6.35032 39.356 7.2078 39.3369 8.06494V19.3078C39.8902 19.9549 40.5437 20.5091 41.2725 20.9492M32.4534 4.95289L32.4737 4.97323C32.0257 5.33862 31.4731 5.55229 30.8958 5.58343C30.2856 5.58343 29.7596 5.28891 29.2124 5.28891C28.9692 5.28179 28.727 5.32289 28.4997 5.40981C28.2725 5.49674 28.0646 5.62777 27.8883 5.79538C27.7503 5.92118 27.6363 6.07101 27.5518 6.23757H27.5315C27.5949 5.94313 27.7409 5.67287 27.9525 5.45854C28.3307 5.11394 28.8293 4.932 29.3405 4.95207C29.93 4.95207 30.5203 5.2466 31.1504 5.2466C31.6016 5.24545 32.0471 5.14489 32.455 4.95207M45.2885 4.69986C45.8006 5.35353 46.3559 5.97217 46.9507 6.55163L46.6143 6.76194C46.0222 6.19218 45.4801 5.57265 44.9939 4.91017L45.2885 4.69986ZM145.932 4.67952C146.457 5.33474 147.019 5.95952 147.615 6.55082L147.279 6.76114C146.678 6.18007 146.123 5.55452 145.616 4.88984L145.932 4.67952ZM130.296 8.17355C130.406 7.58178 130.684 7.03397 131.096 6.59515C131.875 5.81612 133.031 5.4378 134.568 5.4378C136.968 5.4378 139.828 6.17371 141.701 6.17371C142.668 6.17371 143.468 5.75267 144.12 4.59531L144.183 4.61565C143.488 6.02604 142.668 6.50973 141.595 6.50973C139.724 6.50973 136.903 5.77382 134.462 5.77382C132.947 5.77382 131.873 6.15256 131.116 6.91003C130.76 7.25843 130.486 7.683 130.317 8.15199H130.296V8.17355ZM101.217 4.30038L101.112 4.23732C99.5341 5.22667 98.2918 6.0895 97.3878 6.78392C97.4577 7.32133 97.4928 7.86268 97.4928 8.40462C97.1662 9.14644 96.7865 9.86373 96.3566 10.5509L96.4197 10.6351H97.4932V18.5483C97.241 18.7374 97.051 18.8847 96.7984 19.0547V19.1178C97.7462 20.1199 98.8299 20.9841 100.018 21.6851H100.081C101.144 20.8866 102.269 20.1759 103.447 19.56L103.279 19.2874C103.028 19.3868 102.782 19.4991 102.543 19.6239C101.993 19.3343 101.465 19.0035 100.965 18.6345V10.6563H101.112C101.765 10.6488 102.419 10.6769 103.069 10.7405C104.079 9.41593 104.52 8.67799 104.689 8.19389L104.626 8.13084C103.803 8.23799 102.974 8.2872 102.145 8.2781H100.965C100.967 6.94814 101.052 5.61959 101.217 4.29997M71.1063 21.5794H71.1693C72.2632 20.7796 73.4841 19.9591 74.5149 19.2854L74.3465 19.0128C74.01 19.1601 73.7151 19.3078 73.3998 19.455C73.1296 19.2513 72.8828 19.0183 72.6639 18.7602V11.9816C72.6639 10.5302 72.727 9.81461 72.7693 9.2459C66.3935 5.31129 64.6051 4.08924 63.6374 2.99535L63.532 3.0157C63.5178 4.5365 63.6731 6.05415 63.9949 7.54057C64.9534 7.97525 65.8813 8.47446 66.7722 9.03476C65.7206 9.56116 64.5417 10.0864 63.4266 10.5501C63.5169 11.4732 63.5519 12.4009 63.5316 13.3282V19.3895C64.1631 20.2791 64.9825 21.0189 65.9317 21.5566H65.9948C66.9837 20.841 68.1 20.1051 69.1719 19.4302C69.6879 20.2524 70.3428 20.9786 71.1075 21.5765M46.5715 7.12074H46.6346C47.6447 6.42592 48.3179 5.94102 49.2015 5.22667V5.16362C48.5971 4.39229 47.951 3.6546 47.266 2.95386H47.2029C46.3824 3.54332 45.5195 4.13359 44.6144 4.89025V4.9533C45.1959 5.73651 45.8511 6.46217 46.5711 7.12034M147.172 7.12034H147.235C148.245 6.42552 148.918 5.94061 149.802 5.22626V5.16321C149.197 4.39187 148.551 3.65417 147.866 2.95345H147.803C146.983 3.54291 146.12 4.13318 145.215 4.88984V4.95289C145.802 5.73113 146.457 6.45627 147.171 7.11993M35.5891 19.8122L35.6094 19.7492V12.7822H38.6604V19.6222C39.2866 20.3736 40.0161 21.0326 40.8271 21.5794H40.8901C42.0563 20.7097 43.2718 19.9083 44.5306 19.1792L44.3622 18.8847C44.0046 19.032 43.7113 19.1792 43.3944 19.3269C42.9791 19.1288 42.6182 18.8327 42.3428 18.4641V6.97308C42.3058 5.63311 42.4546 4.29447 42.785 2.99535L42.68 2.93229C41.172 3.7704 39.7424 4.74252 38.4086 5.83688C38.6062 6.64204 38.6911 7.47074 38.6608 8.29925V10.426H35.633V6.78635C35.633 4.68277 35.7803 4.11325 36.1395 3.01895L36.0553 2.9986C35.3193 4.0091 35.0663 4.8699 35.0663 6.99749V19.3517C34.5535 19.086 33.9814 18.9557 33.4041 18.973C32.6188 18.9771 31.8411 19.1271 31.1105 19.4152L31.0902 19.3948C33.7832 16.9947 33.8675 16.5736 33.8675 14.8276V7.37337C33.8675 5.16361 34.14 4.19543 34.7303 3.12106L34.6461 3.03685C34.1335 3.35487 33.5451 3.52975 32.942 3.54332C32.1215 3.54332 31.0064 3.12228 30.0171 3.12228C29.3001 3.10282 28.6044 3.3673 28.0815 3.85818C27.6109 4.3352 27.3468 4.97807 27.346 5.64811C27.3473 6.01231 27.4041 6.37418 27.5144 6.72126H27.5775C27.6533 6.45626 27.7987 6.21637 27.9985 6.02645C28.1512 5.8781 28.3326 5.76238 28.5315 5.68636C28.7304 5.61034 28.9427 5.5756 29.1555 5.58425C29.8063 5.58425 30.2493 5.8568 30.8596 5.8568C31.4698 5.8568 31.9534 5.64649 32.9009 4.99397L32.9212 5.01432C30.4397 7.60322 30.3543 8.06535 30.3543 10.0656V10.4232C29.9739 10.4085 29.5947 10.3733 29.2181 10.3178C28.4832 11.1288 27.8013 11.9864 27.1768 12.8852L27.2398 12.9482C27.908 12.8434 28.5837 12.7942 29.26 12.8009H30.3539V16.2108C30.3539 18.3144 30.0594 19.1784 28.2918 21.4512L28.376 21.5566C29.2428 21.1654 30.1812 20.9576 31.1321 20.9464C31.4505 20.9306 31.7689 20.9783 32.0687 21.0867C32.3685 21.1951 32.6438 21.362 32.8785 21.5777H32.9416C33.7456 20.8768 34.6368 20.2827 35.5931 19.8102M132.405 13.0759C132.408 12.1949 132.589 11.3236 132.936 10.5139C133.283 9.70409 133.789 8.97239 134.425 8.36231L134.341 8.25696C133.132 8.65171 132.035 9.32988 131.142 10.2348C130.02 11.3727 129.392 12.9079 129.396 14.5063C129.377 15.4218 129.546 16.3315 129.894 17.1788C130.241 18.026 130.76 18.7927 131.416 19.431C132.847 20.8622 134.825 21.6831 137.287 21.6831C138.284 21.7176 139.278 21.5487 140.207 21.1867C141.137 20.8247 141.983 20.2771 142.694 19.5775C143.815 18.4261 144.455 16.891 144.484 15.2845L144.337 15.2641C143.571 16.7015 142.306 17.8098 140.78 18.3807V6.74567C141.201 6.76601 141.431 6.76602 141.559 6.76602C143.159 6.76602 144.38 5.75592 145.01 2.66218L144.863 2.59912C144.253 3.42005 143.453 3.69342 142.317 3.69342C140.466 3.69342 137.436 2.95752 135.184 2.95752C133.417 2.95752 131.923 3.50305 130.933 4.49402C130.582 4.83043 130.306 5.23632 130.121 5.68575C129.936 6.13519 129.847 6.61826 129.859 7.10407C129.865 7.69026 129.986 8.26954 130.217 8.80858H130.301C130.439 8.17372 130.753 7.59034 131.206 7.12481C131.921 6.40925 132.952 5.98861 134.404 5.98861C135.921 6.03454 137.433 6.18925 138.928 6.45155C137.792 6.8726 136.34 7.46205 135.392 7.90303C135.543 8.67268 135.614 9.45592 135.603 10.2401V16.6172C135.603 17.48 135.582 17.8376 135.33 18.1537C134.882 17.9473 134.47 17.6701 134.11 17.3327C133.549 16.7773 133.109 16.113 132.815 15.3808C132.521 14.6485 132.38 13.8639 132.401 13.0751" fill="#B9B9BA"/>
</svg>
