<svg width="64" height="23" viewBox="0 0 64 23" fill="none" xmlns="http://www.w3.org/2000/svg">
<path d="M31.0817 2.62172e-05C31.7283 -0.00257737 32.3612 0.188792 32.9003 0.549935C33.4394 0.911077 33.8605 1.42577 34.1104 2.02894C34.3602 2.6321 34.4276 3.29664 34.3039 3.93852C34.1803 4.5804 33.8713 5.1708 33.4158 5.63504C32.9604 6.09929 32.3791 6.41654 31.7454 6.54668C31.1116 6.67682 30.454 6.614 29.8556 6.36616C29.2572 6.11832 28.7449 5.6966 28.3835 5.15432C28.0221 4.61204 27.8278 3.97356 27.8252 3.31962C27.8252 2.44376 28.1674 1.60338 28.7774 0.981592C29.3874 0.359799 30.2156 0.0069867 31.0817 2.62172e-05Z" fill="#B9B9BA"/>
<path d="M8.04342 22.8064H0V20.1683H0.595648C0.98695 20.1683 1.12173 19.944 1.12173 19.5791V11.4318C1.12173 11.0625 0.98695 10.8426 0.595648 10.8426H0V8.15177H7.25212V10.4337C8.2869 8.96079 9.63906 7.84399 11.7956 7.84399C14.6521 7.84399 15.6086 9.00036 15.939 10.7107C16.3978 9.84527 17.0799 9.1217 17.9129 8.61693C18.7458 8.11216 19.6984 7.84505 20.6694 7.84399C24.2911 7.84399 24.7868 9.60272 24.7868 12.2144V19.5879C24.7868 19.9528 24.9477 20.1771 25.3955 20.1771H25.8563V22.8152H17.9521V20.1771H18.1651C18.5303 20.1771 18.6912 19.9528 18.6912 19.5879V12.8871C18.6912 11.678 18.2825 11.2911 17.4477 11.2911C16.3434 11.2911 15.9825 12.2144 15.9825 13.639V19.5615C15.9825 19.9528 16.1477 20.1771 16.5129 20.1771H16.839V22.8152H9.15211V20.1771H9.37385C9.72602 20.1771 9.89124 19.9528 9.89124 19.5879V12.8871C9.89124 11.678 9.48254 11.2911 8.64777 11.2911C7.54343 11.2911 7.18691 12.2144 7.18691 13.639V19.5615C7.18691 19.9528 7.32604 20.1771 7.71299 20.1771H8.04342V22.8064Z" fill="#B9B9BA"/>
<path d="M28.0875 11.4314C28.0875 11.0621 27.9527 10.8422 27.5614 10.8422H26.957V8.15137H34.1526V19.5831C34.1526 19.9744 34.2918 20.1986 34.6787 20.1986H35.2178V22.8367H26.957V20.1986H27.5527C27.944 20.1986 28.0788 19.9744 28.0788 19.6095L28.0875 11.4314Z" fill="#B9B9BA"/>
<path d="M44.5122 22.8062H36.4688V20.1681H37.0644C37.4514 20.1681 37.5905 19.9438 37.5905 19.5789V11.4316C37.5905 11.0623 37.4514 10.8424 37.0644 10.8424H36.4688V8.15157H43.6557V10.4599C44.1827 9.65254 44.9003 8.99061 45.7436 8.53388C46.5869 8.07714 47.5294 7.83998 48.4861 7.8438C51.8382 7.8438 52.5643 9.60252 52.5643 12.2142V19.5877C52.5643 19.9526 52.6991 20.1769 53.1426 20.1769H53.6295V22.815H45.6165V20.1769H45.9469C46.3035 20.1769 46.473 19.9526 46.473 19.5877V12.8869C46.473 11.6778 46.0382 11.2909 45.2296 11.2909C44.4209 11.2909 43.6557 11.9328 43.6557 13.3574V19.5613C43.6447 19.6432 43.6522 19.7266 43.6778 19.8052C43.7033 19.8837 43.7462 19.9553 43.8032 20.0146C43.8601 20.0739 43.9297 20.1193 44.0066 20.1475C44.0835 20.1756 44.1657 20.1856 44.247 20.1769H44.5122V22.8062Z" fill="#B9B9BA"/>
<path d="M53.4785 8.15168L55.6176 8.06814L55.8741 4.73535H61.3045V8.15168H63.8654V10.8997H61.3045V17.5389C61.3045 19.2712 61.635 19.834 63.5176 19.834H64.0002V22.8063C62.8062 22.9388 61.6057 23.0034 60.4046 22.9997C56.9741 22.9997 55.2394 21.9225 55.2394 19.0426V10.8997H53.5003L53.4785 8.15168Z" fill="#B9B9BA"/>
</svg>
