<svg width="118" height="32" viewBox="0 0 118 32" fill="none" xmlns="http://www.w3.org/2000/svg">
<path d="M37.9687 7.81592H44.5615C48.1239 7.81592 50.5071 9.89352 50.5071 13.1375C50.5071 15.1943 49.4191 16.8367 47.7319 17.6359L50.9231 23.8031H47.0823L44.3503 18.4351H41.4359V23.8031H37.9639V7.81592H37.9687ZM41.4407 10.6695V15.5799H44.2879C45.9303 15.5799 46.9703 14.6207 46.9703 13.1351C46.9703 11.6495 45.9303 10.6679 44.2879 10.6679H41.4407V10.6695ZM51.4191 17.9535C51.4191 14.2983 53.8471 11.9255 57.5255 11.9255C61.2039 11.9255 63.4943 14.1167 63.5407 17.5655C63.5407 17.9095 63.5183 18.2951 63.4479 18.6623H54.8183V18.8207C54.8879 20.4871 55.9743 21.4927 57.6175 21.4927C58.9375 21.4927 59.8615 20.9215 60.1399 19.8263H63.3567C62.9855 22.1103 60.9287 23.9375 57.7567 23.9375C53.7999 23.9375 51.4191 21.5855 51.4191 17.9535ZM60.2559 16.5591C60.0239 15.1199 59.0279 14.3215 57.5479 14.3215C56.0679 14.3215 55.0719 15.1671 54.8879 16.5591H60.2559ZM72.9687 12.0647H76.2319V23.8039H73.3399L73.0407 22.3871C72.2775 23.2999 71.2375 23.9399 69.5463 23.9399C67.0959 23.9399 64.8263 22.7295 64.8263 18.5719V12.0631H68.0895V18.1375C68.0895 20.2383 68.7855 21.2671 70.4039 21.2671C72.0223 21.2671 72.9711 20.1031 72.9711 17.9327V12.0631H72.9695L72.9711 12.0647H72.9687ZM78.1615 8.78392H81.4247V12.0719H84.1327V14.7903H81.4247V19.9303C81.4247 20.7527 81.7495 21.0943 82.5807 21.0943H84.2687V23.8111H81.5607C79.2927 23.8111 78.1599 22.6935 78.1599 20.4551V8.78552L78.1615 8.78392ZM84.8063 17.9535C84.8063 14.2983 87.2343 11.9255 90.9151 11.9255C94.5959 11.9255 96.8839 14.1167 96.9303 17.5655C96.9318 17.9331 96.9008 18.3002 96.8375 18.6623H88.2071V18.8207C88.2743 20.4871 89.3631 21.4927 91.0063 21.4927C92.3255 21.4927 93.2503 20.9215 93.5311 19.8263H96.7447C96.3735 22.1103 94.3167 23.9375 91.1471 23.9375C87.1903 23.9375 84.8063 21.5855 84.8063 17.9535ZM93.6463 16.5591C93.4143 15.1199 92.4183 14.3215 90.9383 14.3215C89.4583 14.3215 88.4623 15.1671 88.2783 16.5591H93.6463ZM105.622 12.0631V14.9879H104.327C102.382 14.9879 101.644 16.2655 101.644 18.0487V23.8039H98.3815V12.0647H101.342L101.644 13.8215C102.292 12.7711 103.215 12.0647 105.067 12.0647H105.622V12.0631ZM109.243 19.8983C109.359 20.9255 110.26 21.6335 111.858 21.6335C113.222 21.6335 114.056 21.1991 114.056 20.3783C114.056 19.4191 113.248 19.3511 111.326 19.1007C108.549 18.7807 106.397 18.1639 106.397 15.7447C106.397 13.3255 108.457 11.8847 111.509 11.9087C114.7 11.9087 116.901 13.3031 117.062 15.6983H113.938C113.848 14.7615 112.943 14.1903 111.625 14.1903C110.308 14.1903 109.521 14.6479 109.521 15.4007C109.521 16.2927 110.539 16.3839 112.252 16.5887C114.984 16.8623 117.25 17.4807 117.25 20.1295C117.25 22.4575 115.029 23.9431 111.836 23.9431C108.643 23.9431 106.285 22.4111 106.144 19.9023H109.244H109.242V19.8983H109.243Z" fill="#212223"/>
<path d="M28.0812 4.2944C28.2823 4.49487 28.4418 4.73317 28.5504 4.99555C28.659 5.25794 28.7146 5.53923 28.714 5.8232C28.715 6.10724 28.6596 6.38866 28.551 6.6511C28.4424 6.91355 28.2827 7.1518 28.0812 7.352C27.6761 7.75674 27.127 7.9841 26.5544 7.9841C25.9818 7.9841 25.4326 7.75674 25.0276 7.352C24.8264 7.15153 24.667 6.91323 24.5584 6.65085C24.4498 6.38846 24.3942 6.10717 24.3948 5.8232C24.3948 5.2448 24.618 4.7024 25.0276 4.2944C25.2278 4.09332 25.4658 3.93382 25.7279 3.82508C25.99 3.71634 26.271 3.66051 26.5548 3.6608C27.1076 3.6608 27.662 3.872 28.082 4.2944H28.0812ZM4.72037 27.6992C4.3166 27.293 4.08997 26.7435 4.08997 26.1708C4.08997 25.5981 4.3166 25.0486 4.72037 24.6424C4.92032 24.441 5.15827 24.2812 5.42043 24.1725C5.6826 24.0637 5.96374 24.0081 6.24757 24.0088C6.53146 24.0076 6.81274 24.063 7.07496 24.1718C7.33718 24.2806 7.57509 24.4406 7.77477 24.6424C8.17854 25.0486 8.40517 25.5981 8.40517 26.1708C8.40517 26.7435 8.17854 27.293 7.77477 27.6992C7.57482 27.9006 7.33686 28.0604 7.0747 28.1691C6.81254 28.2779 6.5314 28.3335 6.24757 28.3328C5.67157 28.3328 5.12757 28.1088 4.72037 27.6992ZM21.182 4.464L21.1668 4.4576C20.7076 4.2632 20.3484 3.9024 20.1588 3.44C20.0625 3.21062 20.0129 2.96436 20.0129 2.7156C20.0129 2.46684 20.0625 2.22058 20.1588 1.9912C20.2536 1.7616 20.3927 1.55296 20.5683 1.37724C20.7439 1.20152 20.9524 1.06218 21.182 0.9672C21.4164 0.8704 21.6604 0.8216 21.906 0.8216C22.1543 0.821683 22.4001 0.871178 22.6292 0.9672C23.092 1.16037 23.4594 1.52902 23.651 1.99247C23.8426 2.45592 23.8428 2.97641 23.6516 3.44C23.2532 4.4048 22.1452 4.8632 21.182 4.464ZM10.9044 27.3912C11.1492 27.3912 11.3932 27.44 11.626 27.5344C12.0889 27.7274 12.4565 28.096 12.6483 28.5595C12.8401 29.0229 12.8404 29.5435 12.6492 30.0072C12.5547 30.237 12.4157 30.4459 12.2401 30.6216C12.0645 30.7974 11.8557 30.9366 11.626 31.0312C11.1596 31.2256 10.6476 31.2256 10.1788 31.0312C9.71582 30.8382 9.34822 30.4696 9.15644 30.0061C8.96467 29.5427 8.96436 29.0221 9.15557 28.5584C9.29712 28.2116 9.53907 27.9149 9.85038 27.7065C10.1617 27.4981 10.5282 27.3875 10.9028 27.3888L10.9044 27.3912ZM18.0204 1.6216C18.0204 2.4912 17.3324 3.2032 16.4748 3.2432H16.4012C15.9716 3.24214 15.5599 3.07091 15.2563 2.76698C14.9526 2.46305 14.7818 2.0512 14.7812 1.6216C14.7818 1.19213 14.9525 0.780405 15.256 0.476502C15.5594 0.172599 15.9709 0.00126889 16.4004 0C17.2924 0 18.0204 0.7312 18.0204 1.6232V1.6216ZM14.7788 30.3784C14.7794 29.9488 14.9502 29.5369 15.2539 29.233C15.5575 28.9291 15.9692 28.7579 16.3988 28.7568C16.8284 28.7579 17.2401 28.9291 17.5437 29.233C17.8473 29.5369 18.0181 29.9488 18.0188 30.3784C18.0181 30.808 17.8473 31.2199 17.5437 31.5238C17.2401 31.8277 16.8284 31.9989 16.3988 32C15.9692 31.9989 15.5575 31.8277 15.2539 31.5238C14.9502 31.2199 14.7794 30.808 14.7788 30.3784ZM11.426 3.9648C11.2622 4.03301 11.0866 4.06813 10.9092 4.06813C10.7318 4.06813 10.5561 4.03301 10.3924 3.9648C10.2277 3.89753 10.0782 3.79806 9.95246 3.67222C9.82677 3.54639 9.72746 3.39672 9.66037 3.232C9.59232 3.06791 9.55728 2.89202 9.55724 2.71438C9.55721 2.53674 9.59218 2.36083 9.66016 2.19671C9.72814 2.03259 9.82779 1.88348 9.95343 1.75789C10.0791 1.63231 10.2282 1.53271 10.3924 1.4648C10.5553 1.39674 10.7302 1.36166 10.9068 1.3616C11.438 1.3616 11.9404 1.6784 12.1572 2.1976C12.2948 2.5336 12.2948 2.9008 12.1572 3.232C12.0905 3.39695 11.9913 3.54682 11.8656 3.67271C11.7398 3.79859 11.59 3.89792 11.4252 3.9648H11.426ZM21.3748 28.0344C21.5392 27.9653 21.7156 27.9294 21.894 27.9288C22.071 27.9297 22.2462 27.9647 22.41 28.032C22.7452 28.1712 23.0052 28.4312 23.142 28.7648C23.2791 29.096 23.2791 29.468 23.142 29.7992C23.0753 29.9642 22.9761 30.114 22.8504 30.2399C22.7246 30.3658 22.5749 30.4651 22.41 30.532C22.2459 30.6 22.07 30.635 21.8924 30.635C21.7147 30.635 21.5389 30.6 21.3748 30.532C21.2099 30.4651 21.0601 30.3658 20.9344 30.2399C20.8086 30.114 20.7095 29.9642 20.6428 29.7992C20.5052 29.4632 20.5052 29.0984 20.6428 28.7648C20.7804 28.4312 21.0396 28.1712 21.3748 28.0344ZM7.00917 5.0736C7.42517 5.4896 7.43077 6.1592 7.02997 6.5832L7.00597 6.6072C6.80221 6.80921 6.5269 6.92255 6.23997 6.92255C5.95304 6.92255 5.67773 6.80921 5.47397 6.6072C5.27172 6.4034 5.15822 6.12792 5.15822 5.8408C5.15822 5.55368 5.27172 5.2782 5.47397 5.0744C5.57434 4.97341 5.69369 4.89327 5.82515 4.83858C5.95661 4.7839 6.09759 4.75574 6.23997 4.75574C6.38235 4.75574 6.52333 4.7839 6.65479 4.83858C6.78625 4.89327 6.9056 4.97341 7.00597 5.0744H7.00757L7.00837 5.0736H7.00917ZM25.7804 25.4C25.8803 25.2993 25.9992 25.2195 26.1302 25.1651C26.2612 25.1107 26.4017 25.0829 26.5436 25.0832C26.6858 25.083 26.8266 25.1109 26.958 25.1653C27.0893 25.2196 27.2087 25.2994 27.3092 25.4C27.514 25.6032 27.6252 25.8752 27.6252 26.164C27.6263 26.3784 27.5635 26.5883 27.4449 26.7669C27.3263 26.9455 27.1572 27.0848 26.9592 27.167C26.7612 27.2492 26.5432 27.2705 26.333 27.2284C26.1228 27.1863 25.9298 27.0825 25.7788 26.9304C25.6782 26.8298 25.5985 26.7102 25.5443 26.5787C25.4901 26.4472 25.4624 26.3063 25.4628 26.164C25.4628 25.8768 25.5748 25.6048 25.7788 25.4H25.7804ZM2.61557 11.7456C1.92597 11.46 1.59877 10.6664 1.88357 9.9784C1.95027 9.81345 2.04943 9.66358 2.17518 9.53769C2.30093 9.41181 2.45069 9.31248 2.61557 9.2456C2.7805 9.1785 2.95671 9.14347 3.13477 9.1424C3.31189 9.14246 3.48725 9.17754 3.65077 9.2456C4.34037 9.5312 4.66757 10.3248 4.38277 11.0128C4.31607 11.1778 4.2169 11.3276 4.09116 11.4535C3.96541 11.5794 3.81565 11.6787 3.65077 11.7456C3.48701 11.8138 3.31137 11.8489 3.13397 11.8489C2.95657 11.8489 2.78093 11.8138 2.61717 11.7456H2.61557ZM30.1908 20.2592C30.3556 20.3261 30.5054 20.4254 30.6312 20.5513C30.7569 20.6772 30.8561 20.827 30.9228 20.992C31.0604 21.328 31.0604 21.6928 30.9228 22.0264C30.7854 22.3574 30.5224 22.6203 30.1913 22.7574C29.8602 22.8945 29.4883 22.8946 29.1572 22.7576C28.9923 22.6907 28.8425 22.5914 28.7168 22.4655C28.591 22.3396 28.4919 22.1898 28.4252 22.0248C28.2876 21.6888 28.2876 21.324 28.4252 20.9904C28.6404 20.4712 29.1444 20.156 29.6756 20.156C29.8521 20.1567 30.0276 20.1917 30.1908 20.2592ZM0.417969 16.0088C0.418602 15.5792 0.589433 15.1673 0.893059 14.8634C1.19668 14.5595 1.60837 14.3883 2.03797 14.3872C2.46757 14.3883 2.87925 14.5595 3.18288 14.8634C3.4865 15.1673 3.65734 15.5792 3.65797 16.0088C3.65734 16.4384 3.4865 16.8503 3.18288 17.1542C2.87925 17.4581 2.46757 17.6293 2.03797 17.6304C1.60837 17.6293 1.19668 17.4581 0.893059 17.1542C0.589433 16.8503 0.418602 16.4384 0.417969 16.0088ZM29.1436 16.0088C29.1442 15.5792 29.315 15.1673 29.6187 14.8634C29.9223 14.5595 30.334 14.3883 30.7636 14.3872C31.1932 14.3883 31.6049 14.5595 31.9085 14.8634C32.2121 15.1673 32.3829 15.5792 32.3836 16.0088C32.3829 16.4384 32.2121 16.8503 31.9085 17.1542C31.6049 17.4581 31.1932 17.6293 30.7636 17.6304C30.334 17.6293 29.9223 17.4581 29.6187 17.1542C29.315 16.8503 29.1442 16.4384 29.1436 16.0088ZM1.37717 22.2264C1.18596 21.7627 1.18627 21.2421 1.37804 20.7787C1.56982 20.3152 1.93742 19.9466 2.40037 19.7536C2.86677 19.5592 3.37877 19.5592 3.84677 19.7536C4.0763 19.8486 4.28483 19.9879 4.46041 20.1636C4.63599 20.3394 4.77517 20.548 4.86997 20.7776C4.96623 21.007 5.01581 21.2532 5.01581 21.502C5.01581 21.7508 4.96623 21.997 4.86997 22.2264C4.77517 22.456 4.63599 22.6646 4.46041 22.8404C4.28483 23.0161 4.0763 23.1554 3.84677 23.2504C3.38037 23.4448 2.86837 23.4448 2.40037 23.2504C2.17084 23.1554 1.96231 23.0161 1.78673 22.8404C1.61115 22.6646 1.47197 22.456 1.37717 22.2264ZM27.9164 11.2192C27.8211 10.9899 27.772 10.744 27.7719 10.4957C27.7717 10.2474 27.8206 10.0015 27.9156 9.77214C28.0107 9.54274 28.1501 9.33434 28.3258 9.15888C28.5015 8.98341 28.71 8.84433 28.9396 8.7496C29.1672 8.65348 29.4117 8.60397 29.6588 8.604C30.4012 8.604 31.106 9.0432 31.4076 9.7712C31.5988 10.2349 31.5985 10.7555 31.4067 11.2189C31.2149 11.6824 30.8473 12.051 30.3844 12.244C29.918 12.4384 29.406 12.4384 28.938 12.244C28.47 12.0496 28.1092 11.6864 27.9148 11.22L27.9164 11.2192ZM20.9964 20.6C20.712 20.885 20.5524 21.2711 20.5524 21.6736C20.5524 22.0761 20.712 22.4622 20.9964 22.7472C21.5892 23.3408 22.5508 23.3408 23.1436 22.7472C23.2851 22.6068 23.3973 22.4396 23.4737 22.2555C23.5501 22.0713 23.589 21.8738 23.5884 21.6744C23.5889 21.4752 23.5499 21.2778 23.4735 21.0938C23.3972 20.9097 23.285 20.7427 23.1436 20.6024C22.8476 20.3064 22.4604 20.1584 22.0724 20.1584C21.6699 20.158 21.2835 20.3164 20.9972 20.5992L20.9964 20.6ZM8.33957 15.0808C7.69797 14.9104 7.31877 14.2496 7.48997 13.6072C7.53065 13.4544 7.60114 13.3111 7.69738 13.1856C7.79363 13.0601 7.91372 12.9549 8.05077 12.876C8.23172 12.7697 8.43769 12.7133 8.64757 12.7128C8.75077 12.7128 8.85637 12.7248 8.96037 12.7528C9.26997 12.8368 9.52997 13.0352 9.68997 13.3144C9.84997 13.5936 9.89237 13.9184 9.80997 14.2288C9.7694 14.3814 9.6991 14.5246 9.60309 14.65C9.50709 14.7754 9.38728 14.8806 9.25052 14.9596C9.11377 15.0386 8.96276 15.0898 8.80617 15.1104C8.64957 15.1309 8.49046 15.1203 8.33797 15.0792H8.33957V15.0808ZM23.8356 19.2384C23.526 19.1544 23.266 18.956 23.106 18.6768C22.946 18.3976 22.9036 18.0728 22.986 17.7624C23.0267 17.6096 23.0971 17.4663 23.1934 17.3408C23.2896 17.2153 23.4097 17.1101 23.5468 17.0312C23.7284 16.9252 23.9349 16.8692 24.1452 16.8688C24.2318 16.8687 24.3181 16.8778 24.4028 16.896L24.4596 16.9112C25.1012 17.0816 25.4804 17.7456 25.3092 18.3848C25.2684 18.5375 25.1979 18.6806 25.1016 18.8059C25.0054 18.9313 24.8853 19.0364 24.7484 19.1152C24.47 19.2752 24.1452 19.32 23.8356 19.236V19.2384ZM7.72357 18.3264C7.66053 18.0889 7.69018 17.8363 7.80651 17.6199C7.92283 17.4034 8.11712 17.2393 8.34997 17.1608L8.40517 17.1456C8.91797 17.0064 9.44677 17.3144 9.58437 17.8272C9.65157 18.0768 9.61877 18.336 9.48757 18.56C9.35962 18.7812 9.1494 18.9428 8.90277 19.0096C8.65557 19.0768 8.39717 19.0432 8.17077 18.912C7.94989 18.7839 7.78858 18.5737 7.72197 18.3272L7.72357 18.3256V18.3264ZM23.662 14.7624L23.6204 14.7368C23.4196 14.6056 23.2764 14.4096 23.2148 14.1776C23.0772 13.6624 23.3812 13.1344 23.8956 12.9952C24.41 12.856 24.9372 13.164 25.0748 13.6768C25.2124 14.1896 24.9084 14.72 24.394 14.8576C24.1452 14.9248 23.8884 14.8888 23.662 14.7608V14.7624ZM11.2652 22.1488L11.238 22.176C10.9556 22.4584 10.4956 22.4584 10.2132 22.176C9.93077 21.8936 9.93077 21.4344 10.2132 21.152C10.4956 20.8696 10.9556 20.8696 11.238 21.152C11.3056 21.2191 11.3593 21.299 11.3958 21.3871C11.4323 21.4751 11.451 21.5695 11.4508 21.6648C11.4517 21.8434 11.3855 22.0159 11.2652 22.148V22.1488ZM22.5788 9.8072C22.6467 9.87419 22.7007 9.95402 22.7376 10.0421C22.7744 10.1301 22.7934 10.2246 22.7934 10.32C22.7934 10.4154 22.7744 10.5099 22.7376 10.5979C22.7007 10.686 22.6467 10.7658 22.5788 10.8328C22.2964 11.1152 21.8364 11.1152 21.554 10.8328C21.486 10.7658 21.432 10.686 21.3952 10.5979C21.3583 10.5099 21.3394 10.4154 21.3394 10.32C21.3394 10.2246 21.3583 10.1301 21.3952 10.0421C21.432 9.95402 21.486 9.87419 21.554 9.8072C21.6908 9.6696 21.8724 9.5936 22.0668 9.5936C22.2612 9.5936 22.442 9.6672 22.5796 9.8048V9.8064L22.5788 9.8072ZM15.1572 23.2712C15.286 23.4928 15.3196 23.7544 15.254 24.004C15.1884 24.2536 15.0284 24.46 14.8052 24.5888C14.582 24.7176 14.322 24.7512 14.0732 24.6856C13.5604 24.548 13.2548 24.0184 13.3924 23.5056C13.4596 23.256 13.618 23.0496 13.8412 22.9208C13.9507 22.857 14.0718 22.8155 14.1974 22.7988C14.323 22.782 14.4508 22.7903 14.5732 22.8232C14.822 22.8904 15.0292 23.0488 15.158 23.2728L15.1572 23.2712ZM17.6372 8.7328C17.5084 8.5112 17.474 8.2496 17.5396 8C17.6052 7.7504 17.7652 7.544 17.9884 7.4152C18.134 7.33149 18.2988 7.28711 18.4668 7.2864C18.5508 7.2864 18.6332 7.2968 18.718 7.3176C18.8403 7.34996 18.955 7.4064 19.0552 7.48359C19.1555 7.56079 19.2394 7.65721 19.302 7.7672C19.4308 7.9888 19.4652 8.2504 19.3996 8.5C19.262 9.0128 18.7332 9.3192 18.2204 9.1816C18.098 9.14924 17.9834 9.0928 17.8831 9.01561C17.7828 8.93841 17.6989 8.842 17.6364 8.732L17.6372 8.7328ZM19.0836 22.7168L19.1348 22.7464C19.3852 22.9079 19.5666 23.1569 19.6436 23.4448C19.814 24.0864 19.434 24.7472 18.794 24.9184C18.4812 25.0032 18.1596 24.9584 17.8812 24.7984C17.6028 24.6384 17.4044 24.3784 17.3204 24.068C17.2785 23.9152 17.2674 23.7557 17.2875 23.5986C17.3076 23.4415 17.3586 23.2899 17.4376 23.1527C17.5166 23.0154 17.622 22.8951 17.7477 22.7987C17.8734 22.7024 18.0169 22.6318 18.17 22.5912C18.2727 22.5647 18.3783 22.5513 18.4844 22.5512C18.6947 22.5516 18.9011 22.6076 19.0828 22.7136L19.0844 22.7152V22.716L19.0836 22.7168ZM14.6356 9.4104C14.3277 9.4912 14.0003 9.4472 13.7247 9.28795C13.449 9.12871 13.2474 8.8671 13.1636 8.56C12.9932 7.9184 13.3724 7.2576 14.0132 7.0864C14.1142 7.05982 14.2183 7.04638 14.3228 7.0464C14.854 7.0464 15.3412 7.4008 15.4852 7.9376C15.6556 8.5792 15.2756 9.24 14.6356 9.4112V9.4104ZM10.7292 11.828C11.566 11.828 12.2436 11.1496 12.2436 10.312C12.2436 9.4744 11.5652 8.796 10.7292 8.796C9.89317 8.796 9.21477 9.4744 9.21477 10.312C9.21477 11.1496 9.89317 11.828 10.7292 11.828Z" fill="#D64000"/>
</svg>
