<svg width="119" height="18" viewBox="0 0 119 18" fill="none" xmlns="http://www.w3.org/2000/svg">
<path fill-rule="evenodd" clip-rule="evenodd" d="M18.7337 2.15104L19.0471 0.0726163H3.49983L3.2654 1.59579C3.0114 3.18006 2.6393 4.60494 2.13134 5.85182C1.5248 7.31653 0.761954 8.38543 0 8.88044C0.761954 9.37548 1.50526 10.424 2.13134 11.9091C2.6393 13.1356 3.03095 14.5605 3.2654 16.1642L3.49983 17.6874H19.0471L18.7344 15.6099C18.3438 13.0364 17.5995 10.7215 16.5827 8.95927L16.5436 8.89994L16.5827 8.84059C17.58 7.03935 18.3429 4.7236 18.7344 2.15104H18.7337ZM13.9825 11.9277C14.2365 12.5219 14.4709 13.1949 14.6663 13.9468H6.57074C6.14003 11.9684 5.49441 10.246 4.69339 8.86009C5.49441 7.47506 6.1205 5.75264 6.57074 3.77339H14.6467C14.4514 4.52612 14.2169 5.19916 13.9629 5.79249C13.2969 7.39535 12.4763 8.46423 11.7135 8.86009C12.4959 9.25681 13.3173 10.3044 13.9825 11.9277ZM28.2695 17.9991H32.4585V3.86726H36.8748V0.00177111H23.8523V3.86726H28.2695V17.9991ZM42.8594 6.99509V0.00177111H38.6705V17.9991H42.8594V10.8375H47.6941V17.9991H51.883V0.00177111H47.6932V6.99509H42.8594ZM59.1251 10.8615H65.7979V6.99509H59.1251V3.86726H66.9614V0.00177111H54.9371V17.9991H66.9614V14.1336H59.1251V10.8615ZM89.4701 0.00177111H84.3034L79.0016 6.63023V0.00177111H74.8127V17.9991H79.0016V12.5724L80.6711 10.5524L84.8264 18H89.7062L83.4642 7.2882L89.4692 0L89.4701 0.00177111ZM94.7921 10.8615H101.465V6.99509H94.7921V3.86726H102.629V0.00177111H90.6041V17.9991H102.628V14.1336H94.7921V10.8615ZM108.602 0.00177111H104.97V17.9991H109.159V8.57669L115.168 17.9991H118.8V0.00177111H114.612V9.40469L108.602 0.00177111Z" fill="#B9B9BA"/>
</svg>
