<svg width="1440" height="2000" viewBox="0 0 1440 2000" fill="none" xmlns="http://www.w3.org/2000/svg">
<g clip-path="url(#clip0_2737_701)">
<path opacity="0.5" d="M676.649 1652.39L580.457 1397.09L511.283 1262.15" stroke="#EBEBED" stroke-width="2" stroke-miterlimit="10"/>
<path opacity="0.5" d="M595 911.002L511.282 1262.15L304.552 1343.4M595 911.002L277 786.502L225 650.002M595 911.002L499.5 277.502M595 911.002L855.5 544.658M882.5 402.502L1518 160M882.5 402.502L1250 465.002L1518 160M882.5 402.502L1185.5 579L1064.5 701.5M225 650.002L-51 222.002L499.5 277.502M225 650.002L499.5 277.502M499.5 277.502L1518 160M499.5 277.502L1064.5 701.5M1064.5 701.5L1012 917" stroke="#EBEBED" stroke-width="2" stroke-miterlimit="10"/>
<path opacity="0.3" d="M1205.5 1815L918 2114.5L997.15 1608.75L1135.9 1376.25L1009.9 917.252" stroke="#EBEBED" stroke-width="2" stroke-miterlimit="10"/>
<path opacity="0.5" d="M997.9 1610.25L1208.5 1815" stroke="#EBEBED" stroke-width="2" stroke-miterlimit="10"/>
<path opacity="0.3" d="M384.633 1498.42L501.939 1744.55L660.499 2037.5L419.649 1877.25" stroke="#EBEBED" stroke-width="2" stroke-miterlimit="10"/>
<path opacity="0.5" d="M304.552 1343.4L-415.25 1535.25L376.821 1499.29L384.634 1498.42" stroke="#EBEBED" stroke-width="2" stroke-miterlimit="10"/>
<path opacity="0.3" d="M175 2008L414.784 1875.44" stroke="#EBEBED" stroke-width="2" stroke-miterlimit="10"/>
<path opacity="0.5" d="M384.634 1498.42L304.552 1343.4L-354.5 1050.45" stroke="#EBEBED" stroke-width="2" stroke-miterlimit="10"/>
<path opacity="0.5" d="M511.282 1262.15L277 786.002" stroke="#EBEBED" stroke-width="2" stroke-miterlimit="10"/>
<path opacity="0.5" d="M501.939 1744.55L779.949 1805.75" stroke="#EBEBED" stroke-width="2" stroke-miterlimit="10"/>
<path opacity="0.3" d="M171.5 2013L672 2032.5L927 2064.5L779.95 1805.75" stroke="#EBEBED" stroke-width="2" stroke-miterlimit="10"/>
<path opacity="0.3" d="M-33.5 1665L315.083 1707.65M-33.5 1665L174 2005.5M-33.5 1665L384.635 1498.42L580.457 1397.09M-33.5 1665L-311 1986.75M-33.5 1665L-416 1557" stroke="#EBEBED" stroke-width="2" stroke-miterlimit="10"/>
<path opacity="0.5" d="M806.625 1397.45L1135.9 1377" stroke="#EBEBED" stroke-width="2" stroke-miterlimit="10"/>
<path opacity="0.5" d="M779.949 1805.75L806.625 1397.45" stroke="#EBEBED" stroke-width="2" stroke-miterlimit="10"/>
<path opacity="0.5" d="M779.951 1805.75L997.901 1610.25L806.627 1397.45L580.457 1397.09" stroke="#EBEBED" stroke-width="2" stroke-miterlimit="10"/>
<path opacity="0.5" d="M313.463 1706.19L501.941 1744.55L676.649 1652.39" stroke="#EBEBED" stroke-width="2" stroke-miterlimit="10"/>
<path opacity="0.5" d="M806.626 1397.46L739.846 1196.36L595 911.002" stroke="#EBEBED" stroke-width="2" stroke-miterlimit="10"/>
<path opacity="0.5" d="M511.283 1262.15L739.847 1196.36L882.5 404.002L498 278L278.5 788L-122.5 604.5L222.5 651" stroke="#EBEBED" stroke-width="2" stroke-miterlimit="10"/>
<path opacity="0.5" d="M676.648 1652.39L806.626 1397.45" stroke="#EBEBED" stroke-width="2" stroke-miterlimit="10"/>
<path opacity="0.5" d="M676.648 1652.39L779.95 1805.75" stroke="#EBEBED" stroke-width="2" stroke-miterlimit="10"/>
<path opacity="0.5" d="M739.846 1196.36L1010.5 915.502L1249.5 465.502L1389 535.002L1188.42 580.5L858 546L538.5 535.002L277 785.002M277 785.002L304 1339L-64 929.002L277 785.002Z" stroke="#EBEBED" stroke-width="2" stroke-miterlimit="10"/>
<path opacity="0.3" d="M1014.4 918.002L1723.75 1069.55M1014.4 918.002L1502.5 1305.91M1014.4 918.002L1389.5 536.502L1606.75 781.502L1723.75 1069.55M2179.9 1167L1502.5 1305.91M2179.9 1167L1723.75 1069.55M2179.9 1167L1832.5 1504.5M1576 1780.5L1141.15 1380L1502.5 1305.91M1576 1780.5L1205.5 1815.75M1576 1780.5L1022.65 2019M1576 1780.5L1581.78 1901.55M1576 1780.5L1502.5 1305.91M1576 1780.5L1832.5 1504.5M1022.65 2019L517 2164.5M1022.65 2019L1229.5 2242.5M1022.65 2019L1581.78 1901.55M1588.75 2047.5L1993.75 1771.5M1588.75 2047.5L1581.78 1901.55M1588.75 2047.5L1797.25 2242.5H1229.5M1588.75 2047.5L1229.5 2242.5M1993.75 1771.5L1581.78 1901.55M1993.75 1771.5L1832.5 1504.5M1229.5 2242.5L1581.78 1901.55M1581.78 1901.55L1832.5 1504.5M1502.5 1305.91L1723.75 1069.55M1502.5 1305.91L1832.5 1504.5" stroke="#EBEBED" stroke-width="2" stroke-miterlimit="10"/>
<path opacity="0.5" d="M501.941 1744.55L414.785 1875.45L313.463 1706.19L384.635 1498.42L511.283 1262.15L806.627 1397.46L1010.65 917.252" stroke="#EBEBED" stroke-width="2" stroke-miterlimit="10"/>
<path opacity="0.5" d="M582.598 1403.23C585.911 1403.23 588.598 1400.55 588.598 1397.23C588.598 1393.92 585.911 1391.23 582.598 1391.23C579.284 1391.23 576.598 1393.92 576.598 1397.23C576.598 1400.55 579.284 1403.23 582.598 1403.23Z" fill="white" stroke="#EBEBED" stroke-width="2" stroke-miterlimit="10"/>
<path d="M385.4 1502C388.714 1502 391.4 1499.31 391.4 1496C391.4 1492.69 388.714 1490 385.4 1490C382.087 1490 379.4 1492.69 379.4 1496C379.4 1499.31 382.087 1502 385.4 1502Z" fill="white" stroke="#EBEBED" stroke-width="2" stroke-miterlimit="10"/>
<path d="M806.9 1403C810.214 1403 812.9 1400.31 812.9 1397C812.9 1393.69 810.214 1391 806.9 1391C803.587 1391 800.9 1393.69 800.9 1397C800.9 1400.31 803.587 1403 806.9 1403Z" fill="white" stroke="#EBEBED" stroke-width="2" stroke-miterlimit="10"/>
<path d="M1136.9 1383.5C1140.21 1383.5 1142.9 1380.81 1142.9 1377.5C1142.9 1374.19 1140.21 1371.5 1136.9 1371.5C1133.59 1371.5 1130.9 1374.19 1130.9 1377.5C1130.9 1380.81 1133.59 1383.5 1136.9 1383.5Z" fill="white" stroke="#EBEBED" stroke-width="2" stroke-miterlimit="10"/>
<path d="M304 1347.5C307.314 1347.5 310 1344.81 310 1341.5C310 1338.19 307.314 1335.5 304 1335.5C300.686 1335.5 298 1338.19 298 1341.5C298 1344.81 300.686 1347.5 304 1347.5Z" fill="white" stroke="#EBEBED" stroke-width="2" stroke-miterlimit="10"/>
<path d="M998.9 1616.75C1002.21 1616.75 1004.9 1614.06 1004.9 1610.75C1004.9 1607.44 1002.21 1604.75 998.9 1604.75C995.587 1604.75 992.9 1607.44 992.9 1610.75C992.9 1614.06 995.587 1616.75 998.9 1616.75Z" fill="white" stroke="#EBEBED" stroke-width="2" stroke-miterlimit="10"/>
<path d="M504.4 1754.25C509.371 1754.25 513.4 1750.22 513.4 1745.25C513.4 1740.28 509.371 1736.25 504.4 1736.25C499.43 1736.25 495.4 1740.28 495.4 1745.25C495.4 1750.22 499.43 1754.25 504.4 1754.25Z" fill="white" stroke="#EBEBED" stroke-width="2" stroke-miterlimit="10"/>
<path d="M676.4 1658C679.714 1658 682.4 1655.31 682.4 1652C682.4 1648.69 679.714 1646 676.4 1646C673.087 1646 670.4 1648.69 670.4 1652C670.4 1655.31 673.087 1658 676.4 1658Z" fill="white" stroke="#EBEBED" stroke-width="2" stroke-miterlimit="10"/>
<path d="M316.053 1713.01C319.366 1713.01 322.053 1710.33 322.053 1707.01C322.053 1703.7 319.366 1701.01 316.053 1701.01C312.739 1701.01 310.053 1703.7 310.053 1707.01C310.053 1710.33 312.739 1713.01 316.053 1713.01Z" fill="white" stroke="#EBEBED" stroke-width="2" stroke-miterlimit="10"/>
<path d="M414.4 1884C419.371 1884 423.4 1879.97 423.4 1875C423.4 1870.03 419.371 1866 414.4 1866C409.43 1866 405.4 1870.03 405.4 1875C405.4 1879.97 409.43 1884 414.4 1884Z" fill="white" stroke="#EBEBED" stroke-width="2" stroke-miterlimit="10"/>
<path d="M1208.5 1824C1213.47 1824 1217.5 1819.97 1217.5 1815C1217.5 1810.03 1213.47 1806 1208.5 1806C1203.53 1806 1199.5 1810.03 1199.5 1815C1199.5 1819.97 1203.53 1824 1208.5 1824Z" fill="white" stroke="#EBEBED" stroke-width="2" stroke-miterlimit="10"/>
<path d="M781.09 1815.89C786.06 1815.89 790.09 1811.86 790.09 1806.89C790.09 1801.92 786.06 1797.89 781.09 1797.89C776.119 1797.89 772.09 1801.92 772.09 1806.89C772.09 1811.86 776.119 1815.89 781.09 1815.89Z" fill="white" stroke="#EBEBED" stroke-width="2" stroke-miterlimit="10"/>
<path d="M740 1201.5C743.314 1201.5 746 1198.81 746 1195.5C746 1192.19 743.314 1189.5 740 1189.5C736.686 1189.5 734 1192.19 734 1195.5C734 1198.81 736.686 1201.5 740 1201.5Z" fill="white" stroke="#EBEBED" stroke-width="2" stroke-miterlimit="10"/>
<path d="M594 917.502C597.314 917.502 600 914.816 600 911.502C600 908.188 597.314 905.502 594 905.502C590.686 905.502 588 908.188 588 911.502C588 914.816 590.686 917.502 594 917.502Z" fill="white" stroke="#EBEBED" stroke-width="2" stroke-miterlimit="10"/>
<path d="M277 792.502C280.314 792.502 283 789.816 283 786.502C283 783.188 280.314 780.502 277 780.502C273.686 780.502 271 783.188 271 786.502C271 789.816 273.686 792.502 277 792.502Z" fill="white" stroke="#EBEBED" stroke-width="2" stroke-miterlimit="10"/>
<path d="M511 1268.5C514.314 1268.5 517 1265.81 517 1262.5C517 1259.19 514.314 1256.5 511 1256.5C507.686 1256.5 505 1259.19 505 1262.5C505 1265.81 507.686 1268.5 511 1268.5Z" fill="white" stroke="#EBEBED" stroke-width="2" stroke-miterlimit="10"/>
<path d="M1011 926.502C1015.97 926.502 1020 922.472 1020 917.502C1020 912.531 1015.97 908.502 1011 908.502C1006.03 908.502 1002 912.531 1002 917.502C1002 922.472 1006.03 926.502 1011 926.502Z" fill="white" stroke="#EBEBED" stroke-width="2" stroke-miterlimit="10"/>
<path d="M1391 543.5C1394.31 543.5 1397 540.814 1397 537.5C1397 534.186 1394.31 531.5 1391 531.5C1387.69 531.5 1385 534.186 1385 537.5C1385 540.814 1387.69 543.5 1391 543.5Z" fill="white" stroke="#EBEBED" stroke-width="2" stroke-miterlimit="10"/>
<path d="M857 555.5C861.971 555.5 866 551.471 866 546.5C866 541.529 861.971 537.5 857 537.5C852.029 537.5 848 541.529 848 546.5C848 551.471 852.029 555.5 857 555.5Z" fill="white" stroke="#EBEBED" stroke-width="2" stroke-miterlimit="10"/>
<path d="M225 659.5C229.971 659.5 234 655.471 234 650.5C234 645.529 229.971 641.5 225 641.5C220.029 641.5 216 645.529 216 650.5C216 655.471 220.029 659.5 225 659.5Z" fill="white" stroke="#EBEBED" stroke-width="2" stroke-miterlimit="10"/>
<path d="M500 284.5C503.314 284.5 506 281.814 506 278.5C506 275.186 503.314 272.5 500 272.5C496.686 272.5 494 275.186 494 278.5C494 281.814 496.686 284.5 500 284.5Z" fill="white" stroke="#EBEBED" stroke-width="2" stroke-miterlimit="10"/>
<path d="M1251 473.5C1254.31 473.5 1257 470.814 1257 467.5C1257 464.186 1254.31 461.5 1251 461.5C1247.69 461.5 1245 464.186 1245 467.5C1245 470.814 1247.69 473.5 1251 473.5Z" fill="white" stroke="#EBEBED" stroke-width="2" stroke-miterlimit="10"/>
<path d="M1391 543.5C1394.31 543.5 1397 540.814 1397 537.5C1397 534.186 1394.31 531.5 1391 531.5C1387.69 531.5 1385 534.186 1385 537.5C1385 540.814 1387.69 543.5 1391 543.5Z" fill="white" stroke="#EBEBED" stroke-width="2" stroke-miterlimit="10"/>
<path d="M1190 587.5C1193.31 587.5 1196 584.814 1196 581.5C1196 578.186 1193.31 575.5 1190 575.5C1186.69 575.5 1184 578.186 1184 581.5C1184 584.814 1186.69 587.5 1190 587.5Z" fill="white" stroke="#EBEBED" stroke-width="2" stroke-miterlimit="10"/>
<path d="M541 542.5C544.314 542.5 547 539.814 547 536.5C547 533.186 544.314 530.5 541 530.5C537.686 530.5 535 533.186 535 536.5C535 539.814 537.686 542.5 541 542.5Z" fill="white" stroke="#EBEBED" stroke-width="2" stroke-miterlimit="10"/>
<path d="M1065 708.5C1068.31 708.5 1071 705.814 1071 702.5C1071 699.186 1068.31 696.5 1065 696.5C1061.69 696.5 1059 699.186 1059 702.5C1059 705.814 1061.69 708.5 1065 708.5Z" fill="white" stroke="#EBEBED" stroke-width="2" stroke-miterlimit="10"/>
<path d="M885 410.5C888.314 410.5 891 407.814 891 404.5C891 401.186 888.314 398.5 885 398.5C881.686 398.5 879 401.186 879 404.5C879 407.814 881.686 410.5 885 410.5Z" fill="white" stroke="#EBEBED" stroke-width="2" stroke-miterlimit="10"/>
</g>
<defs>
<clipPath id="clip0_2737_701">
<rect width="1440" height="2000" fill="white" transform="matrix(1 -8.74228e-08 -8.74228e-08 -1 0 2000)"/>
</clipPath>
</defs>
</svg>
