<svg width="1440" height="1599" viewBox="0 0 1440 1599" fill="none" xmlns="http://www.w3.org/2000/svg">
<g clip-path="url(#clip0_2578_1241)">
<g opacity="0.5">
<path d="M256.513 470.295L370.958 848.035M256.513 470.295L425.792 -364.549M256.513 470.295L-79.2583 539.039L-195.526 441.484" stroke="#EBEBED" stroke-miterlimit="10"/>
<path d="M966.6 889.492L1132 568.5L612.079 234.295" stroke="#EBEBED" stroke-miterlimit="10"/>
<path d="M968.029 890.46L1255.01 959.497" stroke="#EBEBED" stroke-miterlimit="10"/>
<path d="M370.957 848.035L-79.5234 538.571" stroke="#EBEBED" stroke-miterlimit="10"/>
<path d="M693.201 802.621L1131.5 567.5" stroke="#EBEBED" stroke-miterlimit="10"/>
<path d="M966.001 890L693.203 802.621" stroke="#EBEBED" stroke-miterlimit="10"/>
<path d="M693.201 802.621L530.256 653.171L256.512 470.295" stroke="#EBEBED" stroke-miterlimit="10"/>
<path d="M426.432 -367.588L530.257 653.171L370.957 848.035" stroke="#EBEBED" stroke-miterlimit="10"/>
<path d="M530.258 653.171L615.5 234.5L509 -332L731.992 -344.766L-80.0499 537.634L-293.49 871.303" stroke="#EBEBED" stroke-miterlimit="10"/>
<path d="M615.999 230.5L1298.63 -24.2657M615.999 230.5L1235.65 293.304M615.999 230.5L732.953 -305.385L1047.1 -207.012L1298.63 -24.2657M1548.8 657.419L1131.5 567.5L1235.65 293.304M1548.8 657.419L1255 958L1603.5 893.5M1548.8 657.419L1603.5 893.5M1548.8 657.419L1235.65 293.304M1548.8 657.419L1620.76 287.567M1898.73 429.065L1700.7 877.375L1603.5 893.5M1898.73 429.065L1603.5 893.5M1898.73 429.065L1620.76 287.567M1603.5 893.5L1620.76 287.567M1235.65 293.304L1298.63 -24.2657M1235.65 293.304L1620.76 287.567M1298.63 -24.2657L1737.4 -182.526L1620.76 287.567" stroke="#EBEBED" stroke-miterlimit="10"/>
<path d="M370.957 848.036L693.201 802.621L616.998 237" stroke="#EBEBED" stroke-miterlimit="10"/>
<circle cx="616" cy="232" r="15" fill="white" stroke="#EBEBED" stroke-miterlimit="10"/>
<circle cx="1235" cy="294" r="6" fill="white" stroke="#EBEBED" stroke-miterlimit="10"/>
<circle cx="1255" cy="958" r="9" fill="white" stroke="#EBEBED" stroke-miterlimit="10"/>
<circle cx="1132" cy="567" r="8" fill="white" stroke="#EBEBED" stroke-miterlimit="10"/>
<circle cx="693" cy="803" r="8" fill="white" stroke="#EBEBED" stroke-miterlimit="10"/>
<circle cx="967" cy="887" r="12" fill="white" stroke="#EBEBED" stroke-miterlimit="10"/>
<circle cx="372" cy="849" r="8" fill="white" stroke="#EBEBED" stroke-miterlimit="10"/>
<circle cx="530" cy="653" r="8" fill="white" stroke="#EBEBED" stroke-miterlimit="10"/>
<circle cx="256" cy="470" r="6" fill="white" stroke="#EBEBED" stroke-miterlimit="10"/>
<circle cx="336" cy="87" r="6" fill="white" stroke="#EBEBED" stroke-miterlimit="10"/>
</g>
</g>
<defs>
<clipPath id="clip0_2578_1241">
<rect width="1440" height="1599" fill="white"/>
</clipPath>
</defs>
</svg>
