<svg width="1440" height="2143" viewBox="0 0 1440 2143" fill="none" xmlns="http://www.w3.org/2000/svg">
<mask id="mask0_2331_2033" style="mask-type:alpha" maskUnits="userSpaceOnUse" x="0" y="541" width="1440" height="1602">
<rect y="542" width="1440" height="1601" fill="#D9D9D9"/>
</mask>
<g mask="url(#mask0_2331_2033)">
<path opacity="0.5" d="M676.649 1838.89L580.457 1583.59L511.283 1448.65" stroke="#EBEBED" stroke-width="2" stroke-miterlimit="10"/>
<path opacity="0.5" d="M595 1097.5L511.282 1448.65L304.552 1529.9M595 1097.5L1138.5 544.5M595 1097.5L277 973L225 836.5" stroke="#EBEBED" stroke-width="2" stroke-miterlimit="10"/>
<path opacity="0.3" d="M1205.5 2001.5L918 2301L997.15 1795.25L1135.9 1562.75L1009.9 1103.75" stroke="#EBEBED" stroke-width="2" stroke-miterlimit="10"/>
<path opacity="0.5" d="M997.9 1796.75L1208.5 2001.5" stroke="#EBEBED" stroke-width="2" stroke-miterlimit="10"/>
<path opacity="0.3" d="M384.633 1684.92L501.939 1931.05L660.499 2224L419.649 2063.75" stroke="#EBEBED" stroke-width="2" stroke-miterlimit="10"/>
<path opacity="0.5" d="M304.552 1529.9L-415.25 1721.75L376.821 1685.79L384.634 1684.92" stroke="#EBEBED" stroke-width="2" stroke-miterlimit="10"/>
<path opacity="0.3" d="M175 2194.5L414.784 2061.94" stroke="#EBEBED" stroke-width="2" stroke-miterlimit="10"/>
<path opacity="0.5" d="M384.634 1684.92L304.552 1529.9L-354.5 1236.95" stroke="#EBEBED" stroke-width="2" stroke-miterlimit="10"/>
<path opacity="0.5" d="M511.282 1448.65L277 972.5" stroke="#EBEBED" stroke-width="2" stroke-miterlimit="10"/>
<path opacity="0.5" d="M501.939 1931.05L779.949 1992.25" stroke="#EBEBED" stroke-width="2" stroke-miterlimit="10"/>
<path opacity="0.3" d="M171.5 2199.5L672 2219L927 2251L779.95 1992.25" stroke="#EBEBED" stroke-width="2" stroke-miterlimit="10"/>
<path opacity="0.3" d="M-33.5 1851.5L315.083 1894.15M-33.5 1851.5L174 2192M-33.5 1851.5L384.635 1684.92L580.457 1583.59M-33.5 1851.5L-311 2173.25M-33.5 1851.5L-416 1743.5" stroke="#EBEBED" stroke-width="2" stroke-miterlimit="10"/>
<path opacity="0.5" d="M806.627 1583.95L1135.9 1563.5" stroke="#EBEBED" stroke-width="2" stroke-miterlimit="10"/>
<path opacity="0.5" d="M779.951 1992.25L806.627 1583.95" stroke="#EBEBED" stroke-width="2" stroke-miterlimit="10"/>
<path opacity="0.5" d="M779.951 1992.25L997.901 1796.75L806.627 1583.95L580.457 1583.59" stroke="#EBEBED" stroke-width="2" stroke-miterlimit="10"/>
<path opacity="0.5" d="M313.463 1892.69L501.941 1931.05L676.649 1838.89" stroke="#EBEBED" stroke-width="2" stroke-miterlimit="10"/>
<path opacity="0.5" d="M806.626 1583.95L739.846 1382.86L595 1097.5" stroke="#EBEBED" stroke-width="2" stroke-miterlimit="10"/>
<path opacity="0.5" d="M1140.5 542.5L739.847 1382.86L511.283 1448.65" stroke="#EBEBED" stroke-width="2" stroke-miterlimit="10"/>
<path opacity="0.5" d="M676.648 1838.89L806.626 1583.95" stroke="#EBEBED" stroke-width="2" stroke-miterlimit="10"/>
<path opacity="0.5" d="M676.648 1838.89L779.95 1992.25" stroke="#EBEBED" stroke-width="2" stroke-miterlimit="10"/>
<path opacity="0.5" d="M739.846 1382.86L1010.5 1102L1249.5 652L1389 721.5L277 971.5M277 971.5L304 1525.5L-64 1115.5L277 971.5Z" stroke="#EBEBED" stroke-width="2" stroke-miterlimit="10"/>
<path opacity="0.3" d="M1014.4 1104.5L1723.75 1256.05M1014.4 1104.5L1502.5 1492.4M1014.4 1104.5L1392 718.5L1606.75 968L1723.75 1256.05M2179.9 1353.5L1502.5 1492.4M2179.9 1353.5L1723.75 1256.05M2179.9 1353.5L1832.5 1691M1576 1967L1141.15 1566.5L1502.5 1492.4M1576 1967L1205.5 2002.25M1576 1967L1022.65 2205.5M1576 1967L1581.78 2088.05M1576 1967L1502.5 1492.4M1576 1967L1832.5 1691M1022.65 2205.5L517 2351M1022.65 2205.5L1229.5 2429M1022.65 2205.5L1581.78 2088.05M1588.75 2234L1993.75 1958M1588.75 2234L1581.78 2088.05M1588.75 2234L1797.25 2429H1229.5M1588.75 2234L1229.5 2429M1993.75 1958L1581.78 2088.05M1993.75 1958L1832.5 1691M1229.5 2429L1581.78 2088.05M1581.78 2088.05L1832.5 1691M1502.5 1492.4L1723.75 1256.05M1502.5 1492.4L1832.5 1691" stroke="#EBEBED" stroke-width="2" stroke-miterlimit="10"/>
<path opacity="0.5" d="M501.941 1931.05L414.785 2061.94L313.463 1892.69L384.635 1684.92L511.283 1448.65L806.627 1583.95L1010.65 1103.75" stroke="#EBEBED" stroke-width="2" stroke-miterlimit="10"/>
<path opacity="0.5" d="M582.598 1589.73C585.911 1589.73 588.598 1587.05 588.598 1583.73C588.598 1580.42 585.911 1577.73 582.598 1577.73C579.284 1577.73 576.598 1580.42 576.598 1583.73C576.598 1587.05 579.284 1589.73 582.598 1589.73Z" fill="white" stroke="#EBEBED" stroke-width="2" stroke-miterlimit="10"/>
<path d="M385.4 1688.5C388.714 1688.5 391.4 1685.81 391.4 1682.5C391.4 1679.19 388.714 1676.5 385.4 1676.5C382.087 1676.5 379.4 1679.19 379.4 1682.5C379.4 1685.81 382.087 1688.5 385.4 1688.5Z" fill="white" stroke="#EBEBED" stroke-width="2" stroke-miterlimit="10"/>
<path d="M806.9 1589.5C810.214 1589.5 812.9 1586.81 812.9 1583.5C812.9 1580.19 810.214 1577.5 806.9 1577.5C803.587 1577.5 800.9 1580.19 800.9 1583.5C800.9 1586.81 803.587 1589.5 806.9 1589.5Z" fill="white" stroke="#EBEBED" stroke-width="2" stroke-miterlimit="10"/>
<path d="M1136.9 1570C1140.21 1570 1142.9 1567.31 1142.9 1564C1142.9 1560.69 1140.21 1558 1136.9 1558C1133.59 1558 1130.9 1560.69 1130.9 1564C1130.9 1567.31 1133.59 1570 1136.9 1570Z" fill="white" stroke="#EBEBED" stroke-width="2" stroke-miterlimit="10"/>
<path d="M304 1534C307.314 1534 310 1531.31 310 1528C310 1524.69 307.314 1522 304 1522C300.686 1522 298 1524.69 298 1528C298 1531.31 300.686 1534 304 1534Z" fill="white" stroke="#EBEBED" stroke-width="2" stroke-miterlimit="10"/>
<path d="M998.9 1803.25C1002.21 1803.25 1004.9 1800.56 1004.9 1797.25C1004.9 1793.94 1002.21 1791.25 998.9 1791.25C995.587 1791.25 992.9 1793.94 992.9 1797.25C992.9 1800.56 995.587 1803.25 998.9 1803.25Z" fill="white" stroke="#EBEBED" stroke-width="2" stroke-miterlimit="10"/>
<path d="M504.4 1940.75C509.371 1940.75 513.4 1936.72 513.4 1931.75C513.4 1926.78 509.371 1922.75 504.4 1922.75C499.43 1922.75 495.4 1926.78 495.4 1931.75C495.4 1936.72 499.43 1940.75 504.4 1940.75Z" fill="white" stroke="#EBEBED" stroke-width="2" stroke-miterlimit="10"/>
<path d="M676.4 1844.5C679.714 1844.5 682.4 1841.81 682.4 1838.5C682.4 1835.19 679.714 1832.5 676.4 1832.5C673.087 1832.5 670.4 1835.19 670.4 1838.5C670.4 1841.81 673.087 1844.5 676.4 1844.5Z" fill="white" stroke="#EBEBED" stroke-width="2" stroke-miterlimit="10"/>
<path d="M316.053 1899.51C319.366 1899.51 322.053 1896.83 322.053 1893.51C322.053 1890.2 319.366 1887.51 316.053 1887.51C312.739 1887.51 310.053 1890.2 310.053 1893.51C310.053 1896.83 312.739 1899.51 316.053 1899.51Z" fill="white" stroke="#EBEBED" stroke-width="2" stroke-miterlimit="10"/>
<path d="M414.4 2070.5C419.371 2070.5 423.4 2066.47 423.4 2061.5C423.4 2056.53 419.371 2052.5 414.4 2052.5C409.43 2052.5 405.4 2056.53 405.4 2061.5C405.4 2066.47 409.43 2070.5 414.4 2070.5Z" fill="white" stroke="#EBEBED" stroke-width="2" stroke-miterlimit="10"/>
<path d="M1208.5 2010.5C1213.47 2010.5 1217.5 2006.47 1217.5 2001.5C1217.5 1996.53 1213.47 1992.5 1208.5 1992.5C1203.53 1992.5 1199.5 1996.53 1199.5 2001.5C1199.5 2006.47 1203.53 2010.5 1208.5 2010.5Z" fill="white" stroke="#EBEBED" stroke-width="2" stroke-miterlimit="10"/>
<path d="M781.09 2002.39C786.06 2002.39 790.09 1998.36 790.09 1993.39C790.09 1988.42 786.06 1984.39 781.09 1984.39C776.119 1984.39 772.09 1988.42 772.09 1993.39C772.09 1998.36 776.119 2002.39 781.09 2002.39Z" fill="white" stroke="#EBEBED" stroke-width="2" stroke-miterlimit="10"/>
<path d="M740 1388C743.314 1388 746 1385.31 746 1382C746 1378.69 743.314 1376 740 1376C736.686 1376 734 1378.69 734 1382C734 1385.31 736.686 1388 740 1388Z" fill="white" stroke="#EBEBED" stroke-width="2" stroke-miterlimit="10"/>
<path d="M594 1104C597.314 1104 600 1101.31 600 1098C600 1094.69 597.314 1092 594 1092C590.686 1092 588 1094.69 588 1098C588 1101.31 590.686 1104 594 1104Z" fill="white" stroke="#EBEBED" stroke-width="2" stroke-miterlimit="10"/>
<path d="M511 1455C514.314 1455 517 1452.31 517 1449C517 1445.69 514.314 1443 511 1443C507.686 1443 505 1445.69 505 1449C505 1452.31 507.686 1455 511 1455Z" fill="white" stroke="#EBEBED" stroke-width="2" stroke-miterlimit="10"/>
<path d="M1011 1113C1015.97 1113 1020 1108.97 1020 1104C1020 1099.03 1015.97 1095 1011 1095C1006.03 1095 1002 1099.03 1002 1104C1002 1108.97 1006.03 1113 1011 1113Z" fill="white" stroke="#EBEBED" stroke-width="2" stroke-miterlimit="10"/>
</g>
<mask id="mask1_2331_2033" style="mask-type:alpha" maskUnits="userSpaceOnUse" x="0" y="0" width="1440" height="1105">
<rect width="1440" height="1105" fill="#D9D9D9"/>
</mask>
<g mask="url(#mask1_2331_2033)">
<path opacity="0.5" d="M194.883 655L237.383 823.5" stroke="#EBEBED" stroke-width="2" stroke-miterlimit="10"/>
<path opacity="0.5" d="M103.385 911.5L224.885 845.5" stroke="#EBEBED" stroke-width="2" stroke-miterlimit="10"/>
<path opacity="0.5" d="M-33.1172 904.5L102.883 912M102.883 912L-13.6172 1105M102.883 912L275.383 972" stroke="#EBEBED" stroke-width="2" stroke-miterlimit="10"/>
<path opacity="0.5" d="M195.383 655.5L103.383 913" stroke="#EBEBED" stroke-width="2" stroke-miterlimit="10"/>
<path opacity="0.5" d="M98.3828 699L102.883 913" stroke="#EBEBED" stroke-width="2" stroke-miterlimit="10"/>
<path opacity="0.5" d="M97.8828 701.5L-23.1172 873.5" stroke="#EBEBED" stroke-width="2" stroke-miterlimit="10"/>
<path opacity="0.5" d="M-48.1172 732L98.8828 699.5" stroke="#EBEBED" stroke-width="2" stroke-miterlimit="10"/>
<path opacity="0.5" d="M98.8828 699L-83.6172 609.5" stroke="#EBEBED" stroke-width="2" stroke-miterlimit="10"/>
<path opacity="0.5" d="M97.8828 698.5L-33.6172 530" stroke="#EBEBED" stroke-width="2" stroke-miterlimit="10"/>
<path opacity="0.5" d="M100.883 700.5L194.383 655" stroke="#EBEBED" stroke-width="2" stroke-miterlimit="10"/>
<path opacity="0.5" d="M196.383 653.5L345.999 561" stroke="#EBEBED" stroke-width="2" stroke-miterlimit="10"/>
<path opacity="0.5" d="M346 554C342.686 554 340 556.686 340 560C340 563.314 342.686 566 346 566C349.314 566 352 563.314 352 560C352 556.686 349.314 554 346 554Z" fill="white" stroke="#EBEBED" stroke-width="2" stroke-miterlimit="10"/>
<path opacity="0.5" d="M277 966C273.686 966 271 968.686 271 972C271 975.314 273.686 978 277 978C280.314 978 283 975.314 283 972C283 968.686 280.314 966 277 966Z" fill="white" stroke="#EBEBED" stroke-width="2" stroke-miterlimit="10"/>
<path opacity="0.5" d="M179.383 442L195.883 653.5" stroke="#EBEBED" stroke-width="2" stroke-miterlimit="10"/>
<path opacity="0.5" d="M196.883 656.5L-34.1172 526" stroke="#EBEBED" stroke-width="2" stroke-miterlimit="10"/>
<path opacity="0.5" d="M-34.6172 510.5L34.3828 426.5" stroke="#EBEBED" stroke-width="2" stroke-miterlimit="10"/>
<circle cx="34.8828" cy="426" r="10" fill="url(#paint0_radial_2331_2033)"/>
<rect x="158.885" y="424" width="40" height="40" rx="20" fill="url(#paint1_radial_2331_2033)"/>
<rect x="193.365" y="643.923" width="16" height="16" rx="8" transform="rotate(32.3397 193.365 643.923)" fill="url(#paint2_radial_2331_2033)"/>
<path d="M92.2254 690.837C96.1951 687.953 101.571 687.953 105.54 690.837V690.837C109.51 693.721 111.171 698.833 109.655 703.5V703.5C108.138 708.167 103.79 711.326 98.8828 711.326V711.326C93.976 711.326 89.6272 708.167 88.1109 703.5V703.5C86.5946 698.833 88.2557 693.721 92.2254 690.837V690.837Z" fill="url(#paint3_radial_2331_2033)"/>
<path d="M97.3915 900.528C101.928 897.232 108.072 897.232 112.608 900.528V900.528C117.145 903.824 119.044 909.667 117.311 915V915C115.578 920.333 110.608 923.944 105 923.944V923.944C99.3922 923.944 94.4222 920.333 92.6893 915V915C90.9564 909.667 92.8547 903.824 97.3915 900.528V900.528Z" fill="url(#paint4_radial_2331_2033)"/>
<path d="M251.741 845C245.583 855.666 230.187 855.666 224.028 845V845C217.87 834.333 225.568 821 237.885 821V821C250.202 821 257.9 834.333 251.741 845V845Z" fill="url(#paint5_radial_2331_2033)"/>
<path opacity="0.5" d="M1251 450.001L1208.5 281.501" stroke="#EBEBED" stroke-width="2" stroke-miterlimit="10"/>
<path opacity="0.5" d="M1342.5 193.5L1221 259.5" stroke="#EBEBED" stroke-width="2" stroke-miterlimit="10"/>
<path opacity="0.5" d="M1479 200.5L1343 193M1343 193L1459.5 0.000489986M1343 193L1165.5 0.000485171" stroke="#EBEBED" stroke-width="2" stroke-miterlimit="10"/>
<path opacity="0.5" d="M1250.5 449.501L1342.5 192.001" stroke="#EBEBED" stroke-width="2" stroke-miterlimit="10"/>
<path opacity="0.5" d="M1347.5 406.001L1343 192.001" stroke="#EBEBED" stroke-width="2" stroke-miterlimit="10"/>
<path opacity="0.5" d="M1348 403.501L1469 231.501" stroke="#EBEBED" stroke-width="2" stroke-miterlimit="10"/>
<path opacity="0.5" d="M1494 373.001L1347 405.501" stroke="#EBEBED" stroke-width="2" stroke-miterlimit="10"/>
<path opacity="0.5" d="M1347 406.001L1529.5 495.501" stroke="#EBEBED" stroke-width="2" stroke-miterlimit="10"/>
<path opacity="0.5" d="M1348 406.501L1479.5 575.001" stroke="#EBEBED" stroke-width="2" stroke-miterlimit="10"/>
<path opacity="0.5" d="M1345 404.501L1251.5 450.001" stroke="#EBEBED" stroke-width="2" stroke-miterlimit="10"/>
<path opacity="0.5" d="M1249.5 451.501L1142 541.501" stroke="#EBEBED" stroke-width="2" stroke-miterlimit="10"/>
<path d="M1141 548.001C1144.31 548.001 1147 545.314 1147 542.001C1147 538.687 1144.31 536.001 1141 536.001C1137.69 536.001 1135 538.687 1135 542.001C1135 545.314 1137.69 548.001 1141 548.001Z" fill="white" stroke="#EBEBED" stroke-width="2" stroke-miterlimit="10"/>
<path d="M1189 772C1192.31 772 1195 769.314 1195 766C1195 762.686 1192.31 760 1189 760C1185.68 760 1183 762.686 1183 766C1183 769.314 1185.68 772 1189 772Z" fill="white" stroke="#EBEBED" stroke-width="2" stroke-miterlimit="10"/>
<path opacity="0.5" d="M1266.5 663.001L1250 451.501" stroke="#EBEBED" stroke-width="2" stroke-miterlimit="10"/>
<path opacity="0.5" d="M1249 448.501L1480 579.001" stroke="#EBEBED" stroke-width="2" stroke-miterlimit="10"/>
<path opacity="0.5" d="M1480.5 594.501L1392.5 718.5" stroke="#EBEBED" stroke-width="2" stroke-miterlimit="10"/>
<circle cx="1392" cy="718" r="10" transform="rotate(180 1392 718)" fill="url(#paint6_radial_2331_2033)"/>
<rect x="1287" y="681.001" width="40" height="40" rx="20" transform="rotate(180 1287 681.001)" fill="url(#paint7_radial_2331_2033)"/>
<rect x="1252.52" y="461.078" width="16" height="16" rx="8" transform="rotate(-147.66 1252.52 461.078)" fill="url(#paint8_radial_2331_2033)"/>
<path d="M1353.66 414.164C1349.69 417.048 1344.31 417.048 1340.34 414.164V414.164C1336.37 411.28 1334.71 406.167 1336.23 401.501V401.501C1337.74 396.834 1342.09 393.674 1347 393.674V393.674C1351.9 393.674 1356.25 396.834 1357.77 401.501V401.501C1359.29 406.167 1357.63 411.28 1353.66 414.164V414.164Z" fill="url(#paint9_radial_2331_2033)"/>
<path d="M1194.14 260C1200.3 249.334 1215.7 249.334 1221.85 260V260C1228.01 270.667 1220.31 284 1208 284V284C1195.68 284 1187.98 270.667 1194.14 260V260Z" fill="url(#paint10_radial_2331_2033)"/>
</g>
<defs>
<radialGradient id="paint0_radial_2331_2033" cx="0" cy="0" r="1" gradientUnits="userSpaceOnUse" gradientTransform="translate(52.9365 406) rotate(134.374) scale(34.7405)">
<stop offset="0.138616" stop-color="#2E8BFF"/>
<stop offset="1" stop-color="#0059C9"/>
</radialGradient>
<radialGradient id="paint1_radial_2331_2033" cx="0" cy="0" r="1" gradientUnits="userSpaceOnUse" gradientTransform="translate(214.992 404) rotate(134.374) scale(69.481)">
<stop offset="0.138616" stop-color="#2E8BFF"/>
<stop offset="1" stop-color="#0059C9"/>
</radialGradient>
<radialGradient id="paint2_radial_2331_2033" cx="0" cy="0" r="1" gradientUnits="userSpaceOnUse" gradientTransform="translate(215.808 635.923) rotate(134.374) scale(27.7924)">
<stop offset="0.138616" stop-color="#2E8BFF"/>
<stop offset="1" stop-color="#0059C9"/>
</radialGradient>
<radialGradient id="paint3_radial_2331_2033" cx="0" cy="0" r="1" gradientUnits="userSpaceOnUse" gradientTransform="translate(124.158 672) rotate(134.374) scale(48.6367)">
<stop offset="0.138616" stop-color="#2E8BFF"/>
<stop offset="1" stop-color="#0059C9"/>
</radialGradient>
<radialGradient id="paint4_radial_2331_2033" cx="0" cy="0" r="1" gradientUnits="userSpaceOnUse" gradientTransform="translate(133.886 879) rotate(134.374) scale(55.5848)">
<stop offset="0.138616" stop-color="#2E8BFF"/>
<stop offset="1" stop-color="#0059C9"/>
</radialGradient>
<radialGradient id="paint5_radial_2331_2033" cx="0" cy="0" r="1" gradientUnits="userSpaceOnUse" gradientTransform="translate(180.113 901) rotate(-45.6262) scale(111.17)">
<stop offset="0.138616" stop-color="#2E8BFF"/>
<stop offset="1" stop-color="#0059C9"/>
</radialGradient>
<radialGradient id="paint6_radial_2331_2033" cx="0" cy="0" r="1" gradientUnits="userSpaceOnUse" gradientTransform="translate(1410.05 698) rotate(134.374) scale(34.7405)">
<stop offset="0.138616" stop-color="#2E8BFF"/>
<stop offset="1" stop-color="#0059C9"/>
</radialGradient>
<radialGradient id="paint7_radial_2331_2033" cx="0" cy="0" r="1" gradientUnits="userSpaceOnUse" gradientTransform="translate(1343.11 661.001) rotate(134.374) scale(69.481)">
<stop offset="0.138616" stop-color="#2E8BFF"/>
<stop offset="1" stop-color="#0059C9"/>
</radialGradient>
<radialGradient id="paint8_radial_2331_2033" cx="0" cy="0" r="1" gradientUnits="userSpaceOnUse" gradientTransform="translate(1274.96 453.078) rotate(134.374) scale(27.7924)">
<stop offset="0.138616" stop-color="#2E8BFF"/>
<stop offset="1" stop-color="#0059C9"/>
</radialGradient>
<radialGradient id="paint9_radial_2331_2033" cx="0" cy="0" r="1" gradientUnits="userSpaceOnUse" gradientTransform="translate(1321.72 433.001) rotate(-45.6262) scale(48.6367)">
<stop offset="0.138616" stop-color="#2E8BFF"/>
<stop offset="1" stop-color="#0059C9"/>
</radialGradient>
<radialGradient id="paint10_radial_2331_2033" cx="0" cy="0" r="1" gradientUnits="userSpaceOnUse" gradientTransform="translate(1265.77 204) rotate(134.374) scale(111.17)">
<stop offset="0.138616" stop-color="#2E8BFF"/>
<stop offset="1" stop-color="#0059C9"/>
</radialGradient>
</defs>
</svg>
