<svg width="1440" height="1601" viewBox="0 0 1440 1601" fill="none" xmlns="http://www.w3.org/2000/svg">
<mask id="mask0_2099_710" style="mask-type:alpha" maskUnits="userSpaceOnUse" x="0" y="702" width="1440" height="898">
<rect y="703" width="1440" height="897" fill="#D9D9D9"/>
</mask>
<g mask="url(#mask0_2099_710)">
<g filter="url(#filter0_f_2099_710)">
<g filter="url(#filter1_f_2099_710)">
<rect width="1048" height="538" transform="matrix(1 -8.74228e-08 -8.74228e-08 -1 -0.000976562 1241)" fill="#EBEBED"/>
</g>
<g opacity="0.4" filter="url(#filter2_f_2099_710)">
<rect width="918" height="635" transform="matrix(1 -8.74228e-08 -8.74228e-08 -1 0 1659)" fill="white"/>
</g>
<g filter="url(#filter3_f_2099_710)">
<rect width="761.046" height="1171.36" transform="matrix(0.114304 0.993446 0.993446 -0.114304 -450 1648.89)" fill="#0059C9"/>
</g>
<g opacity="0.3" filter="url(#filter4_f_2099_710)">
<rect width="817" height="918" transform="matrix(4.37114e-08 1 1 -4.37114e-08 727.996 1223)" fill="#0059C9"/>
</g>
<g opacity="0.3" filter="url(#filter5_f_2099_710)">
<rect width="698" height="784" transform="matrix(4.37114e-08 1 1 -4.37114e-08 917.998 1241)" fill="#0059C9"/>
</g>
<g filter="url(#filter6_f_2099_710)">
<rect width="761.046" height="1171.36" transform="matrix(0.114304 0.993446 0.993446 -0.114304 513.36 1336.18)" fill="#0059C9"/>
</g>
</g>
</g>
<mask id="mask1_2099_710" style="mask-type:alpha" maskUnits="userSpaceOnUse" x="0" y="-1" width="1440" height="1602">
<rect y="-0.000244141" width="1440" height="1601" fill="#D9D9D9"/>
</mask>
<g mask="url(#mask1_2099_710)">
<path opacity="0.5" d="M676.648 1295.89L580.456 1040.59L511.282 905.647" stroke="#EBEBED" stroke-width="2" stroke-miterlimit="10"/>
<path opacity="0.5" d="M595 554.5L511.282 905.648L304.552 986.9M595 554.5L1138.5 1.5M595 554.5L277 430L225 293.5" stroke="#EBEBED" stroke-width="2" stroke-miterlimit="10"/>
<path opacity="0.3" d="M1205.5 1458.5L918 1758L997.15 1252.25L1135.9 1019.75L1009.9 560.75" stroke="#EBEBED" stroke-width="2" stroke-miterlimit="10"/>
<path opacity="0.5" d="M997.9 1253.75L1208.5 1458.5" stroke="#EBEBED" stroke-width="2" stroke-miterlimit="10"/>
<path opacity="0.3" d="M384.634 1141.92L501.94 1388.05L660.5 1681L419.65 1520.75" stroke="#EBEBED" stroke-width="2" stroke-miterlimit="10"/>
<path opacity="0.5" d="M304.552 986.9L-415.25 1178.75L376.821 1142.79L384.634 1141.92" stroke="#EBEBED" stroke-width="2" stroke-miterlimit="10"/>
<path opacity="0.3" d="M175 1651.5L414.784 1518.94" stroke="#EBEBED" stroke-width="2" stroke-miterlimit="10"/>
<path opacity="0.5" d="M384.634 1141.92L304.552 986.9L-354.5 693.95" stroke="#EBEBED" stroke-width="2" stroke-miterlimit="10"/>
<path opacity="0.5" d="M511.282 905.648L277 429.5" stroke="#EBEBED" stroke-width="2" stroke-miterlimit="10"/>
<path opacity="0.5" d="M501.939 1388.05L779.949 1449.25" stroke="#EBEBED" stroke-width="2" stroke-miterlimit="10"/>
<path opacity="0.3" d="M171.5 1656.5L672 1676L927 1708L779.95 1449.25" stroke="#EBEBED" stroke-width="2" stroke-miterlimit="10"/>
<path opacity="0.3" d="M-33.5 1308.5L315.083 1351.15M-33.5 1308.5L174 1649M-33.5 1308.5L384.635 1141.92L580.457 1040.59M-33.5 1308.5L-311 1630.25M-33.5 1308.5L-416 1200.5" stroke="#EBEBED" stroke-width="2" stroke-miterlimit="10"/>
<path opacity="0.5" d="M806.625 1040.95L1135.9 1020.5" stroke="#EBEBED" stroke-width="2" stroke-miterlimit="10"/>
<path opacity="0.5" d="M779.949 1449.25L806.625 1040.95" stroke="#EBEBED" stroke-width="2" stroke-miterlimit="10"/>
<path opacity="0.5" d="M779.95 1449.25L997.9 1253.75L806.626 1040.95L580.456 1040.59" stroke="#EBEBED" stroke-width="2" stroke-miterlimit="10"/>
<path opacity="0.5" d="M313.462 1349.69L501.94 1388.05L676.648 1295.89" stroke="#EBEBED" stroke-width="2" stroke-miterlimit="10"/>
<path opacity="0.5" d="M806.626 1040.95L739.846 839.858L595 554.5" stroke="#EBEBED" stroke-width="2" stroke-miterlimit="10"/>
<path opacity="0.5" d="M1140.5 -0.5L739.847 839.858L511.283 905.648" stroke="#EBEBED" stroke-width="2" stroke-miterlimit="10"/>
<path opacity="0.5" d="M676.648 1295.89L806.626 1040.95" stroke="#EBEBED" stroke-width="2" stroke-miterlimit="10"/>
<path opacity="0.5" d="M676.648 1295.89L779.95 1449.25" stroke="#EBEBED" stroke-width="2" stroke-miterlimit="10"/>
<path opacity="0.5" d="M739.846 839.858L1010.5 559L1249.5 109L1389 178.5L277 428.5M277 428.5L304 982.5L-64 572.5L277 428.5Z" stroke="#EBEBED" stroke-width="2" stroke-miterlimit="10"/>
<path opacity="0.3" d="M1014.4 561.5L1723.75 713.047M1014.4 561.5L1502.5 949.404M1014.4 561.5L1392 175.5L1606.75 425L1723.75 713.047M2179.9 810.5L1502.5 949.404M2179.9 810.5L1723.75 713.047M2179.9 810.5L1832.5 1148M1576 1424L1141.15 1023.5L1502.5 949.404M1576 1424L1205.5 1459.25M1576 1424L1022.65 1662.5M1576 1424L1581.78 1545.05M1576 1424L1502.5 949.404M1576 1424L1832.5 1148M1022.65 1662.5L517 1808M1022.65 1662.5L1229.5 1886M1022.65 1662.5L1581.78 1545.05M1588.75 1691L1993.75 1415M1588.75 1691L1581.78 1545.05M1588.75 1691L1797.25 1886H1229.5M1588.75 1691L1229.5 1886M1993.75 1415L1581.78 1545.05M1993.75 1415L1832.5 1148M1229.5 1886L1581.78 1545.05M1581.78 1545.05L1832.5 1148M1502.5 949.404L1723.75 713.047M1502.5 949.404L1832.5 1148" stroke="#EBEBED" stroke-width="2" stroke-miterlimit="10"/>
<path opacity="0.5" d="M501.94 1388.05L414.784 1518.94L313.462 1349.69L384.634 1141.92L511.282 905.648L806.626 1040.95L1010.65 560.75" stroke="#EBEBED" stroke-width="2" stroke-miterlimit="10"/>
<path opacity="0.5" d="M582.597 1046.73C585.91 1046.73 588.597 1044.05 588.597 1040.73C588.597 1037.42 585.91 1034.73 582.597 1034.73C579.283 1034.73 576.597 1037.42 576.597 1040.73C576.597 1044.05 579.283 1046.73 582.597 1046.73Z" fill="white" stroke="#EBEBED" stroke-width="2" stroke-miterlimit="10"/>
<path d="M385.4 1145.5C388.714 1145.5 391.4 1142.81 391.4 1139.5C391.4 1136.19 388.714 1133.5 385.4 1133.5C382.087 1133.5 379.4 1136.19 379.4 1139.5C379.4 1142.81 382.087 1145.5 385.4 1145.5Z" fill="white" stroke="#EBEBED" stroke-width="2" stroke-miterlimit="10"/>
<path d="M806.9 1046.5C810.214 1046.5 812.9 1043.81 812.9 1040.5C812.9 1037.19 810.214 1034.5 806.9 1034.5C803.587 1034.5 800.9 1037.19 800.9 1040.5C800.9 1043.81 803.587 1046.5 806.9 1046.5Z" fill="white" stroke="#EBEBED" stroke-width="2" stroke-miterlimit="10"/>
<path d="M1136.9 1027C1140.21 1027 1142.9 1024.31 1142.9 1021C1142.9 1017.69 1140.21 1015 1136.9 1015C1133.59 1015 1130.9 1017.69 1130.9 1021C1130.9 1024.31 1133.59 1027 1136.9 1027Z" fill="white" stroke="#EBEBED" stroke-width="2" stroke-miterlimit="10"/>
<path d="M304 991C307.314 991 310 988.314 310 985C310 981.686 307.314 979 304 979C300.686 979 298 981.686 298 985C298 988.314 300.686 991 304 991Z" fill="white" stroke="#EBEBED" stroke-width="2" stroke-miterlimit="10"/>
<path d="M998.9 1260.25C1002.21 1260.25 1004.9 1257.56 1004.9 1254.25C1004.9 1250.94 1002.21 1248.25 998.9 1248.25C995.587 1248.25 992.9 1250.94 992.9 1254.25C992.9 1257.56 995.587 1260.25 998.9 1260.25Z" fill="white" stroke="#EBEBED" stroke-width="2" stroke-miterlimit="10"/>
<path d="M504.4 1397.75C509.371 1397.75 513.4 1393.72 513.4 1388.75C513.4 1383.78 509.371 1379.75 504.4 1379.75C499.43 1379.75 495.4 1383.78 495.4 1388.75C495.4 1393.72 499.43 1397.75 504.4 1397.75Z" fill="white" stroke="#EBEBED" stroke-width="2" stroke-miterlimit="10"/>
<path d="M676.4 1301.5C679.714 1301.5 682.4 1298.81 682.4 1295.5C682.4 1292.19 679.714 1289.5 676.4 1289.5C673.087 1289.5 670.4 1292.19 670.4 1295.5C670.4 1298.81 673.087 1301.5 676.4 1301.5Z" fill="white" stroke="#EBEBED" stroke-width="2" stroke-miterlimit="10"/>
<path d="M316.052 1356.51C319.365 1356.51 322.052 1353.83 322.052 1350.51C322.052 1347.2 319.365 1344.51 316.052 1344.51C312.738 1344.51 310.052 1347.2 310.052 1350.51C310.052 1353.83 312.738 1356.51 316.052 1356.51Z" fill="white" stroke="#EBEBED" stroke-width="2" stroke-miterlimit="10"/>
<path d="M414.4 1527.5C419.371 1527.5 423.4 1523.47 423.4 1518.5C423.4 1513.53 419.371 1509.5 414.4 1509.5C409.43 1509.5 405.4 1513.53 405.4 1518.5C405.4 1523.47 409.43 1527.5 414.4 1527.5Z" fill="white" stroke="#EBEBED" stroke-width="2" stroke-miterlimit="10"/>
<path d="M1208.5 1467.5C1213.47 1467.5 1217.5 1463.47 1217.5 1458.5C1217.5 1453.53 1213.47 1449.5 1208.5 1449.5C1203.53 1449.5 1199.5 1453.53 1199.5 1458.5C1199.5 1463.47 1203.53 1467.5 1208.5 1467.5Z" fill="white" stroke="#EBEBED" stroke-width="2" stroke-miterlimit="10"/>
<path d="M781.09 1459.39C786.06 1459.39 790.09 1455.36 790.09 1450.39C790.09 1445.42 786.06 1441.39 781.09 1441.39C776.119 1441.39 772.09 1445.42 772.09 1450.39C772.09 1455.36 776.119 1459.39 781.09 1459.39Z" fill="white" stroke="#EBEBED" stroke-width="2" stroke-miterlimit="10"/>
<path d="M740 845C743.314 845 746 842.314 746 839C746 835.686 743.314 833 740 833C736.686 833 734 835.686 734 839C734 842.314 736.686 845 740 845Z" fill="white" stroke="#EBEBED" stroke-width="2" stroke-miterlimit="10"/>
<path d="M594 561C597.314 561 600 558.314 600 555C600 551.686 597.314 549 594 549C590.686 549 588 551.686 588 555C588 558.314 590.686 561 594 561Z" fill="white" stroke="#EBEBED" stroke-width="2" stroke-miterlimit="10"/>
<path d="M511 912C514.314 912 517 909.314 517 906C517 902.686 514.314 900 511 900C507.686 900 505 902.686 505 906C505 909.314 507.686 912 511 912Z" fill="white" stroke="#EBEBED" stroke-width="2" stroke-miterlimit="10"/>
<path d="M1011 570C1015.97 570 1020 565.971 1020 561C1020 556.029 1015.97 552 1011 552C1006.03 552 1002 556.029 1002 561C1002 565.971 1006.03 570 1011 570Z" fill="white" stroke="#EBEBED" stroke-width="2" stroke-miterlimit="10"/>
</g>
<defs>
<filter id="filter0_f_2099_710" x="-850" y="303" width="3014.04" height="2501.95" filterUnits="userSpaceOnUse" color-interpolation-filters="sRGB">
<feFlood flood-opacity="0" result="BackgroundImageFix"/>
<feBlend mode="normal" in="SourceGraphic" in2="BackgroundImageFix" result="shape"/>
<feGaussianBlur stdDeviation="200" result="effect1_foregroundBlur_2099_710"/>
</filter>
<filter id="filter1_f_2099_710" x="-210.001" y="493" width="1468" height="958" filterUnits="userSpaceOnUse" color-interpolation-filters="sRGB">
<feFlood flood-opacity="0" result="BackgroundImageFix"/>
<feBlend mode="normal" in="SourceGraphic" in2="BackgroundImageFix" result="shape"/>
<feGaussianBlur stdDeviation="105" result="effect1_foregroundBlur_2099_710"/>
</filter>
<filter id="filter2_f_2099_710" x="-210" y="813.999" width="1338" height="1055" filterUnits="userSpaceOnUse" color-interpolation-filters="sRGB">
<feFlood flood-opacity="0" result="BackgroundImageFix"/>
<feBlend mode="normal" in="SourceGraphic" in2="BackgroundImageFix" result="shape"/>
<feGaussianBlur stdDeviation="105" result="effect1_foregroundBlur_2099_710"/>
</filter>
<filter id="filter3_f_2099_710" x="-660" y="1305" width="1670.68" height="1309.95" filterUnits="userSpaceOnUse" color-interpolation-filters="sRGB">
<feFlood flood-opacity="0" result="BackgroundImageFix"/>
<feBlend mode="normal" in="SourceGraphic" in2="BackgroundImageFix" result="shape"/>
<feGaussianBlur stdDeviation="105" result="effect1_foregroundBlur_2099_710"/>
</filter>
<filter id="filter4_f_2099_710" x="517.996" y="1013" width="1338" height="1237" filterUnits="userSpaceOnUse" color-interpolation-filters="sRGB">
<feFlood flood-opacity="0" result="BackgroundImageFix"/>
<feBlend mode="normal" in="SourceGraphic" in2="BackgroundImageFix" result="shape"/>
<feGaussianBlur stdDeviation="105" result="effect1_foregroundBlur_2099_710"/>
</filter>
<filter id="filter5_f_2099_710" x="707.998" y="1031" width="1204" height="1118" filterUnits="userSpaceOnUse" color-interpolation-filters="sRGB">
<feFlood flood-opacity="0" result="BackgroundImageFix"/>
<feBlend mode="normal" in="SourceGraphic" in2="BackgroundImageFix" result="shape"/>
<feGaussianBlur stdDeviation="105" result="effect1_foregroundBlur_2099_710"/>
</filter>
<filter id="filter6_f_2099_710" x="303.36" y="992.291" width="1670.68" height="1309.95" filterUnits="userSpaceOnUse" color-interpolation-filters="sRGB">
<feFlood flood-opacity="0" result="BackgroundImageFix"/>
<feBlend mode="normal" in="SourceGraphic" in2="BackgroundImageFix" result="shape"/>
<feGaussianBlur stdDeviation="105" result="effect1_foregroundBlur_2099_710"/>
</filter>
</defs>
</svg>
