<svg width="2607" height="1888" viewBox="0 0 2607 1888" fill="none" xmlns="http://www.w3.org/2000/svg">
<path opacity="0.5" d="M1101.65 1296.89L1005.46 1041.59L936.282 906.647" stroke="#EBEBED" stroke-width="2" stroke-miterlimit="10"/>
<path opacity="0.5" d="M1020 555.5L936.282 906.648L729.552 987.9M1020 555.5L1563.5 2.5M1020 555.5L702 431L650 294.5" stroke="#EBEBED" stroke-width="2" stroke-miterlimit="10"/>
<path opacity="0.3" d="M1630.5 1459.5L1343 1759L1422.15 1253.25L1560.9 1020.75L1434.9 561.75" stroke="#EBEBED" stroke-width="2" stroke-miterlimit="10"/>
<path opacity="0.5" d="M1422.9 1254.75L1633.5 1459.5" stroke="#EBEBED" stroke-width="2" stroke-miterlimit="10"/>
<path opacity="0.3" d="M809.634 1142.92L926.94 1389.05L1085.5 1682L844.65 1521.75" stroke="#EBEBED" stroke-width="2" stroke-miterlimit="10"/>
<path opacity="0.5" d="M1086 1675.5L942 1809L1352 1780L1448.78 1667.08" stroke="#EBEBED" stroke-width="2" stroke-miterlimit="10"/>
<path opacity="0.5" d="M729.552 987.9L9.75 1179.75L801.821 1143.79L809.634 1142.92" stroke="#EBEBED" stroke-width="2" stroke-miterlimit="10"/>
<path opacity="0.5" d="M599.5 1656.5L941.25 1809.75L547.5 1885.5L599.5 1656.5ZM599.5 1656.5L20.25 1729.5" stroke="#EBEBED" stroke-width="2" stroke-miterlimit="10"/>
<path opacity="0.3" d="M600 1652.5L839.784 1519.94" stroke="#EBEBED" stroke-width="2" stroke-miterlimit="10"/>
<path opacity="0.5" d="M809.634 1142.92L729.552 987.9L70.5 694.95" stroke="#EBEBED" stroke-width="2" stroke-miterlimit="10"/>
<path opacity="0.5" d="M936.282 906.648L702 430.5" stroke="#EBEBED" stroke-width="2" stroke-miterlimit="10"/>
<path opacity="0.5" d="M926.939 1389.05L1204.95 1450.25" stroke="#EBEBED" stroke-width="2" stroke-miterlimit="10"/>
<path opacity="0.3" d="M596.5 1657.5L1097 1677L1352 1709L1204.95 1450.25" stroke="#EBEBED" stroke-width="2" stroke-miterlimit="10"/>
<path opacity="0.3" d="M391.5 1309.5L740.083 1352.15M391.5 1309.5L599 1650M391.5 1309.5L809.635 1142.92L1005.46 1041.59M391.5 1309.5L114 1631.25M391.5 1309.5L9 1201.5" stroke="#EBEBED" stroke-width="2" stroke-miterlimit="10"/>
<path opacity="0.5" d="M1231.63 1041.95L1560.9 1021.5" stroke="#EBEBED" stroke-width="2" stroke-miterlimit="10"/>
<path opacity="0.5" d="M1204.95 1450.25L1231.63 1041.95" stroke="#EBEBED" stroke-width="2" stroke-miterlimit="10"/>
<path opacity="0.5" d="M1204.95 1450.25L1422.9 1254.75L1231.63 1041.95L1005.46 1041.59" stroke="#EBEBED" stroke-width="2" stroke-miterlimit="10"/>
<path opacity="0.5" d="M738.462 1350.69L926.94 1389.05L1101.65 1296.89" stroke="#EBEBED" stroke-width="2" stroke-miterlimit="10"/>
<path opacity="0.5" d="M1231.63 1041.95L1164.85 840.858L1020 555.5" stroke="#EBEBED" stroke-width="2" stroke-miterlimit="10"/>
<path opacity="0.5" d="M1565.5 0.5L1164.85 840.858L936.283 906.648" stroke="#EBEBED" stroke-width="2" stroke-miterlimit="10"/>
<path opacity="0.5" d="M1101.65 1296.89L1231.63 1041.95" stroke="#EBEBED" stroke-width="2" stroke-miterlimit="10"/>
<path opacity="0.5" d="M1101.65 1296.89L1204.95 1450.25" stroke="#EBEBED" stroke-width="2" stroke-miterlimit="10"/>
<path opacity="0.5" d="M1164.85 840.858L1435.5 560L1674.5 110L1814 179.5L702 429.5M702 429.5L729 983.5L361 573.5L702 429.5Z" stroke="#EBEBED" stroke-width="2" stroke-miterlimit="10"/>
<path opacity="0.3" d="M1439.4 562.5L2148.75 714.047M1439.4 562.5L1927.5 950.404M1439.4 562.5L1817 176.5L2031.75 426L2148.75 714.047M2604.9 811.5L1927.5 950.404M2604.9 811.5L2148.75 714.047M2604.9 811.5L2257.5 1149M2001 1425L1566.15 1024.5L1927.5 950.404M2001 1425L1630.5 1460.25M2001 1425L1447.65 1663.5M2001 1425L2006.78 1546.05M2001 1425L1927.5 950.404M2001 1425L2257.5 1149M1447.65 1663.5L942 1809M1447.65 1663.5L1654.5 1887M1447.65 1663.5L2006.78 1546.05M2013.75 1692L2418.75 1416M2013.75 1692L2006.78 1546.05M2013.75 1692L2222.25 1887H1654.5M2013.75 1692L1654.5 1887M2418.75 1416L2006.78 1546.05M2418.75 1416L2257.5 1149M1654.5 1887L2006.78 1546.05M2006.78 1546.05L2257.5 1149M1927.5 950.404L2148.75 714.047M1927.5 950.404L2257.5 1149" stroke="#EBEBED" stroke-width="2" stroke-miterlimit="10"/>
<path opacity="0.5" d="M926.94 1389.05L839.784 1519.94L738.462 1350.69L809.634 1142.92L936.282 906.648L1231.63 1041.95L1435.65 561.75" stroke="#EBEBED" stroke-width="2" stroke-miterlimit="10"/>
<path opacity="0.5" d="M1007.6 1047.73C1010.91 1047.73 1013.6 1045.05 1013.6 1041.73C1013.6 1038.42 1010.91 1035.73 1007.6 1035.73C1004.28 1035.73 1001.6 1038.42 1001.6 1041.73C1001.6 1045.05 1004.28 1047.73 1007.6 1047.73Z" fill="white" stroke="#EBEBED" stroke-width="2" stroke-miterlimit="10"/>
<path d="M810.4 1146.5C813.714 1146.5 816.4 1143.81 816.4 1140.5C816.4 1137.19 813.714 1134.5 810.4 1134.5C807.087 1134.5 804.4 1137.19 804.4 1140.5C804.4 1143.81 807.087 1146.5 810.4 1146.5Z" fill="white" stroke="#EBEBED" stroke-width="2" stroke-miterlimit="10"/>
<path d="M1231.9 1047.5C1235.21 1047.5 1237.9 1044.81 1237.9 1041.5C1237.9 1038.19 1235.21 1035.5 1231.9 1035.5C1228.59 1035.5 1225.9 1038.19 1225.9 1041.5C1225.9 1044.81 1228.59 1047.5 1231.9 1047.5Z" fill="white" stroke="#EBEBED" stroke-width="2" stroke-miterlimit="10"/>
<path d="M1561.9 1028C1565.21 1028 1567.9 1025.31 1567.9 1022C1567.9 1018.69 1565.21 1016 1561.9 1016C1558.59 1016 1555.9 1018.69 1555.9 1022C1555.9 1025.31 1558.59 1028 1561.9 1028Z" fill="white" stroke="#EBEBED" stroke-width="2" stroke-miterlimit="10"/>
<path d="M729 992C732.314 992 735 989.314 735 986C735 982.686 732.314 980 729 980C725.686 980 723 982.686 723 986C723 989.314 725.686 992 729 992Z" fill="white" stroke="#EBEBED" stroke-width="2" stroke-miterlimit="10"/>
<path d="M1423.9 1261.25C1427.21 1261.25 1429.9 1258.56 1429.9 1255.25C1429.9 1251.94 1427.21 1249.25 1423.9 1249.25C1420.59 1249.25 1417.9 1251.94 1417.9 1255.25C1417.9 1258.56 1420.59 1261.25 1423.9 1261.25Z" fill="white" stroke="#EBEBED" stroke-width="2" stroke-miterlimit="10"/>
<path d="M929.4 1398.75C934.371 1398.75 938.4 1394.72 938.4 1389.75C938.4 1384.78 934.371 1380.75 929.4 1380.75C924.43 1380.75 920.4 1384.78 920.4 1389.75C920.4 1394.72 924.43 1398.75 929.4 1398.75Z" fill="white" stroke="#EBEBED" stroke-width="2" stroke-miterlimit="10"/>
<path d="M1101.4 1302.5C1104.71 1302.5 1107.4 1299.81 1107.4 1296.5C1107.4 1293.19 1104.71 1290.5 1101.4 1290.5C1098.09 1290.5 1095.4 1293.19 1095.4 1296.5C1095.4 1299.81 1098.09 1302.5 1101.4 1302.5Z" fill="white" stroke="#EBEBED" stroke-width="2" stroke-miterlimit="10"/>
<path d="M741.052 1357.51C744.365 1357.51 747.052 1354.83 747.052 1351.51C747.052 1348.2 744.365 1345.51 741.052 1345.51C737.738 1345.51 735.052 1348.2 735.052 1351.51C735.052 1354.83 737.738 1357.51 741.052 1357.51Z" fill="white" stroke="#EBEBED" stroke-width="2" stroke-miterlimit="10"/>
<path d="M839.4 1528.5C844.371 1528.5 848.4 1524.47 848.4 1519.5C848.4 1514.53 844.371 1510.5 839.4 1510.5C834.43 1510.5 830.4 1514.53 830.4 1519.5C830.4 1524.47 834.43 1528.5 839.4 1528.5Z" fill="white" stroke="#EBEBED" stroke-width="2" stroke-miterlimit="10"/>
<path d="M391.5 1318.5C396.471 1318.5 400.5 1314.47 400.5 1309.5C400.5 1304.53 396.471 1300.5 391.5 1300.5C386.529 1300.5 382.5 1304.53 382.5 1309.5C382.5 1314.47 386.529 1318.5 391.5 1318.5Z" fill="white" stroke="#EBEBED" stroke-width="2" stroke-miterlimit="10"/>
<path d="M1446.9 1671.75C1451.87 1671.75 1455.9 1667.72 1455.9 1662.75C1455.9 1657.78 1451.87 1653.75 1446.9 1653.75C1441.93 1653.75 1437.9 1657.78 1437.9 1662.75C1437.9 1667.72 1441.93 1671.75 1446.9 1671.75Z" fill="white" stroke="#EBEBED" stroke-width="2" stroke-miterlimit="10"/>
<path d="M1633.5 1468.5C1638.47 1468.5 1642.5 1464.47 1642.5 1459.5C1642.5 1454.53 1638.47 1450.5 1633.5 1450.5C1628.53 1450.5 1624.5 1454.53 1624.5 1459.5C1624.5 1464.47 1628.53 1468.5 1633.5 1468.5Z" fill="white" stroke="#EBEBED" stroke-width="2" stroke-miterlimit="10"/>
<path d="M1930.5 963C1935.47 963 1939.5 958.971 1939.5 954C1939.5 949.029 1935.47 945 1930.5 945C1925.53 945 1921.5 949.029 1921.5 954C1921.5 958.971 1925.53 963 1930.5 963Z" fill="white" stroke="#EBEBED" stroke-width="2" stroke-miterlimit="10"/>
<path d="M2013.9 1699.5C2018.87 1699.5 2022.9 1695.47 2022.9 1690.5C2022.9 1685.53 2018.87 1681.5 2013.9 1681.5C2008.93 1681.5 2004.9 1685.53 2004.9 1690.5C2004.9 1695.47 2008.93 1699.5 2013.9 1699.5Z" fill="white" stroke="#EBEBED" stroke-width="2" stroke-miterlimit="10"/>
<path d="M1206.09 1460.39C1211.06 1460.39 1215.09 1456.36 1215.09 1451.39C1215.09 1446.42 1211.06 1442.39 1206.09 1442.39C1201.12 1442.39 1197.09 1446.42 1197.09 1451.39C1197.09 1456.36 1201.12 1460.39 1206.09 1460.39Z" fill="white" stroke="#EBEBED" stroke-width="2" stroke-miterlimit="10"/>
<path d="M1165 846C1168.31 846 1171 843.314 1171 840C1171 836.686 1168.31 834 1165 834C1161.69 834 1159 836.686 1159 840C1159 843.314 1161.69 846 1165 846Z" fill="white" stroke="#EBEBED" stroke-width="2" stroke-miterlimit="10"/>
<path d="M1019 562C1022.31 562 1025 559.314 1025 556C1025 552.686 1022.31 550 1019 550C1015.69 550 1013 552.686 1013 556C1013 559.314 1015.69 562 1019 562Z" fill="white" stroke="#EBEBED" stroke-width="2" stroke-miterlimit="10"/>
<path d="M936 913C939.314 913 942 910.314 942 907C942 903.686 939.314 901 936 901C932.686 901 930 903.686 930 907C930 910.314 932.686 913 936 913Z" fill="white" stroke="#EBEBED" stroke-width="2" stroke-miterlimit="10"/>
<path d="M1436 571C1440.97 571 1445 566.971 1445 562C1445 557.029 1440.97 553 1436 553C1431.03 553 1427 557.029 1427 562C1427 566.971 1431.03 571 1436 571Z" fill="white" stroke="#EBEBED" stroke-width="2" stroke-miterlimit="10"/>
</svg>
