<svg width="1440" height="1715" viewBox="0 0 1440 1715" fill="none" xmlns="http://www.w3.org/2000/svg">
<g clip-path="url(#clip0_2997_1232)">
<g clip-path="url(#clip1_2997_1232)">
<path opacity="0.5" d="M666.649 1494.39L570.457 1239.09L501.283 1104.15" stroke="#EBEBED" stroke-width="2" stroke-miterlimit="10"/>
<path opacity="0.5" d="M585 753.002L501.282 1104.15L294.552 1185.4M585 753.002L267 628.502L162.5 395.5M585 753.002L254.5 89.5M585 753.002L845.5 386.658M872.5 244.502L1508 1.99994M872.5 244.502L1240 307.002L1508 1.99994M872.5 244.502L1175.5 421L1054.5 543.5M162.5 395.5L-61 64.0021L254.5 89.5M162.5 395.5L254.5 89.5M254.5 89.5L1508 1.99994M254.5 89.5L1054.5 543.5M1054.5 543.5L1002 759" stroke="#EBEBED" stroke-width="2" stroke-miterlimit="10"/>
<path opacity="0.3" d="M1195.5 1657L908 1956.5L987.15 1450.75L1125.9 1218.25L999.9 759.252" stroke="#EBEBED" stroke-width="2" stroke-miterlimit="10"/>
<path opacity="0.5" d="M987.9 1452.25L1198.5 1657" stroke="#EBEBED" stroke-width="2" stroke-miterlimit="10"/>
<path opacity="0.3" d="M374.633 1340.42L491.939 1586.55L650.499 1879.5L409.649 1719.25" stroke="#EBEBED" stroke-width="2" stroke-miterlimit="10"/>
<path opacity="0.5" d="M294.552 1185.4L-425.25 1377.25L366.821 1341.29L374.634 1340.42" stroke="#EBEBED" stroke-width="2" stroke-miterlimit="10"/>
<path opacity="0.5" d="M374.634 1340.42L294.552 1185.4L-364.5 892.451" stroke="#EBEBED" stroke-width="2" stroke-miterlimit="10"/>
<path opacity="0.5" d="M501.282 1104.15L267 628.002" stroke="#EBEBED" stroke-width="2" stroke-miterlimit="10"/>
<path opacity="0.5" d="M491.939 1586.55L769.949 1647.75" stroke="#EBEBED" stroke-width="2" stroke-miterlimit="10"/>
<path opacity="0.3" d="M161.5 1855L662 1874.5L917 1906.5L769.95 1647.75" stroke="#EBEBED" stroke-width="2" stroke-miterlimit="10"/>
<path opacity="0.3" d="M-43.5 1507L305.083 1549.65M-43.5 1507L164 1847.5M-43.5 1507L374.635 1340.42L570.457 1239.09M-43.5 1507L-321 1828.75M-43.5 1507L-426 1399" stroke="#EBEBED" stroke-width="2" stroke-miterlimit="10"/>
<path opacity="0.5" d="M796.625 1239.45L1125.9 1219" stroke="#EBEBED" stroke-width="2" stroke-miterlimit="10"/>
<path opacity="0.5" d="M769.949 1647.75L796.625 1239.45" stroke="#EBEBED" stroke-width="2" stroke-miterlimit="10"/>
<path opacity="0.5" d="M769.951 1647.75L987.901 1452.25L796.627 1239.45L570.457 1239.09" stroke="#EBEBED" stroke-width="2" stroke-miterlimit="10"/>
<path opacity="0.5" d="M303.463 1548.19L491.941 1586.55L666.649 1494.39" stroke="#EBEBED" stroke-width="2" stroke-miterlimit="10"/>
<path opacity="0.5" d="M796.626 1239.46L729.846 1038.36L585 753.002" stroke="#EBEBED" stroke-width="2" stroke-miterlimit="10"/>
<path opacity="0.5" d="M501.283 1104.15L729.847 1038.36L872.5 246.002L254.5 91.5L268.5 630L-132.5 446.5L163.5 398" stroke="#EBEBED" stroke-width="2" stroke-miterlimit="10"/>
<path opacity="0.5" d="M666.648 1494.39L796.626 1239.45" stroke="#EBEBED" stroke-width="2" stroke-miterlimit="10"/>
<path opacity="0.5" d="M666.648 1494.39L769.95 1647.75" stroke="#EBEBED" stroke-width="2" stroke-miterlimit="10"/>
<path opacity="0.5" d="M729.846 1038.36L1000.5 757.502L1239.5 307.502L1379 377.002L1178.42 422.5L848 388L528.5 377.002L267 627.002M267 627.002L294 1181L-74 771.002L267 627.002Z" stroke="#EBEBED" stroke-width="2" stroke-miterlimit="10"/>
<path opacity="0.3" d="M1004.4 760.002L1713.75 911.549M1004.4 760.002L1492.5 1147.91M1004.4 760.002L1379.5 378.502L1596.75 623.502L1713.75 911.549M2169.9 1009L1492.5 1147.91M2169.9 1009L1713.75 911.549M2169.9 1009L1822.5 1346.5M1566 1622.5L1131.15 1222L1492.5 1147.91M1566 1622.5L1195.5 1657.75M1566 1622.5L1012.65 1861M1566 1622.5L1571.78 1743.55M1566 1622.5L1492.5 1147.91M1566 1622.5L1822.5 1346.5M1012.65 1861L507 2006.5M1012.65 1861L1219.5 2084.5M1012.65 1861L1571.78 1743.55M1578.75 1889.5L1983.75 1613.5M1578.75 1889.5L1571.78 1743.55M1578.75 1889.5L1787.25 2084.5H1219.5M1578.75 1889.5L1219.5 2084.5M1983.75 1613.5L1571.78 1743.55M1983.75 1613.5L1822.5 1346.5M1219.5 2084.5L1571.78 1743.55M1571.78 1743.55L1822.5 1346.5M1492.5 1147.91L1713.75 911.549M1492.5 1147.91L1822.5 1346.5" stroke="#EBEBED" stroke-width="2" stroke-miterlimit="10"/>
<path opacity="0.5" d="M491.941 1586.55L404.785 1717.45L303.463 1548.19L374.635 1340.42L501.283 1104.15L796.627 1239.46L1000.65 759.252" stroke="#EBEBED" stroke-width="2" stroke-miterlimit="10"/>
<path opacity="0.5" d="M572.598 1245.23C575.911 1245.23 578.598 1242.55 578.598 1239.23C578.598 1235.92 575.911 1233.23 572.598 1233.23C569.284 1233.23 566.598 1235.92 566.598 1239.23C566.598 1242.55 569.284 1245.23 572.598 1245.23Z" fill="white" stroke="#EBEBED" stroke-width="2" stroke-miterlimit="10"/>
<path d="M375.4 1344C378.714 1344 381.4 1341.31 381.4 1338C381.4 1334.69 378.714 1332 375.4 1332C372.087 1332 369.4 1334.69 369.4 1338C369.4 1341.31 372.087 1344 375.4 1344Z" fill="white" stroke="#EBEBED" stroke-width="2" stroke-miterlimit="10"/>
<path d="M796.9 1245C800.214 1245 802.9 1242.31 802.9 1239C802.9 1235.69 800.214 1233 796.9 1233C793.587 1233 790.9 1235.69 790.9 1239C790.9 1242.31 793.587 1245 796.9 1245Z" fill="white" stroke="#EBEBED" stroke-width="2" stroke-miterlimit="10"/>
<path d="M1126.9 1225.5C1130.21 1225.5 1132.9 1222.81 1132.9 1219.5C1132.9 1216.19 1130.21 1213.5 1126.9 1213.5C1123.59 1213.5 1120.9 1216.19 1120.9 1219.5C1120.9 1222.81 1123.59 1225.5 1126.9 1225.5Z" fill="white" stroke="#EBEBED" stroke-width="2" stroke-miterlimit="10"/>
<path d="M294 1189.5C297.314 1189.5 300 1186.81 300 1183.5C300 1180.19 297.314 1177.5 294 1177.5C290.686 1177.5 288 1180.19 288 1183.5C288 1186.81 290.686 1189.5 294 1189.5Z" fill="white" stroke="#EBEBED" stroke-width="2" stroke-miterlimit="10"/>
<path d="M988.9 1458.75C992.214 1458.75 994.9 1456.06 994.9 1452.75C994.9 1449.44 992.214 1446.75 988.9 1446.75C985.587 1446.75 982.9 1449.44 982.9 1452.75C982.9 1456.06 985.587 1458.75 988.9 1458.75Z" fill="white" stroke="#EBEBED" stroke-width="2" stroke-miterlimit="10"/>
<path d="M494.4 1596.25C499.371 1596.25 503.4 1592.22 503.4 1587.25C503.4 1582.28 499.371 1578.25 494.4 1578.25C489.43 1578.25 485.4 1582.28 485.4 1587.25C485.4 1592.22 489.43 1596.25 494.4 1596.25Z" fill="white" stroke="#EBEBED" stroke-width="2" stroke-miterlimit="10"/>
<path d="M666.4 1500C669.714 1500 672.4 1497.31 672.4 1494C672.4 1490.69 669.714 1488 666.4 1488C663.087 1488 660.4 1490.69 660.4 1494C660.4 1497.31 663.087 1500 666.4 1500Z" fill="white" stroke="#EBEBED" stroke-width="2" stroke-miterlimit="10"/>
<path d="M306.053 1555.01C309.366 1555.01 312.053 1552.33 312.053 1549.01C312.053 1545.7 309.366 1543.01 306.053 1543.01C302.739 1543.01 300.053 1545.7 300.053 1549.01C300.053 1552.33 302.739 1555.01 306.053 1555.01Z" fill="white" stroke="#EBEBED" stroke-width="2" stroke-miterlimit="10"/>
<path d="M404.4 1726C409.371 1726 413.4 1721.97 413.4 1717C413.4 1712.03 409.371 1708 404.4 1708C399.43 1708 395.4 1712.03 395.4 1717C395.4 1721.97 399.43 1726 404.4 1726Z" fill="white" stroke="#EBEBED" stroke-width="2" stroke-miterlimit="10"/>
<path d="M1198.5 1666C1203.47 1666 1207.5 1661.97 1207.5 1657C1207.5 1652.03 1203.47 1648 1198.5 1648C1193.53 1648 1189.5 1652.03 1189.5 1657C1189.5 1661.97 1193.53 1666 1198.5 1666Z" fill="white" stroke="#EBEBED" stroke-width="2" stroke-miterlimit="10"/>
<path d="M771.09 1657.89C776.06 1657.89 780.09 1653.86 780.09 1648.89C780.09 1643.92 776.06 1639.89 771.09 1639.89C766.119 1639.89 762.09 1643.92 762.09 1648.89C762.09 1653.86 766.119 1657.89 771.09 1657.89Z" fill="white" stroke="#EBEBED" stroke-width="2" stroke-miterlimit="10"/>
<path d="M730 1043.5C733.314 1043.5 736 1040.81 736 1037.5C736 1034.19 733.314 1031.5 730 1031.5C726.686 1031.5 724 1034.19 724 1037.5C724 1040.81 726.686 1043.5 730 1043.5Z" fill="white" stroke="#EBEBED" stroke-width="2" stroke-miterlimit="10"/>
<path d="M584 759.502C587.314 759.502 590 756.816 590 753.502C590 750.188 587.314 747.502 584 747.502C580.686 747.502 578 750.188 578 753.502C578 756.816 580.686 759.502 584 759.502Z" fill="white" stroke="#EBEBED" stroke-width="2" stroke-miterlimit="10"/>
<path d="M267 634.502C270.314 634.502 273 631.816 273 628.502C273 625.188 270.314 622.502 267 622.502C263.686 622.502 261 625.188 261 628.502C261 631.816 263.686 634.502 267 634.502Z" fill="white" stroke="#EBEBED" stroke-width="2" stroke-miterlimit="10"/>
<path d="M501 1110.5C504.314 1110.5 507 1107.81 507 1104.5C507 1101.19 504.314 1098.5 501 1098.5C497.686 1098.5 495 1101.19 495 1104.5C495 1107.81 497.686 1110.5 501 1110.5Z" fill="white" stroke="#EBEBED" stroke-width="2" stroke-miterlimit="10"/>
<path d="M1001 768.502C1005.97 768.502 1010 764.472 1010 759.502C1010 754.531 1005.97 750.502 1001 750.502C996.029 750.502 992 754.531 992 759.502C992 764.472 996.029 768.502 1001 768.502Z" fill="white" stroke="#EBEBED" stroke-width="2" stroke-miterlimit="10"/>
<path d="M1381 385.5C1384.31 385.5 1387 382.814 1387 379.5C1387 376.186 1384.31 373.5 1381 373.5C1377.69 373.5 1375 376.186 1375 379.5C1375 382.814 1377.69 385.5 1381 385.5Z" fill="white" stroke="#EBEBED" stroke-width="2" stroke-miterlimit="10"/>
<path d="M847 397.5C851.971 397.5 856 393.471 856 388.5C856 383.529 851.971 379.5 847 379.5C842.029 379.5 838 383.529 838 388.5C838 393.471 842.029 397.5 847 397.5Z" fill="white" stroke="#EBEBED" stroke-width="2" stroke-miterlimit="10"/>
<path d="M165 408C169.971 408 174 403.971 174 399C174 394.029 169.971 390 165 390C160.029 390 156 394.029 156 399C156 403.971 160.029 408 165 408Z" fill="white" stroke="#EBEBED" stroke-width="2" stroke-miterlimit="10"/>
<path d="M255 97C258.314 97 261 94.3137 261 91C261 87.6863 258.314 85 255 85C251.686 85 249 87.6863 249 91C249 94.3137 251.686 97 255 97Z" fill="white" stroke="#EBEBED" stroke-width="2" stroke-miterlimit="10"/>
<path d="M1241 315.5C1244.31 315.5 1247 312.814 1247 309.5C1247 306.186 1244.31 303.5 1241 303.5C1237.69 303.5 1235 306.186 1235 309.5C1235 312.814 1237.69 315.5 1241 315.5Z" fill="white" stroke="#EBEBED" stroke-width="2" stroke-miterlimit="10"/>
<path d="M1381 385.5C1384.31 385.5 1387 382.814 1387 379.5C1387 376.186 1384.31 373.5 1381 373.5C1377.69 373.5 1375 376.186 1375 379.5C1375 382.814 1377.69 385.5 1381 385.5Z" fill="white" stroke="#EBEBED" stroke-width="2" stroke-miterlimit="10"/>
<path d="M1180 429.5C1183.31 429.5 1186 426.814 1186 423.5C1186 420.186 1183.31 417.5 1180 417.5C1176.69 417.5 1174 420.186 1174 423.5C1174 426.814 1176.69 429.5 1180 429.5Z" fill="white" stroke="#EBEBED" stroke-width="2" stroke-miterlimit="10"/>
<path d="M531 384.5C534.314 384.5 537 381.814 537 378.5C537 375.186 534.314 372.5 531 372.5C527.686 372.5 525 375.186 525 378.5C525 381.814 527.686 384.5 531 384.5Z" fill="white" stroke="#EBEBED" stroke-width="2" stroke-miterlimit="10"/>
<path d="M1055 550.5C1058.31 550.5 1061 547.814 1061 544.5C1061 541.186 1058.31 538.5 1055 538.5C1051.69 538.5 1049 541.186 1049 544.5C1049 547.814 1051.69 550.5 1055 550.5Z" fill="white" stroke="#EBEBED" stroke-width="2" stroke-miterlimit="10"/>
<path d="M875 252.5C878.314 252.5 881 249.814 881 246.5C881 243.186 878.314 240.5 875 240.5C871.686 240.5 869 243.186 869 246.5C869 249.814 871.686 252.5 875 252.5Z" fill="white" stroke="#EBEBED" stroke-width="2" stroke-miterlimit="10"/>
</g>
</g>
<defs>
<clipPath id="clip0_2997_1232">
<rect width="1440" height="1715" fill="white"/>
</clipPath>
<clipPath id="clip1_2997_1232">
<rect width="1440" height="2000" fill="white" transform="matrix(1 -8.74228e-08 -8.74228e-08 -1 0 1757)"/>
</clipPath>
</defs>
</svg>
