<svg width="179" height="60" viewBox="0 0 179 60" fill="none" xmlns="http://www.w3.org/2000/svg">
<path d="M106.923 10.8566H110.561C110.609 11.8341 110.657 12.7396 110.701 13.645C110.761 13.7091 110.82 13.7692 110.884 13.8333C112.157 11.786 113.764 10.3277 116.277 10.2957C118.758 10.2636 120.596 11.2292 121.649 13.7532C122.008 13.3044 122.272 12.992 122.515 12.6674C124.362 10.1875 128.023 9.50643 130.496 11.1771C131.613 11.9343 132.295 13.008 132.566 14.294C132.778 15.2956 132.893 16.3332 132.909 17.3589C132.957 20.0631 132.929 22.7714 132.925 25.4757C132.925 25.8964 132.885 26.313 132.857 26.8539H129.056C129.02 26.3892 128.965 25.9765 128.965 25.5598C128.953 22.9237 128.988 20.2915 128.945 17.6553C128.909 15.5039 128.011 14.3381 126.176 13.8774C124.102 13.3565 122.2 14.7868 122.18 16.9262C122.156 19.8789 122.148 22.8355 122.18 25.7922C122.192 26.6696 121.893 27.0262 121.007 26.9741C120.134 26.922 119.256 26.9621 118.287 26.9621C118.239 26.3531 118.179 25.9044 118.175 25.4557C118.159 22.8195 118.179 20.1873 118.143 17.5512C118.127 16.209 117.725 15.0392 116.46 14.314C114.302 13.0761 111.666 14.1778 111.1 16.6177C110.916 17.4069 110.864 18.2403 110.852 19.0535C110.82 21.225 110.848 23.3964 110.84 25.5679C110.84 25.9485 110.784 26.3331 110.745 26.89C109.564 26.89 108.447 26.95 107.346 26.8379C107.139 26.8178 106.856 26.1247 106.852 25.7401C106.812 22.6432 106.828 19.5463 106.828 16.4494C106.828 14.9911 106.824 13.5288 106.832 12.0705C106.832 11.6899 106.884 11.3133 106.915 10.8486L106.923 10.8566Z" fill="#212121"/>
<path d="M151.249 26.8899H147.448C147.408 26.3931 147.348 25.9804 147.348 25.5678C147.332 22.8274 147.348 20.0831 147.32 17.3427C147.304 15.8324 146.71 14.6625 145.222 14.0736C142.813 13.1161 140.324 14.7386 140.152 17.5671C140.001 20.051 140.085 22.551 140.073 25.0429C140.067 26.325 139.428 26.9633 138.154 26.958C137.528 26.958 136.902 26.958 136.184 26.958V10.8565H139.758C139.809 11.81 139.857 12.7395 139.905 13.6729L140.128 13.7771C140.364 13.4646 140.611 13.1641 140.83 12.8436C142.761 10.0432 146.789 9.37413 149.35 11.5135C150.004 12.0584 150.447 12.8597 151.041 13.6048C151.376 13.1802 151.675 12.7955 151.979 12.4149C153.873 10.0632 157.483 9.57445 159.936 11.3132C161.264 12.2547 161.906 13.693 161.982 15.1513C162.181 18.9132 162.114 22.6912 162.146 26.4612C162.146 26.5573 162.062 26.6535 161.93 26.9459C160.937 26.9459 159.856 26.99 158.779 26.9299C158.141 26.8939 158.193 26.3169 158.193 25.8602C158.185 23.4404 158.193 21.0166 158.185 18.5967C158.185 17.9557 158.173 17.3107 158.085 16.6777C157.846 14.9309 156.226 13.6649 154.444 13.7811C152.637 13.9013 151.36 15.2234 151.348 17.0623C151.328 19.8748 151.348 22.6872 151.336 25.4997C151.336 25.9163 151.285 26.333 151.249 26.8939V26.8899Z" fill="#212121"/>
<path d="M178.703 26.9058H175.264C175.201 26.0805 175.133 25.2552 175.069 24.4339C174.965 24.3498 174.858 24.2656 174.754 24.1815C174.71 24.3538 174.706 24.5461 174.618 24.6903C172.987 27.2904 169.046 28.264 166.406 26.6815C164.974 25.8241 164.388 24.506 164.423 22.8194C164.463 20.9644 165.257 19.6263 166.829 18.7209C168.145 17.9637 169.589 17.6392 171.092 17.551C172.321 17.4789 173.545 17.3827 174.73 17.2986C175.197 15.7682 174.379 13.9373 173.282 13.7129C171.814 13.4165 169.76 13.4285 169.154 15.3195C169.07 15.5759 168.763 15.9244 168.54 15.9405C167.566 16.0086 166.585 15.9685 165.516 15.9685C165.341 14.0094 166.174 12.6112 167.558 11.6777C170.135 9.94297 172.971 9.90692 175.763 11.1008C177.69 11.9261 178.707 13.6448 178.79 15.668C178.942 19.2537 178.854 22.8514 178.862 26.4451C178.862 26.5453 178.794 26.6414 178.699 26.9018L178.703 26.9058ZM174.862 19.8947C173.318 19.6904 171.894 19.7986 170.502 20.1992C170.011 20.3394 169.517 20.6199 169.13 20.9564C168.149 21.8178 168.424 23.6326 169.629 24.0493C170.965 24.51 172.293 24.3618 173.434 23.4564C174.547 22.575 174.854 21.349 174.858 19.8947H174.862Z" fill="#212121"/>
<path d="M94.3675 15.9324H90.9971C90.7817 14.6224 91.2524 13.5286 92.0222 12.6753C92.6923 11.9381 93.5538 11.1929 94.4752 10.8965C96.9641 10.1032 99.5048 9.95498 101.854 11.4413C103.414 12.4269 104.183 13.9653 104.239 15.7522C104.347 19.2377 104.319 22.7272 104.335 26.2167C104.335 26.417 104.235 26.6173 104.163 26.8978H100.721C100.669 25.9803 100.626 25.147 100.578 24.3137C100.514 24.2817 100.446 24.2496 100.382 24.2176C100.215 24.49 100.039 24.7544 99.8797 25.0348C99.2695 26.1045 98.4239 26.9218 97.1795 27.0741C95.9629 27.2223 94.6945 27.3906 93.5019 27.2103C91.3361 26.8858 90.1036 25.5156 89.8763 23.5886C89.621 21.4412 90.686 19.5181 92.5606 18.5686C94.1242 17.7754 95.7994 17.579 97.5025 17.4749C98.4119 17.4188 99.3253 17.3627 100.203 17.3106C100.566 15.5759 99.9715 13.9894 98.7669 13.741C96.5333 13.2762 95.1453 13.6488 94.3715 15.9324H94.3675ZM100.207 19.6623C98.7071 19.8506 97.2752 19.9748 95.8672 20.2393C95.3886 20.3274 94.89 20.692 94.543 21.0606C93.5737 22.0862 94.0404 23.8169 95.3646 24.1414C97.7618 24.7264 100.514 23.4283 100.211 19.6583L100.207 19.6623Z" fill="#212121"/>
<path d="M72.1588 10.8403H75.7366C75.7885 11.8379 75.8363 12.7994 75.9002 14.0214C76.4785 13.2482 76.8654 12.6712 77.3081 12.1424C79.6056 9.41008 84.691 9.71456 86.2865 12.7674C86.8609 13.8691 87.2198 15.1952 87.2757 16.4372C87.4153 19.6703 87.3355 22.9155 87.3355 26.1526C87.3355 26.3569 87.2557 26.5572 87.176 26.9298C86.0871 26.9298 85.0022 26.9739 83.9252 26.9138C83.2791 26.8777 83.3589 26.2808 83.3589 25.8321C83.3509 23.4122 83.3628 20.9884 83.3589 18.5686C83.3589 17.9997 83.3589 17.4228 83.2671 16.8659C82.964 14.9989 81.6876 13.8571 79.8768 13.773C78.2534 13.6969 76.646 14.9549 76.2671 16.6736C76.1076 17.3987 76.0437 18.1519 76.0358 18.8971C76.0078 21.1767 76.0358 23.4523 76.0238 25.7319C76.0198 26.8617 75.9241 26.9458 74.8113 26.9579C74.209 26.9659 73.6067 26.9378 73.0044 26.9579C72.3463 26.9819 72.0073 26.7095 72.0073 26.0284C72.0152 21.1527 72.0192 16.2729 72.0312 11.3972C72.0312 11.261 72.095 11.1248 72.1628 10.8443L72.1588 10.8403Z" fill="#212121"/>
<path d="M100.135 40.5195C100.414 38.7927 99.9436 37.3865 98.8268 37.1181C97.9054 36.8977 96.7846 36.8256 95.947 37.1702C95.1652 37.4907 94.6348 38.4402 93.9128 39.2054H90.7459C90.9054 38.4241 90.9413 37.7511 91.1846 37.1662C91.8746 35.5316 93.0951 34.4619 94.8262 34.0132C96.6091 33.5524 98.392 33.4883 100.179 33.9811C102.309 34.5701 103.537 36.0244 104.024 38.1197C104.207 38.9089 104.275 39.7382 104.283 40.5515C104.315 43.364 104.295 46.1764 104.291 48.9929C104.291 49.3414 104.255 49.69 104.231 50.1587H100.602C100.53 49.3615 100.462 48.5762 100.378 47.6267C100.163 47.831 100.055 47.9032 99.9915 47.9993C98.2644 50.5994 94.8342 51.4127 92.0222 50.0946C89.0627 48.7044 89.1664 43.9289 91.6872 42.2903C93.4621 41.1364 95.4484 40.8921 97.4587 40.6797C98.3322 40.5876 99.2137 40.5716 100.127 40.5235L100.135 40.5195ZM100.123 43.1236C98.4678 42.9874 96.8963 43.1236 95.3806 43.6284C94.4273 43.9449 93.9208 44.7582 93.9407 45.6476C93.9607 46.525 94.3675 47.194 95.1971 47.4184C97.9573 48.1556 100.462 46.2245 100.123 43.1276V43.1236Z" fill="#212121"/>
<path d="M72.0033 34.0934C73.4472 34.0934 74.6837 34.0413 75.9042 34.1334C76.1993 34.1575 76.5703 34.6142 76.7139 34.9547C77.7868 37.5108 78.8119 40.0869 79.8569 42.6509C80.0244 43.0636 80.2238 43.4642 80.535 44.1413C80.882 43.4282 81.1372 42.9835 81.3247 42.5147C82.3019 40.0348 83.2791 37.5549 84.2164 35.0629C84.4956 34.3177 84.9344 34.0093 85.7281 34.0573C86.6335 34.1134 87.5469 34.0693 88.6039 34.0693C88.4922 34.5141 88.4643 34.7865 88.3606 35.0269C85.772 41.1085 83.1634 47.1821 80.6028 53.2757C80.2717 54.061 79.8449 54.3695 79.0073 54.3054C78.1418 54.2373 77.2643 54.2894 76.1315 54.2894C76.7777 52.7669 77.2483 51.4408 77.8945 50.2029C78.3771 49.2774 78.3053 48.5402 77.8785 47.6148C76.0438 43.6084 74.2968 39.562 72.5218 35.5277C72.3543 35.1471 72.2347 34.7424 71.9993 34.0894L72.0033 34.0934Z" fill="#212121"/>
<path d="M117.206 34.0612V37.3825H111.889C111.838 37.8392 111.774 38.1477 111.774 38.4562C111.766 40.3792 111.766 42.3023 111.782 44.2253C111.782 44.6861 111.802 45.1588 111.909 45.6035C112.093 46.3687 112.46 46.9937 113.377 47.0498C114.306 47.1019 114.861 46.6131 115.104 45.7798C115.312 45.0747 115.407 44.3375 115.571 43.5322H118.363C118.363 44.2734 118.443 45.0066 118.351 45.7117C117.781 49.9424 113.632 51.9856 110.118 49.7861C108.623 48.8486 108.04 47.3583 107.945 45.7117C107.813 43.4401 107.845 41.1565 107.801 38.8809C107.793 38.4282 107.745 37.9794 107.709 37.4746C107.179 37.3945 106.736 37.3264 106.166 37.2423V34.55C108.862 34.566 108.726 32.3585 109.157 30.5156H111.77V34.0612H117.214H117.206Z" fill="#212121"/>
<path d="M131.597 33.7687V37.5947C130.843 37.759 130.153 37.8832 129.475 38.0555C127.162 38.6444 125.941 40.1428 125.885 42.5666C125.837 44.6619 125.869 46.7612 125.861 48.8606C125.861 49.2452 125.821 49.6298 125.798 50.1306H121.968V34.1533H125.55C125.61 35.227 125.67 36.3007 125.734 37.4305C126.547 36.4529 127.205 35.4073 128.107 34.6541C129.024 33.8849 130.217 33.5523 131.597 33.7647V33.7687Z" fill="#212121"/>
<path d="M139.853 34.1975V50.1468H136.044V34.1975H139.853Z" fill="#212121"/>
<path d="M139.857 28.8251V32.1504C138.685 32.1504 137.608 32.1504 136.531 32.1504C136.495 32.1504 136.455 32.1504 136.427 32.1303C135.53 31.5454 136.056 30.648 135.996 29.8988C135.968 29.5583 136.323 28.8972 136.559 28.8732C137.624 28.761 138.708 28.8251 139.861 28.8251H139.857Z" fill="#212121"/>
<path d="M59.9921 30.0229C59.9921 36.3097 60.0073 42.5975 59.983 48.8843C59.9749 50.8936 59.3244 52.7308 58.2157 54.4022C57.8737 54.9181 57.5328 55.4432 57.1251 55.9066C55.6451 57.5901 53.8504 58.8021 51.7017 59.4911C50.5535 59.8594 49.3911 60.001 48.1892 60C35.7662 59.9889 23.3432 60.0081 10.9212 59.9747C9.1569 59.9696 7.49476 59.4041 5.99651 58.4399C5.13459 57.8855 4.26458 57.3301 3.54428 56.5925C2.30906 55.3289 1.31664 53.8761 0.681325 52.2371C0.259468 51.1525 0.00554518 49.9871 0.00554518 48.7983C0.00352189 36.2743 -0.0116528 23.7503 0.0186966 11.2262C0.0247665 8.89222 0.935248 6.84148 2.27568 4.93136C3.3632 3.38141 4.79266 2.29281 6.38195 1.35394C7.36123 0.775238 8.42548 0.451489 9.53121 0.199572C10.5489 -0.0321106 11.5687 0.00633455 12.5914 0.00532284C24.6938 0.0022877 36.7961 -0.0108646 48.8994 0.0204986C50.772 0.0255571 52.5211 0.603246 54.1165 1.63823C55.1231 2.29079 56.1357 2.93525 56.9026 3.86299C58.0063 5.19643 58.9946 6.60271 59.4974 8.30543C59.8282 9.42641 60.0022 10.5494 60.0002 11.7179C59.985 17.8196 59.9931 23.9212 59.9931 30.0229H59.9921ZM49.2505 40.4203C49.2505 38.1277 49.2474 35.8352 49.2535 33.5416C49.2535 33.2199 49.2232 32.9852 48.8033 32.9892C47.2859 33.0024 45.7684 32.9983 44.2519 32.9923C43.9646 32.9913 43.8614 33.1056 43.7856 33.3899C43.6004 34.0859 43.4001 34.785 43.1199 35.4477C42.2661 37.4711 41.0349 39.2447 39.3869 40.7015C37.2625 42.5803 34.8193 43.8156 31.9726 44.1252C29.2431 44.4216 26.5967 44.2071 24.0605 42.9668C21.844 41.8822 20.0372 40.3737 18.5814 38.406C17.4676 36.8995 16.7351 35.2191 16.2839 33.4111C16.2091 33.1106 16.0583 32.9913 15.7569 32.9933C14.2738 32.9994 12.7897 33.0024 11.3066 32.9933C10.8757 32.9902 10.7695 33.1825 10.8807 33.5639C10.9465 33.7905 11.0204 34.0151 11.0659 34.2458C11.5666 36.7508 12.5864 39.0393 14.0077 41.1467C15.3583 43.1489 17.0831 44.8051 19.0316 46.2113C20.4489 47.2342 22.0089 48.0193 23.676 48.5737C25.1642 49.0684 26.6695 49.4933 28.2477 49.549C30.9144 49.6421 33.5619 49.5996 36.1193 48.6475C37.2372 48.2317 38.3439 47.8119 39.3889 47.2352C40.8123 46.4511 42.0647 45.4374 43.2757 44.365C43.3971 44.2577 43.5063 44.0594 43.6905 44.1404C43.9009 44.2334 43.8179 44.4671 43.8199 44.6422C43.827 45.4849 43.82 46.3277 43.824 47.1704C43.827 47.7694 43.8887 47.8311 44.5008 47.8321C45.8493 47.8351 47.1978 47.8351 48.5464 47.8321C49.1898 47.8311 49.2474 47.7754 49.2484 47.1462C49.2505 44.9042 49.2484 42.6622 49.2484 40.4193L49.2505 40.4203ZM10.8099 19.5931H10.7927C10.7927 21.8857 10.7958 24.1772 10.7897 26.4698C10.7897 26.7884 10.7998 27.0201 11.2308 27.0151C12.7472 26.9969 14.2647 27.0029 15.7812 27.012C16.0664 27.0141 16.1949 26.92 16.2566 26.6276C16.547 25.2516 17.07 23.9506 17.8055 22.7659C20.2223 18.8738 23.5931 16.4072 28.2457 15.8387C31.4688 15.4451 34.4703 16.0157 37.2412 17.7002C39.2382 18.9153 40.867 20.5128 42.0799 22.5311C42.8488 23.81 43.4001 25.1697 43.7714 26.6053C43.8513 26.9139 43.9859 27.012 44.2883 27.01C45.7886 26.9999 47.2879 26.9989 48.7881 27.009C49.1655 27.011 49.2737 26.8623 49.1705 26.5143C49.0997 26.2725 49.0299 26.0276 48.9834 25.7808C48.5858 23.6987 47.7866 21.7653 46.7224 19.9482C45.2464 17.4281 43.2737 15.3642 40.8295 13.7565C39.5093 12.8885 38.1203 12.1631 36.6362 11.6006C34.9539 10.9642 33.228 10.5636 31.4384 10.4756C29.3301 10.3713 27.2441 10.4725 25.1794 11.03C23.6416 11.4448 22.195 12.0397 20.803 12.7843C19.3169 13.5795 17.9471 14.5426 16.726 15.7122C16.6198 15.8134 16.5025 15.9661 16.3426 15.9075C16.1474 15.8356 16.1949 15.6272 16.1939 15.4653C16.1899 14.5548 16.1767 13.6453 16.198 12.7347C16.2081 12.3138 16.0492 12.1762 15.6355 12.1813C14.2364 12.1995 12.8373 12.2056 11.4392 12.1783C10.9516 12.1692 10.7978 12.33 10.8018 12.8157C10.8221 15.0738 10.8109 17.3319 10.8109 19.5911L10.8099 19.5931Z" fill="#212121"/>
<path d="M49.2506 40.42C49.2506 42.6619 49.2516 44.9039 49.2506 47.1468C49.2506 47.7761 49.1919 47.8318 48.5485 47.8328C47.2 47.8348 45.8515 47.8358 44.503 47.8328C43.8909 47.8318 43.8292 47.7701 43.8262 47.1711C43.8221 46.3284 43.8292 45.4856 43.8221 44.6429C43.8211 44.4678 43.9041 44.2341 43.6926 44.141C43.5085 44.0591 43.3992 44.2584 43.2778 44.3656C42.0669 45.437 40.8135 46.4508 39.3911 47.2359C38.3461 47.8115 37.2383 48.2324 36.1215 48.6482C33.564 49.5992 30.9165 49.6427 28.2498 49.5497C26.6717 49.494 25.1663 49.0691 23.6782 48.5744C22.011 48.02 20.4511 47.2349 19.0337 46.212C17.0863 44.8057 15.3605 43.1496 14.0099 41.1474C12.5886 39.04 11.5678 36.7525 11.068 34.2465C11.0215 34.0158 10.9487 33.7902 10.8829 33.5646C10.7716 33.1832 10.8779 32.9909 11.3088 32.994C12.7919 33.0041 14.276 33.001 15.759 32.994C16.0595 32.993 16.2102 33.1113 16.2861 33.4118C16.7383 35.2197 17.4697 36.9002 18.5836 38.4066C20.0383 40.3744 21.8461 41.8829 24.0626 42.9675C26.5988 44.2078 29.2453 44.4213 31.9747 44.1259C34.8215 43.8173 37.2646 42.581 39.3891 40.7022C41.0371 39.2454 42.2672 37.4718 43.1221 35.4484C43.4013 34.7857 43.6026 34.0866 43.7877 33.3906C43.8636 33.1063 43.9668 32.9919 44.2541 32.993C45.7716 32.999 47.289 33.0041 48.8055 32.9899C49.2253 32.9859 49.2567 33.2206 49.2557 33.5423C49.2506 35.8349 49.2526 38.1274 49.2526 40.421L49.2506 40.42Z" fill="#259272"/>
<path d="M10.81 19.593C10.81 17.3349 10.8212 15.0757 10.8009 12.8176C10.7969 12.3319 10.9497 12.1711 11.4383 12.1802C12.8364 12.2065 14.2365 12.2014 15.6346 12.1832C16.0494 12.1781 16.2072 12.3157 16.1971 12.7366C16.1758 13.6461 16.189 14.5567 16.193 15.4672C16.193 15.6281 16.1465 15.8365 16.3417 15.9093C16.5016 15.968 16.6189 15.8153 16.7251 15.7141C17.9452 14.5445 19.315 13.5814 20.8021 12.7862C22.1951 12.0406 23.6408 11.4467 25.1785 11.0319C27.2432 10.4744 29.3292 10.3732 31.4375 10.4775C33.2271 10.5655 34.954 10.9651 36.6354 11.6025C38.1194 12.164 39.5084 12.8894 40.8286 13.7584C43.2728 15.365 45.2455 17.43 46.7215 19.9501C47.7857 21.7672 48.5849 23.7006 48.9825 25.7827C49.03 26.0305 49.0988 26.2744 49.1696 26.5162C49.2728 26.8652 49.1636 27.0139 48.7872 27.0109C47.287 27.0008 45.7877 27.0018 44.2874 27.0119C43.985 27.0139 43.8504 26.9148 43.7705 26.6072C43.3992 25.1716 42.8469 23.8119 42.079 22.533C40.8661 20.5137 39.2383 18.9162 37.2403 17.7021C34.4704 16.0176 31.4679 15.446 28.2448 15.8406C23.5932 16.4091 20.2214 18.8757 17.8046 22.7678C17.0681 23.9535 16.5461 25.2546 16.2557 26.6295C16.194 26.9219 16.0656 27.016 15.7803 27.0139C14.2638 27.0048 12.7463 26.9988 11.2299 27.017C10.7989 27.022 10.7878 26.7903 10.7888 26.4716C10.7949 24.1791 10.7918 21.8876 10.7918 19.595H10.809L10.81 19.593Z" fill="#F9A221"/>
</svg>
