<svg width="139" height="56" viewBox="0 0 139 56" fill="none" xmlns="http://www.w3.org/2000/svg">
<path d="M7.54432 52.8921C7.44909 53.1111 7.32149 53.3035 7.15579 53.4673C6.99199 53.6311 6.79963 53.7606 6.58061 53.8558C6.36158 53.9491 6.12542 53.9967 5.87592 53.9967H5.35216C5.10266 53.9967 4.8665 53.9491 4.64557 53.8558C4.42464 53.7625 4.23228 53.6311 4.06658 53.4673C3.90279 53.3035 3.77328 53.1111 3.67805 52.8921C3.58282 52.6731 3.53711 52.4369 3.53711 52.1874V48.2278C3.53711 47.9783 3.58472 47.7421 3.67805 47.5231C3.77137 47.3041 3.90088 47.1117 4.06658 46.9479C4.23037 46.7841 4.42464 46.6546 4.64557 46.5594C4.8665 46.4661 5.10266 46.4185 5.35216 46.4185H5.87592C6.12542 46.4185 6.36158 46.4661 6.58061 46.5594C6.79963 46.6546 6.99199 46.7841 7.15579 46.9479C7.31958 47.1117 7.44909 47.3041 7.54432 47.5231C7.63764 47.7421 7.68526 47.9783 7.68526 48.2278V52.1874C7.68526 52.4369 7.63764 52.6731 7.54432 52.8921ZM7.02247 48.2278C7.02247 48.064 6.99199 47.9097 6.92914 47.7669C6.86629 47.6241 6.78249 47.5003 6.67774 47.3936C6.57108 47.2869 6.44729 47.2031 6.30445 47.1422C6.1616 47.0812 6.00924 47.0489 5.84354 47.0489H5.38073C5.21694 47.0489 5.06267 47.0793 4.91982 47.1422C4.77698 47.2031 4.65319 47.2869 4.54463 47.3936C4.43607 47.5003 4.35226 47.6241 4.28941 47.7669C4.22656 47.9097 4.19609 48.0621 4.19609 48.2278V52.1874C4.19609 52.3512 4.22656 52.5055 4.28941 52.6483C4.35226 52.7911 4.43607 52.9149 4.54463 53.0235C4.65319 53.1321 4.77698 53.2159 4.91982 53.2787C5.06267 53.3397 5.21503 53.372 5.38073 53.372H5.84354C6.00733 53.372 6.1616 53.3416 6.30445 53.2787C6.44729 53.2178 6.57108 53.1321 6.67774 53.0235C6.7844 52.9149 6.8682 52.7911 6.92914 52.6483C6.99009 52.5055 7.02247 52.3531 7.02247 52.1874V48.2278Z" fill="#606161"/>
<path d="M12.243 53.05C12.163 53.2386 12.0525 53.4024 11.9116 53.5433C11.7706 53.6842 11.6068 53.7947 11.4183 53.8747C11.2297 53.9547 11.0298 53.9947 10.8164 53.9947H10.6565C10.4203 53.9947 10.2013 53.9471 9.99748 53.8499C9.79369 53.7528 9.62228 53.6195 9.47753 53.45V56.0002H8.84521V48.6257H9.05662L9.40135 49.1609C9.5461 48.9647 9.72513 48.8105 9.94415 48.6962C10.1613 48.5819 10.3993 48.5248 10.6565 48.5248H10.8164C11.0298 48.5248 11.2297 48.5648 11.4183 48.6448C11.6068 48.7248 11.7706 48.8352 11.9116 48.9762C12.0525 49.1171 12.163 49.2809 12.243 49.4694C12.323 49.658 12.363 49.858 12.363 50.0713V52.4463C12.363 52.6596 12.323 52.8596 12.243 53.0481V53.05ZM11.7306 50.037C11.7306 49.9094 11.7059 49.7913 11.6583 49.6789C11.6106 49.5685 11.5459 49.4714 11.4621 49.3875C11.3802 49.3057 11.2831 49.2409 11.1707 49.1914C11.0583 49.1438 10.9402 49.119 10.8126 49.119H10.3917C10.2641 49.119 10.146 49.1438 10.0337 49.1914C9.9213 49.239 9.82607 49.3037 9.74227 49.3875C9.66037 49.4694 9.59561 49.5666 9.5461 49.6789C9.49848 49.7894 9.47372 49.9094 9.47372 50.037V52.4844C9.47372 52.612 9.49848 52.7301 9.5461 52.8424C9.59371 52.9548 9.65846 53.05 9.74227 53.1338C9.82416 53.2157 9.9213 53.2805 10.0337 53.33C10.146 53.3795 10.2641 53.4024 10.3917 53.4024H10.8126C10.9402 53.4024 11.0583 53.3776 11.1707 53.33C11.2812 53.2824 11.3783 53.2176 11.4621 53.1338C11.5459 53.05 11.6087 52.9548 11.6583 52.8424C11.7059 52.732 11.7306 52.612 11.7306 52.4844V50.037Z" fill="#606161"/>
<path d="M16.8158 53.0501C16.7358 53.2386 16.6254 53.4024 16.4844 53.5434C16.3435 53.6843 16.1797 53.7948 15.9911 53.8748C15.8026 53.9548 15.6026 53.9947 15.3893 53.9947H14.9684C14.7551 53.9947 14.5551 53.9548 14.3665 53.8748C14.178 53.7948 14.0142 53.6843 13.8733 53.5434C13.7323 53.4024 13.6219 53.2386 13.5419 53.0501C13.4619 52.8615 13.4219 52.6615 13.4219 52.4482V50.0732C13.4219 49.8599 13.4619 49.6599 13.5419 49.4714C13.6219 49.2828 13.7323 49.1191 13.8733 48.9781C14.0142 48.8372 14.178 48.7267 14.3665 48.6467C14.5551 48.5667 14.7551 48.5267 14.9684 48.5267H15.3893C15.6026 48.5267 15.8026 48.5667 15.9911 48.6467C16.1797 48.7267 16.3435 48.8372 16.4844 48.9781C16.6254 49.1191 16.7358 49.2828 16.8158 49.4714C16.8958 49.6599 16.9358 49.8599 16.9358 50.0732V51.3131H14.0504V52.4863C14.0504 52.6139 14.0751 52.732 14.1228 52.8444C14.1704 52.9568 14.2351 53.052 14.3189 53.1358C14.4008 53.2177 14.498 53.2824 14.6103 53.332C14.7227 53.3815 14.8408 53.4043 14.9684 53.4043H15.3893C15.5169 53.4043 15.635 53.3796 15.7474 53.332C15.8578 53.2843 15.9549 53.2196 16.0388 53.1358C16.1226 53.052 16.1854 52.9568 16.2349 52.8444C16.2825 52.7339 16.3073 52.6139 16.3073 52.4863V52.1359L16.9396 52.2387V52.4501C16.9396 52.6635 16.8996 52.8634 16.8196 53.052L16.8158 53.0501ZM16.3035 50.0371C16.3035 49.9094 16.2787 49.7914 16.2311 49.679C16.1835 49.5685 16.1187 49.4714 16.0349 49.3876C15.953 49.3057 15.8559 49.241 15.7435 49.1914C15.6312 49.1438 15.5131 49.1191 15.3855 49.1191H14.9646C14.837 49.1191 14.7189 49.1438 14.6065 49.1914C14.4941 49.239 14.3989 49.3038 14.3151 49.3876C14.2332 49.4695 14.1685 49.5666 14.1189 49.679C14.0713 49.7895 14.0466 49.9094 14.0466 50.0371V50.8179H16.2978V50.0371H16.3035Z" fill="#606161"/>
<path d="M20.8741 53.8938V50.0371C20.8741 49.9094 20.8493 49.7914 20.8017 49.679C20.7541 49.5685 20.6894 49.4714 20.6055 49.3876C20.5237 49.3057 20.4265 49.241 20.3142 49.1914C20.2018 49.1438 20.0837 49.1191 19.9561 49.1191H19.5352C19.4076 49.1191 19.2895 49.1438 19.1771 49.1914C19.0648 49.239 18.9695 49.3038 18.8857 49.3876C18.8038 49.4695 18.7391 49.5666 18.6896 49.679C18.6419 49.7895 18.6172 49.9094 18.6172 50.0371V53.8938H17.9849V48.6277H18.1963L18.541 49.1629C18.6857 48.9667 18.8648 48.8124 19.0838 48.6981C19.3009 48.5839 19.539 48.5267 19.7961 48.5267H19.9561C20.1694 48.5267 20.3694 48.5667 20.5579 48.6467C20.7465 48.7267 20.9103 48.8372 21.0512 48.9781C21.1922 49.1191 21.3026 49.2828 21.3826 49.4714C21.4626 49.6599 21.5026 49.8599 21.5026 50.0732V53.8938H20.8703H20.8741Z" fill="#606161"/>
<path d="M28.7837 53.8938L25.7097 48.5248L25.6488 48.2068V53.8938H24.986V46.5212H25.3307L28.4047 51.894L28.4714 52.2083V46.5212H29.1342V53.8938H28.7837Z" fill="#606161"/>
<path d="M33.6926 53.0501C33.6126 53.2386 33.5022 53.4024 33.3612 53.5434C33.2203 53.6843 33.0565 53.7948 32.8679 53.8748C32.6794 53.9548 32.4794 53.9947 32.2661 53.9947H31.8452C31.6319 53.9947 31.4319 53.9548 31.2433 53.8748C31.0548 53.7948 30.891 53.6843 30.75 53.5434C30.6091 53.4024 30.4986 53.2386 30.4187 53.0501C30.3387 52.8615 30.2987 52.6615 30.2987 52.4482V50.0732C30.2987 49.8599 30.3387 49.6599 30.4187 49.4714C30.4986 49.2828 30.6091 49.1191 30.75 48.9781C30.891 48.8372 31.0548 48.7267 31.2433 48.6467C31.4319 48.5667 31.6319 48.5267 31.8452 48.5267H32.2661C32.4794 48.5267 32.6794 48.5667 32.8679 48.6467C33.0565 48.7267 33.2203 48.8372 33.3612 48.9781C33.5022 49.1191 33.6126 49.2828 33.6926 49.4714C33.7726 49.6599 33.8126 49.8599 33.8126 50.0732V51.3131H30.9272V52.4863C30.9272 52.6139 30.9519 52.732 30.9995 52.8444C31.0472 52.9568 31.1119 53.052 31.1957 53.1358C31.2776 53.2177 31.3747 53.2824 31.4871 53.332C31.5995 53.3815 31.7176 53.4043 31.8452 53.4043H32.2661C32.3937 53.4043 32.5118 53.3796 32.6241 53.332C32.7346 53.2843 32.8317 53.2196 32.9155 53.1358C32.9993 53.052 33.0622 52.9568 33.1117 52.8444C33.1593 52.7339 33.1841 52.6139 33.1841 52.4863V52.1359L33.8164 52.2387V52.4501C33.8164 52.6635 33.7764 52.8634 33.6964 53.052L33.6926 53.0501ZM33.1803 50.0371C33.1803 49.9094 33.1555 49.7914 33.1079 49.679C33.0603 49.5685 32.9955 49.4714 32.9117 49.3876C32.8298 49.3057 32.7327 49.241 32.6203 49.1914C32.508 49.1438 32.3899 49.1191 32.2623 49.1191H31.8414C31.7138 49.1191 31.5957 49.1438 31.4833 49.1914C31.3709 49.239 31.2757 49.3038 31.1919 49.3876C31.11 49.4695 31.0453 49.5666 30.9957 49.679C30.9481 49.7895 30.9234 49.9094 30.9234 50.0371V50.8179H33.1746V50.0371H33.1803Z" fill="#606161"/>
<path d="M36.7854 53.8937C36.593 53.8937 36.4121 53.8576 36.2426 53.7852C36.0731 53.7128 35.9264 53.6138 35.8007 53.4862C35.675 53.3586 35.576 53.2119 35.5017 53.0443C35.4274 52.8767 35.3912 52.6958 35.3912 52.5053V49.2295H34.4447V48.6276H35.3912V47.363L36.0236 47.2601V48.6276H37.3606V49.2295H36.0236V52.5358C36.0236 52.6424 36.0426 52.7415 36.0826 52.831C36.1226 52.9224 36.1759 53.0024 36.2445 53.0691C36.313 53.1376 36.393 53.191 36.4864 53.231C36.5797 53.2709 36.6787 53.29 36.7854 53.29H37.3606V53.8918H36.7854V53.8937Z" fill="#606161"/>
<path d="M42.745 53.8941H42.4003L41.1662 49.9249L41.1452 49.6526L41.1243 49.9249L39.8901 53.8941H39.5397L37.7817 48.6279H38.4236L39.6787 52.6085L39.6996 52.8808L39.7206 52.6085L40.9547 48.6279H41.3357L42.5641 52.6085L42.5851 52.8808L42.606 52.6085L43.8611 48.6279H44.503L42.745 53.8941Z" fill="#606161"/>
<path d="M48.4275 53.0501C48.3475 53.2386 48.237 53.4024 48.0961 53.5434C47.9551 53.6843 47.7913 53.7948 47.6028 53.8748C47.4142 53.9548 47.2143 53.9947 47.0009 53.9947H46.58C46.3667 53.9947 46.1667 53.9548 45.9782 53.8748C45.7896 53.7948 45.6259 53.6843 45.4849 53.5434C45.344 53.4024 45.2335 53.2386 45.1535 53.0501C45.0735 52.8615 45.0335 52.6615 45.0335 52.4482V50.0732C45.0335 49.8599 45.0735 49.6599 45.1535 49.4714C45.2335 49.2828 45.344 49.1191 45.4849 48.9781C45.6259 48.8372 45.7896 48.7267 45.9782 48.6467C46.1667 48.5667 46.3667 48.5267 46.58 48.5267H47.0009C47.2143 48.5267 47.4142 48.5667 47.6028 48.6467C47.7913 48.7267 47.9551 48.8372 48.0961 48.9781C48.237 49.1191 48.3475 49.2828 48.4275 49.4714C48.5075 49.6599 48.5475 49.8599 48.5475 50.0732V52.4482C48.5475 52.6615 48.5075 52.8615 48.4275 53.0501ZM47.9151 50.0371C47.9151 49.9094 47.8904 49.7914 47.8428 49.679C47.7952 49.5685 47.7304 49.4714 47.6466 49.3876C47.5647 49.3057 47.4676 49.241 47.3552 49.1914C47.2428 49.1438 47.1247 49.1191 46.9971 49.1191H46.5762C46.4486 49.1191 46.3305 49.1438 46.2182 49.1914C46.1058 49.239 46.0106 49.3038 45.9268 49.3876C45.8449 49.4695 45.7801 49.5666 45.7306 49.679C45.683 49.7895 45.6582 49.9094 45.6582 50.0371V52.4844C45.6582 52.612 45.683 52.7301 45.7306 52.8425C45.7782 52.9549 45.843 53.0501 45.9268 53.1339C46.0087 53.2158 46.1058 53.2805 46.2182 53.3301C46.3305 53.3796 46.4486 53.4024 46.5762 53.4024H46.9971C47.1247 53.4024 47.2428 53.3777 47.3552 53.3301C47.4657 53.2824 47.5628 53.2177 47.6466 53.1339C47.7304 53.0501 47.7932 52.9549 47.8428 52.8425C47.8904 52.732 47.9151 52.612 47.9151 52.4844V50.0371Z" fill="#606161"/>
<path d="M51.1514 49.2297C51.0238 49.2297 50.9057 49.2544 50.7933 49.3021C50.681 49.3497 50.5857 49.4144 50.5019 49.4982C50.42 49.5801 50.3553 49.6773 50.3058 49.7896C50.2582 49.9001 50.2334 50.0201 50.2334 50.1477V53.8959H49.6011V48.6298H49.8125L50.1572 49.1649C50.302 48.9688 50.481 48.8145 50.7 48.7002C50.9171 48.5859 51.1552 48.5288 51.4123 48.5288H51.7818V49.2335H51.1495L51.1514 49.2297Z" fill="#606161"/>
<path d="M52.6271 53.8938V46.5212H53.2594V53.8938H52.6271ZM55.5316 53.8938L53.3832 51.2617L55.5316 48.6296H56.3544L54.1546 51.2617L56.3544 53.8938H55.5316Z" fill="#606161"/>
<path d="M61.0089 47.1213C60.9022 47.1213 60.8032 47.1404 60.7137 47.1804C60.6223 47.2204 60.5423 47.2737 60.4737 47.3423C60.4052 47.4108 60.3518 47.4908 60.3118 47.5841C60.2718 47.6775 60.2528 47.7765 60.2528 47.8831V48.6278H61.4812V49.2297H60.2528V53.894H59.6205V49.2297H58.6701V48.6278H59.6205V47.9136C59.6205 47.7213 59.6567 47.5403 59.729 47.3708C59.8014 47.2013 59.9004 47.0528 60.028 46.9252C60.1557 46.7975 60.3023 46.6985 60.4699 46.6261C60.6375 46.5538 60.8184 46.5176 61.0089 46.5176H61.5898V47.1194H61.0089V47.1213Z" fill="#606161"/>
<path d="M65.4091 53.0501C65.3291 53.2386 65.2186 53.4024 65.0777 53.5434C64.9367 53.6843 64.773 53.7948 64.5844 53.8748C64.3958 53.9548 64.1959 53.9947 63.9826 53.9947H63.5616C63.3483 53.9947 63.1484 53.9548 62.9598 53.8748C62.7713 53.7948 62.6075 53.6843 62.4665 53.5434C62.3256 53.4024 62.2151 53.2386 62.1351 53.0501C62.0551 52.8615 62.0151 52.6615 62.0151 52.4482V50.0732C62.0151 49.8599 62.0551 49.6599 62.1351 49.4714C62.2151 49.2828 62.3256 49.1191 62.4665 48.9781C62.6075 48.8372 62.7713 48.7267 62.9598 48.6467C63.1484 48.5667 63.3483 48.5267 63.5616 48.5267H63.9826C64.1959 48.5267 64.3958 48.5667 64.5844 48.6467C64.773 48.7267 64.9367 48.8372 65.0777 48.9781C65.2186 49.1191 65.3291 49.2828 65.4091 49.4714C65.4891 49.6599 65.5291 49.8599 65.5291 50.0732V52.4482C65.5291 52.6615 65.4891 52.8615 65.4091 53.0501ZM64.8968 50.0371C64.8968 49.9094 64.872 49.7914 64.8244 49.679C64.7768 49.5685 64.712 49.4714 64.6282 49.3876C64.5463 49.3057 64.4492 49.241 64.3368 49.1914C64.2244 49.1438 64.1064 49.1191 63.9787 49.1191H63.5578C63.4302 49.1191 63.3122 49.1438 63.1998 49.1914C63.0874 49.239 62.9922 49.3038 62.9084 49.3876C62.8265 49.4695 62.7617 49.5666 62.7122 49.679C62.6646 49.7895 62.6398 49.9094 62.6398 50.0371V52.4844C62.6398 52.612 62.6646 52.7301 62.7122 52.8425C62.7598 52.9549 62.8246 53.0501 62.9084 53.1339C62.9903 53.2158 63.0874 53.2805 63.1998 53.3301C63.3122 53.3796 63.4302 53.4024 63.5578 53.4024H63.9787C64.1064 53.4024 64.2244 53.3777 64.3368 53.3301C64.4473 53.2824 64.5444 53.2177 64.6282 53.1339C64.712 53.0501 64.7749 52.9549 64.8244 52.8425C64.872 52.732 64.8968 52.612 64.8968 52.4844V50.0371Z" fill="#606161"/>
<path d="M68.1307 49.2297C68.0031 49.2297 67.885 49.2544 67.7727 49.3021C67.6603 49.3497 67.5651 49.4144 67.4813 49.4982C67.3994 49.5801 67.3346 49.6773 67.2851 49.7896C67.2375 49.9001 67.2127 50.0201 67.2127 50.1477V53.8959H66.5804V48.6298H66.7918L67.1365 49.1649C67.2813 48.9688 67.4603 48.8145 67.6793 48.7002C67.8965 48.5859 68.1345 48.5288 68.3917 48.5288H68.7611V49.2335H68.1288L68.1307 49.2297Z" fill="#606161"/>
<path d="M75.827 52.7892C75.7337 53.0082 75.6042 53.2006 75.4385 53.3643C75.2728 53.5281 75.0804 53.6577 74.8595 53.7529C74.6385 53.8462 74.4024 53.8938 74.1529 53.8938H71.8179V46.5212H74.1529C74.4024 46.5212 74.6385 46.5689 74.8595 46.6622C75.0804 46.7555 75.2728 46.885 75.4385 47.0507C75.6023 47.2145 75.7318 47.4088 75.827 47.6297C75.9222 47.8506 75.9679 48.0868 75.9679 48.3363V52.0845C75.9679 52.334 75.9203 52.5701 75.827 52.7892ZM75.3051 48.3363C75.3051 48.1725 75.2747 48.0182 75.2118 47.8754C75.1509 47.7325 75.0652 47.6088 74.9566 47.5002C74.848 47.3916 74.7243 47.3078 74.5814 47.245C74.4386 47.1821 74.2862 47.1517 74.1205 47.1517H72.4807V53.2596H74.1205C74.2843 53.2596 74.4386 53.2291 74.5814 53.1663C74.7243 53.1034 74.848 53.0215 74.9566 52.9149C75.0652 52.8082 75.149 52.6844 75.2118 52.5416C75.2728 52.3987 75.3051 52.2464 75.3051 52.0807V48.3325V48.3363Z" fill="#606161"/>
<path d="M77.0724 47.363V46.5193H77.8076V47.363H77.0724ZM77.1239 53.8938V48.6276H77.7562V53.8938H77.1239Z" fill="#606161"/>
<path d="M82.4702 55.1432C82.3902 55.3222 82.2798 55.4745 82.1388 55.6002C81.9979 55.7259 81.8341 55.825 81.6455 55.8955C81.457 55.9659 81.257 56.0002 81.0437 56.0002H80.7809C80.5676 56.0002 80.3676 55.964 80.179 55.8955C79.9905 55.825 79.8267 55.7259 79.6857 55.6002C79.5448 55.4745 79.4343 55.3203 79.3544 55.1432C79.2744 54.9641 79.2344 54.7699 79.2344 54.5565V54.5356C79.2344 54.3299 79.2725 54.1413 79.3467 53.9699C79.4229 53.7985 79.5258 53.65 79.6553 53.5224C79.4915 53.4233 79.3601 53.2881 79.2629 53.1186C79.1658 52.9491 79.1163 52.7605 79.1163 52.5548C79.1163 52.3701 79.1563 52.1968 79.2344 52.0387C79.3125 51.8806 79.421 51.7492 79.5581 51.6502C79.3943 51.5054 79.2629 51.334 79.1677 51.1302C79.0725 50.9283 79.023 50.7074 79.023 50.4674V50.0713C79.023 49.858 79.063 49.658 79.1429 49.4694C79.2229 49.2809 79.3334 49.1171 79.4743 48.9762C79.6153 48.8352 79.7791 48.7248 79.9676 48.6448C80.1562 48.5648 80.3562 48.5248 80.5695 48.5248H80.8323C81.0894 48.5248 81.3275 48.5819 81.5446 48.6962C81.7617 48.8105 81.9427 48.9666 82.0874 49.1609L82.4321 48.6257H82.6435V50.4674C82.6435 50.6807 82.6035 50.8807 82.5236 51.0693C82.4436 51.2578 82.3331 51.4216 82.1922 51.5626C82.0512 51.7035 81.8874 51.814 81.6989 51.894C81.5103 51.9739 81.3103 52.0139 81.097 52.0139H80.1809C80.1086 52.0139 80.04 52.0292 79.9752 52.0578C79.9105 52.0863 79.8533 52.1263 79.8038 52.1739C79.7543 52.2215 79.7162 52.2787 79.6877 52.3453C79.661 52.412 79.6458 52.4806 79.6458 52.5529C79.6458 52.6253 79.6591 52.6939 79.6877 52.7586C79.7143 52.8234 79.7543 52.8805 79.8038 52.93C79.8533 52.9796 79.9105 53.0177 79.9752 53.0462C80.04 53.0748 80.1086 53.0881 80.1809 53.0881H81.0456C81.2589 53.0881 81.4589 53.1243 81.6475 53.1929C81.836 53.2633 81.9998 53.3624 82.1407 53.4881C82.2817 53.6138 82.3921 53.7681 82.4721 53.9452C82.5521 54.1242 82.5921 54.3185 82.5921 54.5318V54.5527C82.5921 54.766 82.5521 54.9603 82.4721 55.1393L82.4702 55.1432ZM82.015 50.037C82.015 49.9094 81.9903 49.7913 81.9427 49.6789C81.895 49.5685 81.8284 49.4714 81.7446 49.3875C81.6608 49.3057 81.5636 49.2409 81.4513 49.1914C81.3389 49.1419 81.2208 49.119 81.0932 49.119H80.5695C80.4419 49.119 80.3238 49.1438 80.2114 49.1914C80.099 49.239 80.0038 49.3037 79.9219 49.3875C79.84 49.4714 79.7753 49.5666 79.7257 49.6789C79.6762 49.7913 79.6534 49.9094 79.6534 50.037V50.5055C79.6534 50.6331 79.6781 50.7512 79.7257 50.8636C79.7734 50.976 79.8381 51.0712 79.9219 51.155C80.0057 51.2388 80.1009 51.3016 80.2114 51.3512C80.3219 51.3988 80.4419 51.4235 80.5695 51.4235H81.0932C81.2208 51.4235 81.3389 51.3988 81.4513 51.3512C81.5617 51.3035 81.6608 51.2388 81.7446 51.155C81.8284 51.0731 81.895 50.976 81.9427 50.8636C81.9903 50.7531 82.015 50.6331 82.015 50.5055V50.037ZM81.9884 54.5051C81.9884 54.3775 81.9636 54.2651 81.916 54.1623C81.8684 54.0614 81.8036 53.9756 81.7198 53.9071C81.6379 53.8385 81.5408 53.7852 81.4303 53.7471C81.318 53.709 81.1999 53.69 81.0723 53.69H80.7485C80.6209 53.69 80.5028 53.709 80.3904 53.7471C80.28 53.7852 80.1828 53.8385 80.099 53.9071C80.0152 53.9756 79.9524 54.0614 79.9029 54.1623C79.8553 54.2632 79.8305 54.3775 79.8305 54.5051V54.587C79.8305 54.7146 79.8553 54.827 79.9029 54.926C79.9505 55.0251 80.0152 55.1108 80.099 55.1812C80.1809 55.2517 80.2781 55.305 80.3904 55.3431C80.5009 55.3812 80.6209 55.4003 80.7485 55.4003H81.0723C81.1999 55.4003 81.318 55.3812 81.4303 55.3431C81.5408 55.305 81.6379 55.2517 81.7198 55.1812C81.8017 55.1108 81.8665 55.027 81.916 54.926C81.9636 54.827 81.9884 54.7127 81.9884 54.587V54.5051Z" fill="#606161"/>
<path d="M83.7534 47.363V46.5193H84.4886V47.363H83.7534ZM83.8049 53.8938V48.6276H84.4372V53.8938H83.8049Z" fill="#606161"/>
<path d="M87.6197 53.8937C87.4273 53.8937 87.2464 53.8576 87.0769 53.7852C86.9074 53.7128 86.7607 53.6138 86.635 53.4862C86.5093 53.3586 86.4103 53.2119 86.336 53.0443C86.2617 52.8767 86.2255 52.6958 86.2255 52.5053V49.2295H85.279V48.6276H86.2255V47.363L86.8579 47.2601V48.6276H88.1949V49.2295H86.8579V52.5358C86.8579 52.6424 86.8769 52.7415 86.9169 52.831C86.9569 52.9224 87.0102 53.0024 87.0788 53.0691C87.1474 53.1357 87.2273 53.191 87.3207 53.231C87.414 53.2709 87.513 53.29 87.6197 53.29H88.1949V53.8918H87.6197V53.8937Z" fill="#606161"/>
<path d="M92.4541 53.894L92.1036 53.3702C91.9589 53.5588 91.7799 53.7111 91.5627 53.8254C91.3475 53.9397 91.1094 53.9968 90.8523 53.9968H90.6923C90.479 53.9968 90.2791 53.9568 90.0905 53.8768C89.902 53.7968 89.7382 53.6864 89.5972 53.5454C89.4563 53.4045 89.3458 53.2407 89.2658 53.0522C89.1858 52.8636 89.1458 52.6636 89.1458 52.4503V52.3989C89.1458 52.1856 89.1858 51.9856 89.2658 51.797C89.3458 51.6085 89.4563 51.4447 89.5972 51.3038C89.7382 51.1628 89.902 51.0524 90.0905 50.9724C90.2791 50.8924 90.479 50.8524 90.6923 50.8524H92.0294V50.0391C92.0294 49.9115 92.0046 49.7934 91.957 49.6811C91.9094 49.5706 91.8446 49.4735 91.7608 49.3897C91.6789 49.3078 91.5818 49.243 91.4694 49.1935C91.357 49.144 91.239 49.1211 91.1114 49.1211H90.7419C90.6143 49.1211 90.4962 49.1459 90.3838 49.1935C90.2714 49.2411 90.1762 49.3059 90.0924 49.3897C90.0105 49.4716 89.9458 49.5687 89.8962 49.6811C89.8467 49.7934 89.8239 49.9115 89.8239 50.0391V50.2296L89.1915 50.1267V50.0753C89.1915 49.862 89.2315 49.662 89.3115 49.4735C89.3915 49.2849 89.502 49.1211 89.6429 48.9802C89.7839 48.8393 89.9477 48.7288 90.1362 48.6488C90.3248 48.5688 90.5247 48.5288 90.7381 48.5288H91.1075C91.3208 48.5288 91.5208 48.5688 91.7094 48.6488C91.8979 48.7288 92.0617 48.8393 92.2027 48.9802C92.3436 49.1211 92.4541 49.2849 92.5341 49.4735C92.6141 49.662 92.6541 49.862 92.6541 50.0753V53.8959H92.4426L92.4541 53.894ZM92.0332 51.3438H90.6962C90.5686 51.3438 90.4505 51.3685 90.3381 51.4161C90.2257 51.4637 90.1305 51.5304 90.0486 51.6142C89.9667 51.698 89.902 51.7951 89.8524 51.9075C89.8029 52.0199 89.7801 52.138 89.7801 52.2656V52.4865C89.7801 52.6141 89.8048 52.7322 89.8524 52.8446C89.9 52.9569 89.9648 53.0522 90.0486 53.136C90.1305 53.2179 90.2276 53.2826 90.3381 53.3321C90.4486 53.3816 90.5686 53.4045 90.6962 53.4045H91.1171C91.2447 53.4045 91.3628 53.3797 91.4751 53.3321C91.5875 53.2845 91.6827 53.2198 91.7665 53.136C91.8503 53.0522 91.9132 52.9569 91.9627 52.8446C92.0103 52.7341 92.0351 52.6141 92.0351 52.4865V51.3457L92.0332 51.3438Z" fill="#606161"/>
<path d="M93.9299 53.8938V46.5212H94.5622V53.8938H93.9299Z" fill="#606161"/>
<path d="M102.15 52.8921C102.057 53.1111 101.927 53.3035 101.762 53.4673C101.596 53.6311 101.406 53.7606 101.187 53.8558C100.968 53.9491 100.733 53.9967 100.482 53.9967H99.9581C99.7086 53.9967 99.4725 53.9491 99.2515 53.8558C99.0306 53.7625 98.8382 53.6311 98.6725 53.4673C98.5088 53.3035 98.3793 53.1111 98.284 52.8921C98.1907 52.6731 98.1431 52.4369 98.1431 52.1874V48.2278C98.1431 47.9783 98.1907 47.7421 98.284 47.5231C98.3773 47.3041 98.5088 47.1117 98.6725 46.9479C98.8363 46.7841 99.0306 46.6546 99.2515 46.5594C99.4725 46.4661 99.7086 46.4185 99.9581 46.4185H100.482C100.731 46.4185 100.968 46.4661 101.187 46.5594C101.406 46.6546 101.598 46.7841 101.762 46.9479C101.926 47.1117 102.055 47.3041 102.15 47.5231C102.244 47.7421 102.291 47.9783 102.291 48.2278V48.5268L101.628 48.6297V48.2297C101.628 48.0659 101.598 47.9116 101.537 47.7688C101.476 47.626 101.39 47.5022 101.286 47.3955C101.181 47.2888 101.055 47.205 100.912 47.1441C100.769 47.0832 100.617 47.0508 100.451 47.0508H99.9886C99.8248 47.0508 99.6705 47.0813 99.5277 47.1441C99.3849 47.207 99.2611 47.2888 99.1525 47.3955C99.0439 47.5022 98.9601 47.626 98.8973 47.7688C98.8344 47.9116 98.804 48.064 98.804 48.2297V52.1893C98.804 52.3531 98.8344 52.5074 98.8973 52.6502C98.9601 52.793 99.0439 52.9168 99.1525 53.0254C99.2611 53.134 99.3849 53.2178 99.5277 53.2806C99.6705 53.3435 99.8229 53.3739 99.9886 53.3739H100.451C100.615 53.3739 100.769 53.3435 100.912 53.2806C101.055 53.2178 101.179 53.134 101.286 53.0254C101.392 52.9168 101.476 52.793 101.537 52.6502C101.598 52.5074 101.628 52.355 101.628 52.1893V51.7874L102.291 51.896V52.1893C102.291 52.4388 102.244 52.675 102.15 52.894V52.8921Z" fill="#606161"/>
<path d="M106.741 53.0501C106.661 53.2386 106.551 53.4024 106.41 53.5434C106.269 53.6843 106.105 53.7948 105.917 53.8748C105.728 53.9548 105.528 53.9947 105.315 53.9947H104.894C104.681 53.9947 104.481 53.9548 104.292 53.8748C104.104 53.7948 103.94 53.6843 103.799 53.5434C103.658 53.4024 103.547 53.2386 103.467 53.0501C103.387 52.8615 103.347 52.6615 103.347 52.4482V50.0732C103.347 49.8599 103.387 49.6599 103.467 49.4714C103.547 49.2828 103.658 49.1191 103.799 48.9781C103.94 48.8372 104.104 48.7267 104.292 48.6467C104.481 48.5667 104.681 48.5267 104.894 48.5267H105.315C105.528 48.5267 105.728 48.5667 105.917 48.6467C106.105 48.7267 106.269 48.8372 106.41 48.9781C106.551 49.1191 106.661 49.2828 106.741 49.4714C106.821 49.6599 106.861 49.8599 106.861 50.0732V52.4482C106.861 52.6615 106.821 52.8615 106.741 53.0501ZM106.229 50.0371C106.229 49.9094 106.204 49.7914 106.157 49.679C106.109 49.5685 106.044 49.4714 105.961 49.3876C105.879 49.3057 105.782 49.241 105.669 49.1914C105.557 49.1419 105.439 49.1191 105.311 49.1191H104.89C104.763 49.1191 104.645 49.1438 104.532 49.1914C104.42 49.239 104.325 49.3038 104.243 49.3876C104.161 49.4714 104.096 49.5666 104.046 49.679C103.997 49.7914 103.974 49.9094 103.974 50.0371V52.4844C103.974 52.612 103.999 52.7301 104.046 52.8425C104.094 52.9549 104.159 53.0501 104.243 53.1339C104.325 53.2158 104.422 53.2805 104.532 53.3301C104.643 53.3796 104.763 53.4024 104.89 53.4024H105.311C105.439 53.4024 105.557 53.3777 105.669 53.3301C105.782 53.2824 105.877 53.2177 105.961 53.1339C106.044 53.0501 106.107 52.9549 106.157 52.8425C106.204 52.732 106.229 52.612 106.229 52.4844V50.0371Z" fill="#606161"/>
<path d="M113.474 53.8938V50.0371C113.474 49.9094 113.45 49.7914 113.402 49.679C113.354 49.5685 113.29 49.4714 113.206 49.3876C113.124 49.3057 113.027 49.241 112.915 49.1914C112.802 49.1419 112.684 49.1191 112.556 49.1191H112.242C112.115 49.1191 111.997 49.1438 111.884 49.1914C111.772 49.239 111.675 49.3038 111.591 49.3876C111.507 49.4695 111.44 49.5666 111.393 49.679C111.345 49.7895 111.32 49.9094 111.32 50.0371V53.8938H110.694V50.0371C110.694 49.9094 110.669 49.7914 110.621 49.679C110.574 49.5666 110.507 49.4714 110.423 49.3876C110.34 49.3057 110.242 49.241 110.13 49.1914C110.018 49.1419 109.9 49.1191 109.772 49.1191H109.458C109.33 49.1191 109.212 49.1438 109.1 49.1914C108.987 49.239 108.892 49.3038 108.81 49.3876C108.728 49.4714 108.664 49.5666 108.614 49.679C108.565 49.7914 108.542 49.9094 108.542 50.0371V53.8938H107.909V48.6277H108.121L108.465 49.1629C108.61 48.9667 108.791 48.8124 109.008 48.6981C109.225 48.5839 109.463 48.5267 109.721 48.5267H109.772C110.071 48.5267 110.34 48.601 110.58 48.7477C110.82 48.8943 111.004 49.0905 111.136 49.3343C111.2 49.2143 111.28 49.1038 111.378 49.0048C111.473 48.9057 111.579 48.82 111.696 48.7496C111.812 48.6791 111.939 48.6239 112.077 48.5858C112.214 48.5458 112.357 48.5267 112.503 48.5267H112.555C112.768 48.5267 112.968 48.5667 113.156 48.6467C113.345 48.7267 113.509 48.8372 113.65 48.9781C113.791 49.1191 113.901 49.2828 113.981 49.4714C114.061 49.6599 114.101 49.8599 114.101 50.0732V53.8938H113.469H113.474Z" fill="#606161"/>
<path d="M120.719 53.8938V50.0371C120.719 49.9094 120.695 49.7914 120.647 49.679C120.599 49.5685 120.535 49.4714 120.451 49.3876C120.369 49.3057 120.272 49.241 120.16 49.1914C120.047 49.1419 119.929 49.1191 119.801 49.1191H119.487C119.36 49.1191 119.242 49.1438 119.129 49.1914C119.017 49.239 118.92 49.3038 118.836 49.3876C118.752 49.4695 118.685 49.5666 118.638 49.679C118.59 49.7895 118.565 49.9094 118.565 50.0371V53.8938H117.939V50.0371C117.939 49.9094 117.914 49.7914 117.866 49.679C117.819 49.5666 117.752 49.4714 117.668 49.3876C117.585 49.3057 117.487 49.241 117.375 49.1914C117.263 49.1419 117.145 49.1191 117.017 49.1191H116.703C116.575 49.1191 116.457 49.1438 116.345 49.1914C116.232 49.239 116.137 49.3038 116.055 49.3876C115.973 49.4714 115.909 49.5666 115.859 49.679C115.809 49.7914 115.787 49.9094 115.787 50.0371V53.8938H115.154V48.6277H115.366L115.71 49.1629C115.855 48.9667 116.036 48.8124 116.253 48.6981C116.47 48.5839 116.708 48.5267 116.966 48.5267H117.017C117.316 48.5267 117.585 48.601 117.825 48.7477C118.064 48.8943 118.249 49.0905 118.381 49.3343C118.445 49.2143 118.525 49.1038 118.623 49.0048C118.718 48.9057 118.824 48.82 118.941 48.7496C119.057 48.6791 119.184 48.6239 119.321 48.5858C119.459 48.5458 119.601 48.5267 119.748 48.5267H119.8C120.013 48.5267 120.213 48.5667 120.401 48.6467C120.59 48.7267 120.754 48.8372 120.895 48.9781C121.036 49.1191 121.146 49.2828 121.226 49.4714C121.306 49.6599 121.346 49.8599 121.346 50.0732V53.8938H120.714H120.719Z" fill="#606161"/>
<path d="M125.802 53.0501C125.722 53.2386 125.612 53.4024 125.471 53.5434C125.33 53.6843 125.166 53.7948 124.978 53.8748C124.789 53.9548 124.589 53.9947 124.376 53.9947H123.955C123.742 53.9947 123.542 53.9548 123.353 53.8748C123.164 53.7948 123.001 53.6843 122.86 53.5434C122.719 53.4024 122.608 53.2386 122.528 53.0501C122.448 52.8615 122.408 52.6615 122.408 52.4482V50.0732C122.408 49.8599 122.448 49.6599 122.528 49.4714C122.608 49.2828 122.719 49.1191 122.86 48.9781C123.001 48.8372 123.164 48.7267 123.353 48.6467C123.542 48.5667 123.742 48.5267 123.955 48.5267H124.376C124.589 48.5267 124.789 48.5667 124.978 48.6467C125.166 48.7267 125.33 48.8372 125.471 48.9781C125.612 49.1191 125.722 49.2828 125.802 49.4714C125.882 49.6599 125.922 49.8599 125.922 50.0732V51.3131H123.037V52.4863C123.037 52.6139 123.062 52.732 123.109 52.8444C123.157 52.9568 123.222 53.052 123.305 53.1358C123.387 53.2177 123.484 53.2824 123.595 53.332C123.705 53.3815 123.825 53.4043 123.953 53.4043H124.374C124.501 53.4043 124.62 53.3796 124.732 53.332C124.844 53.2843 124.94 53.2196 125.023 53.1358C125.107 53.052 125.17 52.9568 125.22 52.8444C125.267 52.7339 125.292 52.6139 125.292 52.4863V52.1359L125.924 52.2387V52.4501C125.924 52.6635 125.884 52.8634 125.804 53.052L125.802 53.0501ZM125.29 50.0371C125.29 49.9094 125.265 49.7914 125.218 49.679C125.17 49.5685 125.105 49.4714 125.021 49.3876C124.94 49.3057 124.842 49.241 124.73 49.1914C124.618 49.1419 124.5 49.1191 124.372 49.1191H123.951C123.823 49.1191 123.705 49.1438 123.593 49.1914C123.481 49.239 123.385 49.3038 123.304 49.3876C123.222 49.4714 123.157 49.5666 123.107 49.679C123.058 49.7914 123.035 49.9094 123.035 50.0371V50.8179H125.288V50.0371H125.29Z" fill="#606161"/>
<path d="M128.527 49.2297C128.399 49.2297 128.281 49.2544 128.169 49.3021C128.056 49.3497 127.961 49.4144 127.879 49.4982C127.797 49.582 127.732 49.6773 127.683 49.7896C127.633 49.902 127.611 50.0201 127.611 50.1477V53.8959H126.978V48.6298H127.19L127.534 49.1649C127.679 48.9688 127.86 48.8145 128.077 48.7002C128.294 48.5859 128.532 48.5288 128.789 48.5288H129.159V49.2335H128.527V49.2297Z" fill="#606161"/>
<path d="M133.186 53.0501C133.106 53.2386 132.996 53.4024 132.855 53.5434C132.714 53.6843 132.55 53.7948 132.362 53.8748C132.173 53.9548 131.973 53.9947 131.76 53.9947H131.339C131.126 53.9947 130.926 53.9548 130.737 53.8748C130.548 53.7948 130.385 53.6843 130.244 53.5434C130.103 53.4024 129.992 53.2386 129.912 53.0501C129.832 52.8615 129.792 52.6615 129.792 52.4482V50.0732C129.792 49.8599 129.832 49.6599 129.912 49.4714C129.992 49.2828 130.103 49.1191 130.244 48.9781C130.385 48.8372 130.548 48.7267 130.737 48.6467C130.926 48.5667 131.126 48.5267 131.339 48.5267H131.76C131.973 48.5267 132.173 48.5667 132.362 48.6467C132.55 48.7267 132.714 48.8372 132.855 48.9781C132.996 49.1191 133.106 49.2828 133.186 49.4714C133.266 49.6599 133.306 49.8599 133.306 50.0732V50.2847L132.674 50.3875V50.0371C132.674 49.9094 132.649 49.7914 132.602 49.679C132.554 49.5685 132.489 49.4714 132.405 49.3876C132.323 49.3057 132.226 49.241 132.114 49.1914C132.002 49.1419 131.884 49.1191 131.756 49.1191H131.335C131.207 49.1191 131.089 49.1438 130.977 49.1914C130.865 49.239 130.769 49.3038 130.687 49.3876C130.606 49.4714 130.541 49.5666 130.491 49.679C130.442 49.7914 130.419 49.9094 130.419 50.0371V52.4844C130.419 52.612 130.444 52.7301 130.491 52.8425C130.539 52.9549 130.604 53.0501 130.687 53.1339C130.769 53.2158 130.866 53.2805 130.977 53.3301C131.087 53.3796 131.207 53.4024 131.335 53.4024H131.756C131.884 53.4024 132.002 53.3777 132.114 53.3301C132.226 53.2824 132.322 53.2177 132.405 53.1339C132.489 53.0501 132.552 52.9549 132.602 52.8425C132.649 52.732 132.674 52.612 132.674 52.4844V52.134L133.306 52.2368V52.4482C133.306 52.6615 133.266 52.8615 133.186 53.0501Z" fill="#606161"/>
<path d="M137.757 53.0501C137.677 53.2386 137.567 53.4024 137.426 53.5434C137.285 53.6843 137.121 53.7948 136.933 53.8748C136.744 53.9548 136.544 53.9947 136.331 53.9947H135.91C135.696 53.9947 135.496 53.9548 135.308 53.8748C135.119 53.7948 134.956 53.6843 134.815 53.5434C134.674 53.4024 134.563 53.2386 134.483 53.0501C134.403 52.8615 134.363 52.6615 134.363 52.4482V50.0732C134.363 49.8599 134.403 49.6599 134.483 49.4714C134.563 49.2828 134.674 49.1191 134.815 48.9781C134.956 48.8372 135.119 48.7267 135.308 48.6467C135.496 48.5667 135.696 48.5267 135.91 48.5267H136.331C136.544 48.5267 136.744 48.5667 136.933 48.6467C137.121 48.7267 137.285 48.8372 137.426 48.9781C137.567 49.1191 137.677 49.2828 137.757 49.4714C137.837 49.6599 137.877 49.8599 137.877 50.0732V51.3131H134.992V52.4863C134.992 52.6139 135.017 52.732 135.064 52.8444C135.112 52.9568 135.177 53.052 135.26 53.1358C135.342 53.2177 135.439 53.2824 135.55 53.332C135.66 53.3815 135.78 53.4043 135.908 53.4043H136.329C136.456 53.4043 136.574 53.3796 136.687 53.332C136.799 53.2843 136.894 53.2196 136.978 53.1358C137.062 53.052 137.125 52.9568 137.174 52.8444C137.222 52.7339 137.247 52.6139 137.247 52.4863V52.1359L137.879 52.2387V52.4501C137.879 52.6635 137.839 52.8634 137.759 53.052L137.757 53.0501ZM137.245 50.0371C137.245 49.9094 137.22 49.7914 137.173 49.679C137.125 49.5685 137.06 49.4714 136.976 49.3876C136.894 49.3057 136.797 49.241 136.685 49.1914C136.573 49.1419 136.454 49.1191 136.327 49.1191H135.906C135.778 49.1191 135.66 49.1438 135.548 49.1914C135.436 49.239 135.34 49.3038 135.258 49.3876C135.177 49.4714 135.112 49.5666 135.062 49.679C135.013 49.7914 134.99 49.9094 134.99 50.0371V50.8179H137.243V50.0371H137.245Z" fill="#606161"/>
<path d="M16.7888 7.53845C21.8397 7.53845 25.9002 9.07353 28.9723 12.1456C32.0443 15.2177 33.5813 19.2782 33.5813 24.3291C33.5813 29.38 32.0386 33.4139 28.957 36.4974C25.8735 39.5809 21.8168 41.1217 16.7907 41.1217C11.7645 41.1217 7.73254 39.5752 4.63953 36.4803C1.54651 33.3872 0 29.3362 0 24.3291C0 19.322 1.5408 15.2443 4.62429 12.1627C7.70778 9.07925 11.7645 7.53845 16.7926 7.53845H16.7888ZM16.7888 14.2616C12.9282 14.2616 10.0485 15.7852 8.14774 18.8363C7.19546 20.3676 6.72122 22.1979 6.72122 24.3291C6.72122 26.2756 7.14784 28.0202 8.00109 29.561C8.89623 31.1798 10.1875 32.4083 11.8712 33.252C13.4024 34.0157 15.0404 34.3986 16.7907 34.3986C20.6493 34.3986 23.5309 32.8692 25.4317 29.8086C26.384 28.2887 26.8582 26.4641 26.8582 24.331C26.8582 21.139 25.8316 18.6364 23.7747 16.8213C21.8492 15.1167 19.5218 14.2635 16.7888 14.2635V14.2616Z" fill="#212121"/>
<path d="M133.782 31.5779L138.685 36.4803C136.717 38.4915 134.236 39.859 131.24 40.5808C129.775 40.9408 128.206 41.1217 126.534 41.1217C121.527 41.1217 117.477 39.5752 114.383 36.4803C111.29 33.3872 109.743 29.3362 109.743 24.3291C109.743 19.322 111.284 15.2443 114.367 12.1627C117.449 9.07925 121.506 7.53845 126.534 7.53845C131.562 7.53845 135.647 9.07353 138.719 12.1456L133.782 17.0822C131.859 15.2005 129.442 14.2616 126.534 14.2616C122.675 14.2616 119.795 15.7852 117.893 18.8363C116.942 20.3676 116.466 22.1979 116.466 24.3291C116.466 26.2756 116.895 28.0202 117.746 29.561C118.643 31.1798 119.932 32.4083 121.616 33.252C123.147 34.0157 124.787 34.3986 126.536 34.3986C129.444 34.3986 131.861 33.4596 133.784 31.5779H133.782Z" fill="#212121"/>
<path d="M86.4298 13.5434C86.9345 13.5434 87.344 13.1339 87.344 12.6292C87.344 12.1245 86.9345 11.7169 86.4298 11.7169C85.9251 11.7169 85.5156 12.1264 85.5156 12.6292C85.5156 13.132 85.9251 13.5434 86.4298 13.5434Z" fill="#939598"/>
<path d="M74.7126 23.7445C74.7126 23.853 74.9049 23.8549 74.9068 23.7445C74.9068 23.6892 74.8649 23.6473 74.8097 23.6473C74.7545 23.6473 74.7126 23.6892 74.7126 23.7445Z" fill="url(#paint0_linear_1074_11017)"/>
<path d="M101.845 12.1455C99.8584 10.161 97.4587 8.82205 94.6495 8.11926L92.9296 9.84099C93.2972 10.698 93.5029 11.6408 93.5029 12.6312C93.5029 13.3892 93.3829 14.1206 93.1601 14.8062C94.44 15.229 95.6036 15.8956 96.6473 16.8193C98.7024 18.6344 99.7289 21.137 99.7289 24.329C99.7289 26.4622 99.2547 28.2867 98.3024 29.8066C96.4017 32.8672 93.522 34.3966 89.6614 34.3966H79.5919V25.6489C78.832 27.5478 76.977 28.8924 74.8115 28.8924C74.1239 28.8924 73.4688 28.7552 72.8688 28.5115V41.1216H89.6614C94.6895 41.1216 98.7462 39.5808 101.828 36.4973C104.913 33.4138 106.452 29.359 106.452 24.329C106.452 19.2991 104.917 15.2176 101.847 12.1455H101.845Z" fill="#212121"/>
<path d="M91.3329 14.5818L86.8629 12.6753C86.6172 12.5705 86.3658 12.82 86.4725 13.0657L88.3789 17.5358C88.4266 17.6481 88.5389 17.7224 88.6665 17.7167C88.7903 17.711 88.8989 17.631 88.937 17.5129L89.5255 15.7283L91.3101 15.1398C91.4282 15.1017 91.51 14.9932 91.5139 14.8694C91.5196 14.7456 91.4472 14.6313 91.3329 14.5818ZM89.196 15.2084C89.1065 15.2388 89.036 15.3074 89.0055 15.3988L88.617 16.5759L87.3105 13.5133L90.373 14.8198L89.196 15.2084Z" fill="#939598"/>
<path d="M86.4294 9.33838C84.6144 9.33838 83.1364 10.8163 83.1364 12.6314C83.1364 14.4464 84.6144 15.9244 86.4294 15.9244C86.6675 15.9244 86.8617 15.7301 86.8617 15.492C86.8617 15.254 86.6675 15.0597 86.4294 15.0597C85.0905 15.0597 84.0011 13.9703 84.0011 12.6314C84.0011 11.2925 85.0905 10.2031 86.4294 10.2031C87.7683 10.2031 88.8577 11.2925 88.8577 12.6314C88.8577 12.8694 89.052 13.0637 89.2901 13.0637C89.5281 13.0637 89.7224 12.8694 89.7224 12.6314C89.7224 10.8163 88.2445 9.33838 86.4294 9.33838Z" fill="#939598"/>
<path d="M90.1164 8.94407C89.1279 7.9556 87.8176 7.41089 86.4292 7.41089C85.0407 7.41089 83.7304 7.9556 82.7419 8.94407C80.7097 10.9762 80.7097 14.2845 82.7419 16.3186C83.7304 17.307 85.0407 17.8517 86.4292 17.8517C86.6672 17.8517 86.8615 17.6575 86.8615 17.4194C86.8615 17.1813 86.6672 16.9871 86.4292 16.9871C84.0275 16.9871 82.0734 15.033 82.0734 12.6313C82.0734 10.2296 84.0275 8.27556 86.4292 8.27556C88.8308 8.27556 90.7849 10.2296 90.7849 12.6313C90.7849 12.8694 90.9792 13.0636 91.2172 13.0636C91.4553 13.0636 91.6496 12.8694 91.6496 12.6313C91.6496 11.2429 91.1049 9.93254 90.1164 8.94407Z" fill="#939598"/>
<path d="M35.6152 41.1216H42.3384V19.6133L55.7675 30.355V23.6586L35.6152 7.53833V41.1216Z" fill="#212121"/>
<path d="M79.3554 12.6311C79.3554 11.6408 79.5592 10.698 79.9286 9.84095L78.7554 8.66583C77.5079 8.79154 76.3423 8.33634 75.5024 7.53833H60.563V35.7412L67.2861 41.1197V14.2615H79.5477C79.4239 13.7377 79.3573 13.1911 79.3573 12.6311H79.3554Z" fill="#212121"/>
<path d="M94.5131 18.6915C94.1398 18.6915 93.7931 18.8001 93.4922 18.9772L91.7743 17.2593C91.5534 17.5145 91.3153 17.7526 91.0601 17.9735L92.778 19.6914C92.599 19.9923 92.4904 20.339 92.4904 20.7123C92.4904 21.8264 93.397 22.733 94.5112 22.733C95.6253 22.733 96.5319 21.8264 96.5319 20.7123C96.5319 19.5981 95.6253 18.6915 94.5112 18.6915H94.5131ZM94.5131 21.7217C93.955 21.7217 93.5036 21.2684 93.5036 20.7123C93.5036 20.1561 93.9569 19.7028 94.5131 19.7028C95.0692 19.7028 95.5225 20.1561 95.5225 20.7123C95.5225 21.2684 95.0692 21.7217 94.5131 21.7217Z" fill="#939598"/>
<path d="M96.533 0C94.8608 0 93.5029 1.35986 93.5029 3.03017C93.5029 3.55392 93.6362 4.0453 93.8704 4.47573L91.0612 7.28497C91.3164 7.5059 91.5545 7.74397 91.7754 7.99918L94.5028 5.27184C95.0399 5.75941 95.7522 6.06033 96.5349 6.06033C98.2071 6.06033 99.5651 4.70047 99.5651 3.03017C99.5651 1.35986 98.2052 0 96.5349 0H96.533ZM96.533 5.05091C95.4189 5.05091 94.5123 4.14434 94.5123 3.03017C94.5123 1.91599 95.4189 1.00942 96.533 1.00942C97.6472 1.00942 98.5538 1.91599 98.5538 3.03017C98.5538 4.14434 97.6472 5.05091 96.533 5.05091Z" fill="#939598"/>
<path d="M78.3471 6.56884C78.7204 6.56884 79.067 6.46028 79.3679 6.28315L81.0859 8.00107C81.3068 7.74586 81.5449 7.50779 81.8001 7.28686L80.0822 5.56894C80.2593 5.26802 80.3678 4.92329 80.3678 4.54809C80.3678 3.43392 79.4613 2.52734 78.3471 2.52734C77.2329 2.52734 76.3263 3.43392 76.3263 4.54809C76.3263 5.66226 77.2329 6.56884 78.3471 6.56884ZM78.3471 3.53867C78.9051 3.53867 79.3565 3.99196 79.3565 4.54809C79.3565 5.10422 78.9032 5.55751 78.3471 5.55751C77.791 5.55751 77.3377 5.10422 77.3377 4.54809C77.3377 3.99196 77.791 3.53867 78.3471 3.53867Z" fill="#939598"/>
<path d="M81.7996 17.9735C81.5444 17.7526 81.3063 17.5145 81.0854 17.2593L76.8439 21.5007C76.3049 21.0132 75.5945 20.7123 74.8118 20.7123C73.1395 20.7123 71.7816 22.0721 71.7816 23.7424C71.7816 25.4127 73.1414 26.7726 74.8118 26.7726C76.4821 26.7726 77.8419 25.4127 77.8419 23.7424C77.8419 23.2187 77.7086 22.7273 77.4743 22.2969L81.7996 17.9716V17.9735ZM74.8098 25.7632C73.6957 25.7632 72.7891 24.8566 72.7891 23.7424C72.7891 22.6283 73.6957 21.7217 74.8098 21.7217C75.924 21.7217 76.8306 22.6283 76.8306 23.7424C76.8306 24.8566 75.924 25.7632 74.8098 25.7632Z" fill="#939598"/>
<path d="M86.9349 21.7693V19.6838C86.7673 19.6953 86.5997 19.7029 86.4283 19.7029C86.2569 19.7029 86.0912 19.6953 85.9236 19.6838V21.7693C84.4933 22.0112 83.3981 23.2549 83.3981 24.7557C83.3981 26.4279 84.758 27.7859 86.4283 27.7859C88.0986 27.7859 89.4585 26.426 89.4585 24.7557C89.4585 23.2568 88.3633 22.0112 86.933 21.7693H86.9349ZM86.4283 26.7764C85.3141 26.7764 84.4075 25.8699 84.4075 24.7557C84.4075 23.6415 85.3141 22.735 86.4283 22.735C87.5425 22.735 88.449 23.6415 88.449 24.7557C88.449 25.8699 87.5425 26.7764 86.4283 26.7764Z" fill="#939598"/>
<defs>
<linearGradient id="paint0_linear_1074_11017" x1="74.4459" y1="23.6569" x2="75.0763" y2="23.7959" gradientUnits="userSpaceOnUse">
<stop stop-color="#1C75BC"/>
<stop offset="1" stop-color="#00AEEF"/>
</linearGradient>
</defs>
</svg>
