<svg width="428" height="781" viewBox="0 0 428 781" fill="none" xmlns="http://www.w3.org/2000/svg">
<g clip-path="url(#clip0_3067_1266)">
<path opacity="0.5" d="M368.115 534.512L316.977 711.5" stroke="#EBEBED" stroke-width="2" stroke-miterlimit="10"/>
<path opacity="0.5" d="M313.054 317.917L430.215 444.772" stroke="#EBEBED" stroke-width="2" stroke-miterlimit="10"/>
<path opacity="0.5" d="M430.77 445.603L367.065 532.02L463.453 574.674" stroke="#EBEBED" stroke-width="2" stroke-miterlimit="10"/>
<path opacity="0.5" d="M367.896 534.235L455.697 717.04" stroke="#EBEBED" stroke-width="2" stroke-miterlimit="10"/>
<path opacity="0.5" d="M283.978 646.5L367.896 532.851" stroke="#EBEBED" stroke-width="2" stroke-miterlimit="10"/>
<path opacity="0.5" d="M311.67 318.471L166.257 472.193L430.215 445.603L488.104 279.971" stroke="#EBEBED" stroke-width="2" stroke-miterlimit="10"/>
<path opacity="0.5" d="M477.577 2.7179L365.125 135.39L312.776 317.363L485.887 291.881" stroke="#EBEBED" stroke-width="2" stroke-miterlimit="10"/>
<path opacity="0.5" d="M324.412 -128.292L363.742 134.005L128.589 116.001L166.812 472.193L35.2483 442.556" stroke="#EBEBED" stroke-width="2" stroke-miterlimit="10"/>
<path opacity="0.5" d="M127.203 120.433L84.7695 41.7603L213.977 -13" stroke="#EBEBED" stroke-width="2" stroke-miterlimit="10"/>
<path opacity="0.5" d="M487.826 279.971L364.018 134.005L214.187 -13.2389L363.477 -211" stroke="#EBEBED" stroke-width="2" stroke-miterlimit="10"/>
<path opacity="0.5" d="M364.295 134.559L84.7701 41.7603L170.688 -134.662" stroke="#EBEBED" stroke-width="2" stroke-miterlimit="10"/>
<path opacity="0.5" d="M127.48 114.616L-45.016 50.426L85.657 42.0485L35.8013 -91.4541" stroke="#EBEBED" stroke-width="2" stroke-miterlimit="10"/>
<path d="M82.6104 41.7716C82.6104 43.6072 84.0985 45.0953 85.9341 45.0953C87.7697 45.0953 89.2578 43.6072 89.2578 41.7716C89.2578 39.936 87.7697 38.4479 85.9341 38.4479C84.0985 38.4479 82.6104 39.936 82.6104 41.7716Z" fill="white" stroke="#EBEBED" stroke-width="2" stroke-miterlimit="10"/>
<path d="M309.731 317.64C309.731 319.475 311.22 320.964 313.055 320.964C314.891 320.964 316.379 319.475 316.379 317.64C316.379 315.804 314.891 314.316 313.055 314.316C311.22 314.316 309.731 315.804 309.731 317.64Z" fill="white" stroke="#EBEBED" stroke-width="2" stroke-miterlimit="10"/>
<path opacity="0.5" d="M113.354 585.476L-1.03772 692.943" stroke="#EBEBED" stroke-width="2" stroke-miterlimit="10"/>
<path opacity="0.5" d="M36.6328 437.571L-45.0154 50.4263" stroke="#EBEBED" stroke-width="2" stroke-miterlimit="10"/>
<path opacity="0.5" d="M0.0708254 692.112L35.8008 440.894" stroke="#EBEBED" stroke-width="2" stroke-miterlimit="10"/>
<path opacity="0.5" d="M165.98 472.747L367.342 532.574L108.923 588.246L165.98 472.747Z" stroke="#EBEBED" stroke-width="2" stroke-miterlimit="10"/>
<path opacity="0.5" d="M111.693 587.692L37.1862 440.063L127.48 116.555" stroke="#EBEBED" stroke-width="2" stroke-miterlimit="10"/>
<path d="M162.933 472.193C162.933 474.028 164.421 475.517 166.256 475.517C168.092 475.517 169.58 474.028 169.58 472.193C169.58 470.357 168.092 468.869 166.256 468.869C164.421 468.869 162.933 470.357 162.933 472.193Z" fill="white" stroke="#EBEBED" stroke-width="2" stroke-miterlimit="10"/>
<path d="M280.999 646.324C280.999 648.159 282.487 649.647 284.323 649.647C286.158 649.647 287.646 648.159 287.646 646.324C287.646 644.488 286.158 643 284.323 643C282.487 643 280.999 644.488 280.999 646.324Z" fill="white" stroke="#EBEBED" stroke-width="2" stroke-miterlimit="10"/>
<path d="M312 710.5C312 712.985 314.015 715 316.5 715C318.985 715 321 712.985 321 710.5C321 708.015 318.985 706 316.5 706C314.015 706 312 708.015 312 710.5Z" fill="white" stroke="#EBEBED" stroke-width="2" stroke-miterlimit="10"/>
<rect x="144.1" y="99.3827" width="35.453" height="35.453" rx="17.7265" transform="rotate(90 144.1 99.3827)" fill="url(#paint0_radial_3067_1266)"/>
<rect x="61.0059" y="419.013" width="44.3162" height="44.3162" rx="22.1581" transform="rotate(90 61.0059 419.013)" fill="url(#paint1_radial_3067_1266)"/>
<rect x="124.711" y="574.674" width="26.5897" height="26.5897" rx="13.2949" transform="rotate(90 124.711 574.674)" fill="url(#paint2_radial_3067_1266)"/>
<rect x="419.967" y="456.128" width="22.1581" height="22.1581" rx="11.0791" transform="rotate(-90 419.967 456.128)" fill="url(#paint3_radial_3067_1266)"/>
<g filter="url(#filter0_f_3067_1266)">
<rect x="373.436" y="526.48" width="13.2949" height="13.2949" rx="6.64743" transform="rotate(90 373.436 526.48)" fill="url(#paint4_radial_3067_1266)"/>
</g>
<g filter="url(#filter1_f_3067_1266)">
<rect x="371.773" y="125.972" width="15.5107" height="15.5107" rx="7.75534" transform="rotate(90 371.773 125.972)" fill="url(#paint5_radial_3067_1266)"/>
</g>
<g filter="url(#filter2_f_3067_1266)">
<rect x="33.3086" y="664.968" width="70.9059" height="70.9059" rx="35.453" transform="rotate(90 33.3086 664.968)" fill="url(#paint6_radial_3067_1266)"/>
</g>
</g>
<defs>
<filter id="filter0_f_3067_1266" x="356.141" y="522.48" width="21.2949" height="21.2949" filterUnits="userSpaceOnUse" color-interpolation-filters="sRGB">
<feFlood flood-opacity="0" result="BackgroundImageFix"/>
<feBlend mode="normal" in="SourceGraphic" in2="BackgroundImageFix" result="shape"/>
<feGaussianBlur stdDeviation="2" result="effect1_foregroundBlur_3067_1266"/>
</filter>
<filter id="filter1_f_3067_1266" x="348.264" y="117.972" width="31.5098" height="31.5106" filterUnits="userSpaceOnUse" color-interpolation-filters="sRGB">
<feFlood flood-opacity="0" result="BackgroundImageFix"/>
<feBlend mode="normal" in="SourceGraphic" in2="BackgroundImageFix" result="shape"/>
<feGaussianBlur stdDeviation="4" result="effect1_foregroundBlur_3067_1266"/>
</filter>
<filter id="filter2_f_3067_1266" x="-53.5977" y="648.968" width="102.906" height="102.906" filterUnits="userSpaceOnUse" color-interpolation-filters="sRGB">
<feFlood flood-opacity="0" result="BackgroundImageFix"/>
<feBlend mode="normal" in="SourceGraphic" in2="BackgroundImageFix" result="shape"/>
<feGaussianBlur stdDeviation="8" result="effect1_foregroundBlur_3067_1266"/>
</filter>
<radialGradient id="paint0_radial_3067_1266" cx="0" cy="0" r="1" gradientUnits="userSpaceOnUse" gradientTransform="translate(193.829 81.6562) rotate(134.374) scale(61.5827)">
<stop offset="0.138616" stop-color="#2E8BFF"/>
<stop offset="1" stop-color="#0059C9"/>
</radialGradient>
<radialGradient id="paint1_radial_3067_1266" cx="0" cy="0" r="1" gradientUnits="userSpaceOnUse" gradientTransform="translate(123.168 396.855) rotate(134.374) scale(76.9783)">
<stop offset="0.138616" stop-color="#2E8BFF"/>
<stop offset="1" stop-color="#0059C9"/>
</radialGradient>
<radialGradient id="paint2_radial_3067_1266" cx="0" cy="0" r="1" gradientUnits="userSpaceOnUse" gradientTransform="translate(162.008 561.379) rotate(134.374) scale(46.187)">
<stop offset="0.138616" stop-color="#2E8BFF"/>
<stop offset="1" stop-color="#0059C9"/>
</radialGradient>
<radialGradient id="paint3_radial_3067_1266" cx="0" cy="0" r="1" gradientUnits="userSpaceOnUse" gradientTransform="translate(451.048 445.049) rotate(134.374) scale(38.4892)">
<stop offset="0.138616" stop-color="#2E8BFF"/>
<stop offset="1" stop-color="#0059C9"/>
</radialGradient>
<radialGradient id="paint4_radial_3067_1266" cx="0" cy="0" r="1" gradientUnits="userSpaceOnUse" gradientTransform="translate(392.084 519.833) rotate(134.374) scale(23.0935)">
<stop offset="0.138616" stop-color="#2E8BFF"/>
<stop offset="1" stop-color="#0059C9"/>
</radialGradient>
<radialGradient id="paint5_radial_3067_1266" cx="0" cy="0" r="1" gradientUnits="userSpaceOnUse" gradientTransform="translate(393.53 118.217) rotate(134.374) scale(26.9424)">
<stop offset="0.138616" stop-color="#2E8BFF"/>
<stop offset="1" stop-color="#0059C9"/>
</radialGradient>
<radialGradient id="paint6_radial_3067_1266" cx="0" cy="0" r="1" gradientUnits="userSpaceOnUse" gradientTransform="translate(132.767 629.515) rotate(134.374) scale(123.165)">
<stop offset="0.138616" stop-color="#2E8BFF"/>
<stop offset="1" stop-color="#0059C9"/>
</radialGradient>
<clipPath id="clip0_3067_1266">
<rect width="428" height="781" fill="white"/>
</clipPath>
</defs>
</svg>
