<svg width="1440" height="1105" viewBox="0 0 1440 1105" fill="none" xmlns="http://www.w3.org/2000/svg">
<g clip-path="url(#clip0_2377_1240)">
<mask id="mask0_2377_1240" style="mask-type:alpha" maskUnits="userSpaceOnUse" x="0" y="0" width="1440" height="1105">
<path d="M1440 0H0V1105H1440V0Z" fill="#D9D9D9"/>
</mask>
<g mask="url(#mask0_2377_1240)">
<path opacity="0.5" d="M194.883 655L237.383 823.5" stroke="#EBEBED" stroke-width="2" stroke-miterlimit="10"/>
<path opacity="0.5" d="M103.385 911.5L224.885 845.5" stroke="#EBEBED" stroke-width="2" stroke-miterlimit="10"/>
<path opacity="0.5" d="M-33.1172 904.5L102.883 912M102.883 912L-13.6172 1105M102.883 912L275.383 972" stroke="#EBEBED" stroke-width="2" stroke-miterlimit="10"/>
<path opacity="0.5" d="M195.383 655.5L103.383 913" stroke="#EBEBED" stroke-width="2" stroke-miterlimit="10"/>
<path opacity="0.5" d="M98.3828 699L102.883 913" stroke="#EBEBED" stroke-width="2" stroke-miterlimit="10"/>
<path opacity="0.5" d="M97.8828 701.5L-23.1172 873.5" stroke="#EBEBED" stroke-width="2" stroke-miterlimit="10"/>
<path opacity="0.5" d="M-48.1172 732L98.8828 699.5" stroke="#EBEBED" stroke-width="2" stroke-miterlimit="10"/>
<path opacity="0.5" d="M98.8828 699L-83.6172 609.5" stroke="#EBEBED" stroke-width="2" stroke-miterlimit="10"/>
<path opacity="0.5" d="M97.8828 698.5L-33.6172 530" stroke="#EBEBED" stroke-width="2" stroke-miterlimit="10"/>
<path opacity="0.5" d="M100.883 700.5L194.383 655" stroke="#EBEBED" stroke-width="2" stroke-miterlimit="10"/>
<path opacity="0.5" d="M196.383 653.5L345.999 561" stroke="#EBEBED" stroke-width="2" stroke-miterlimit="10"/>
<path opacity="0.5" d="M346 554C342.686 554 340 556.686 340 560C340 563.314 342.686 566 346 566C349.314 566 352 563.314 352 560C352 556.686 349.314 554 346 554Z" fill="white" stroke="#EBEBED" stroke-width="2" stroke-miterlimit="10"/>
<path opacity="0.5" d="M277 966C273.686 966 271 968.686 271 972C271 975.314 273.686 978 277 978C280.314 978 283 975.314 283 972C283 968.686 280.314 966 277 966Z" fill="white" stroke="#EBEBED" stroke-width="2" stroke-miterlimit="10"/>
<path opacity="0.5" d="M179.383 442L195.883 653.5" stroke="#EBEBED" stroke-width="2" stroke-miterlimit="10"/>
<path opacity="0.5" d="M196.883 656.5L-34.1172 526" stroke="#EBEBED" stroke-width="2" stroke-miterlimit="10"/>
<path opacity="0.5" d="M-34.6172 510.5L34.3828 426.5" stroke="#EBEBED" stroke-width="2" stroke-miterlimit="10"/>
<path d="M34.8828 436C40.4057 436 44.8828 431.523 44.8828 426C44.8828 420.477 40.4057 416 34.8828 416C29.36 416 24.8828 420.477 24.8828 426C24.8828 431.523 29.36 436 34.8828 436Z" fill="url(#paint0_radial_2377_1240)"/>
<path d="M198.885 444C198.885 432.954 189.93 424 178.885 424C167.839 424 158.885 432.954 158.885 444C158.885 455.046 167.839 464 178.885 464C189.93 464 198.885 455.046 198.885 444Z" fill="url(#paint1_radial_2377_1240)"/>
<path d="M92.2263 690.837C96.196 687.953 101.572 687.953 105.541 690.837C109.511 693.721 111.172 698.833 109.656 703.5C108.139 708.167 103.791 711.326 98.8837 711.326C93.9769 711.326 89.6281 708.167 88.1118 703.5C86.5955 698.833 88.2566 693.721 92.2263 690.837Z" fill="url(#paint2_radial_2377_1240)"/>
<path d="M97.3913 900.528C101.928 897.232 108.072 897.232 112.608 900.528C117.145 903.824 119.044 909.667 117.311 915C115.578 920.333 110.608 923.944 105 923.944C99.392 923.944 94.422 920.333 92.6891 915C90.9562 909.667 92.8545 903.824 97.3913 900.528Z" fill="url(#paint3_radial_2377_1240)"/>
<path opacity="0.5" d="M1251 450.001L1208.5 281.501" stroke="#EBEBED" stroke-width="2" stroke-miterlimit="10"/>
<path opacity="0.5" d="M1342.5 193.5L1221 259.5" stroke="#EBEBED" stroke-width="2" stroke-miterlimit="10"/>
<path opacity="0.5" d="M1479 200.5L1343 193M1343 193L1459.5 4.81497e-06M1343 193L1165.5 0" stroke="#EBEBED" stroke-width="2" stroke-miterlimit="10"/>
<path opacity="0.5" d="M1250.5 449.501L1342.5 192.001" stroke="#EBEBED" stroke-width="2" stroke-miterlimit="10"/>
<path opacity="0.5" d="M1347.5 406.001L1343 192.001" stroke="#EBEBED" stroke-width="2" stroke-miterlimit="10"/>
<path opacity="0.5" d="M1348 403.501L1469 231.501" stroke="#EBEBED" stroke-width="2" stroke-miterlimit="10"/>
<path opacity="0.5" d="M1494 373.001L1347 405.501" stroke="#EBEBED" stroke-width="2" stroke-miterlimit="10"/>
<path opacity="0.5" d="M1347 406.001L1529.5 495.501" stroke="#EBEBED" stroke-width="2" stroke-miterlimit="10"/>
<path opacity="0.5" d="M1348 406.501L1479.5 575.001" stroke="#EBEBED" stroke-width="2" stroke-miterlimit="10"/>
<path opacity="0.5" d="M1345 404.501L1251.5 450.001" stroke="#EBEBED" stroke-width="2" stroke-miterlimit="10"/>
<path opacity="0.5" d="M1249.5 451.501L1142 541.501" stroke="#EBEBED" stroke-width="2" stroke-miterlimit="10"/>
<path d="M1141 548C1144.31 548 1147 545.313 1147 542C1147 538.686 1144.31 536 1141 536C1137.69 536 1135 538.686 1135 542C1135 545.313 1137.69 548 1141 548Z" fill="white" stroke="#EBEBED" stroke-width="2" stroke-miterlimit="10"/>
<path d="M1189 772C1192.31 772 1195 769.314 1195 766C1195 762.686 1192.31 760 1189 760C1185.68 760 1183 762.686 1183 766C1183 769.314 1185.68 772 1189 772Z" fill="white" stroke="#EBEBED" stroke-width="2" stroke-miterlimit="10"/>
<path opacity="0.5" d="M1266.5 663.001L1250 451.501" stroke="#EBEBED" stroke-width="2" stroke-miterlimit="10"/>
<path opacity="0.5" d="M1249 448.501L1480 579.001" stroke="#EBEBED" stroke-width="2" stroke-miterlimit="10"/>
<path opacity="0.5" d="M1480.5 594.5L1392.5 718.499" stroke="#EBEBED" stroke-width="2" stroke-miterlimit="10"/>
<path d="M1247 661.001C1247 672.047 1255.95 681.001 1267 681.001C1278.05 681.001 1287 672.047 1287 661.001C1287 649.955 1278.05 641.001 1267 641.001C1255.95 641.001 1247 649.955 1247 661.001Z" fill="url(#paint4_radial_2377_1240)"/>
<path d="M1243.28 445.759C1240.92 449.492 1242.03 454.434 1245.76 456.798C1249.49 459.161 1254.44 458.051 1256.8 454.318C1259.16 450.585 1258.05 445.643 1254.32 443.279C1250.59 440.916 1245.64 442.026 1243.28 445.759Z" fill="url(#paint5_radial_2377_1240)"/>
<path d="M1194.14 260C1200.3 249.333 1215.7 249.333 1221.85 260C1228.01 270.667 1220.31 284 1208 284C1195.68 284 1187.98 270.667 1194.14 260Z" fill="url(#paint6_radial_2377_1240)"/>
<path d="M214.05 655.341L202.82 670.432L185 664.418L185.21 645.61L203.17 640L214.05 655.341Z" fill="url(#paint7_radial_2377_1240)"/>
<path d="M1399.88 712.034L1402.61 730.646L1385.76 738.994L1372.61 725.546L1381.34 708.879L1399.88 712.034Z" fill="url(#paint8_radial_2377_1240)"/>
<rect x="1361.28" y="383.398" width="39.2194" height="39.2194" transform="rotate(75 1361.28 383.398)" fill="url(#paint9_radial_2377_1240)"/>
<rect x="235.473" y="799" width="49" height="49" transform="rotate(53.6667 235.473 799)" fill="url(#paint10_radial_2377_1240)"/>
</g>
</g>
<defs>
<radialGradient id="paint0_radial_2377_1240" cx="0" cy="0" r="1" gradientUnits="userSpaceOnUse" gradientTransform="translate(52.9365 406) rotate(134.374) scale(34.7405)">
<stop offset="0.138616" stop-color="#2E8BFF"/>
<stop offset="1" stop-color="#0059C9"/>
</radialGradient>
<radialGradient id="paint1_radial_2377_1240" cx="0" cy="0" r="1" gradientUnits="userSpaceOnUse" gradientTransform="translate(214.992 404) rotate(134.374) scale(69.481)">
<stop offset="0.138616" stop-color="#2E8BFF"/>
<stop offset="1" stop-color="#0059C9"/>
</radialGradient>
<radialGradient id="paint2_radial_2377_1240" cx="0" cy="0" r="1" gradientUnits="userSpaceOnUse" gradientTransform="translate(124.159 672) rotate(134.374) scale(48.6367)">
<stop offset="0.138616" stop-color="#2E8BFF"/>
<stop offset="1" stop-color="#0059C9"/>
</radialGradient>
<radialGradient id="paint3_radial_2377_1240" cx="0" cy="0" r="1" gradientUnits="userSpaceOnUse" gradientTransform="translate(133.886 879) rotate(134.374) scale(55.5847)">
<stop offset="0.138616" stop-color="#2E8BFF"/>
<stop offset="1" stop-color="#0059C9"/>
</radialGradient>
<radialGradient id="paint4_radial_2377_1240" cx="0" cy="0" r="1" gradientUnits="userSpaceOnUse" gradientTransform="translate(1230.89 701.001) rotate(-45.626) scale(69.481)">
<stop offset="0.138616" stop-color="#2E8BFF"/>
<stop offset="1" stop-color="#0059C9"/>
</radialGradient>
<radialGradient id="paint5_radial_2377_1240" cx="0" cy="0" r="1" gradientUnits="userSpaceOnUse" gradientTransform="translate(1229.28 455.832) rotate(-13.286) scale(27.7924)">
<stop offset="0.138616" stop-color="#2E8BFF"/>
<stop offset="1" stop-color="#0059C9"/>
</radialGradient>
<radialGradient id="paint6_radial_2377_1240" cx="0" cy="0" r="1" gradientUnits="userSpaceOnUse" gradientTransform="translate(1265.77 204) rotate(134.374) scale(111.17)">
<stop offset="0.138616" stop-color="#2E8BFF"/>
<stop offset="1" stop-color="#0059C9"/>
</radialGradient>
<radialGradient id="paint7_radial_2377_1240" cx="0" cy="0" r="1" gradientUnits="userSpaceOnUse" gradientTransform="translate(229.72 684.406) rotate(-134.978) scale(55.5849)">
<stop offset="0.138616" stop-color="#2E8BFF"/>
<stop offset="1" stop-color="#0059C9"/>
</radialGradient>
<radialGradient id="paint8_radial_2377_1240" cx="0" cy="0" r="1" gradientUnits="userSpaceOnUse" gradientTransform="translate(1431.52 721.505) rotate(-179.978) scale(55.5849)">
<stop offset="0.138616" stop-color="#2E8BFF"/>
<stop offset="1" stop-color="#0059C9"/>
</radialGradient>
<radialGradient id="paint9_radial_2377_1240" cx="0" cy="0" r="1" gradientUnits="userSpaceOnUse" gradientTransform="translate(1416.29 363.789) rotate(134.374) scale(68.125)">
<stop offset="0.138616" stop-color="#2E8BFF"/>
<stop offset="1" stop-color="#0059C9"/>
</radialGradient>
<radialGradient id="paint10_radial_2377_1240" cx="0" cy="0" r="1" gradientUnits="userSpaceOnUse" gradientTransform="translate(304.204 774.5) rotate(134.374) scale(85.1142)">
<stop offset="0.138616" stop-color="#2E8BFF"/>
<stop offset="1" stop-color="#0059C9"/>
</radialGradient>
<clipPath id="clip0_2377_1240">
<rect width="1440" height="1105" fill="white"/>
</clipPath>
</defs>
</svg>
