<svg width="1440" height="1105" viewBox="0 0 1440 1105" fill="none" xmlns="http://www.w3.org/2000/svg">
<mask id="mask0_2340_966" style="mask-type:alpha" maskUnits="userSpaceOnUse" x="0" y="0" width="1440" height="1105">
<rect width="1440" height="1105" fill="#D9D9D9"/>
</mask>
<g mask="url(#mask0_2340_966)">
<rect width="1440" height="1461" transform="matrix(1 -8.74228e-08 -8.74228e-08 -1 0 2385)" fill="white"/>
<g filter="url(#filter0_f_2340_966)">
<g filter="url(#filter1_f_2340_966)">
<rect width="1048" height="538" transform="matrix(1 -8.74228e-08 -8.74228e-08 -1 -0.000976562 1794)" fill="#EBEBED"/>
</g>
</g>
<path opacity="0.5" d="M596 1092L512.282 1443.15L305.552 1524.4M596 1092L1139.5 539M596 1092L278 967.5L226 831" stroke="#EBEBED" stroke-width="2" stroke-miterlimit="10"/>
<path opacity="0.3" d="M1206.5 1996L919 2295.5L998.15 1789.75L1136.9 1557.25L1010.9 1098.25" stroke="#EBEBED" stroke-width="2" stroke-miterlimit="10"/>
<path opacity="0.5" d="M512.282 1443.15L278 967" stroke="#EBEBED" stroke-width="2" stroke-miterlimit="10"/>
<path opacity="0.5" d="M807.626 1578.45L740.846 1377.36L596 1092" stroke="#EBEBED" stroke-width="2" stroke-miterlimit="10"/>
<path opacity="0.5" d="M1141.5 537L740.847 1377.36L512.283 1443.15" stroke="#EBEBED" stroke-width="2" stroke-miterlimit="10"/>
<path opacity="0.5" d="M740.846 1377.36L1011.5 1096.5L1261 658.5L1390 716L278 966M278 966L305 1520L-63 1110L278 966Z" stroke="#EBEBED" stroke-width="2" stroke-miterlimit="10"/>
<path opacity="0.3" d="M1015.4 1099L1724.75 1250.55M1015.4 1099L1503.5 1486.9M1015.4 1099L1393 713L1607.75 962.5L1724.75 1250.55M2180.9 1348L1503.5 1486.9M2180.9 1348L1724.75 1250.55M2180.9 1348L1833.5 1685.5M1577 1961.5L1142.15 1561L1503.5 1486.9M1577 1961.5L1206.5 1996.75M1577 1961.5L1023.65 2200M1577 1961.5L1582.78 2082.55M1577 1961.5L1503.5 1486.9M1577 1961.5L1833.5 1685.5M1023.65 2200L518 2345.5M1023.65 2200L1230.5 2423.5M1023.65 2200L1582.78 2082.55M1589.75 2228.5L1994.75 1952.5M1589.75 2228.5L1582.78 2082.55M1589.75 2228.5L1798.25 2423.5H1230.5M1589.75 2228.5L1230.5 2423.5M1994.75 1952.5L1582.78 2082.55M1994.75 1952.5L1833.5 1685.5M1230.5 2423.5L1582.78 2082.55M1582.78 2082.55L1833.5 1685.5M1503.5 1486.9L1724.75 1250.55M1503.5 1486.9L1833.5 1685.5" stroke="#EBEBED" stroke-width="2" stroke-miterlimit="10"/>
<path opacity="0.5" d="M502.94 1925.55L415.784 2056.44L314.462 1887.19L385.634 1679.42L512.282 1443.15L807.626 1578.45L1011.65 1098.25" stroke="#EBEBED" stroke-width="2" stroke-miterlimit="10"/>
<path d="M595 1098.5C598.314 1098.5 601 1095.81 601 1092.5C601 1089.19 598.314 1086.5 595 1086.5C591.686 1086.5 589 1089.19 589 1092.5C589 1095.81 591.686 1098.5 595 1098.5Z" fill="white" stroke="#EBEBED" stroke-width="2" stroke-miterlimit="10"/>
<path d="M1012 1107.5C1016.97 1107.5 1021 1103.47 1021 1098.5C1021 1093.53 1016.97 1089.5 1012 1089.5C1007.03 1089.5 1003 1093.53 1003 1098.5C1003 1103.47 1007.03 1107.5 1012 1107.5Z" fill="white" stroke="#EBEBED" stroke-width="2" stroke-miterlimit="10"/>
<path opacity="0.5" d="M191.884 655L234.384 823.5" stroke="#EBEBED" stroke-width="2" stroke-miterlimit="10"/>
<path opacity="0.5" d="M100.384 911.5L221.884 845.5" stroke="#EBEBED" stroke-width="2" stroke-miterlimit="10"/>
<path opacity="0.5" d="M-36.1162 904.5L99.8838 912M99.8838 912L-16.6162 1105M99.8838 912L272.384 972" stroke="#EBEBED" stroke-width="2" stroke-miterlimit="10"/>
<path opacity="0.5" d="M192.384 655.5L100.384 913" stroke="#EBEBED" stroke-width="2" stroke-miterlimit="10"/>
<path opacity="0.5" d="M95.3838 699L99.8838 913" stroke="#EBEBED" stroke-width="2" stroke-miterlimit="10"/>
<path opacity="0.5" d="M94.8838 701.5L-26.1162 873.499" stroke="#EBEBED" stroke-width="2" stroke-miterlimit="10"/>
<path opacity="0.5" d="M-51.1162 731.999L95.8838 699.5" stroke="#EBEBED" stroke-width="2" stroke-miterlimit="10"/>
<path opacity="0.5" d="M95.8838 699L-86.6162 609.5" stroke="#EBEBED" stroke-width="2" stroke-miterlimit="10"/>
<path opacity="0.5" d="M94.8838 698.5L-36.6162 530" stroke="#EBEBED" stroke-width="2" stroke-miterlimit="10"/>
<path opacity="0.5" d="M97.8838 700.5L191.384 655" stroke="#EBEBED" stroke-width="2" stroke-miterlimit="10"/>
<path opacity="0.5" d="M193.384 653.499L343 561" stroke="#EBEBED" stroke-width="2" stroke-miterlimit="10"/>
<path opacity="0.5" d="M343 554C339.686 554 337 556.686 337 560C337 563.313 339.686 566 343 566C346.314 566 349 563.313 349 560C349 556.686 346.314 554 343 554Z" fill="white" stroke="#EBEBED" stroke-width="2" stroke-miterlimit="10"/>
<path opacity="0.5" d="M274 966C270.686 966 268 968.686 268 972C268 975.313 270.686 978 274 978C277.314 978 280 975.313 280 972C280 968.686 277.314 966 274 966Z" fill="white" stroke="#EBEBED" stroke-width="2" stroke-miterlimit="10"/>
<path opacity="0.5" d="M176.384 442L192.884 653.5" stroke="#EBEBED" stroke-width="2" stroke-miterlimit="10"/>
<path opacity="0.5" d="M193.884 656.5L-37.1162 526" stroke="#EBEBED" stroke-width="2" stroke-miterlimit="10"/>
<path opacity="0.5" d="M-37.6162 510.5L31.3838 426.5" stroke="#EBEBED" stroke-width="2" stroke-miterlimit="10"/>
<circle cx="31.8838" cy="426" r="10" fill="url(#paint0_radial_2340_966)"/>
<rect x="155.884" y="424" width="40" height="40" rx="20" fill="url(#paint1_radial_2340_966)"/>
<rect x="190.365" y="643.922" width="16" height="16" rx="8" transform="rotate(32.3397 190.365 643.922)" fill="url(#paint2_radial_2340_966)"/>
<path d="M89.2264 690.837C93.1961 687.952 98.5715 687.952 102.541 690.837C106.511 693.721 108.172 698.833 106.656 703.5C105.139 708.166 100.791 711.326 95.8838 711.326C90.977 711.326 86.6282 708.166 85.1119 703.5C83.5956 698.833 85.2567 693.721 89.2264 690.837Z" fill="url(#paint3_radial_2340_966)"/>
<path d="M94.3915 900.527C98.9284 897.231 105.072 897.231 109.608 900.527C114.145 903.824 116.044 909.666 114.311 915C112.578 920.333 107.608 923.944 102 923.944C96.3922 923.944 91.4222 920.333 89.6893 915C87.9564 909.666 89.8547 903.824 94.3915 900.527Z" fill="url(#paint4_radial_2340_966)"/>
<path d="M248.74 845C242.582 855.666 227.186 855.666 221.027 845C214.869 834.333 222.567 821 234.884 821C247.201 821 254.899 834.333 248.74 845Z" fill="url(#paint5_radial_2340_966)"/>
<path opacity="0.5" d="M1248 450.001L1205.5 281.501" stroke="#EBEBED" stroke-width="2" stroke-miterlimit="10"/>
<path opacity="0.5" d="M1339.5 193.5L1218 259.5" stroke="#EBEBED" stroke-width="2" stroke-miterlimit="10"/>
<path opacity="0.5" d="M1476 200.5L1340 193L1456.5 0.000123775" stroke="#EBEBED" stroke-width="2" stroke-miterlimit="10"/>
<path opacity="0.5" d="M1247.5 449.501L1339.5 192.001" stroke="#EBEBED" stroke-width="2" stroke-miterlimit="10"/>
<path opacity="0.5" d="M1344.5 406.001L1340 192.001" stroke="#EBEBED" stroke-width="2" stroke-miterlimit="10"/>
<path opacity="0.5" d="M1345 403.501L1466 231.501" stroke="#EBEBED" stroke-width="2" stroke-miterlimit="10"/>
<path opacity="0.5" d="M1491 373.001L1344 405.501" stroke="#EBEBED" stroke-width="2" stroke-miterlimit="10"/>
<path opacity="0.5" d="M1344 406.001L1526.5 495.501" stroke="#EBEBED" stroke-width="2" stroke-miterlimit="10"/>
<path opacity="0.5" d="M1345 406.501L1476.5 575.001" stroke="#EBEBED" stroke-width="2" stroke-miterlimit="10"/>
<path opacity="0.5" d="M1342 404.501L1248.5 450.001" stroke="#EBEBED" stroke-width="2" stroke-miterlimit="10"/>
<path opacity="0.5" d="M1246.5 451.501L1139 541.501" stroke="#EBEBED" stroke-width="2" stroke-miterlimit="10"/>
<path d="M1138 548C1141.31 548 1144 545.314 1144 542C1144 538.687 1141.31 536 1138 536C1134.69 536 1132 538.687 1132 542C1132 545.314 1134.69 548 1138 548Z" fill="white" stroke="#EBEBED" stroke-width="2" stroke-miterlimit="10"/>
<path d="M1206 764C1209.31 764 1212 761.314 1212 758C1212 754.686 1209.31 752 1206 752C1202.69 752 1200 754.686 1200 758C1200 761.314 1202.69 764 1206 764Z" fill="white" stroke="#EBEBED" stroke-width="2" stroke-miterlimit="10"/>
<path opacity="0.5" d="M1263.5 663.001L1247 451.501" stroke="#EBEBED" stroke-width="2" stroke-miterlimit="10"/>
<path opacity="0.5" d="M1246 448.501L1477 579.001" stroke="#EBEBED" stroke-width="2" stroke-miterlimit="10"/>
<path opacity="0.5" d="M1477.5 594.501L1389.5 718.5" stroke="#EBEBED" stroke-width="2" stroke-miterlimit="10"/>
<circle cx="1389" cy="718" r="10" transform="rotate(180 1389 718)" fill="url(#paint6_radial_2340_966)"/>
<rect x="1284" y="681" width="40" height="40" rx="20" transform="rotate(180 1284 681)" fill="url(#paint7_radial_2340_966)"/>
<rect x="1249.52" y="461.078" width="16" height="16" rx="8" transform="rotate(-147.66 1249.52 461.078)" fill="url(#paint8_radial_2340_966)"/>
<path d="M1350.66 414.164C1346.69 417.048 1341.31 417.048 1337.34 414.164C1333.37 411.28 1331.71 406.167 1333.23 401.501C1334.74 396.834 1339.09 393.674 1344 393.674C1348.91 393.674 1353.25 396.834 1354.77 401.501C1356.29 406.167 1354.63 411.28 1350.66 414.164Z" fill="url(#paint9_radial_2340_966)"/>
<path d="M1191.14 260C1197.3 249.333 1212.7 249.333 1218.86 260C1225.01 270.667 1217.32 284 1205 284C1192.68 284 1184.98 270.667 1191.14 260Z" fill="url(#paint10_radial_2340_966)"/>
</g>
<defs>
<filter id="filter0_f_2340_966" x="-850" y="856" width="3014.04" height="2501.95" filterUnits="userSpaceOnUse" color-interpolation-filters="sRGB">
<feFlood flood-opacity="0" result="BackgroundImageFix"/>
<feBlend mode="normal" in="SourceGraphic" in2="BackgroundImageFix" result="shape"/>
<feGaussianBlur stdDeviation="200" result="effect1_foregroundBlur_2340_966"/>
</filter>
<filter id="filter1_f_2340_966" x="-210.001" y="1046" width="1468" height="958" filterUnits="userSpaceOnUse" color-interpolation-filters="sRGB">
<feFlood flood-opacity="0" result="BackgroundImageFix"/>
<feBlend mode="normal" in="SourceGraphic" in2="BackgroundImageFix" result="shape"/>
<feGaussianBlur stdDeviation="105" result="effect1_foregroundBlur_2340_966"/>
</filter>
<radialGradient id="paint0_radial_2340_966" cx="0" cy="0" r="1" gradientUnits="userSpaceOnUse" gradientTransform="translate(49.9375 406) rotate(134.374) scale(34.7405)">
<stop offset="0.138616" stop-color="#2E8BFF"/>
<stop offset="1" stop-color="#0059C9"/>
</radialGradient>
<radialGradient id="paint1_radial_2340_966" cx="0" cy="0" r="1" gradientUnits="userSpaceOnUse" gradientTransform="translate(211.991 404) rotate(134.374) scale(69.481)">
<stop offset="0.138616" stop-color="#2E8BFF"/>
<stop offset="1" stop-color="#0059C9"/>
</radialGradient>
<radialGradient id="paint2_radial_2340_966" cx="0" cy="0" r="1" gradientUnits="userSpaceOnUse" gradientTransform="translate(212.808 635.922) rotate(134.374) scale(27.7924)">
<stop offset="0.138616" stop-color="#2E8BFF"/>
<stop offset="1" stop-color="#0059C9"/>
</radialGradient>
<radialGradient id="paint3_radial_2340_966" cx="0" cy="0" r="1" gradientUnits="userSpaceOnUse" gradientTransform="translate(121.159 672) rotate(134.374) scale(48.6367)">
<stop offset="0.138616" stop-color="#2E8BFF"/>
<stop offset="1" stop-color="#0059C9"/>
</radialGradient>
<radialGradient id="paint4_radial_2340_966" cx="0" cy="0" r="1" gradientUnits="userSpaceOnUse" gradientTransform="translate(130.886 879) rotate(134.374) scale(55.5848)">
<stop offset="0.138616" stop-color="#2E8BFF"/>
<stop offset="1" stop-color="#0059C9"/>
</radialGradient>
<radialGradient id="paint5_radial_2340_966" cx="0" cy="0" r="1" gradientUnits="userSpaceOnUse" gradientTransform="translate(177.112 901) rotate(-45.6262) scale(111.17)">
<stop offset="0.138616" stop-color="#2E8BFF"/>
<stop offset="1" stop-color="#0059C9"/>
</radialGradient>
<radialGradient id="paint6_radial_2340_966" cx="0" cy="0" r="1" gradientUnits="userSpaceOnUse" gradientTransform="translate(1407.05 698) rotate(134.374) scale(34.7405)">
<stop offset="0.138616" stop-color="#2E8BFF"/>
<stop offset="1" stop-color="#0059C9"/>
</radialGradient>
<radialGradient id="paint7_radial_2340_966" cx="0" cy="0" r="1" gradientUnits="userSpaceOnUse" gradientTransform="translate(1340.11 661) rotate(134.374) scale(69.481)">
<stop offset="0.138616" stop-color="#2E8BFF"/>
<stop offset="1" stop-color="#0059C9"/>
</radialGradient>
<radialGradient id="paint8_radial_2340_966" cx="0" cy="0" r="1" gradientUnits="userSpaceOnUse" gradientTransform="translate(1271.96 453.078) rotate(134.374) scale(27.7924)">
<stop offset="0.138616" stop-color="#2E8BFF"/>
<stop offset="1" stop-color="#0059C9"/>
</radialGradient>
<radialGradient id="paint9_radial_2340_966" cx="0" cy="0" r="1" gradientUnits="userSpaceOnUse" gradientTransform="translate(1318.72 433.001) rotate(-45.6262) scale(48.6367)">
<stop offset="0.138616" stop-color="#2E8BFF"/>
<stop offset="1" stop-color="#0059C9"/>
</radialGradient>
<radialGradient id="paint10_radial_2340_966" cx="0" cy="0" r="1" gradientUnits="userSpaceOnUse" gradientTransform="translate(1262.77 204) rotate(134.374) scale(111.17)">
<stop offset="0.138616" stop-color="#2E8BFF"/>
<stop offset="1" stop-color="#0059C9"/>
</radialGradient>
</defs>
</svg>
